<!DOCTYPE svg PUBLIC "-//W3C//DTD SVG 20010904//EN" "http://www.w3.org/TR/2001/REC-SVG-20010904/DTD/svg10.dtd">
<svg version="1.0" xmlns="http://www.w3.org/2000/svg" width="225px" height="225px" viewBox="0 0 2250 2250" preserveAspectRatio="xMidYMid meet">
<g id="layer101" fill="#990523" stroke="none">
<path d="M0 1125 l0 -1125 1125 0 1125 0 0 1125 0 1125 -1125 0 -1125 0 0 -1125z"/>
</g>
<g id="layer102" fill="#b10431" stroke="none">
<path d="M0 1125 l0 -1125 1125 0 1125 0 0 1125 0 1125 -1125 0 -1125 0 0 -1125z m1193 18 c-24 -2 -62 -2 -85 0 -24 2 -5 4 42 4 47 0 66 -2 43 -4z"/>
</g>
<g id="layer103" fill="#c40d36" stroke="none">
<path d="M0 1125 l0 -1125 1125 0 1125 0 0 1125 0 1125 -1125 0 -1125 0 0 -1125z m1068 88 c-10 -2 -28 -2 -40 0 -13 2 -5 4 17 4 22 1 32 -1 23 -4z m110 -40 c-46 -7 -32 -22 25 -26 28 -2 -6 -4 -78 -4 -78 0 -118 2 -100 7 22 6 25 8 10 10 -40 5 39 18 105 17 36 0 53 -2 38 -4z m59 -9 c-3 -3 -12 -4 -19 -1 -8 3 -5 6 6 6 11 1 17 -2 13 -5z"/>
</g>
<g id="layer104" fill="#ba0846" stroke="none">
<path d="M0 1125 l0 -1125 1125 0 1125 0 0 1125 0 1125 -1125 0 -1125 0 0 -1125z m1068 88 c-10 -2 -28 -2 -40 0 -13 2 -5 4 17 4 22 1 32 -1 23 -4z m169 -45 c39 -7 59 -15 51 -20 -19 -11 -308 -10 -308 2 0 26 155 37 257 18z"/>
</g>
<g id="layer105" fill="#af2c55" stroke="none">
<path d="M0 1125 l0 -1125 1125 0 1125 0 0 1125 0 1125 -1125 0 -1125 0 0 -1125z m1357 508 c-4 -3 -7 0 -7 7 0 7 3 10 7 7 3 -4 3 -10 0 -14z m30 10 c-4 -3 -10 -3 -14 0 -3 4 0 7 7 7 7 0 10 -3 7 -7z m-87 -353 c51 -4 0 -7 -155 -7 -126 0 -212 3 -190 7 52 9 249 9 345 0z m-87 -77 c-40 -2 -107 -2 -150 0 -43 1 -10 3 72 3 83 0 118 -2 78 -3z m31 -45 c38 -7 53 -14 44 -19 -18 -12 -308 -11 -308 0 0 29 159 40 264 19z"/>
</g>
<g id="layer106" fill="#c62c5c" stroke="none">
<path d="M0 1125 l0 -1125 1125 0 1125 0 0 1125 0 1125 -1125 0 -1125 0 0 -1125z m1090 773 c0 -5 26 -7 58 -6 l57 1 -50 7 c-44 6 -40 7 35 8 52 0 77 -3 65 -7 -16 -7 -10 -10 28 -16 26 -4 47 -11 47 -15 0 -4 15 -18 33 -30 17 -12 24 -19 15 -16 -14 4 -18 0 -18 -19 0 -29 16 -41 34 -26 11 9 15 6 18 -14 3 -14 1 -28 -4 -31 -6 -4 -5 -9 2 -14 9 -6 9 -12 -1 -29 -17 -26 -66 -28 -85 -3 -7 9 -14 12 -14 6 0 -19 49 -124 59 -124 5 0 16 17 24 38 9 20 16 31 16 23 1 -10 4 -11 15 -2 11 9 12 2 9 -41 -2 -37 0 -47 6 -33 15 36 25 -88 11 -140 -14 -52 -32 -69 -60 -62 -11 3 -20 0 -20 -6 0 -9 -2 -9 -8 0 -4 7 -26 15 -49 19 -23 3 -44 12 -46 18 -7 18 -63 18 -77 1 -7 -8 -19 -15 -27 -15 -9 0 -13 -6 -9 -15 4 -12 -3 -15 -32 -14 -35 0 -88 16 -67 19 32 6 -53 18 -127 19 -79 1 -88 3 -105 25 -17 21 -18 31 -10 90 7 45 15 66 24 66 8 0 13 7 11 16 -2 9 6 20 19 25 17 6 23 4 28 -12 11 -32 25 -22 51 37 24 56 29 100 5 56 -8 -15 -21 -22 -41 -22 -17 0 -30 4 -30 9 0 5 -7 17 -16 25 -14 15 -14 16 1 16 12 0 15 5 10 18 -4 9 -9 43 -11 74 -5 54 -4 57 23 72 17 9 22 16 13 17 -8 1 1 5 20 9 44 9 170 7 170 -2z m-210 -2 c0 -2 -7 -7 -16 -10 -8 -3 -12 -2 -9 4 6 10 25 14 25 6z m541 -239 c-10 -9 -11 -8 -5 6 3 10 9 15 12 12 3 -3 0 -11 -7 -18z m-541 -39 c0 -5 -11 -8 -25 -8 -29 0 -29 -1 -14 37 l11 28 13 -25 c8 -14 14 -28 15 -32z m46 16 c-3 -9 -6 -20 -6 -25 0 -17 -17 -1 -23 21 -4 15 0 20 15 20 14 0 18 -5 14 -16z m452 -9 c-8 -19 -14 -22 -20 -13 -14 22 -9 38 12 38 17 0 18 -3 8 -25z m-323 -293 c-3 -3 -11 0 -18 7 -9 10 -8 11 6 5 10 -3 15 -9 12 -12z m240 -41 c62 -6 29 -8 -150 -9 -129 -1 -224 2 -217 7 17 11 263 12 367 2z m-147 -38 c-10 -2 -28 -2 -40 0 -13 2 -5 4 17 4 22 1 32 -1 23 -4z m58 -44 c-43 -5 -110 -5 -150 0 -62 7 -51 8 79 8 136 0 143 0 71 -8z m59 -43 c37 -13 38 -15 15 -20 -14 -3 -95 -7 -180 -8 -85 -2 -147 -2 -137 0 9 2 17 7 17 12 0 29 212 41 285 16z"/>
<path d="M928 1883 c6 -2 18 -2 25 0 6 3 1 5 -13 5 -14 0 -19 -2 -12 -5z"/>
<path d="M908 1843 c7 -3 16 -2 19 1 4 3 -2 6 -13 5 -11 0 -14 -3 -6 -6z"/>
</g>
<g id="layer107" fill="#cf386a" stroke="none">
<path d="M0 1125 l0 -1125 1125 0 1125 0 0 1125 0 1125 -1125 0 -1125 0 0 -1125z m1270 775 c0 -14 68 -12 72 2 3 8 9 8 24 0 14 -8 15 -12 4 -12 -9 0 -11 -3 -4 -8 22 -15 54 -101 58 -157 2 -27 -29 -55 -60 -55 -15 0 -33 8 -40 18 -7 9 -14 12 -14 6 0 -19 49 -124 59 -124 5 0 19 25 31 56 13 30 26 52 31 47 4 -4 10 -35 13 -68 3 -33 10 -87 16 -120 5 -33 10 -77 10 -97 l0 -36 -62 -7 c-35 -4 -127 -5 -206 -3 -81 2 -143 -1 -145 -6 -2 -5 -9 -6 -15 -2 -7 4 -57 8 -112 8 -54 0 -108 2 -119 5 -27 7 -27 29 0 203 12 74 22 158 23 185 3 65 23 123 47 136 11 5 17 14 14 19 -7 12 30 15 218 17 97 2 157 -1 157 -7z m-390 -4 c0 -2 -7 -7 -16 -10 -8 -3 -12 -2 -9 4 6 10 25 14 25 6z m498 -271 c-8 -19 -14 -22 -20 -13 -14 22 -9 38 12 38 17 0 18 -3 8 -25z m-591 -92 c-4 -3 -7 0 -7 7 0 7 3 10 7 7 3 -4 3 -10 0 -14z m478 -234 c69 0 125 -5 125 -10 0 -5 -115 -9 -262 -9 -168 0 -259 3 -252 10 8 8 219 19 251 13 7 -1 69 -3 138 -4z m-117 -46 c-21 -2 -55 -2 -75 0 -21 2 -4 4 37 4 41 0 58 -2 38 -4z m142 -43 c-17 -12 -284 -10 -302 2 -7 4 61 8 152 8 114 0 160 -3 150 -10z m-19 -41 c20 -7 35 -17 33 -23 -3 -8 -59 -10 -182 -9 -97 1 -179 2 -182 3 -3 1 13 10 35 21 31 14 63 19 149 19 60 0 126 -5 147 -11z"/>
</g>
<g id="layer108" fill="#b0546f" stroke="none">
<path d="M0 1125 l0 -1125 1125 0 1125 0 0 1125 0 1125 -1125 0 -1125 0 0 -1125z m1389 756 c29 -33 38 -68 56 -216 18 -141 20 -159 34 -250 5 -33 6 -65 4 -72 -4 -10 -28 -12 -93 -9 -73 3 -88 2 -83 -10 3 -8 16 -14 28 -14 13 0 30 -3 39 -6 48 -18 -8 -24 -244 -24 -158 0 -260 4 -260 10 0 5 16 12 35 16 50 9 38 28 -22 34 -31 3 -49 2 -46 -4 4 -5 -4 -6 -18 -3 -13 4 -30 7 -38 7 -10 0 -12 9 -7 35 4 19 9 50 11 68 2 17 9 70 15 117 6 47 15 126 20 177 6 71 13 100 31 124 13 18 17 29 9 24 -8 -5 -11 -4 -7 2 3 5 25 10 48 11 23 1 44 4 46 6 2 2 98 3 213 2 206 -1 209 -1 229 -25z m-602 -348 c-4 -3 -7 0 -7 7 0 7 3 10 7 7 3 -4 3 -10 0 -14z m391 -280 c-21 -2 -38 -8 -38 -14 0 -5 -18 -9 -40 -9 -22 0 -40 4 -40 9 0 5 -10 12 -22 14 -13 2 22 4 77 4 55 0 83 -2 63 -4z m137 -43 c-29 -12 -342 -12 -350 0 -4 7 59 10 182 9 114 0 180 -4 168 -9z m-26 -44 c60 -21 18 -29 -165 -28 -96 0 -177 1 -181 2 -5 0 3 10 16 20 21 18 38 20 160 19 81 0 150 -6 170 -13z"/>
<path d="M850 1690 c0 -17 54 -120 63 -120 11 0 59 109 54 124 -2 6 -9 1 -16 -12 -16 -29 -67 -31 -76 -2 -6 20 -25 28 -25 10z m76 -56 c-3 -9 -6 -20 -6 -25 0 -17 -17 -1 -23 21 -4 15 0 20 15 20 14 0 18 -5 14 -16z"/>
<path d="M1050 1635 c0 -37 4 -65 10 -65 6 0 10 28 10 65 0 37 -4 65 -10 65 -6 0 -10 -28 -10 -65z"/>
<path d="M1150 1641 c0 -33 5 -63 10 -66 6 -4 10 15 10 49 l0 56 36 0 c21 0 33 4 29 10 -3 6 -24 10 -46 10 l-39 0 0 -59z"/>
<path d="M1310 1694 c0 -19 49 -124 58 -124 11 0 64 122 56 129 -3 3 -11 -2 -18 -12 -17 -22 -65 -22 -82 1 -7 9 -14 12 -14 6z m68 -69 c-8 -19 -14 -22 -20 -13 -14 22 -9 38 12 38 17 0 18 -3 8 -25z"/>
</g>
<g id="layer109" fill="#d24d77" stroke="none">
<path d="M0 1125 l0 -1125 1125 0 1125 0 0 1125 0 1125 -1125 0 -1125 0 0 -1125z m1386 758 c30 -30 40 -67 59 -218 18 -141 20 -159 34 -250 5 -33 6 -65 4 -72 -4 -10 -28 -12 -93 -9 -73 3 -88 2 -83 -10 3 -8 16 -14 28 -14 13 0 30 -3 39 -6 48 -18 -8 -24 -244 -24 -158 0 -260 4 -260 10 0 5 16 12 35 16 50 9 38 28 -22 34 -31 3 -49 2 -46 -4 4 -5 -4 -6 -18 -3 -13 4 -30 7 -38 7 -10 0 -12 9 -7 35 4 19 9 50 11 68 2 17 9 70 15 117 6 47 15 126 20 177 6 71 13 100 31 124 13 18 17 29 9 24 -8 -5 -11 -4 -7 2 3 5 25 10 48 11 23 1 45 4 47 7 3 3 98 4 211 3 197 -2 205 -3 227 -25z m-599 -350 c-4 -3 -7 0 -7 7 0 7 3 10 7 7 3 -4 3 -10 0 -14z m401 -280 c-27 -2 -48 -8 -48 -14 0 -5 -18 -9 -40 -9 -22 0 -40 4 -40 9 0 5 -10 12 -22 14 -13 2 27 4 87 4 61 0 89 -2 63 -4z m127 -43 c-29 -12 -342 -12 -350 0 -4 7 59 10 182 9 114 0 180 -4 168 -9z m-26 -44 c26 -9 31 -15 21 -21 -16 -10 -370 -13 -370 -3 0 4 10 14 22 22 28 20 274 21 327 2z"/>
</g>
<g id="layer110" fill="#e04d7c" stroke="none">
<path d="M0 1125 l0 -1125 1125 0 1125 0 0 1125 0 1125 -1125 0 -1125 0 0 -1125z m1373 774 c39 -21 60 -81 71 -204 9 -98 29 -245 37 -278 6 -21 8 -51 4 -66 -5 -22 -11 -28 -35 -28 -16 0 -28 3 -26 6 2 3 -24 7 -59 7 -50 1 -62 -1 -58 -12 3 -8 18 -15 34 -15 48 -2 52 -4 57 -16 3 -10 -55 -13 -268 -13 -171 0 -269 4 -265 10 3 5 21 12 41 16 49 9 37 28 -23 34 -35 4 -49 2 -46 -6 3 -8 -5 -9 -32 0 -35 11 -36 12 -29 51 10 57 12 77 24 205 25 272 37 307 102 313 85 8 453 5 471 -4z m-586 -366 c-4 -3 -7 0 -7 7 0 7 3 10 7 7 3 -4 3 -10 0 -14z m407 -270 c65 -5 68 -6 45 -19 -48 -27 -239 -12 -239 18 0 8 101 9 194 1z m-251 -20 c-7 -2 -21 -2 -30 0 -10 3 -4 5 12 5 17 0 24 -2 18 -5z m372 -33 c-29 -12 -342 -12 -350 0 -4 7 59 10 182 9 114 0 180 -4 168 -9z m-14 -43 c36 -26 2 -32 -178 -32 -140 0 -183 3 -183 12 0 7 14 19 32 26 42 17 303 12 329 -6z"/>
<path d="M1273 1333 c4 -3 10 -3 14 0 3 4 0 7 -7 7 -7 0 -10 -3 -7 -7z"/>
</g>
<g id="layer111" fill="#d95b85" stroke="none">
<path d="M0 1125 l0 -1125 1125 0 1125 0 0 1125 0 1125 -1125 0 -1125 0 0 -1125z m1384 764 c39 -31 44 -51 87 -382 14 -103 19 -171 13 -177 -5 -5 -30 -10 -57 -11 -32 -2 -44 -6 -37 -13 5 -5 10 -14 10 -18 0 -4 -122 -8 -272 -8 -212 0 -269 3 -260 12 19 19 15 23 -30 26 -66 4 -72 14 -63 102 4 41 9 93 11 115 10 111 44 306 58 333 20 38 26 39 308 39 188 1 210 -1 232 -18z m-189 -626 c39 -3 64 -8 57 -10 -6 -3 -10 -9 -6 -14 3 -5 -41 -9 -106 -9 -83 0 -115 4 -126 14 -8 8 -14 17 -14 20 0 7 111 7 195 -1z m-252 -20 c-7 -2 -21 -2 -30 0 -10 3 -4 5 12 5 17 0 24 -2 18 -5z m402 -33 c-16 -4 -113 -8 -215 -8 -102 0 -198 4 -215 8 -16 4 80 8 215 8 135 0 232 -4 215 -8z m-44 -43 c10 -7 15 -17 11 -22 -8 -12 -372 -14 -372 -2 0 4 0 10 0 15 0 4 14 12 32 18 43 14 305 7 329 -9z"/>
</g>
<g id="layer112" fill="#d76e8f" stroke="none">
<path d="M0 1125 l0 -1125 1125 0 1125 0 0 1125 0 1125 -1125 0 -1125 0 0 -1125z m1395 752 c25 -26 34 -46 43 -102 22 -128 54 -425 48 -440 -3 -10 -19 -15 -46 -15 -33 0 -40 -3 -40 -20 0 -20 -7 -20 -271 -20 -236 0 -270 2 -265 15 3 10 -2 16 -17 19 -81 17 -77 13 -77 59 0 23 7 101 16 172 9 72 17 145 19 163 7 72 18 119 36 154 23 45 20 45 308 46 l214 1 32 -32z m-90 -617 c-29 -7 -29 -8 10 -10 29 -2 33 -4 15 -7 -52 -9 -44 -23 14 -23 91 0 57 -16 -41 -19 -95 -3 -143 -21 -56 -21 50 0 79 -16 65 -35 -9 -13 -365 -13 -374 0 -4 6 -8 13 -8 16 0 11 74 29 130 32 40 2 30 4 -35 6 -116 4 -178 18 -87 20 48 1 62 4 62 16 0 9 -10 20 -22 25 -15 6 44 9 167 8 108 0 177 -4 160 -8z m-337 -17 c-16 -2 -40 -2 -55 0 -16 2 -3 4 27 4 30 0 43 -2 28 -4z m419 -10 c-4 -3 -10 -3 -14 0 -3 4 0 7 7 7 7 0 10 -3 7 -7z"/>
<path d="M1405 1680 c-8 -25 -75 -30 -75 -5 0 8 -4 15 -10 15 -15 0 -12 -9 19 -70 l29 -54 31 61 c17 34 27 65 22 68 -5 3 -12 -4 -16 -15z m-15 -38 c0 -5 -6 -16 -13 -26 -12 -17 -14 -16 -25 8 -11 24 -10 26 13 26 14 0 25 -4 25 -8z"/>
<path d="M880 1630 c17 -33 33 -60 35 -60 9 0 56 113 49 119 -3 3 -10 -2 -15 -12 -12 -21 -67 -23 -75 -2 -4 8 -10 15 -15 15 -5 0 4 -27 21 -60z m48 -6 c-11 -24 -13 -25 -25 -8 -19 26 -16 34 12 34 23 0 24 -2 13 -26z"/>
<path d="M1153 1635 c5 -74 17 -82 17 -12 l0 56 38 4 c33 3 32 4 -11 5 l-48 2 4 -55z"/>
<path d="M1128 1193 c6 -2 18 -2 25 0 6 3 1 5 -13 5 -14 0 -19 -2 -12 -5z"/>
</g>
<g id="layer113" fill="#ea7094" stroke="none">
<path d="M0 1125 l0 -1125 1125 0 1125 0 0 1125 0 1125 -1125 0 -1125 0 0 -1125z m1378 771 c31 -16 46 -43 61 -116 14 -63 51 -371 51 -419 0 -40 0 -40 -42 -43 -35 -2 -43 -7 -43 -23 0 -14 -7 -20 -25 -21 -14 -1 -36 -7 -50 -13 -23 -10 -21 -11 17 -8 49 3 71 -19 48 -49 -8 -11 -15 -14 -15 -8 0 6 -22 9 -62 6 -74 -5 -114 -21 -55 -22 21 0 44 -5 51 -12 29 -27 -8 -34 -191 -33 -147 0 -184 3 -188 14 -3 8 -4 15 -3 15 23 13 65 26 86 27 15 1 -7 5 -48 10 -44 4 -82 3 -92 -2 -11 -6 -18 -6 -18 0 0 14 27 21 86 21 79 0 66 20 -13 22 l-68 1 50 7 c34 5 42 8 25 11 -14 2 69 6 185 9 l210 6 -237 2 c-203 2 -238 4 -238 17 0 14 -15 20 -65 27 -28 4 -30 59 -9 222 9 72 16 140 16 151 0 80 42 203 71 206 170 19 463 17 505 -5z m-511 -672 c-3 -3 -12 -4 -19 -1 -8 3 -5 6 6 6 11 1 17 -2 13 -5z"/>
<path d="M1310 1230 c-19 -6 -12 -8 30 -8 39 -1 49 2 35 8 -24 10 -33 10 -65 0z"/>
<path d="M1098 1223 c18 -2 45 -2 60 0 15 2 0 4 -33 4 -33 0 -45 -2 -27 -4z"/>
<path d="M1198 1223 c7 -3 16 -2 19 1 4 3 -2 6 -13 5 -11 0 -14 -3 -6 -6z"/>
<path d="M1053 1193 c4 -3 10 -3 14 0 3 4 0 7 -7 7 -7 0 -10 -3 -7 -7z"/>
</g>
<g id="layer114" fill="#bc989e" stroke="none">
<path d="M0 1125 l0 -1125 1125 0 1125 0 0 1125 0 1125 -1125 0 -1125 0 0 -1125z m1378 771 c31 -16 46 -43 61 -116 14 -63 51 -371 51 -420 0 -40 0 -40 -39 -40 -48 0 -59 -14 -35 -41 17 -19 17 -20 -1 -13 -13 5 -16 4 -11 -4 4 -7 2 -12 -5 -12 -8 0 -8 -4 -1 -13 20 -24 -3 -41 -51 -38 -25 1 -48 -2 -52 -8 -3 -6 0 -11 8 -11 20 0 29 -26 14 -37 -7 -5 -94 -9 -194 -9 -201 1 -226 8 -182 47 l24 22 -52 -6 c-42 -5 -53 -3 -53 8 0 8 -6 15 -12 15 -35 1 32 30 71 31 36 2 39 3 16 7 -27 4 -28 5 -10 13 18 8 17 8 -5 7 -45 -2 -60 2 -60 16 0 16 -21 26 -55 26 -43 0 -47 18 -31 147 8 65 18 150 21 188 12 140 45 243 78 246 170 19 463 17 505 -5z"/>
<path d="M881 1628 l31 -62 29 54 c31 61 34 70 19 70 -5 0 -10 -7 -10 -15 0 -11 -11 -15 -35 -15 -22 0 -38 6 -41 15 -4 8 -10 15 -15 15 -5 0 5 -28 22 -62z m47 -4 c-11 -24 -13 -25 -25 -8 -19 26 -16 34 12 34 23 0 24 -2 13 -26z"/>
<path d="M1050 1636 c0 -30 5 -58 10 -61 6 -4 10 17 10 54 0 34 -4 61 -10 61 -5 0 -10 -24 -10 -54z"/>
<path d="M1323 1659 c8 -19 21 -49 30 -65 l16 -29 26 59 c14 32 24 61 21 64 -3 3 -8 -3 -12 -12 -8 -22 -63 -21 -81 2 -11 14 -11 12 0 -19z m67 -17 c0 -5 -6 -16 -13 -26 -12 -17 -14 -16 -25 8 -11 24 -10 26 13 26 14 0 25 -4 25 -8z"/>
</g>
<g id="layer115" fill="#e88da9" stroke="none">
<path d="M0 1125 l0 -1125 1125 0 1125 0 0 1125 0 1125 -1125 0 -1125 0 0 -1125z m1305 975 c4 -7 -51 -10 -172 -10 -109 0 -172 4 -164 9 21 13 328 14 336 1z m71 -203 c33 -17 48 -44 63 -117 14 -63 51 -371 51 -420 0 -40 0 -40 -39 -40 -48 0 -59 -14 -35 -41 17 -19 17 -20 -1 -13 -13 5 -16 4 -11 -4 4 -7 2 -12 -5 -12 -8 0 -8 -4 -1 -13 20 -24 -3 -41 -51 -38 -25 1 -48 -2 -52 -8 -3 -6 0 -11 8 -11 20 0 29 -26 13 -39 -20 -16 -373 -11 -387 6 -9 10 -6 18 12 35 l24 21 -52 -6 c-42 -5 -53 -3 -53 8 0 8 -6 15 -12 15 -35 1 32 30 71 31 36 2 39 3 16 7 -27 4 -28 5 -10 13 18 8 17 8 -5 7 -45 -2 -60 2 -60 16 0 16 -21 26 -55 26 -43 0 -47 18 -31 147 8 65 18 150 21 188 9 102 25 176 47 212 16 27 26 32 71 37 99 11 133 12 282 11 117 -1 157 -5 181 -18z"/>
<path d="M881 1628 l31 -62 15 29 c30 56 43 95 33 95 -5 0 -10 -7 -10 -15 0 -11 -11 -15 -35 -15 -22 0 -38 6 -41 15 -4 8 -10 15 -15 15 -5 0 5 -28 22 -62z m47 -9 c-11 -32 -21 -29 -33 9 -5 19 -3 22 19 22 24 0 24 -2 14 -31z"/>
<path d="M1160 1628 l5 -63 3 57 3 57 37 4 c35 3 35 4 -8 5 l-45 2 5 -62z"/>
<path d="M1340 1260 c-24 -8 -24 -8 7 -9 17 -1 35 4 38 9 7 11 -9 11 -45 0z"/>
<path d="M880 1230 c0 -5 4 -10 9 -10 6 0 13 5 16 10 3 6 -1 10 -9 10 -9 0 -16 -4 -16 -10z"/>
<path d="M1348 1223 c6 -2 18 -2 25 0 6 3 1 5 -13 5 -14 0 -19 -2 -12 -5z"/>
</g>
<g id="layer116" fill="#d3afb7" stroke="none">
<path d="M0 1125 l0 -1125 1125 0 1125 0 0 1125 0 1125 -1125 0 -1125 0 0 -1125z m1305 975 c4 -7 -51 -10 -172 -10 -109 0 -172 4 -164 9 21 13 328 14 336 1z m24 -190 c89 -17 99 -33 126 -216 28 -190 45 -358 36 -367 -5 -5 -24 -9 -42 -10 -48 -3 -51 -31 -5 -48 40 -14 47 -29 15 -29 -12 0 -36 -16 -53 -35 -18 -19 -36 -35 -40 -35 -4 0 -20 -9 -35 -19 -25 -18 -45 -20 -209 -20 -164 0 -184 2 -206 20 -13 10 -29 19 -34 19 -6 0 -19 16 -31 35 -14 25 -27 35 -45 35 -36 0 -42 18 -9 26 51 12 66 24 52 40 -6 8 -24 14 -39 14 -53 0 -54 9 -26 255 25 222 44 300 77 320 30 19 388 31 468 15z"/>
<path d="M866 1670 c4 -14 16 -43 26 -64 l20 -40 15 29 c9 16 22 45 30 64 11 31 11 33 0 19 -8 -10 -28 -18 -45 -18 -19 0 -35 7 -42 18 -9 14 -10 13 -4 -8z m74 -27 c-1 -5 -7 -19 -15 -33 l-13 -25 -11 28 c-15 38 -15 37 14 37 14 0 25 -3 25 -7z"/>
<path d="M1050 1635 c0 -32 4 -55 11 -55 6 0 9 22 8 55 -1 30 -6 55 -11 55 -4 0 -8 -25 -8 -55z"/>
<path d="M1333 1641 c12 -30 28 -56 34 -58 6 -2 18 15 28 39 24 61 29 76 15 56 -6 -11 -23 -18 -42 -18 -17 0 -37 8 -45 18 -7 9 -3 -7 10 -37z m53 -7 c-3 -9 -6 -20 -6 -25 0 -18 -17 -8 -28 16 -11 23 -10 25 14 25 20 0 25 -4 20 -16z"/>
</g>
<g id="layer117" fill="#cfc2c0" stroke="none">
<path d="M0 1125 l0 -1125 1125 0 1125 0 0 1125 0 1125 -1125 0 -1125 0 0 -1125z m1395 975 c-7 -12 -397 -12 -490 0 -38 4 42 8 218 9 183 0 276 -2 272 -9z m-357 -57 c-10 -2 -28 -2 -40 0 -13 2 -5 4 17 4 22 1 32 -1 23 -4z m119 -10 c-4 -3 -10 -3 -14 0 -3 4 0 7 7 7 7 0 10 -3 7 -7z m330 -10 c-4 -3 -10 -3 -14 0 -3 4 0 7 7 7 7 0 10 -3 7 -7z m-156 -113 c67 -13 86 -32 105 -102 21 -83 66 -470 55 -481 -5 -5 -24 -10 -42 -11 -18 -1 -34 -7 -36 -13 -5 -14 35 -43 60 -43 26 0 13 -16 -20 -25 -14 -3 -44 -24 -65 -46 -21 -21 -45 -39 -53 -39 -8 0 -15 -4 -15 -10 0 -6 -71 -10 -193 -10 -181 0 -195 1 -212 20 -10 11 -24 20 -31 20 -7 0 -19 10 -25 22 -18 33 -33 46 -58 50 -31 4 -27 22 7 29 16 3 34 9 41 13 18 11 -8 39 -31 33 -10 -3 -27 2 -39 12 l-21 17 21 194 c28 249 38 301 66 336 21 26 29 29 111 35 148 10 318 10 375 -1z"/>
</g>
<g id="layer118" fill="#e0bac5" stroke="none">
<path d="M0 1125 l0 -1125 1125 0 1125 0 0 1125 0 1125 -1125 0 -1125 0 0 -1125z m817 978 c-4 -3 -10 -3 -14 0 -3 4 0 7 7 7 7 0 10 -3 7 -7z m578 -3 c-7 -12 -438 -12 -505 -1 -28 5 59 9 233 10 183 1 276 -2 272 -9z m72 -7 c-4 -3 -10 -3 -14 0 -3 4 0 7 7 7 7 0 10 -3 7 -7z m-133 -53 c5 0 6 -3 2 -7 -8 -8 -274 -5 -287 3 -5 3 -9 0 -9 -5 0 -6 -5 -11 -11 -11 -5 0 -8 4 -4 9 3 5 -7 11 -22 13 -16 2 51 2 147 1 96 -2 179 -3 184 -3z m163 -16 c-3 -3 -12 -4 -19 -1 -8 3 -5 6 6 6 11 1 17 -2 13 -5z m-166 -114 c67 -13 86 -32 105 -102 21 -83 66 -470 55 -481 -5 -5 -24 -10 -42 -11 -18 -1 -34 -7 -36 -13 -5 -14 35 -43 60 -43 27 0 11 -17 -23 -25 -16 -4 -38 -19 -49 -34 -11 -15 -32 -33 -48 -41 -15 -8 -30 -18 -33 -21 -3 -4 -20 -9 -39 -12 -18 -3 -43 -15 -55 -26 -33 -31 -101 -24 -101 9 0 12 -19 16 -96 18 -81 2 -99 6 -114 22 -10 11 -24 20 -31 20 -7 0 -19 10 -25 22 -18 33 -33 46 -58 50 -31 4 -27 22 7 29 16 3 34 9 41 13 18 11 -8 39 -31 33 -10 -3 -27 2 -39 12 l-21 17 21 194 c28 249 38 301 66 336 21 26 29 29 111 35 148 10 318 10 375 -1z m-624 -177 c-4 -3 -7 0 -7 7 0 7 3 10 7 7 3 -4 3 -10 0 -14z m0 -110 c-4 -3 -7 0 -7 7 0 7 3 10 7 7 3 -4 3 -10 0 -14z m400 -520 c-4 -3 -7 0 -7 7 0 7 3 10 7 7 3 -4 3 -10 0 -14z"/>
<path d="M860 1680 c0 -7 3 -10 7 -7 3 4 3 10 0 14 -4 3 -7 0 -7 -7z"/>
<path d="M954 1675 c-4 -10 -21 -16 -48 -17 l-41 -1 38 -4 c41 -5 42 -7 23 -42 l-14 -24 -15 29 c-19 34 -22 27 -5 -11 6 -14 16 -24 22 -22 11 4 60 107 50 107 -2 0 -7 -7 -10 -15z"/>
<path d="M1162 1633 l2 -58 3 52 c4 50 5 52 36 56 31 4 31 4 -5 5 l-38 2 2 -57z"/>
<path d="M1326 1660 c18 -39 31 -55 21 -27 -5 13 -1 17 18 17 14 0 25 -6 25 -12 1 -15 29 32 29 47 0 6 -4 2 -10 -7 -6 -11 -22 -18 -41 -18 -17 0 -37 8 -45 18 -9 11 -8 5 3 -18z"/>
<path d="M1372 1600 c-7 -11 -8 -20 -3 -20 9 0 24 30 18 36 -1 2 -8 -6 -15 -16z"/>
</g>
<g id="layer119" fill="#e7d4d9" stroke="none">
<path d="M0 1125 l0 -1125 1125 0 1125 0 0 1125 0 1125 -1125 0 -1125 0 0 -1125z m817 978 c-4 -3 -10 -3 -14 0 -3 4 0 7 7 7 7 0 10 -3 7 -7z m598 -3 c7 -12 -450 -12 -535 0 -34 4 56 8 237 9 185 0 294 -3 298 -9z m52 -6 c-3 -3 -12 -4 -19 -1 -8 3 -5 6 6 6 11 1 17 -2 13 -5z m-334 -50 c104 -2 194 -4 200 -4 6 0 7 -3 4 -6 -11 -11 -287 -10 -291 1 -3 6 -5 2 -5 -7 -1 -14 -9 -18 -38 -17 -38 1 -38 1 -8 9 27 7 25 8 -18 9 -30 1 -46 -3 -42 -9 3 -5 -1 -10 -10 -10 -9 0 -14 4 -10 9 3 5 -3 17 -12 27 -17 17 -16 17 11 10 16 -4 115 -9 219 -12z m-249 -9 c3 -8 1 -15 -4 -15 -6 0 -10 7 -10 15 0 8 2 15 4 15 2 0 6 -7 10 -15z m613 -11 c-3 -3 -12 -4 -19 -1 -8 3 -5 6 6 6 11 1 17 -2 13 -5z m-168 -113 c94 -19 106 -43 135 -266 40 -312 39 -304 26 -320 -7 -8 -28 -15 -46 -15 -59 0 -41 -26 31 -46 l40 -11 -54 -19 c-33 -12 -56 -27 -61 -39 -9 -24 -90 -69 -126 -71 -14 0 -35 -11 -47 -22 -33 -32 -102 -26 -102 8 0 12 -20 16 -100 20 -86 4 -105 8 -132 29 -18 14 -33 28 -33 31 0 15 -40 52 -52 47 -18 -6 -50 12 -43 24 4 5 19 9 34 9 31 0 57 23 46 40 -4 7 -17 9 -29 6 -13 -3 -31 1 -41 8 -18 13 -18 19 -1 192 30 295 48 364 107 388 37 15 380 20 448 7z m-622 -258 c-2 -21 -4 -6 -4 32 0 39 2 55 4 38 2 -18 2 -50 0 -70z m400 -550 c-4 -3 -7 0 -7 7 0 7 3 10 7 7 3 -4 3 -10 0 -14z"/>
<path d="M953 1676 c-4 -8 -19 -16 -33 -18 l-25 -4 27 -5 c21 -5 28 -1 37 18 11 25 7 32 -6 9z"/>
<path d="M1183 1683 c9 -2 25 -2 35 0 9 3 1 5 -18 5 -19 0 -27 -2 -17 -5z"/>
<path d="M1326 1655 c5 -11 84 -7 84 4 0 3 -20 6 -44 6 -25 0 -42 -4 -40 -10z"/>
<path d="M890 1613 c0 -18 27 -36 35 -23 4 6 4 14 1 17 -3 4 -6 0 -6 -8 -1 -10 -5 -8 -15 5 -8 11 -15 15 -15 9z"/>
<path d="M1364 1588 c-4 -7 -3 -8 4 -4 12 7 16 16 8 16 -3 0 -8 -5 -12 -12z"/>
</g>
<g id="layer120" fill="#dcdcdd" stroke="none">
<path d="M0 1125 l0 -1125 1125 0 1125 0 0 1125 0 1125 -1125 0 -1125 0 0 -1125z m1465 975 c38 -10 -516 -10 -610 0 -41 4 62 7 255 7 179 0 339 -3 355 -7z m-253 -53 c140 -1 146 -2 137 -20 -8 -13 -15 -16 -27 -10 -15 7 -83 7 -357 0 -88 -2 -90 -1 -93 22 l-4 24 99 -8 c54 -4 164 -8 245 -8z m283 -17 c3 -5 -1 -10 -10 -10 -9 0 -13 5 -10 10 3 6 8 10 10 10 2 0 7 -4 10 -10z m-129 -124 c28 -10 44 -23 56 -47 15 -30 51 -239 62 -359 2 -25 7 -74 11 -108 9 -72 3 -82 -52 -82 -61 0 -33 -32 41 -46 l39 -7 -26 -14 c-28 -14 -34 -28 -18 -38 6 -3 18 4 29 15 l19 21 -3 -27 c-4 -38 -16 -46 -70 -46 -27 -1 -58 -7 -69 -14 -11 -8 -29 -14 -42 -14 -12 0 -25 -5 -28 -10 -4 -6 -19 -9 -35 -8 -19 1 -38 -6 -53 -20 -33 -31 -102 -26 -102 8 0 12 -18 15 -95 16 -127 1 -176 13 -166 40 4 11 -3 13 -34 8 -59 -10 -107 2 -114 29 -6 25 3 37 32 40 11 0 20 6 19 12 -1 5 12 11 30 13 35 3 59 25 48 42 -4 7 -16 9 -28 6 -11 -3 -29 0 -40 6 -22 11 -22 23 8 293 23 217 38 260 97 291 29 15 438 15 484 0z m-659 -363 c-1 -59 -3 -13 -3 102 0 116 2 164 3 108 2 -56 2 -151 0 -210z m850 155 c-2 -13 -4 -3 -4 22 0 25 2 35 4 23 2 -13 2 -33 0 -45z m-450 -595 c-4 -3 -7 0 -7 7 0 7 3 10 7 7 3 -4 3 -10 0 -14z"/>
<path d="M1380 1660 c-23 -7 -23 -8 -3 -9 12 -1 25 4 28 9 3 6 5 10 3 9 -2 -1 -14 -5 -28 -9z"/>
<path d="M913 1653 c9 -2 23 -2 30 0 6 3 -1 5 -18 5 -16 0 -22 -2 -12 -5z"/>
<path d="M1330 1650 c0 -7 3 -10 7 -7 3 4 3 10 0 14 -4 3 -7 0 -7 -7z"/>
<path d="M1153 1123 c4 -3 10 -3 14 0 3 4 0 7 -7 7 -7 0 -10 -3 -7 -7z"/>
</g>
<g id="layer121" fill="#e8dee3" stroke="none">
<path d="M0 1125 l0 -1125 1125 0 1125 0 0 1125 0 1125 -1125 0 -1125 0 0 -1125z m1258 984 c144 -1 252 -6 252 -11 0 -5 4 -7 8 -4 15 9 34 -11 42 -47 4 -20 5 -36 1 -35 -3 0 -13 0 -21 -2 -11 -1 -10 -4 5 -11 17 -8 16 -9 -7 -6 -26 4 -33 -3 -29 -27 1 -5 -8 -6 -20 -3 -18 5 -20 2 -15 -16 3 -12 6 -28 6 -34 0 -7 6 -13 14 -13 8 0 16 -7 20 -15 3 -8 12 -15 21 -15 8 0 15 7 15 15 0 8 -7 15 -15 15 -8 0 -15 5 -15 10 0 6 7 10 15 10 14 0 40 -69 30 -79 -3 -2 -19 5 -35 17 -16 12 -34 22 -40 22 -5 0 -10 5 -10 10 0 6 -7 10 -15 10 -23 0 -18 -17 8 -25 21 -7 20 -8 -8 -14 -26 -6 -30 -10 -27 -36 3 -25 42 -80 42 -59 0 3 7 1 15 -6 8 -7 12 -17 8 -23 -4 -7 0 -8 11 -4 10 4 22 7 27 7 5 0 9 5 9 10 0 6 -7 10 -15 10 -8 0 -15 7 -15 15 0 24 27 18 34 -7 7 -26 8 -88 2 -88 -2 0 -11 -3 -20 -6 -11 -4 -16 0 -16 14 0 11 8 23 18 25 15 4 15 5 0 6 -22 1 -26 -6 -33 -64 -3 -27 -11 -54 -17 -60 -8 -7 -9 -5 -4 8 3 11 3 24 -1 30 -4 6 -6 28 -4 49 1 22 -2 38 -8 38 -6 0 -12 12 -12 28 -2 24 -2 24 -6 4 -3 -13 0 -29 6 -36 6 -7 8 -27 5 -43 -4 -18 -1 -33 5 -37 6 -4 8 -18 5 -31 -5 -20 -2 -24 15 -22 16 1 21 8 21 29 0 18 5 28 15 28 8 0 15 -7 15 -15 0 -8 -4 -15 -10 -15 -5 0 -10 -4 -10 -10 0 -5 9 -10 20 -10 19 0 20 -7 20 -160 0 -106 -4 -160 -11 -160 -5 0 -7 5 -4 10 9 15 -4 12 -21 -5 -9 -8 -12 -15 -7 -15 4 -1 -4 -8 -19 -16 -29 -15 -35 -28 -19 -39 6 -3 18 3 28 13 10 9 25 22 33 27 9 6 8 2 -3 -7 -10 -10 -16 -21 -13 -26 13 -22 -21 -44 -70 -44 -27 -1 -58 -7 -69 -14 -11 -8 -29 -14 -40 -14 -24 -1 -67 -30 -44 -31 10 0 10 -2 2 -6 -7 -2 -13 -11 -13 -19 0 -16 2 -16 24 -8 12 5 13 10 5 25 -8 16 -6 19 11 19 19 0 20 -6 20 -94 0 -53 -4 -98 -10 -101 -5 -3 -10 -19 -10 -36 0 -16 -5 -29 -11 -29 -6 0 -9 -6 -6 -14 3 -8 2 -29 -3 -45 -5 -19 -5 -31 1 -31 5 0 9 7 9 15 0 9 9 15 21 15 21 0 21 -2 15 -157 -3 -86 -9 -159 -11 -162 -5 -5 -9 128 -4 144 1 6 5 34 7 62 3 44 1 53 -12 53 -9 0 -16 -6 -16 -14 0 -8 -7 -16 -15 -20 -8 -3 -12 -12 -9 -21 3 -8 10 -12 15 -10 8 6 7 -16 -8 -170 -10 -96 -6 -185 8 -185 6 0 8 8 4 19 -3 12 0 21 9 24 10 4 16 24 19 59 2 29 4 2 5 -59 2 -92 -1 -113 -12 -113 -8 0 -17 12 -19 28 -3 17 -3 14 -2 -8 3 -47 -13 -79 -44 -88 -26 -7 -200 -8 -276 -1 -39 4 -40 5 -38 39 2 31 1 32 -7 10 -4 -14 -9 -23 -10 -20 -8 23 -7 46 2 57 8 10 5 13 -11 13 -11 0 -21 5 -21 10 0 6 9 10 20 10 11 0 20 6 20 13 0 8 4 7 10 -3 5 -8 10 -34 10 -57 0 -34 4 -43 18 -43 14 0 15 2 2 10 -13 9 -13 11 0 20 13 9 13 11 0 19 -10 7 -14 27 -13 70 2 42 -2 61 -10 61 -8 0 -8 3 1 9 11 6 13 35 10 125 -1 64 0 116 3 116 8 0 0 108 -13 157 -6 24 -15 40 -20 37 -5 -3 -4 -11 2 -19 9 -11 7 -12 -9 -8 -13 3 -21 -1 -24 -14 -3 -10 -5 -1 -6 20 0 21 3 36 8 33 12 -7 21 18 21 55 0 18 4 28 10 24 6 -3 10 -1 10 4 0 6 -6 11 -12 12 -9 0 -9 2 -2 5 18 8 4 44 -17 44 -11 0 -19 4 -19 9 0 5 10 7 23 5 18 -3 17 -2 -4 6 -23 10 -27 17 -28 60 0 28 4 50 9 50 6 0 10 4 10 8 0 5 -10 8 -22 7 -28 -2 -47 15 -40 35 4 11 2 12 -7 4 -7 -6 -31 -8 -64 -3 -28 3 -55 5 -59 2 -8 -4 -12 26 -9 65 1 12 -3 22 -9 22 -5 0 -10 7 -10 16 0 14 3 14 15 4 12 -10 15 -10 15 1 1 10 4 8 11 -4 5 -9 8 -21 5 -25 -3 -5 1 -9 9 -9 8 0 13 5 12 11 -1 6 13 12 31 14 17 2 32 7 32 13 0 5 -4 9 -10 9 -5 0 -7 8 -4 18 5 16 5 16 -9 0 -8 -10 -21 -18 -30 -18 -17 0 -17 4 -16 88 0 41 -3 52 -16 52 -9 0 -18 7 -22 16 -5 13 -7 13 -15 2 -5 -8 -7 112 -6 294 2 168 5 306 8 306 18 -1 23 4 11 11 -7 5 -9 11 -4 14 6 4 16 1 24 -6 8 -7 12 -11 10 -10 -6 4 -31 -18 -31 -28 0 -4 13 0 30 9 l29 17 -25 21 c-32 29 -23 31 116 33 63 1 116 4 119 6 2 3 7 3 10 0 4 -2 121 -5 259 -6z m302 -153 c0 -20 -4 -23 -22 -18 -21 5 -21 6 -2 13 19 7 19 8 -1 9 l-20 1 20 9 c11 5 21 9 23 9 1 1 2 -10 2 -23z m-97 -131 c-7 -21 -13 -19 -13 6 0 11 4 18 10 14 5 -3 7 -12 3 -20z m42 5 c3 -5 4 -10 1 -10 -3 0 -8 5 -11 10 -3 6 -4 10 -1 10 3 0 8 -4 11 -10z m-769 -471 c8 -37 8 -49 0 -46 -6 3 -10 10 -8 16 1 7 -2 10 -8 6 -6 -4 -10 11 -10 41 0 57 11 50 26 -17z m-29 -56 c-4 -3 -7 0 -7 7 0 7 3 10 7 7 3 -4 3 -10 0 -14z m210 -415 c-3 -8 -6 -5 -6 6 -1 11 2 17 5 13 3 -3 4 -12 1 -19z m440 0 c-3 -8 -6 -5 -6 6 -1 11 2 17 5 13 3 -3 4 -12 1 -19z m0 -55 c-3 -10 -5 -4 -5 12 0 17 2 24 5 18 2 -7 2 -21 0 -30z m-387 -63 c0 -5 -4 -10 -10 -10 -5 0 -10 5 -10 10 0 6 5 10 10 10 6 0 10 -4 10 -10z m-53 -152 c-2 -13 -4 -5 -4 17 -1 22 1 32 4 23 2 -10 2 -28 0 -40z m53 -18 c0 -11 -7 -20 -15 -20 -8 0 -15 9 -15 20 0 11 7 20 15 20 8 0 15 -9 15 -20z m-42 -81 c-3 -8 -7 -3 -11 10 -4 17 -3 21 5 13 5 -5 8 -16 6 -23z m32 -43 c0 -2 -9 -6 -20 -9 -11 -3 -18 -1 -14 4 5 9 34 13 34 5z m-22 -85 c10 -6 9 -10 -7 -14 -14 -3 -21 0 -21 9 0 16 9 18 28 5z"/>
<path d="M820 2085 c0 -8 5 -15 10 -15 6 0 10 4 10 9 0 6 15 12 33 14 28 3 26 4 -10 5 -32 2 -43 -2 -43 -13z"/>
<path d="M1233 2083 c9 -2 25 -2 35 0 9 3 1 5 -18 5 -19 0 -27 -2 -17 -5z"/>
<path d="M1150 2058 c0 -16 9 -18 63 -16 l62 2 -55 3 c-30 3 -58 10 -62 16 -5 8 -8 6 -8 -5z"/>
<path d="M1115 2050 c-16 -7 -17 -9 -3 -9 9 -1 20 4 23 9 7 11 7 11 -20 0z"/>
<path d="M1343 2053 c4 -3 10 -3 14 0 3 4 0 7 -7 7 -7 0 -10 -3 -7 -7z"/>
<path d="M1073 2043 c4 -3 10 -3 14 0 3 4 0 7 -7 7 -7 0 -10 -3 -7 -7z"/>
<path d="M1353 2024 c4 -17 0 -22 -17 -22 -11 0 -75 -1 -140 -1 -84 -1 -122 -5 -128 -14 -6 -9 -8 -9 -8 1 0 6 -7 12 -15 12 -28 0 -16 -30 13 -31 24 0 25 -1 7 -9 -11 -4 -41 -5 -67 -2 -34 3 -48 1 -48 -7 0 -7 5 -9 10 -6 6 4 25 1 44 -5 36 -11 117 -15 181 -7 22 3 59 2 82 -2 32 -6 45 -4 57 8 10 9 16 11 16 4 0 -8 17 -12 45 -11 25 0 45 4 45 9 0 5 -5 9 -11 9 -6 0 -8 9 -4 21 5 15 4 19 -4 15 -6 -4 -11 0 -11 10 0 16 -1 16 -15 -2 -8 -10 -15 -14 -14 -9 1 6 -3 21 -10 35 -10 21 -11 21 -8 4z"/>
<path d="M1153 2023 c4 -3 10 -3 14 0 3 4 0 7 -7 7 -7 0 -10 -3 -7 -7z"/>
<path d="M1295 2020 c3 -5 8 -10 11 -10 3 0 2 5 -1 10 -3 6 -8 10 -11 10 -3 0 -2 -4 1 -10z"/>
<path d="M744 2008 c-7 -11 6 -51 20 -60 8 -6 7 -8 -1 -8 -8 0 -13 -13 -13 -30 0 -16 5 -30 10 -30 7 0 7 -6 0 -20 -6 -11 -8 -20 -4 -20 3 0 1 -6 -5 -14 -9 -11 -8 -15 5 -20 27 -11 52 -7 58 10 10 25 7 34 -9 28 -9 -4 -18 2 -24 17 -10 28 -2 129 10 129 5 0 6 -6 3 -14 -3 -8 0 -17 6 -21 9 -6 9 -10 -1 -16 -10 -6 -11 -11 -2 -20 15 -15 66 9 71 33 3 13 -3 16 -25 15 -24 -2 -28 2 -31 26 -3 24 -7 27 -33 25 -17 -1 -33 -6 -35 -10z"/>
<path d="M870 1920 c-12 -7 -10 -9 7 -7 12 0 19 5 17 9 -6 10 -6 10 -24 -2z"/>
<path d="M1343 1913 c4 -3 10 -3 14 0 3 4 0 7 -7 7 -7 0 -10 -3 -7 -7z"/>
<path d="M840 1885 c-7 -9 -11 -17 -9 -20 3 -2 10 5 17 15 14 24 10 26 -8 5z"/>
<path d="M756 1760 c1 -38 40 -40 46 -3 3 24 1 28 -22 28 -21 0 -25 -5 -24 -25z"/>
<path d="M711 1700 l1 -55 11 43 c7 31 7 46 -1 54 -9 9 -12 -1 -11 -42z"/>
<path d="M754 1713 c3 -4 1 -12 -4 -18 -13 -16 -3 -43 21 -56 17 -9 19 -6 19 29 0 32 -4 41 -21 45 -12 3 -18 3 -15 0z"/>
<path d="M1368 1653 c7 -3 16 -2 19 1 4 3 -2 6 -13 5 -11 0 -14 -3 -6 -6z"/>
<path d="M905 1590 c3 -5 8 -10 11 -10 3 0 2 5 -1 10 -3 6 -8 10 -11 10 -3 0 -2 -4 1 -10z"/>
<path d="M746 1473 c6 -4 14 -15 17 -23 5 -11 6 -9 4 4 -1 11 -9 21 -17 23 -10 3 -11 2 -4 -4z"/>
<path d="M1488 1439 c3 -21 7 -27 13 -18 4 7 3 21 -2 31 -14 25 -16 23 -11 -13z"/>
<path d="M1500 1365 c0 -19 2 -35 4 -35 2 0 6 16 8 35 2 19 0 35 -4 35 -4 0 -8 -16 -8 -35z"/>
<path d="M830 1300 c0 -5 5 -10 10 -10 6 0 10 5 10 10 0 6 -4 10 -10 10 -5 0 -10 -4 -10 -10z"/>
<path d="M1441 1276 c12 -10 60 -16 54 -6 -3 5 -18 10 -32 10 -15 0 -24 -2 -22 -4z"/>
<path d="M808 1233 c7 -3 16 -2 19 1 4 3 -2 6 -13 5 -11 0 -14 -3 -6 -6z"/>
<path d="M720 1220 c0 -7 3 -10 7 -7 3 4 3 10 0 14 -4 3 -7 0 -7 -7z"/>
<path d="M1001 1124 c-1 -7 -12 -9 -28 -6 -22 4 -25 2 -20 -12 4 -10 7 -26 7 -37 0 -11 7 -19 18 -20 10 0 12 -3 5 -6 -20 -8 -15 -23 7 -23 11 0 20 6 21 13 0 6 2 19 3 27 1 8 -1 29 -5 45 -3 17 -7 25 -8 19z"/>
<path d="M1023 1033 c4 -3 10 -3 14 0 3 4 0 7 -7 7 -7 0 -10 -3 -7 -7z"/>
</g>
<g id="layer122" fill="#fdfdfd" stroke="none">
<path d="M0 1125 l0 -1125 1125 0 1125 0 0 1125 0 1125 -1125 0 -1125 0 0 -1125z m1523 975 c16 -8 30 -24 33 -39 3 -14 7 -32 9 -38 3 -7 1 -12 -3 -12 -4 1 -14 1 -22 -1 -11 -1 -10 -4 5 -11 17 -8 16 -9 -7 -6 -26 4 -33 -3 -29 -27 1 -5 -8 -6 -20 -3 -18 5 -20 2 -15 -16 3 -12 6 -28 6 -34 0 -7 6 -13 14 -13 8 0 16 -7 20 -15 3 -8 12 -15 21 -15 8 0 15 7 15 15 0 8 -7 15 -15 15 -8 0 -15 5 -15 10 0 6 7 10 15 10 29 0 35 -69 29 -370 -4 -208 -10 -299 -18 -310 -7 -8 -17 -27 -24 -42 -8 -20 -19 -28 -39 -29 -16 -1 -40 -2 -54 -3 -14 0 -33 -7 -42 -14 -8 -7 -25 -14 -36 -15 -21 -1 -31 -17 -11 -17 6 0 10 -38 10 -94 0 -53 -4 -98 -10 -101 -5 -3 -10 -19 -10 -36 0 -16 -5 -29 -11 -29 -6 0 -9 -6 -6 -14 3 -8 2 -29 -3 -45 -5 -19 -5 -31 1 -31 5 0 9 7 9 15 0 9 9 15 21 15 21 0 21 -2 15 -157 -3 -86 -9 -159 -11 -162 -5 -5 -9 128 -4 144 1 6 5 34 7 62 3 44 1 53 -12 53 -9 0 -16 -6 -16 -14 0 -8 -7 -16 -15 -20 -8 -3 -12 -12 -9 -21 3 -8 10 -12 15 -10 8 6 7 -16 -8 -170 -10 -96 -6 -185 8 -185 6 0 8 8 4 19 -3 12 0 21 9 24 10 4 16 24 19 59 2 29 4 2 5 -59 2 -92 -1 -113 -12 -113 -8 0 -17 12 -19 28 -3 17 -3 14 -2 -8 3 -47 -13 -79 -44 -88 -26 -7 -200 -8 -276 -1 -39 4 -40 5 -38 39 2 31 1 32 -7 10 -4 -14 -9 -23 -10 -20 -8 23 -7 46 2 57 8 10 5 13 -11 13 -11 0 -21 5 -21 10 0 6 9 10 20 10 11 0 20 6 20 13 0 8 4 7 10 -3 5 -8 10 -34 10 -57 0 -34 4 -43 18 -43 14 0 15 2 2 10 -13 9 -13 11 0 20 13 9 13 11 0 19 -10 7 -14 27 -13 70 2 42 -2 61 -10 61 -8 0 -8 3 1 9 11 6 13 35 10 125 -1 64 0 116 3 116 8 0 0 108 -13 157 -6 24 -15 40 -20 37 -5 -3 -4 -11 2 -19 9 -11 7 -12 -9 -8 -13 3 -21 -1 -24 -14 -3 -10 -5 -1 -6 20 0 21 3 36 8 33 12 -7 21 18 21 55 0 18 4 28 10 24 6 -3 10 -1 10 4 0 6 -6 11 -12 12 -9 0 -9 2 -2 5 18 8 4 44 -17 44 -11 0 -19 4 -19 9 0 5 10 7 23 5 18 -3 17 -2 -4 6 -23 9 -27 17 -27 58 -1 26 4 50 11 54 7 5 2 8 -15 8 -15 0 -33 8 -40 18 -12 16 -44 23 -120 26 -33 1 -40 97 -37 497 2 208 5 377 9 377 18 -2 23 3 11 11 -7 5 -9 11 -4 14 6 4 16 1 24 -6 8 -7 12 -11 10 -10 -6 4 -31 -18 -31 -28 0 -4 13 0 30 9 l29 17 -25 22 -26 22 23 5 c50 11 94 12 414 11 252 -1 337 -5 358 -15z m37 -144 c0 -20 -4 -23 -22 -18 -21 5 -21 6 -2 13 19 7 19 8 -1 9 l-20 1 20 9 c11 5 21 9 23 9 1 1 2 -10 2 -23z m-643 -1068 c-3 -8 -6 -5 -6 6 -1 11 2 17 5 13 3 -3 4 -12 1 -19z m440 0 c-3 -8 -6 -5 -6 6 -1 11 2 17 5 13 3 -3 4 -12 1 -19z m0 -55 c-3 -10 -5 -4 -5 12 0 17 2 24 5 18 2 -7 2 -21 0 -30z m-387 -63 c0 -5 -4 -10 -10 -10 -5 0 -10 5 -10 10 0 6 5 10 10 10 6 0 10 -4 10 -10z m-53 -152 c-2 -13 -4 -5 -4 17 -1 22 1 32 4 23 2 -10 2 -28 0 -40z m53 -18 c0 -11 -7 -20 -15 -20 -8 0 -15 9 -15 20 0 11 7 20 15 20 8 0 15 -9 15 -20z m-42 -81 c-3 -8 -7 -3 -11 10 -4 17 -3 21 5 13 5 -5 8 -16 6 -23z m32 -43 c0 -2 -9 -6 -20 -9 -11 -3 -18 -1 -14 4 5 9 34 13 34 5z m-22 -85 c10 -6 9 -10 -7 -14 -14 -3 -21 0 -21 9 0 16 9 18 28 5z"/>
<path d="M820 2080 c0 -5 5 -10 10 -10 6 0 10 5 10 10 0 6 -4 10 -10 10 -5 0 -10 -4 -10 -10z"/>
<path d="M1410 2080 c0 -5 5 -10 10 -10 6 0 10 5 10 10 0 6 -4 10 -10 10 -5 0 -10 -4 -10 -10z"/>
<path d="M1440 2080 c0 -5 7 -13 16 -18 14 -8 14 -11 -7 -25 -20 -14 -21 -19 -11 -42 7 -15 8 -24 3 -20 -6 3 -9 -7 -8 -22 2 -25 -2 -28 -33 -33 -39 -6 -22 -19 20 -15 18 1 26 8 28 26 2 13 10 32 18 43 19 28 18 36 -8 36 -22 0 -22 1 3 18 22 14 25 20 16 40 -10 22 -37 31 -37 12z"/>
<path d="M1377 2039 c4 -13 8 -18 11 -10 2 7 -1 18 -6 23 -8 8 -9 4 -5 -13z"/>
<path d="M744 2008 c-7 -11 6 -51 20 -60 8 -6 7 -8 -1 -8 -8 0 -13 -13 -13 -30 0 -16 5 -30 10 -30 7 0 7 -6 0 -20 -6 -11 -8 -20 -4 -20 3 0 1 -6 -5 -14 -9 -11 -8 -15 5 -20 32 -12 52 -6 56 18 4 17 1 23 -8 19 -8 -3 -17 5 -23 18 -10 28 -2 129 10 129 5 0 6 -6 3 -14 -3 -8 0 -17 6 -21 9 -6 9 -10 -1 -16 -10 -6 -11 -11 -2 -20 15 -15 66 9 71 33 3 13 -3 16 -25 15 -24 -2 -28 2 -31 26 -3 24 -7 27 -33 25 -17 -1 -33 -6 -35 -10z"/>
<path d="M958 2003 c7 -3 16 -2 19 1 4 3 -2 6 -13 5 -11 0 -14 -3 -6 -6z"/>
<path d="M987 1990 c-3 -13 0 -20 10 -20 8 0 11 5 7 11 -3 6 0 15 7 20 11 7 11 9 -2 9 -9 0 -19 -9 -22 -20z"/>
<path d="M1358 2004 c-3 -3 -69 -5 -146 -5 -102 1 -142 -3 -145 -12 -4 -9 -6 -9 -6 1 -1 17 -31 15 -31 -3 0 -10 10 -15 28 -16 24 0 25 -1 7 -9 -11 -4 -41 -5 -67 -2 -34 3 -48 1 -48 -7 0 -7 5 -9 10 -6 6 4 25 1 44 -5 36 -11 117 -15 181 -7 22 3 59 2 82 -2 32 -6 45 -4 57 8 10 9 16 11 16 4 0 -8 17 -12 45 -11 25 0 45 4 45 9 0 5 -5 9 -11 9 -6 0 -8 9 -4 21 5 15 4 19 -4 15 -6 -4 -11 0 -11 10 0 16 -1 16 -16 -2 -8 -10 -13 -14 -10 -7 7 12 -7 26 -16 17z"/>
<path d="M840 1990 c0 -6 7 -10 15 -10 8 0 15 2 15 4 0 2 -7 6 -15 10 -8 3 -15 1 -15 -4z"/>
<path d="M870 1920 c-9 -6 -10 -10 -3 -10 6 0 15 5 18 10 8 12 4 12 -15 0z"/>
<path d="M948 1913 c17 -2 47 -2 65 0 17 2 3 4 -33 4 -36 0 -50 -2 -32 -4z"/>
<path d="M1450 1891 c0 -5 10 -12 23 -16 21 -8 21 -8 -5 -12 -24 -4 -28 -9 -28 -36 0 -20 8 -39 20 -50 11 -9 20 -14 20 -11 0 4 7 1 15 -6 8 -7 12 -17 8 -23 -4 -7 0 -8 11 -4 10 4 22 7 27 7 5 0 9 5 9 10 0 6 -7 10 -15 10 -8 0 -15 7 -15 15 0 8 7 15 15 15 40 0 -2 89 -42 90 -7 0 -13 5 -13 10 0 6 -7 10 -15 10 -8 0 -15 -4 -15 -9z m13 -66 c-7 -21 -13 -19 -13 6 0 11 4 18 10 14 5 -3 7 -12 3 -20z m42 5 c3 -5 4 -10 1 -10 -3 0 -8 5 -11 10 -3 6 -4 10 -1 10 3 0 8 -4 11 -10z"/>
<path d="M835 1879 c-4 -6 -5 -12 -2 -15 2 -3 7 2 10 11 7 17 1 20 -8 4z"/>
<path d="M756 1761 c1 -33 37 -37 42 -5 2 16 -3 23 -20 26 -20 4 -23 0 -22 -21z"/>
<path d="M1451 1748 c0 -15 4 -30 9 -33 6 -4 9 -21 6 -38 -3 -17 -2 -36 2 -41 4 -6 7 -20 7 -30 0 -10 8 -20 18 -22 13 -2 17 5 17 27 0 19 5 29 15 29 8 0 15 -7 15 -15 0 -8 -4 -15 -10 -15 -5 0 -10 -4 -10 -10 0 -5 7 -10 15 -10 11 0 15 11 13 44 -1 32 -5 43 -15 39 -8 -3 -13 2 -13 15 0 11 8 23 18 25 15 4 15 5 0 6 -22 1 -26 -6 -33 -64 -3 -27 -11 -54 -17 -60 -8 -7 -9 -5 -4 8 3 11 3 24 -1 30 -4 6 -6 28 -4 49 1 21 -2 38 -8 38 -5 0 -12 12 -14 28 l-4 27 -2 -27z"/>
<path d="M754 1713 c3 -4 1 -12 -5 -19 -13 -16 5 -54 26 -54 10 0 15 11 15 34 0 26 -5 35 -21 39 -12 3 -18 3 -15 0z"/>
<path d="M903 1653 c4 -3 10 -3 14 0 3 4 0 7 -7 7 -7 0 -10 -3 -7 -7z"/>
<path d="M740 1605 c-6 -8 -8 -20 -4 -27 4 -6 7 -29 5 -50 -1 -27 2 -38 13 -38 19 0 26 22 26 81 0 51 -15 64 -40 34z"/>
<path d="M710 1531 c0 -5 5 -13 10 -16 6 -3 10 -2 10 4 0 5 -4 13 -10 16 -5 3 -10 2 -10 -4z"/>
<path d="M752 1466 c7 -8 15 -12 17 -11 5 6 -10 25 -20 25 -5 0 -4 -6 3 -14z"/>
<path d="M1487 1450 c3 -11 9 -20 15 -20 5 0 4 9 -2 20 -6 11 -12 20 -14 20 -2 0 -2 -9 1 -20z"/>
<path d="M1518 1463 c6 -2 18 -2 25 0 6 3 1 5 -13 5 -14 0 -19 -2 -12 -5z"/>
<path d="M710 1443 c0 -12 4 -24 9 -27 10 -7 25 -91 22 -124 -2 -21 1 -23 41 -21 44 3 77 22 58 34 -6 3 -10 2 -10 -3 0 -5 -15 -9 -34 -10 -38 -1 -36 -5 -35 86 0 40 -4 52 -15 52 -8 0 -20 8 -25 18 -9 15 -10 15 -11 -5z"/>
<path d="M1503 1393 c4 -3 10 -3 14 0 3 4 0 7 -7 7 -7 0 -10 -3 -7 -7z"/>
<path d="M710 1291 c0 -5 5 -13 10 -16 6 -3 10 -2 10 4 0 5 -4 13 -10 16 -5 3 -10 2 -10 -4z"/>
<path d="M1453 1273 c9 -2 23 -2 30 0 6 3 -1 5 -18 5 -16 0 -22 -2 -12 -5z"/>
<path d="M1054 205 c9 -10 24 -14 33 -11 20 8 16 11 -21 20 -26 6 -27 6 -12 -9z"/>
</g>


</svg>