<!DOCTYPE svg PUBLIC "-//W3C//DTD SVG 20010904//EN" "http://www.w3.org/TR/2001/REC-SVG-20010904/DTD/svg10.dtd">
<svg version="1.0" xmlns="http://www.w3.org/2000/svg" width="225px" height="225px" viewBox="0 0 2250 2250" preserveAspectRatio="xMidYMid meet">
<g id="layer101" fill="#1b0c15" stroke="none">
<path d="M0 1125 l0 -1125 1125 0 1125 0 0 1125 0 1125 -1125 0 -1125 0 0 -1125z"/>
</g>
<g id="layer102" fill="#6c2257" stroke="none">
<path d="M0 1125 l0 -1125 1125 0 1125 0 0 1125 0 1125 -1125 0 -1125 0 0 -1125z m1527 1088 c8 -11 11 -12 7 -3 -7 13 -5 13 9 1 32 -26 21 -41 -30 -40 -30 1 -37 4 -20 6 33 5 35 19 5 29 -29 10 -617 4 -663 -6 -33 -7 -49 3 -22 13 6 3 -1 6 -18 6 -27 0 -65 -18 -65 -32 0 -3 12 -8 28 -10 15 -2 6 -4 -20 -4 -53 0 -62 15 -25 40 19 14 74 16 411 16 359 1 390 0 403 -16z m-110 -9 c-3 -3 -12 -4 -19 -1 -8 3 -5 6 6 6 11 1 17 -2 13 -5z m-715 -84 c2 -22 0 -40 -4 -40 -5 0 -8 18 -8 40 0 22 2 40 4 40 2 0 6 -18 8 -40z m858 -10 c0 -10 -3 -21 -7 -23 -5 -3 -8 8 -8 23 0 15 3 26 8 23 4 -2 7 -13 7 -23z m-685 -20 c3 -5 4 -10 1 -10 -3 0 -8 5 -11 10 -3 6 -4 10 -1 10 3 0 8 -4 11 -10z m118 3 c-13 -2 -35 -2 -50 0 -16 2 -5 4 22 4 28 0 40 -2 28 -4z m315 0 c-16 -2 -40 -2 -55 0 -16 2 -3 4 27 4 30 0 43 -2 28 -4z m-145 -10 c-23 -2 -64 -2 -90 0 -26 2 -7 3 42 3 50 0 71 -1 48 -3z m384 -140 c-2 -21 -4 -6 -4 32 0 39 2 55 4 38 2 -18 2 -50 0 -70z m-811 -176 c9 -54 13 -104 11 -112 -3 -7 -1 -15 4 -17 6 -2 7 -12 1 -28 -7 -20 -11 -10 -21 55 -19 128 -31 256 -30 310 1 41 3 36 10 -30 5 -44 16 -124 25 -178z m800 46 c-3 -43 -11 -109 -18 -147 -9 -54 -13 -64 -20 -46 -5 14 -1 58 12 120 11 54 20 110 20 124 0 14 3 26 6 26 4 0 4 -35 0 -77z m-769 -220 c-4 -3 -7 0 -7 7 0 7 3 10 7 7 3 -4 3 -10 0 -14z m730 -35 c-3 -7 -5 -2 -5 12 0 14 2 19 5 13 2 -7 2 -19 0 -25z m-740 0 c-3 -8 -6 -5 -6 6 -1 11 2 17 5 13 3 -3 4 -12 1 -19z m155 -718 c21 -1 91 -37 82 -42 -5 -3 -31 -2 -59 2 -27 4 -44 8 -36 9 11 1 11 5 -2 19 -10 10 -17 27 -16 38 0 17 1 16 9 -3 5 -13 15 -23 22 -23z m438 -11 c-13 -8 -13 -10 -1 -18 9 -6 -4 -10 -40 -13 -68 -6 -83 6 -27 21 24 6 50 15 58 20 8 6 17 8 19 5 3 -3 -1 -9 -9 -15z"/>
</g>
<g id="layer103" fill="#614455" stroke="none">
<path d="M0 1125 l0 -1125 1125 0 1125 0 0 1125 0 1125 -1125 0 -1125 0 0 -1125z m1527 1088 c8 -11 11 -12 7 -3 -7 13 -5 13 9 1 32 -26 21 -41 -30 -40 -30 1 -37 4 -20 6 34 5 35 16 2 31 -34 16 -56 15 -49 -1 3 -10 -5 -12 -31 -9 -19 2 -33 7 -31 11 6 9 -557 -3 -571 -12 -9 -5 -13 -3 -13 7 0 19 -29 20 -52 2 -25 -18 -23 -24 10 -29 15 -2 6 -4 -20 -4 -53 0 -62 15 -25 40 19 14 74 16 411 16 359 1 390 0 403 -16z m-740 -20 c-4 -3 -10 -3 -14 0 -3 4 0 7 7 7 7 0 10 -3 7 -7z m-85 -73 c2 -22 0 -40 -4 -40 -5 0 -8 18 -8 40 0 22 2 40 4 40 2 0 6 -18 8 -40z m858 -10 c0 -10 -3 -21 -7 -23 -5 -3 -8 8 -8 23 0 15 3 26 8 23 4 -2 7 -13 7 -23z m-407 -15 c199 1 251 -1 265 -12 15 -13 10 -14 -38 -8 -30 4 -100 6 -155 5 -55 -1 -154 -3 -220 -4 -116 -2 -167 -13 -187 -41 -4 -5 -8 0 -8 11 0 12 6 27 14 33 19 16 70 30 76 21 3 -4 117 -6 253 -5z m394 -152 c-2 -21 -4 -6 -4 32 0 39 2 55 4 38 2 -18 2 -50 0 -70z m-811 -176 c9 -54 13 -104 11 -112 -3 -7 -1 -15 4 -17 6 -2 7 -12 1 -28 -7 -20 -11 -10 -21 55 -19 128 -31 256 -30 310 1 41 3 36 10 -30 5 -44 16 -124 25 -178z m71 236 c-4 -3 -7 0 -7 7 0 7 3 10 7 7 3 -4 3 -10 0 -14z m729 -190 c-3 -43 -11 -109 -18 -147 -9 -54 -13 -64 -20 -46 -5 14 -1 58 12 120 11 54 20 110 20 124 0 14 3 26 6 26 4 0 4 -35 0 -77z m-739 50 c-4 -3 -7 0 -7 7 0 7 3 10 7 7 3 -4 3 -10 0 -14z m0 -110 c-2 -16 -4 -3 -4 27 0 30 2 43 4 28 2 -16 2 -40 0 -55z m15 -175 c2 -20 1 -35 -3 -32 -11 6 -22 -34 -13 -47 4 -8 3 -9 -4 -5 -15 9 -16 56 -2 56 6 0 10 19 11 43 1 47 6 41 11 -15z m-45 15 c-4 -3 -7 0 -7 7 0 7 3 10 7 7 3 -4 3 -10 0 -14z m730 -35 c-3 -7 -5 -2 -5 12 0 14 2 19 5 13 2 -7 2 -19 0 -25z m-740 0 c-3 -8 -6 -5 -6 6 -1 11 2 17 5 13 3 -3 4 -12 1 -19z m703 -48 c0 -16 -4 -30 -8 -30 -5 0 -7 14 -4 30 2 17 6 30 8 30 2 0 4 -13 4 -30z m-6 -134 c-10 -42 -20 -74 -22 -71 -3 2 3 38 13 80 10 41 20 73 23 71 2 -3 -4 -39 -14 -80z m-657 42 c-3 -7 -5 -2 -5 12 0 14 2 19 5 13 2 -7 2 -19 0 -25z m20 -5 c-4 -3 -7 0 -7 7 0 7 3 10 7 7 3 -4 3 -10 0 -14z m10 -30 c-4 -3 -7 0 -7 7 0 7 3 10 7 7 3 -4 3 -10 0 -14z m-13 -15 c2 -13 9 -48 16 -78 29 -139 70 -411 64 -422 -9 -14 33 -26 116 -32 47 -3 94 -7 105 -8 43 -6 224 14 234 25 5 7 11 28 14 47 l4 35 1 -40 c1 -23 -5 -50 -14 -63 -8 -12 -11 -22 -7 -22 5 0 15 -111 22 -247 7 -137 18 -301 25 -366 9 -93 10 -122 0 -135 -7 -9 -16 -14 -20 -9 -4 4 -2 7 4 7 15 0 15 50 1 87 -6 15 -13 78 -15 138 -3 61 -6 146 -8 190 -2 44 -5 135 -5 203 -1 123 -1 123 -23 116 -13 -4 -52 -7 -88 -6 -35 0 -69 -3 -75 -8 -5 -4 -66 -2 -135 5 -69 7 -128 11 -132 9 -5 -3 -8 0 -8 5 0 6 5 11 12 11 7 0 6 6 -4 18 -10 11 -19 59 -27 132 -12 112 -35 242 -64 368 -9 34 -11 62 -6 62 5 0 11 -10 13 -22z m613 -100 c-3 -8 -6 -5 -6 6 -1 11 2 17 5 13 3 -3 4 -12 1 -19z m-10 -50 c-3 -7 -5 -2 -5 12 0 14 2 19 5 13 2 -7 2 -19 0 -25z m-10 -50 c-3 -7 -5 -2 -5 12 0 14 2 19 5 13 2 -7 2 -19 0 -25z m-10 -50 c-3 -7 -5 -2 -5 12 0 14 2 19 5 13 2 -7 2 -19 0 -25z m-10 -65 c-3 -10 -5 -2 -5 17 0 19 2 27 5 18 2 -10 2 -26 0 -35z m-10 -75 c-2 -13 -4 -5 -4 17 -1 22 1 32 4 23 2 -10 2 -28 0 -40z m-190 -205 c-4 -3 -10 -3 -14 0 -3 4 0 7 7 7 7 0 10 -3 7 -7z m30 0 c-4 -3 -10 -3 -14 0 -3 4 0 7 7 7 7 0 10 -3 7 -7z m-360 -605 c-3 -8 -6 -5 -6 6 -1 11 2 17 5 13 3 -3 4 -12 1 -19z"/>
</g>
<g id="layer104" fill="#932e75" stroke="none">
<path d="M0 1125 l0 -1125 1125 0 1125 0 0 1125 0 1125 -1125 0 -1125 0 0 -1125z m1538 1089 c26 -17 26 -22 12 -249 -11 -173 -29 -309 -56 -426 -14 -61 -19 -70 -25 -49 -4 16 -7 19 -8 8 -1 -10 -5 -18 -10 -18 -10 0 -5 34 11 67 6 12 8 29 4 38 -3 9 3 37 13 61 11 24 25 81 31 127 6 45 16 112 22 148 6 37 9 91 6 122 -3 33 -1 54 5 50 7 -4 7 11 -3 75 0 1 -19 3 -42 3 l-43 2 35 6 34 6 -26 18 c-32 20 -48 22 -48 4 0 -8 -15 -11 -52 -8 -96 7 -492 6 -560 -2 -44 -5 -68 -4 -68 2 0 6 8 8 18 5 13 -4 14 -4 4 4 -14 9 -62 -6 -62 -20 0 -4 21 -9 48 -11 46 -3 46 -3 -10 -5 -32 -1 -58 -5 -59 -9 0 -5 -2 -17 -4 -28 -2 -10 1 -25 7 -33 9 -10 8 -16 -2 -22 -10 -6 -11 -12 -3 -22 6 -7 11 -40 11 -73 0 -112 39 -361 64 -408 13 -25 18 -88 6 -81 -4 3 -8 -3 -9 -13 -2 -34 -30 72 -49 187 -20 119 -40 347 -40 461 0 93 7 97 150 102 63 2 241 2 395 0 223 -3 285 -7 303 -19z m-731 -76 c-3 -8 -6 -5 -6 6 -1 11 2 17 5 13 3 -3 4 -12 1 -19z m-10 -50 c-3 -8 -6 -5 -6 6 -1 11 2 17 5 13 3 -3 4 -12 1 -19z m103 14 c0 -10 443 -9 451 1 7 9 79 -18 79 -29 0 -4 -24 -4 -52 0 -29 4 -98 7 -153 6 -55 -1 -154 -3 -220 -4 -116 -2 -167 -13 -187 -41 -4 -5 -8 -1 -8 10 0 28 11 40 45 53 38 13 45 14 45 4z m-93 -99 c-4 -3 -7 0 -7 7 0 7 3 10 7 7 3 -4 3 -10 0 -14z m-10 -140 c-4 -3 -7 0 -7 7 0 7 3 10 7 7 3 -4 3 -10 0 -14z m0 -110 c-2 -16 -4 -3 -4 27 0 30 2 43 4 28 2 -16 2 -40 0 -55z m15 -175 c2 -20 0 -34 -4 -32 -4 3 -8 24 -7 47 1 47 6 41 11 -15z m642 -202 c-10 -42 -20 -74 -22 -71 -3 2 3 38 13 80 10 41 20 73 23 71 2 -3 -4 -39 -14 -80z m-634 -49 c5 -26 12 -56 15 -66 15 -47 65 -383 59 -393 -9 -14 33 -26 116 -32 47 -3 94 -7 105 -8 43 -6 224 14 234 25 5 7 11 26 14 42 2 17 3 10 1 -15 -9 -108 6 -448 30 -678 10 -98 10 -127 0 -140 -7 -9 -16 -14 -20 -9 -4 4 -2 7 4 7 15 0 15 50 1 87 -6 15 -13 78 -15 138 -3 61 -6 146 -8 190 -2 44 -5 135 -5 203 -1 123 -1 123 -23 116 -13 -4 -52 -7 -88 -6 -35 0 -69 -3 -75 -8 -5 -4 -66 -2 -135 5 -69 7 -129 11 -133 8 -5 -3 -6 4 -3 15 4 11 3 23 -2 26 -5 3 -13 43 -16 88 -10 108 -39 277 -70 407 -14 57 -22 109 -18 115 6 10 11 -7 32 -117z m-3 86 c-4 -3 -7 0 -7 7 0 7 3 10 7 7 3 -4 3 -10 0 -14z m10 -30 c-4 -3 -7 0 -7 7 0 7 3 10 7 7 3 -4 3 -10 0 -14z m600 -115 c-3 -8 -6 -5 -6 6 -1 11 2 17 5 13 3 -3 4 -12 1 -19z m-10 -50 c-3 -7 -5 -2 -5 12 0 14 2 19 5 13 2 -7 2 -19 0 -25z m-10 -50 c-3 -7 -5 -2 -5 12 0 14 2 19 5 13 2 -7 2 -19 0 -25z m-10 -50 c-3 -7 -5 -2 -5 12 0 14 2 19 5 13 2 -7 2 -19 0 -25z m-10 -65 c-3 -10 -5 -2 -5 17 0 19 2 27 5 18 2 -10 2 -26 0 -35z m-10 -75 c-2 -13 -4 -5 -4 17 -1 22 1 32 4 23 2 -10 2 -28 0 -40z m-190 -205 c-4 -3 -10 -3 -14 0 -3 4 0 7 7 7 7 0 10 -3 7 -7z m30 0 c-4 -3 -10 -3 -14 0 -3 4 0 7 7 7 7 0 10 -3 7 -7z m-360 -605 c-3 -8 -6 -5 -6 6 -1 11 2 17 5 13 3 -3 4 -12 1 -19z"/>
<path d="M1063 813 c4 -3 10 -3 14 0 3 4 0 7 -7 7 -7 0 -10 -3 -7 -7z"/>
<path d="M1118 793 c7 -3 16 -2 19 1 4 3 -2 6 -13 5 -11 0 -14 -3 -6 -6z"/>
</g>
<g id="layer105" fill="#9d2f76" stroke="none">
<path d="M0 1125 l0 -1125 1125 0 1125 0 0 1125 0 1125 -1125 0 -1125 0 0 -1125z m1538 1089 c26 -17 26 -22 12 -249 -13 -206 -31 -323 -79 -520 -73 -297 -112 -534 -111 -670 1 -114 22 -460 35 -580 15 -132 13 -139 -40 -150 -21 -5 -26 -4 -16 3 8 6 11 17 8 25 -3 8 0 20 6 26 8 8 6 15 -6 28 -10 12 -13 24 -8 32 5 7 6 50 3 95 -3 44 -4 115 -2 156 4 113 3 139 -4 215 -4 39 -3 91 2 117 l9 48 -68 -2 c-37 -1 -66 -5 -63 -9 4 -7 -40 -6 -212 7 -95 6 -102 6 -108 -12 -3 -10 -4 -2 -1 18 2 21 0 40 -4 43 -5 2 -12 42 -15 87 -9 106 -38 275 -69 403 -13 55 -22 118 -20 140 2 29 1 34 -6 20 -17 -42 -64 211 -81 445 -15 204 -13 264 8 283 23 21 146 25 527 20 223 -3 285 -7 303 -19z m-651 -1611 c-4 -3 -7 0 -7 7 0 7 3 10 7 7 3 -4 3 -10 0 -14z m0 -45 c-3 -8 -6 -5 -6 6 -1 11 2 17 5 13 3 -3 4 -12 1 -19z m-10 -195 c-4 -3 -7 0 -7 7 0 7 3 10 7 7 3 -4 3 -10 0 -14z m-10 -135 c-2 -13 -4 -3 -4 22 0 25 2 35 4 23 2 -13 2 -33 0 -45z m3 -61 c0 -12 -5 -29 -10 -37 -7 -11 -10 -3 -10 28 0 26 4 41 10 37 6 -3 10 -16 10 -28z m167 -84 c-4 -3 -7 0 -7 7 0 7 3 10 7 7 3 -4 3 -10 0 -14z m-10 -60 c-4 -3 -10 -3 -14 0 -3 4 0 7 7 7 7 0 10 -3 7 -7z"/>
<path d="M753 2206 c-35 -16 -28 -25 25 -29 46 -3 46 -3 -10 -5 -32 -1 -58 -5 -59 -9 0 -5 -2 -17 -4 -28 -2 -10 1 -25 7 -33 9 -10 8 -16 -2 -22 -10 -6 -11 -12 -3 -22 6 -7 11 -40 11 -73 0 -122 39 -364 67 -413 15 -25 16 -16 10 118 -3 79 -4 142 -1 139 3 -2 10 -54 15 -114 6 -61 13 -123 16 -140 3 -16 8 -88 10 -160 3 -71 7 -141 9 -155 3 -14 9 -56 15 -95 20 -123 49 -279 56 -297 8 -20 31 -25 120 -27 39 -1 72 -6 73 -12 5 -12 32 -12 32 1 0 6 38 10 93 10 50 0 97 4 103 8 7 4 14 30 16 57 7 72 53 327 78 429 14 56 18 92 12 98 -11 11 5 110 20 119 6 4 8 17 5 30 -4 13 2 41 13 66 10 24 24 80 30 126 6 45 16 112 22 148 6 37 9 91 6 122 -3 33 -1 54 5 50 7 -4 7 11 -3 75 0 1 -19 3 -42 3 l-43 2 35 6 34 6 -26 18 c-32 20 -48 22 -48 4 0 -8 -15 -11 -52 -8 -96 7 -492 6 -560 -2 -44 -5 -68 -4 -68 2 0 6 7 8 15 5 8 -4 15 -4 15 -1 0 11 -26 12 -47 3z m54 -68 c-3 -8 -6 -5 -6 6 -1 11 2 17 5 13 3 -3 4 -12 1 -19z m-10 -50 c-3 -8 -6 -5 -6 6 -1 11 2 17 5 13 3 -3 4 -12 1 -19z m103 14 c0 -9 443 -9 451 1 9 12 68 -13 79 -33 12 -22 13 -40 2 -24 -4 5 -31 15 -60 22 -60 13 -124 16 -105 4 6 -4 -76 -7 -184 -7 -148 0 -197 -3 -201 -13 -2 -6 -14 -12 -27 -12 -27 0 -36 -17 -45 -85 l-7 -50 -2 55 c-2 86 13 125 52 138 41 13 47 14 47 4z m-103 -239 c-4 -3 -7 0 -7 7 0 7 3 10 7 7 3 -4 3 -10 0 -14z m190 0 c-4 -3 -7 0 -7 7 0 7 3 10 7 7 3 -4 3 -10 0 -14z m460 -230 c-4 -3 -7 0 -7 7 0 7 3 10 7 7 3 -4 3 -10 0 -14z m-510 -65 c-3 -8 -6 -5 -6 6 -1 11 2 17 5 13 3 -3 4 -12 1 -19z"/>
</g>
<g id="layer106" fill="#905778" stroke="none">
<path d="M0 1125 l0 -1125 1125 0 1125 0 0 1125 0 1125 -1125 0 -1125 0 0 -1125z m1538 1089 c26 -17 26 -22 12 -249 -13 -206 -31 -323 -79 -520 -73 -297 -112 -534 -111 -670 1 -114 22 -460 35 -580 15 -132 13 -138 -39 -151 -21 -5 -27 -4 -22 5 14 21 18 72 7 84 -5 7 -6 19 -2 26 5 7 6 50 3 95 -3 44 -4 115 -2 156 4 113 3 139 -4 215 -4 39 -3 91 2 117 l9 48 -68 -2 c-37 -1 -66 -5 -63 -9 2 -4 -4 -8 -13 -8 -10 -1 -25 -1 -33 -1 -8 0 -40 2 -70 6 -30 4 -87 9 -127 11 l-72 5 -4 -34 c-2 -18 -3 -9 -2 20 1 29 -1 55 -5 57 -4 3 -11 42 -14 87 -9 106 -38 275 -69 403 -13 55 -22 118 -20 140 2 29 1 34 -6 20 -17 -42 -64 211 -81 445 -15 204 -13 264 8 283 23 21 146 25 527 20 223 -3 285 -7 303 -19z m-641 -1546 c-3 -8 -6 -5 -6 6 -1 11 2 17 5 13 3 -3 4 -12 1 -19z m-10 -120 c-2 -18 -4 -4 -4 32 0 36 2 50 4 33 2 -18 2 -48 0 -65z m-10 -190 c-2 -13 -4 -3 -4 22 0 25 2 35 4 23 2 -13 2 -33 0 -45z m-7 -131 c-7 -17 -9 -10 -9 28 1 43 2 46 9 22 5 -16 5 -38 0 -50z m2 -102 c2 -48 0 -60 -12 -60 -8 0 -15 8 -14 18 0 9 1 40 2 69 3 70 19 50 24 -27z m165 -47 c-3 -7 -5 -2 -5 12 0 14 2 19 5 13 2 -7 2 -19 0 -25z m-10 -55 c-4 -3 -10 -3 -14 0 -3 4 0 7 7 7 7 0 10 -3 7 -7z"/>
<path d="M753 2206 c-35 -16 -28 -25 25 -29 46 -3 46 -3 -10 -5 -32 -1 -58 -5 -59 -9 0 -5 -2 -17 -4 -28 -2 -10 1 -25 7 -33 9 -10 8 -16 -2 -22 -10 -6 -11 -12 -3 -22 6 -7 11 -40 11 -73 0 -117 39 -361 66 -413 12 -23 14 2 13 203 -1 274 5 306 60 323 20 6 40 8 43 4 7 -10 444 -9 451 1 10 14 77 -20 84 -43 4 -12 4 -24 1 -27 -3 -4 -6 1 -6 10 0 17 -8 19 -80 22 -14 1 -32 5 -38 9 -7 4 -18 3 -25 -2 -7 -6 -92 -10 -206 -9 -144 1 -196 -2 -199 -11 -2 -7 -14 -12 -28 -12 -24 0 -26 -3 -38 -78 -4 -25 -3 -31 7 -26 9 6 9 5 0 -7 -17 -21 -16 -272 2 -333 8 -27 13 -52 10 -56 -2 -4 0 -31 4 -61 6 -38 5 -58 -3 -68 -9 -12 -8 -13 3 -6 11 6 12 2 6 -21 -9 -34 -9 -35 0 -94 3 -25 6 -52 7 -60 0 -8 10 -55 20 -105 11 -49 19 -104 19 -122 -1 -20 5 -36 17 -43 12 -8 13 -13 5 -16 -29 -12 -4 -89 31 -97 11 -3 53 -6 91 -6 39 -1 72 -6 73 -12 5 -12 32 -12 32 1 0 6 36 10 89 10 114 0 121 3 121 49 0 21 4 62 10 92 30 169 41 229 52 274 6 28 12 65 12 83 1 17 4 32 7 32 11 0 21 53 11 59 -13 8 6 121 20 121 6 0 8 12 5 28 -3 17 2 44 13 70 10 23 24 79 30 124 6 46 16 113 22 149 6 37 9 91 6 122 -3 33 -1 54 5 50 7 -4 7 11 -3 75 0 1 -19 3 -42 3 l-43 2 35 6 34 6 -26 18 c-32 20 -48 22 -48 4 0 -8 -15 -11 -52 -8 -96 7 -492 6 -560 -2 -44 -5 -68 -4 -68 2 0 6 7 8 15 5 8 -4 15 -4 15 -1 0 11 -26 12 -47 3z m54 -68 c-3 -8 -6 -5 -6 6 -1 11 2 17 5 13 3 -3 4 -12 1 -19z m-10 -50 c-3 -8 -6 -5 -6 6 -1 11 2 17 5 13 3 -3 4 -12 1 -19z m652 -100 c0 -18 -4 -42 -8 -53 -6 -15 -9 -6 -12 33 -3 37 0 52 9 52 7 0 12 -13 11 -32z m-69 -85 c0 -5 -5 -15 -10 -23 -8 -12 -10 -11 -10 8 0 12 5 22 10 22 6 0 10 -3 10 -7z m-393 -40 c-4 -3 -7 0 -7 7 0 7 3 10 7 7 3 -4 3 -10 0 -14z m-100 -130 c-4 -3 -7 0 -7 7 0 7 3 10 7 7 3 -4 3 -10 0 -14z m560 -120 c-3 -10 -5 -4 -5 12 0 17 2 24 5 18 2 -7 2 -21 0 -30z m-507 -39 c0 -8 -5 -12 -10 -9 -6 4 -8 11 -5 16 9 14 15 11 15 -7z"/>
<path d="M761 1564 c0 -11 3 -14 6 -6 3 7 2 16 -1 19 -3 4 -6 -2 -5 -13z"/>
<path d="M1470 1530 c0 -7 3 -10 7 -7 3 4 3 10 0 14 -4 3 -7 0 -7 -7z"/>
<path d="M1461 1498 c0 -9 -4 -25 -7 -35 -5 -17 -5 -17 6 0 6 10 9 25 7 35 -4 15 -5 15 -6 0z"/>
</g>
<g id="layer107" fill="#a63a85" stroke="none">
<path d="M0 1125 l0 -1125 1125 0 1125 0 0 1125 0 1125 -1125 0 -1125 0 0 -1125z m1538 1089 c26 -17 26 -22 12 -249 -14 -211 -30 -314 -89 -568 -58 -245 -79 -357 -88 -474 -3 -46 -10 -86 -14 -89 -5 -3 -6 -17 -4 -32 3 -15 9 -128 16 -252 6 -124 17 -281 24 -350 16 -137 14 -143 -39 -156 -21 -5 -27 -4 -22 5 14 21 18 72 7 84 -5 7 -6 19 -2 26 5 7 6 50 3 95 -3 44 -4 115 -2 156 4 113 3 139 -4 215 -4 39 -3 91 2 117 l9 48 -68 -2 c-37 -1 -66 -5 -63 -9 2 -4 -4 -8 -13 -8 -10 -1 -25 -1 -33 -1 -8 0 -40 2 -70 6 -30 4 -87 9 -127 11 l-72 5 -4 -34 c-2 -19 -4 -13 -3 17 0 28 -2 55 -5 60 -4 6 -10 42 -13 80 -14 136 -39 272 -91 500 -60 259 -71 323 -85 515 -15 204 -13 264 8 283 23 21 146 25 527 20 223 -3 285 -7 303 -19z m-641 -1546 c-3 -8 -6 -5 -6 6 -1 11 2 17 5 13 3 -3 4 -12 1 -19z m-10 -120 c-2 -18 -4 -4 -4 32 0 36 2 50 4 33 2 -18 2 -48 0 -65z m-10 -190 c-2 -13 -4 -3 -4 22 0 25 2 35 4 23 2 -13 2 -33 0 -45z m-6 -131 c-5 -12 -4 -51 0 -86 6 -42 6 -68 -1 -75 -23 -23 -27 12 -17 124 8 86 12 108 18 87 4 -16 4 -39 0 -50z m166 -149 c-3 -7 -5 -2 -5 12 0 14 2 19 5 13 2 -7 2 -19 0 -25z m31 -55 c-10 -2 -28 -2 -40 0 -13 2 -5 4 17 4 22 1 32 -1 23 -4z"/>
<path d="M1452 2203 c-7 -11 -22 -16 -48 -15 -22 0 -68 1 -104 2 -47 0 -60 3 -45 10 13 5 -31 8 -125 8 -80 0 -131 -3 -115 -7 22 -5 7 -9 -60 -14 -49 -4 -125 -10 -167 -13 -43 -3 -78 -9 -79 -13 0 -3 -2 -15 -4 -26 -2 -10 1 -25 7 -33 9 -10 8 -16 -2 -22 -10 -6 -11 -12 -3 -22 6 -7 11 -40 11 -73 0 -115 35 -336 65 -404 13 -32 14 -21 10 130 -3 90 0 207 6 258 11 103 8 129 -7 59 -10 -43 -10 -43 -11 -8 0 19 5 59 12 88 l13 53 14 -36 c10 -26 18 -34 29 -29 23 10 31 10 181 1 74 -4 180 -4 235 1 74 7 108 6 132 -4 29 -11 52 -48 39 -61 -3 -4 -6 1 -6 10 0 17 -8 19 -80 22 -14 1 -32 5 -38 9 -7 4 -18 3 -25 -2 -7 -6 -92 -10 -206 -9 -144 1 -196 -2 -199 -11 -2 -7 -14 -12 -28 -12 -24 0 -26 -3 -38 -78 -4 -25 -3 -31 7 -26 9 6 9 5 0 -7 -17 -21 -16 -272 2 -333 8 -27 13 -52 10 -56 -2 -4 0 -31 4 -61 6 -38 5 -58 -3 -68 -9 -12 -8 -13 3 -6 11 6 12 2 6 -21 -9 -34 -9 -35 0 -94 3 -25 6 -52 7 -60 0 -8 10 -55 20 -105 11 -49 19 -104 19 -122 -1 -20 5 -36 17 -43 12 -8 13 -13 5 -16 -27 -11 -4 -92 26 -96 9 -1 23 -2 31 -4 8 -1 46 -2 83 -3 43 -1 66 -5 62 -11 -3 -5 1 -10 10 -10 9 0 13 4 10 10 -4 6 28 10 89 10 119 0 126 3 126 49 0 21 4 62 10 92 30 169 41 229 52 274 6 28 12 65 12 83 1 17 4 32 7 32 12 0 21 53 10 59 -9 6 1 87 16 121 3 8 5 25 4 37 -1 12 7 39 18 60 10 22 24 77 31 123 6 47 16 115 22 151 6 37 9 91 6 122 -3 33 -1 54 5 50 7 -4 7 11 -3 75 0 1 -21 3 -47 3 l-48 2 40 6 39 6 -26 18 c-33 21 -35 21 -46 0z m-3 -215 c0 -18 -4 -42 -8 -53 -6 -15 -9 -6 -12 33 -3 37 0 52 9 52 7 0 12 -13 11 -32z m-69 -85 c0 -5 -5 -15 -10 -23 -8 -12 -10 -11 -10 8 0 12 5 22 10 22 6 0 10 -3 10 -7z m-393 -40 c-4 -3 -7 0 -7 7 0 7 3 10 7 7 3 -4 3 -10 0 -14z m0 -65 c-3 -8 -6 -5 -6 6 -1 11 2 17 5 13 3 -3 4 -12 1 -19z m215 -5 c-3 -16 -7 -22 -10 -15 -4 13 4 42 11 42 2 0 2 -12 -1 -27z m-75 -15 c-3 -8 -6 -5 -6 6 -1 11 2 17 5 13 3 -3 4 -12 1 -19z m-240 -45 c-4 -3 -7 0 -7 7 0 7 3 10 7 7 3 -4 3 -10 0 -14z m277 -25 c8 -5 7 -8 -1 -8 -7 0 -17 9 -23 19 -14 27 -12 41 2 16 6 -11 16 -23 22 -27z m63 10 c-3 -8 -6 -5 -6 6 -1 11 2 17 5 13 3 -3 4 -12 1 -19z m-42 2 c3 -6 -1 -7 -9 -4 -18 7 -21 14 -7 14 6 0 13 -4 16 -10z m-64 -58 c-6 -2 -8 -9 -5 -14 5 -7 2 -8 -5 -3 -9 5 -10 10 -2 18 6 6 12 20 12 32 1 16 3 15 6 -5 3 -13 0 -26 -6 -28z m109 33 c0 -2 -6 -5 -13 -8 -8 -3 -14 1 -14 8 0 7 6 11 14 8 7 -3 13 -6 13 -8z m-43 -32 c-4 -3 -7 0 -7 7 0 7 3 10 7 7 3 -4 3 -10 0 -14z m-210 -10 c-4 -3 -7 0 -7 7 0 7 3 10 7 7 3 -4 3 -10 0 -14z m470 -40 c-3 -10 -5 -4 -5 12 0 17 2 24 5 18 2 -7 2 -21 0 -30z m-380 0 c-4 -3 -10 -3 -14 0 -3 4 0 7 7 7 7 0 10 -3 7 -7z m-30 -20 c-4 -3 -7 0 -7 7 0 7 3 10 7 7 3 -4 3 -10 0 -14z m-97 -19 c0 -8 -5 -12 -10 -9 -6 4 -8 11 -5 16 9 14 15 11 15 -7z m297 -86 c-3 -8 -6 -5 -6 6 -1 11 2 17 5 13 3 -3 4 -12 1 -19z m-288 -33 c-12 -7 -26 -21 -30 -31 -7 -17 -8 -17 -8 3 -1 13 7 24 19 28 11 3 20 11 20 16 0 6 5 7 11 3 8 -4 3 -11 -12 -19z m48 -42 c-4 -3 -10 -3 -14 0 -3 4 0 7 7 7 7 0 10 -3 7 -7z"/>
<path d="M1263 2073 c4 -3 10 -3 14 0 3 4 0 7 -7 7 -7 0 -10 -3 -7 -7z"/>
<path d="M801 1420 c0 -8 4 -24 9 -35 5 -13 9 -14 9 -5 0 8 -4 24 -9 35 -5 13 -9 14 -9 5z"/>
</g>
<g id="layer108" fill="#b15090" stroke="none">
<path d="M0 1125 l0 -1125 1125 0 1125 0 0 1125 0 1125 -1125 0 -1125 0 0 -1125z m1537 1089 c27 -17 27 -21 13 -249 -14 -211 -30 -314 -89 -568 -58 -245 -79 -357 -88 -474 -3 -46 -10 -86 -14 -89 -5 -3 -6 -17 -4 -32 3 -15 9 -128 16 -252 6 -124 17 -281 25 -350 14 -123 13 -125 -7 -142 -12 -10 -30 -18 -41 -18 -17 0 -19 7 -18 78 0 61 -8 347 -10 347 0 0 -2 50 -3 110 -3 82 -8 119 -21 144 -14 26 -15 33 -4 28 10 -3 14 2 13 16 -1 17 -9 22 -33 24 -19 2 -32 -2 -32 -9 0 -6 -3 -8 -6 -5 -10 9 -63 -52 -70 -80 -4 -14 -2 -28 3 -32 17 -10 23 -51 8 -51 -7 0 -15 5 -17 11 -7 21 -47 -9 -54 -39 -10 -45 -13 -52 -25 -52 -7 0 -9 9 -6 21 6 23 -1 49 -13 49 -5 0 -11 -15 -13 -32 -2 -18 -5 -5 -5 30 -2 44 2 62 11 62 9 0 9 2 -1 8 -7 5 -12 27 -11 55 2 49 -7 70 -20 49 -6 -10 -11 -10 -21 3 -7 8 -27 15 -46 15 -39 0 -55 -21 -53 -72 0 -18 -4 -85 -9 -148 l-9 -115 -1 95 c0 52 3 136 7 185 4 50 4 95 0 100 -3 6 -10 42 -13 80 -14 136 -39 272 -91 500 -60 259 -71 323 -85 515 -15 204 -13 264 8 283 23 21 148 26 527 20 226 -3 284 -7 302 -19z m-280 -1451 c-4 -3 -7 0 -7 7 0 7 3 10 7 7 3 -4 3 -10 0 -14z m-49 -83 c-7 -10 -14 -18 -15 -16 -6 6 9 36 18 36 5 0 4 -9 -3 -20z m-191 -27 c-4 -3 -7 0 -7 7 0 7 3 10 7 7 3 -4 3 -10 0 -14z m191 -38 c-3 -3 -9 2 -12 12 -6 14 -5 15 5 6 7 -7 10 -15 7 -18z m-191 -7 c-3 -8 -6 -5 -6 6 -1 11 2 17 5 13 3 -3 4 -12 1 -19z m166 -38 c-3 -11 0 -20 6 -20 6 0 10 3 9 8 -2 4 0 7 4 7 4 0 13 8 21 19 12 16 13 14 10 -20 -6 -63 -13 -85 -24 -78 -8 4 -7 10 0 17 16 16 13 27 -6 20 -11 -4 -14 -3 -9 5 5 8 -1 12 -18 12 -15 0 -26 6 -28 17 -3 15 -4 15 -20 -1 -10 -10 -18 -13 -18 -8 0 19 56 55 72 46 3 -2 4 -13 1 -24z m7 -66 c0 -9 -28 -34 -39 -34 -21 0 -21 21 1 29 28 12 38 13 38 5z m-173 -41 c-4 -3 -7 0 -7 7 0 7 3 10 7 7 3 -4 3 -10 0 -14z m53 -13 c0 -4 -7 -10 -15 -14 -11 -4 -15 2 -15 21 0 21 2 24 15 13 8 -7 15 -16 15 -20z m147 3 c-4 -3 -7 0 -7 7 0 7 3 10 7 7 3 -4 3 -10 0 -14z m-51 -28 c41 3 44 2 39 -16 -4 -12 -2 -19 6 -19 7 0 9 -3 6 -6 -4 -4 -13 -1 -22 6 -13 11 -14 10 -9 -3 3 -9 -1 -26 -10 -39 -14 -19 -16 -20 -16 -5 0 10 -4 15 -10 12 -5 -3 -10 -1 -10 4 0 6 -11 11 -25 11 -14 0 -25 5 -25 10 0 6 5 10 12 10 9 0 9 3 1 11 -9 9 -9 16 0 31 10 15 13 16 15 4 3 -12 14 -15 48 -11z m-287 -62 c-4 -43 -5 -81 -3 -85 6 -9 8 -218 2 -223 -2 -3 -12 1 -21 8 -15 11 -15 23 -2 147 8 74 15 156 15 183 0 26 3 47 8 47 4 0 5 -35 1 -77z m168 30 c-4 -3 -7 0 -7 7 0 7 3 10 7 7 3 -4 3 -10 0 -14z m0 -110 c-4 -3 -7 0 -7 7 0 7 3 10 7 7 3 -4 3 -10 0 -14z m152 -43 c12 -6 21 -17 21 -24 0 -19 -35 -56 -53 -56 -25 0 -26 -25 -2 -48 24 -23 42 -15 31 13 -3 8 -1 17 4 20 6 4 10 -1 10 -10 0 -8 7 -18 15 -21 23 -9 20 -74 -2 -74 -19 1 -53 22 -53 34 0 3 -9 15 -19 25 -19 19 -22 19 -50 5 -46 -23 -40 -44 9 -39 30 3 40 0 40 -11 0 -9 -5 -13 -12 -9 -7 4 -5 0 5 -8 16 -13 9 -15 -70 -14 -76 0 -81 1 -33 6 52 6 54 7 23 14 -31 8 -33 11 -33 53 0 41 3 47 45 76 28 20 45 40 46 52 0 19 1 18 12 -4 11 -25 11 -25 14 10 6 55 13 69 23 43 5 -12 18 -27 29 -33z m8 33 c-4 -3 -7 0 -7 7 0 7 3 10 7 7 3 -4 3 -10 0 -14z m-87 -3 c0 -5 -5 -10 -11 -10 -5 0 -7 5 -4 10 3 6 8 10 11 10 2 0 4 -4 4 -10z m-115 -137 c-7 -41 -31 -43 -37 -4 -2 17 -1 28 3 25 11 -7 29 30 31 63 1 20 3 16 5 -12 3 -21 2 -54 -2 -72z m-8 -80 c-4 -3 -10 -3 -14 0 -3 4 0 7 7 7 7 0 10 -3 7 -7z m-50 -20 c-4 -3 -10 -3 -14 0 -3 4 0 7 7 7 7 0 10 -3 7 -7z"/>
<path d="M1452 2203 c-7 -11 -22 -16 -48 -15 -22 0 -68 1 -104 2 -47 0 -60 3 -45 10 13 5 -31 8 -125 8 -80 0 -131 -3 -115 -7 22 -5 7 -9 -60 -14 -49 -4 -125 -10 -167 -13 -43 -3 -78 -9 -79 -13 0 -3 -2 -15 -4 -26 -2 -10 1 -25 7 -33 9 -10 8 -16 -2 -22 -10 -6 -11 -12 -3 -22 6 -7 11 -40 11 -73 0 -115 35 -336 65 -404 13 -32 14 -21 10 130 -3 90 0 207 5 259 11 104 9 125 -6 58 -10 -43 -10 -43 -11 -8 0 19 5 59 12 88 l13 53 14 -36 c10 -26 18 -34 29 -29 23 10 31 10 181 1 74 -4 180 -4 235 1 127 11 159 1 174 -55 12 -41 13 -130 2 -178 l-7 -30 -8 25 c-4 14 -9 55 -11 91 -1 36 -8 76 -14 88 -11 19 -18 21 -69 17 -89 -7 -120 -17 -135 -40 -8 -11 -28 -36 -45 -53 -22 -24 -31 -29 -35 -19 -3 8 1 17 9 20 21 8 17 36 -6 36 -21 0 -27 15 -10 25 23 14 6 20 -60 23 -45 2 -70 0 -70 -7 0 -6 -14 -11 -31 -11 -29 0 -31 -2 -27 -29 2 -17 1 -28 -4 -25 -4 3 -8 1 -8 -5 0 -5 8 -12 19 -16 10 -3 27 -16 37 -28 19 -22 19 -22 -1 -5 -11 9 -32 21 -46 27 -25 9 -27 7 -33 -22 -11 -52 -25 -10 -17 51 8 60 2 66 -18 20 -23 -51 -17 -398 8 -528 9 -46 21 -147 21 -185 0 -5 -3 -25 -6 -42 -5 -27 -3 -33 11 -33 14 0 16 -6 12 -29 -6 -29 1 -86 31 -236 15 -77 20 -90 37 -90 11 -1 26 -4 33 -9 7 -4 22 -7 35 -6 50 4 88 0 82 -10 -3 -5 1 -10 10 -10 9 0 13 4 10 10 -4 6 22 10 72 10 119 0 120 1 119 71 0 32 -4 59 -8 59 -5 0 -6 5 -3 10 4 6 9 8 13 6 7 -4 13 42 16 117 0 20 4 37 9 37 4 0 4 12 1 26 -5 21 -2 31 16 44 17 13 22 27 22 58 0 23 -3 46 -7 51 -3 5 -1 12 5 16 5 3 11 0 12 -7 0 -7 5 16 10 52 4 36 10 81 13 100 3 19 7 75 9 123 4 104 16 128 17 36 0 -46 3 -57 8 -39 5 14 15 39 24 55 8 17 20 69 27 115 6 47 16 115 22 151 6 37 9 91 6 122 -3 33 -1 54 5 50 7 -4 7 11 -3 75 0 1 -21 3 -47 3 l-48 2 40 6 39 6 -26 18 c-33 21 -35 21 -46 0z m-72 -303 c0 -61 -2 -110 -10 -170 0 -3 -12 14 -26 38 -23 38 -24 44 -10 58 18 17 21 28 6 19 -5 -3 -10 -2 -10 4 0 5 4 11 9 13 6 2 13 29 16 61 5 46 3 57 -8 57 -13 0 -33 29 -25 35 2 1 12 7 23 13 18 9 21 7 28 -21 4 -18 7 -66 7 -107z m-100 105 c0 -8 -4 -16 -9 -19 -5 -3 -8 5 -7 18 1 25 16 26 16 1z m-290 0 c-7 -9 -15 -13 -19 -10 -3 3 1 10 9 15 21 14 24 12 10 -5z m120 -29 c0 -2 -8 -10 -17 -17 -16 -13 -17 -12 -4 4 13 16 21 21 21 13z m103 -23 c-5 -12 -3 -14 7 -8 9 6 11 4 5 -4 -5 -9 -11 -9 -17 -3 -6 6 -7 15 -4 21 11 17 16 13 9 -6z m42 -13 c3 -5 4 -10 1 -10 -3 0 -8 5 -11 10 -3 6 -4 10 -1 10 3 0 8 -4 11 -10z m-28 -47 c-4 -3 -7 0 -7 7 0 7 3 10 7 7 3 -4 3 -10 0 -14z m20 0 c-4 -3 -7 0 -7 7 0 7 3 10 7 7 3 -4 3 -10 0 -14z m-298 -50 c-1 -32 -3 -50 -6 -40 -2 9 -9 14 -15 11 -7 -5 -8 -2 -3 6 7 11 9 21 14 68 0 6 3 12 6 12 3 0 4 -26 4 -57z m38 20 c-3 -10 -5 -4 -5 12 0 17 2 24 5 18 2 -7 2 -21 0 -30z m218 27 c3 -5 4 -10 1 -10 -3 0 -8 5 -11 10 -3 6 -4 10 -1 10 3 0 8 -4 11 -10z m-317 -52 l-1 -53 -9 40 c-8 36 -5 65 6 65 2 0 4 -24 4 -52z m349 35 c-4 -3 -10 -3 -14 0 -3 4 0 7 7 7 7 0 10 -3 7 -7z m180 -55 c-3 -7 -5 -2 -5 12 0 14 2 19 5 13 2 -7 2 -19 0 -25z m-215 -23 c-2 -14 -7 -25 -9 -25 -3 0 -3 11 -1 25 3 14 1 25 -3 25 -5 0 -9 5 -9 11 0 8 4 8 14 0 7 -6 11 -22 8 -36z m33 36 c3 -5 2 -12 -3 -15 -5 -3 -9 1 -9 9 0 17 3 19 12 6z m32 -8 c-4 -3 -7 0 -7 7 0 7 3 10 7 7 3 -4 3 -10 0 -14z m-280 -25 c-3 -8 -6 -5 -6 6 -1 11 2 17 5 13 3 -3 4 -12 1 -19z m140 -20 c-3 -8 -6 -5 -6 6 -1 11 2 17 5 13 3 -3 4 -12 1 -19z m-207 -18 c10 -6 15 -36 18 -112 2 -57 1 -100 -3 -96 -5 4 -9 49 -9 99 -1 77 -4 93 -21 105 -21 15 -9 19 15 4z m417 3 c-4 -3 -10 -3 -14 0 -3 4 0 7 7 7 7 0 10 -3 7 -7z m-450 -125 c-2 -24 -4 -7 -4 37 0 44 2 63 4 43 2 -21 2 -57 0 -80z m277 70 c8 -5 7 -8 -1 -8 -7 0 -17 9 -23 19 -14 27 -12 41 2 16 6 -11 16 -23 22 -27z m63 10 c-3 -8 -6 -5 -6 6 -1 11 2 17 5 13 3 -3 4 -12 1 -19z m-42 2 c3 -6 -1 -7 -9 -4 -18 7 -21 14 -7 14 6 0 13 -4 16 -10z m-64 -58 c-6 -2 -8 -9 -5 -14 5 -7 2 -8 -5 -3 -9 5 -10 10 -2 18 6 6 12 20 12 32 1 16 3 15 6 -5 3 -13 0 -26 -6 -28z m109 33 c0 -2 -6 -5 -13 -8 -8 -3 -14 1 -14 8 0 7 6 11 14 8 7 -3 13 -6 13 -8z m-43 -32 c-4 -3 -7 0 -7 7 0 7 3 10 7 7 3 -4 3 -10 0 -14z m-210 -10 c-4 -3 -7 0 -7 7 0 7 3 10 7 7 3 -4 3 -10 0 -14z m200 -20 c-4 -3 -10 -3 -14 0 -3 4 0 7 7 7 7 0 10 -3 7 -7z m-180 -35 c-3 -8 -6 -5 -6 6 -1 11 2 17 5 13 3 -3 4 -12 1 -19z m70 15 c-4 -3 -10 -3 -14 0 -3 4 0 7 7 7 7 0 10 -3 7 -7z m310 -12 c1 -11 -5 -25 -13 -31 -7 -7 -11 -17 -7 -23 3 -6 1 -7 -5 -3 -7 4 -12 1 -13 -6 0 -7 -4 -4 -9 7 -4 11 -4 24 1 30 5 5 9 17 9 27 0 25 35 24 37 -1z m-340 -8 c-4 -3 -7 0 -7 7 0 7 3 10 7 7 3 -4 3 -10 0 -14z m373 13 c0 -3 -5 -8 -12 -12 -7 -4 -8 -3 -4 4 7 12 16 16 16 8z m-505 -46 c3 -5 4 -10 1 -10 -3 0 -8 5 -11 10 -3 6 -4 10 -1 10 3 0 8 -4 11 -10z m92 -17 c-4 -3 -7 0 -7 7 0 7 3 10 7 7 3 -4 3 -10 0 -14z m240 -50 c-3 -10 -5 -4 -5 12 0 17 2 24 5 18 2 -7 2 -21 0 -30z m90 10 c-4 -3 -7 0 -7 7 0 7 3 10 7 7 3 -4 3 -10 0 -14z m-378 -48 c-12 -7 -26 -21 -30 -31 -7 -18 -8 -18 -8 -1 -1 21 39 58 53 50 5 -3 -2 -11 -15 -18z m51 -42 c0 -3 -6 -3 -14 0 -7 3 -19 0 -25 -6 -8 -8 -14 -8 -23 2 -11 10 -10 11 3 6 10 -4 20 -2 23 4 6 10 36 5 36 -6z m340 7 c0 -5 -2 -10 -4 -10 -3 0 -8 5 -11 10 -3 6 -1 10 4 10 6 0 11 -4 11 -10z m-24 -37 c-10 -10 -19 5 -10 18 6 11 8 11 12 0 2 -7 1 -15 -2 -18z m-209 -40 c-4 -3 -7 0 -7 7 0 7 3 10 7 7 3 -4 3 -10 0 -14z m213 -19 c0 -14 -4 -23 -10 -19 -5 3 -10 -1 -10 -9 0 -21 -16 -21 -24 0 -3 8 -2 12 4 9 6 -3 10 5 10 19 0 16 6 26 15 26 9 0 15 -10 15 -26z m-61 -216 c-6 -18 -13 -40 -16 -48 -9 -24 -9 -70 0 -70 7 0 2 -39 -10 -70 -4 -8 -7 -21 -7 -29 -1 -8 -11 -15 -22 -16 -20 -1 -21 3 -17 44 2 25 8 48 12 51 5 3 12 23 16 45 8 54 35 125 45 125 5 0 4 -15 -1 -32z m-302 -145 c-4 -3 -7 0 -7 7 0 7 3 10 7 7 3 -4 3 -10 0 -14z"/>
<path d="M800 1415 c0 -5 5 -17 10 -25 5 -8 10 -10 10 -5 0 6 -5 17 -10 25 -5 8 -10 11 -10 5z"/>
<path d="M1430 1400 c0 -11 2 -20 4 -20 2 0 6 9 9 20 3 11 1 20 -4 20 -5 0 -9 -9 -9 -20z"/>
<path d="M1153 743 c4 -3 10 -3 14 0 3 4 0 7 -7 7 -7 0 -10 -3 -7 -7z"/>
</g>
<g id="layer109" fill="#9d8180" stroke="none">
<path d="M0 1125 l0 -1125 1125 0 1125 0 0 1125 0 1125 -1125 0 -1125 0 0 -1125z m1418 1108 c155 -9 147 4 133 -234 -14 -243 -28 -337 -90 -602 -58 -245 -77 -348 -87 -470 -4 -48 -11 -90 -15 -93 -5 -2 -6 -17 -4 -32 3 -15 9 -128 16 -252 6 -124 17 -281 25 -350 14 -123 13 -125 -7 -142 -12 -10 -31 -18 -43 -19 -11 0 -39 -2 -61 -3 -98 -8 -294 -14 -245 -8 50 6 52 8 24 14 l-31 7 4 368 c2 226 0 362 -5 353 -5 -8 -12 -160 -16 -336 -3 -177 -9 -336 -12 -353 -6 -28 -10 -31 -43 -31 l-37 0 8 67 c4 37 12 69 17 72 18 12 36 238 20 257 -8 9 -4 17 15 29 22 15 26 25 26 66 0 37 -4 49 -15 49 -12 0 -15 17 -15 90 0 73 -3 90 -15 90 -8 0 -15 5 -15 12 0 8 -5 7 -15 -3 -11 -11 -17 -45 -22 -115 -3 -54 -9 -104 -14 -110 -5 -6 -7 -46 -6 -90 2 -43 -1 -90 -5 -103 -5 -14 -4 -28 3 -37 7 -8 10 -48 7 -109 -1 -52 0 -95 5 -95 4 0 7 -5 7 -11 0 -5 -5 -7 -12 -3 -11 7 -9 -10 7 -50 7 -16 5 -17 -16 -11 -49 15 -50 20 -34 170 8 77 19 239 25 360 6 121 13 227 16 237 3 9 1 19 -4 22 -5 3 -12 38 -16 78 -13 135 -38 272 -91 503 -30 127 -58 264 -64 305 -14 95 -31 324 -31 411 0 93 7 97 150 102 199 6 471 6 578 0z m-455 -2200 c-7 -2 -21 -2 -30 0 -10 3 -4 5 12 5 17 0 24 -2 18 -5z"/>
<path d="M1452 2203 c-7 -11 -22 -16 -48 -15 -22 0 -68 1 -104 2 -47 0 -60 3 -45 10 13 5 -31 8 -125 8 -80 0 -131 -3 -115 -7 22 -5 7 -9 -60 -14 -49 -4 -125 -10 -167 -13 -43 -3 -78 -9 -79 -13 0 -3 -2 -15 -4 -26 -2 -10 1 -25 7 -33 9 -10 8 -16 -2 -22 -10 -6 -11 -12 -3 -22 6 -7 11 -40 11 -73 0 -115 35 -336 65 -404 13 -32 14 -21 10 130 -3 90 0 207 5 259 11 104 9 125 -6 58 -10 -43 -10 -43 -11 -8 0 19 5 59 12 88 l13 53 14 -36 c10 -26 18 -34 29 -29 23 10 31 10 181 1 74 -4 180 -3 235 1 119 11 163 -2 178 -53 5 -16 9 -126 9 -243 l0 -213 24 51 c12 27 28 87 34 132 6 46 16 113 22 149 6 37 9 91 6 122 -3 33 -1 54 5 50 7 -4 7 11 -3 75 0 1 -21 3 -47 3 l-48 2 40 6 39 6 -26 18 c-33 21 -35 21 -46 0z"/>
<path d="M748 2202 c-37 -7 -16 -22 30 -21 27 1 37 4 22 6 -14 3 -27 8 -30 12 -3 4 -13 5 -22 3z"/>
</g>
<g id="layer110" fill="#b46a9d" stroke="none">
<path d="M0 1125 l0 -1125 1125 0 1125 0 0 1125 0 1125 -1125 0 -1125 0 0 -1125z m1540 1090 c24 -21 25 -66 10 -280 -15 -200 -25 -262 -85 -520 -62 -263 -81 -363 -91 -488 -4 -48 -11 -90 -15 -93 -5 -2 -6 -17 -4 -32 3 -15 9 -128 16 -252 6 -124 17 -281 25 -350 14 -123 13 -125 -7 -142 -12 -10 -31 -18 -43 -19 -11 0 -39 -2 -61 -3 -98 -8 -294 -14 -245 -8 50 6 52 8 24 14 l-31 7 4 368 c2 226 0 362 -5 353 -5 -8 -12 -160 -16 -336 -3 -177 -9 -336 -12 -353 -6 -28 -10 -31 -43 -31 l-37 0 8 67 c4 37 12 69 17 72 18 12 36 238 20 257 -8 9 -4 17 15 29 22 15 26 25 26 66 0 37 -4 49 -15 49 -12 0 -15 17 -15 90 0 73 -3 90 -15 90 -8 0 -15 5 -15 12 0 8 -5 7 -15 -3 -11 -11 -17 -45 -22 -115 -3 -54 -9 -104 -14 -110 -5 -6 -7 -46 -6 -90 2 -43 -1 -90 -5 -103 -5 -14 -4 -28 3 -37 7 -8 10 -48 7 -109 -1 -52 0 -95 5 -95 4 0 7 -5 7 -11 0 -5 -5 -7 -12 -3 -11 7 -9 -10 7 -50 7 -16 5 -17 -16 -11 -49 15 -50 20 -34 170 8 77 19 239 25 360 6 121 13 227 16 237 3 9 1 19 -4 22 -5 3 -12 38 -16 78 -13 137 -38 273 -91 498 -58 245 -70 314 -85 495 -16 191 -13 289 8 308 24 21 97 25 489 22 296 -2 325 -3 343 -20z m-577 -2182 c-7 -2 -21 -2 -30 0 -10 3 -4 5 12 5 17 0 24 -2 18 -5z"/>
<path d="M1025 2201 c22 -5 4 -9 -65 -14 -203 -15 -240 -19 -251 -33 -6 -8 -7 -14 -2 -14 6 0 12 -65 16 -157 6 -165 28 -319 56 -390 16 -40 16 -35 16 175 0 120 3 237 7 262 5 29 4 38 -2 25 -5 -11 -9 -38 -10 -60 -1 -22 -5 -31 -7 -21 -3 11 -2 57 2 103 6 73 9 83 26 83 15 0 19 -7 19 -35 0 -32 2 -34 23 -26 12 4 79 4 148 -1 80 -6 171 -6 250 0 141 11 175 2 192 -53 5 -17 9 -126 9 -244 l0 -214 23 54 c27 64 41 156 51 336 4 87 10 130 17 126 6 -4 8 0 4 11 -4 10 -7 26 -7 37 0 16 -8 19 -47 20 l-48 2 40 7 40 6 -29 13 c-23 9 -31 9 -37 0 -4 -7 -30 -14 -58 -15 -29 -2 -50 0 -47 4 2 4 -33 6 -77 5 -56 -2 -74 1 -57 6 16 6 -18 9 -100 9 -70 0 -112 -3 -95 -7z"/>
<path d="M788 2183 c6 -2 18 -2 25 0 6 3 1 5 -13 5 -14 0 -19 -2 -12 -5z"/>
<path d="M993 2023 c4 -6 3 -14 -3 -18 -6 -4 -7 -11 -4 -17 4 -6 3 -8 -2 -5 -5 3 -20 -2 -33 -12 l-23 -18 49 -18 c49 -20 55 -22 74 -24 8 -1 8 -5 0 -15 -7 -8 -13 -28 -13 -45 -1 -17 -5 -31 -11 -31 -5 0 -7 15 -4 34 5 31 -6 56 -25 56 -4 0 -9 -37 -10 -82 l-1 -83 -6 83 c-5 72 -9 86 -30 103 -13 10 -31 19 -41 19 -15 0 -17 -10 -16 -87 1 -81 3 -89 24 -98 21 -9 22 -16 22 -112 0 -87 3 -104 18 -112 16 -10 15 -10 -3 -11 l-20 -1 20 -9 c34 -15 38 -11 33 28 -3 20 -2 48 2 62 5 18 8 5 11 -43 4 -62 2 -67 -16 -67 -20 -1 -20 -1 -1 -15 11 -8 16 -15 11 -15 -5 0 -16 7 -26 16 -18 16 -39 12 -39 -8 0 -5 7 -8 15 -5 8 4 17 2 20 -3 3 -5 -4 -12 -16 -15 -11 -4 -24 -16 -28 -28 -7 -19 -9 -18 -13 11 -2 18 0 32 5 32 6 0 6 5 0 13 -6 6 -9 20 -7 30 1 11 -2 17 -9 14 -8 -3 -13 15 -15 57 -1 33 -5 86 -8 116 -7 69 -9 101 -14 170 -3 55 -3 55 -9 15 -9 -57 -4 -318 8 -395 29 -186 89 -476 127 -613 6 -21 43 -42 54 -30 10 10 -13 169 -39 270 -11 40 -17 83 -13 95 3 14 1 19 -6 14 -7 -4 -14 4 -18 21 -3 15 -9 39 -14 53 -31 94 -31 88 5 92 20 2 33 0 32 -7 -1 -5 6 -9 16 -8 15 1 17 -4 13 -21 -3 -13 1 -31 9 -42 14 -19 21 -43 8 -31 -3 4 -12 -1 -19 -11 -15 -19 -10 -69 11 -117 7 -16 15 -37 19 -45 3 -8 3 0 0 19 -4 23 -3 31 5 27 6 -4 11 -24 12 -44 1 -20 4 -48 8 -62 4 -14 4 -35 0 -47 -5 -14 -4 -23 4 -27 9 -3 9 -7 -1 -14 -10 -7 -10 -15 -1 -38 6 -16 11 -41 11 -56 -1 -27 1 -28 49 -28 l49 0 1 53 c1 28 1 58 0 65 -1 7 5 22 14 34 9 14 15 44 15 76 0 56 43 201 63 214 9 6 8 10 -3 17 -12 9 -12 11 3 17 9 3 17 14 17 24 0 10 8 21 17 24 13 5 14 9 5 15 -10 6 -10 14 -2 36 14 36 19 182 6 195 -6 6 -4 15 4 25 20 24 22 73 4 83 -15 8 -15 10 0 15 11 5 15 3 10 -5 -5 -7 -3 -8 5 -4 9 6 9 12 -3 25 -18 20 -21 35 -5 25 7 -4 7 1 -1 16 -9 18 -9 24 0 30 8 5 9 13 4 21 -14 23 -14 42 0 30 9 -8 13 -7 13 4 0 18 -33 20 -40 3 -4 -10 -6 -10 -6 0 -1 8 9 22 21 31 l22 18 -30 14 c-18 9 -28 21 -26 32 2 9 -2 17 -8 17 -5 0 -10 -6 -10 -12 0 -10 -2 -10 -9 0 -4 8 -11 13 -15 13 -3 -1 -7 0 -8 0 -2 1 -15 2 -30 3 -21 1 -28 -3 -28 -16 0 -22 8 -23 32 -1 10 9 18 11 18 5 0 -6 -4 -14 -10 -17 -5 -3 -10 -12 -10 -18 1 -7 6 -5 13 4 12 16 14 15 34 0 20 -17 20 -18 -33 -19 -30 -1 -53 2 -50 6 2 4 -4 8 -14 9 -19 2 -19 1 0 -20 11 -11 20 -24 20 -27 0 -4 7 -7 15 -7 8 0 12 4 9 8 -2 4 0 10 6 14 6 3 15 -4 20 -17 9 -20 10 -20 7 -2 -3 12 1 21 8 21 16 0 7 -36 -16 -61 -17 -18 -17 -42 0 -32 4 3 7 -5 8 -17 0 -12 -1 -16 -4 -9 -7 18 -31 15 -36 -5 -3 -11 -3 -10 -2 3 1 16 -8 26 -32 38 -19 9 -39 14 -44 10 -5 -3 -8 0 -7 7 2 7 -5 15 -14 17 -16 3 -18 -6 -20 -65 l-2 -68 -3 64 c-4 62 -3 66 26 89 39 30 39 42 2 42 -16 0 -36 7 -43 15 -29 32 -37 43 -32 47 2 3 -6 13 -18 24 -12 10 -18 14 -15 7z m-43 -185 c0 -43 -3 -59 -12 -55 -9 2 -13 27 -14 71 -1 56 1 65 12 55 9 -7 14 -33 14 -71z m338 44 c2 -7 -1 -12 -8 -12 -6 0 -9 4 -6 9 4 5 1 12 -4 14 -6 3 -5 4 2 3 6 -1 14 -8 16 -14z m-13 -30 c-13 -9 -18 -55 -5 -47 13 8 13 -5 0 -25 -8 -13 -10 -12 -11 5 -1 11 -2 26 -2 33 1 11 -11 16 -30 13 -5 -1 -6 3 -2 9 3 6 11 8 16 5 5 -4 9 -1 9 4 0 6 8 11 18 11 9 0 13 -4 7 -8z m-148 -69 c-3 -10 -5 -4 -5 12 0 17 2 24 5 18 2 -7 2 -21 0 -30z m-87 -24 c0 -28 -15 -23 -16 6 -1 14 2 22 7 19 5 -3 9 -14 9 -25z m201 -2 c-10 -9 -11 -8 -5 6 3 10 9 15 12 12 3 -3 0 -11 -7 -18z m-86 -27 c18 0 75 -33 75 -43 0 -5 -4 -6 -9 -2 -5 3 -16 -2 -25 -10 -14 -14 -15 -13 -13 11 1 16 -4 29 -12 32 -8 3 -11 0 -7 -7 4 -6 3 -11 -3 -11 -11 0 -32 33 -30 47 0 4 3 2 6 -4 2 -7 11 -13 18 -13z m-178 4 c-3 -3 -12 -4 -19 -1 -8 3 -5 6 6 6 11 1 17 -2 13 -5z m250 -16 c-3 -8 -6 -5 -6 6 -1 11 2 17 5 13 3 -3 4 -12 1 -19z m-202 -8 c3 -5 2 -10 -4 -10 -5 0 -13 5 -16 10 -3 6 -2 10 4 10 5 0 13 -4 16 -10z m135 -60 c16 -7 35 -19 42 -28 9 -10 9 -13 1 -9 -7 4 -13 0 -16 -10 -3 -11 -3 -9 -2 4 1 14 -5 23 -17 26 -14 4 -22 -3 -32 -28 -8 -18 -25 -38 -38 -44 l-23 -12 23 17 c28 21 29 65 2 89 -11 10 -20 23 -19 29 0 6 3 6 6 -1 8 -22 33 -14 34 10 2 19 3 18 6 -5 3 -17 14 -30 33 -38z m-179 19 c-5 -13 -10 -19 -10 -12 -1 15 10 45 15 40 3 -2 0 -15 -5 -28z m56 -21 c-3 -7 -5 -2 -5 12 0 14 2 19 5 13 2 -7 2 -19 0 -25z m50 -26 c1 -10 -8 -24 -20 -31 -20 -13 -21 -13 -8 2 11 14 11 17 0 18 -10 0 -11 2 -1 6 6 2 12 12 12 21 0 20 13 7 17 -16z m-50 -79 c-2 -16 -4 -5 -4 22 0 28 2 40 4 28 2 -13 2 -35 0 -50z m160 -15 c-3 -8 -6 -5 -6 6 -1 11 2 17 5 13 3 -3 4 -12 1 -19z m100 6 c-3 -3 -12 -4 -19 -1 -8 3 -5 6 6 6 11 1 17 -2 13 -5z m-60 -41 c-3 -10 -5 -4 -5 12 0 17 2 24 5 18 2 -7 2 -21 0 -30z m-90 5 c-3 -8 -6 -5 -6 6 -1 11 2 17 5 13 3 -3 4 -12 1 -19z m-92 2 c3 -5 4 -10 1 -10 -3 0 -8 5 -11 10 -3 6 -4 10 -1 10 3 0 8 -4 11 -10z m155 -36 c0 -8 -5 -12 -10 -9 -6 4 -8 11 -5 16 9 14 15 11 15 -7z m-31 -30 c14 -12 -19 -1 -35 12 -18 14 -18 14 6 3 14 -6 27 -13 29 -15z m-199 -10 c14 -8 17 -13 8 -10 -10 3 -18 1 -18 -4 0 -13 -27 -13 -35 0 -7 11 2 30 13 30 4 -1 18 -8 32 -16z m107 -21 c-4 -3 -7 0 -7 7 0 7 3 10 7 7 3 -4 3 -10 0 -14z m33 -7 c0 -3 -4 -8 -10 -11 -5 -3 -10 -1 -10 4 0 6 5 11 10 11 6 0 10 -2 10 -4z m-43 -53 c-4 -3 -7 0 -7 7 0 7 3 10 7 7 3 -4 3 -10 0 -14z m30 0 c-4 -3 -7 0 -7 7 0 7 3 10 7 7 3 -4 3 -10 0 -14z m20 -10 c-4 -3 -7 0 -7 7 0 7 3 10 7 7 3 -4 3 -10 0 -14z m-80 -160 c-4 -3 -7 0 -7 7 0 7 3 10 7 7 3 -4 3 -10 0 -14z m-90 -70 c-4 -3 -7 0 -7 7 0 7 3 10 7 7 3 -4 3 -10 0 -14z m10 -40 c-4 -3 -7 0 -7 7 0 7 3 10 7 7 3 -4 3 -10 0 -14z m10 -35 c-3 -8 -6 -5 -6 6 -1 11 2 17 5 13 3 -3 4 -12 1 -19z m10 -40 c-3 -8 -6 -5 -6 6 -1 11 2 17 5 13 3 -3 4 -12 1 -19z m10 -50 c-3 -8 -6 -5 -6 6 -1 11 2 17 5 13 3 -3 4 -12 1 -19z m10 -45 c-4 -3 -7 0 -7 7 0 7 3 10 7 7 3 -4 3 -10 0 -14z"/>
<path d="M1193 1693 c4 -3 10 -3 14 0 3 4 0 7 -7 7 -7 0 -10 -3 -7 -7z"/>
<path d="M890 1666 c0 -74 3 -95 15 -100 13 -4 15 9 15 88 0 74 -3 95 -15 100 -13 4 -15 -9 -15 -88z"/>
<path d="M1383 1571 c-20 -24 -28 -41 -21 -43 8 -3 7 -16 -5 -47 -10 -23 -13 -40 -8 -37 5 4 6 -7 1 -26 -8 -31 -25 -106 -35 -153 -2 -11 -13 -56 -25 -100 -20 -73 -69 -299 -70 -317 0 -10 52 -10 66 0 10 6 21 48 30 112 15 108 36 228 44 245 11 26 21 70 27 125 2 25 10 70 17 100 12 50 22 180 14 180 -2 0 -18 -18 -35 -39z"/>
<path d="M1118 823 c7 -3 16 -2 19 1 4 3 -2 6 -13 5 -11 0 -14 -3 -6 -6z"/>
</g>
<g id="layer111" fill="#c0649d" stroke="none">
<path d="M0 1125 l0 -1125 1125 0 1125 0 0 1125 0 1125 -1125 0 -1125 0 0 -1125z m1540 1090 c24 -21 25 -66 10 -280 -15 -201 -25 -263 -85 -520 -56 -239 -79 -366 -91 -498 -4 -43 -11 -80 -15 -83 -5 -3 -7 -15 -4 -27 2 -12 9 -121 15 -242 6 -121 17 -281 26 -355 14 -135 14 -135 -7 -152 -12 -10 -31 -18 -43 -19 -11 0 -39 -2 -61 -3 -92 -8 -305 -14 -250 -8 53 6 56 8 29 14 l-31 7 4 368 c2 226 1 362 -5 353 -5 -8 -12 -159 -15 -335 -4 -177 -10 -335 -13 -353 -6 -29 -10 -32 -43 -32 l-37 0 8 67 c4 37 12 69 17 72 18 12 36 238 20 257 -8 9 -4 17 15 29 22 15 26 25 26 66 0 37 -4 49 -15 49 -12 0 -15 17 -15 90 0 73 -3 90 -15 90 -8 0 -15 5 -15 12 0 8 -5 7 -15 -3 -11 -11 -17 -45 -22 -115 -3 -54 -9 -104 -14 -110 -5 -6 -7 -46 -6 -90 2 -43 -1 -90 -5 -103 -5 -14 -4 -28 3 -37 7 -8 10 -48 7 -109 -1 -52 0 -95 5 -95 4 0 7 -5 7 -11 0 -5 -5 -7 -12 -3 -11 7 -9 -10 7 -50 7 -16 5 -17 -16 -11 -49 15 -50 20 -35 170 8 77 17 192 20 255 15 282 18 335 23 343 3 4 0 13 -5 20 -5 7 -15 59 -21 117 -16 142 -34 238 -91 480 -53 226 -65 297 -80 475 -16 191 -13 289 8 308 24 21 97 25 489 22 296 -2 325 -3 343 -20z m-577 -2182 c-7 -2 -21 -2 -30 0 -10 3 -4 5 12 5 17 0 24 -2 18 -5z"/>
<path d="M1025 2201 c23 -6 9 -9 -55 -14 -47 -4 -122 -10 -167 -13 -51 -4 -87 -12 -94 -20 -8 -10 -8 -14 0 -14 7 0 11 -36 11 -112 0 -160 41 -442 60 -421 4 4 10 103 12 218 2 116 0 192 -3 170 l-6 -40 -2 41 c0 23 2 69 5 103 6 50 10 61 25 61 15 0 19 -8 19 -35 0 -32 2 -34 23 -26 12 4 79 4 148 -1 80 -6 171 -6 250 0 141 11 175 2 192 -53 5 -17 9 -121 10 -232 0 -112 2 -203 4 -203 2 0 13 19 23 43 23 51 37 150 46 324 4 87 10 130 17 126 6 -4 8 0 4 11 -4 10 -7 26 -7 37 0 16 -8 19 -47 20 l-48 2 40 7 40 6 -29 13 c-23 9 -31 9 -37 -1 -8 -13 -49 -15 -184 -9 -58 2 -73 5 -55 11 15 5 -24 8 -100 8 -69 0 -112 -3 -95 -7z"/>
<path d="M1376 2035 c13 -55 25 -74 20 -31 -3 22 -10 44 -16 50 -8 8 -9 3 -4 -19z"/>
<path d="M993 2023 c4 -6 3 -14 -3 -18 -6 -4 -7 -11 -4 -17 4 -6 3 -8 -2 -5 -5 3 -20 -2 -33 -12 l-23 -18 49 -18 c49 -20 55 -22 74 -24 8 -1 8 -5 0 -15 -7 -8 -13 -28 -13 -45 -1 -17 -5 -31 -11 -31 -5 0 -7 15 -4 34 5 31 -6 56 -25 56 -4 0 -8 -36 -8 -79 0 -95 -5 -111 -31 -104 -18 5 -19 -1 -19 -85 0 -76 3 -93 18 -101 16 -10 15 -10 -3 -11 l-20 -1 20 -9 c34 -15 38 -11 33 28 -3 20 -2 48 2 62 5 18 8 5 11 -43 4 -62 2 -67 -16 -67 -17 0 -16 -3 10 -26 l30 -26 -38 26 c-35 26 -57 27 -57 4 0 -5 7 -8 15 -5 8 4 17 2 20 -3 3 -5 -4 -12 -16 -15 -11 -4 -24 -16 -28 -28 -7 -19 -9 -18 -13 11 -2 18 0 32 5 32 6 0 6 5 0 13 -6 6 -9 20 -7 30 1 11 -2 17 -9 14 -8 -3 -13 15 -15 57 -1 33 -5 86 -8 116 -7 69 -9 101 -14 170 -3 55 -3 55 -9 15 -9 -57 -4 -318 8 -395 29 -186 89 -476 127 -613 6 -21 43 -42 54 -30 10 10 -14 171 -40 264 -11 40 -17 83 -13 97 4 17 2 23 -5 18 -7 -4 -14 4 -18 21 -3 15 -14 53 -24 83 l-17 55 29 6 c35 8 43 15 29 24 -6 3 -11 1 -11 -4 0 -14 -27 -14 -36 0 -12 20 11 31 39 18 28 -13 34 -24 17 -34 -15 -9 0 -27 17 -21 12 5 14 1 9 -17 -3 -14 1 -32 9 -43 14 -19 21 -43 8 -31 -3 4 -12 -1 -19 -11 -15 -19 -10 -69 11 -117 7 -16 15 -37 19 -45 3 -8 3 0 0 19 -4 23 -3 31 5 27 6 -4 11 -24 12 -44 1 -20 4 -48 8 -62 4 -14 4 -35 0 -47 -5 -14 -4 -23 4 -27 9 -3 9 -7 -1 -14 -10 -7 -10 -15 -1 -38 6 -16 11 -41 11 -56 -1 -27 1 -28 49 -28 l49 0 1 53 c1 28 1 58 0 65 -1 7 5 22 14 34 9 14 15 44 15 76 0 56 43 201 63 214 9 6 8 10 -3 17 -12 9 -12 11 3 17 9 3 17 14 17 24 0 10 8 21 17 24 12 5 14 9 6 14 -10 6 -9 18 0 52 17 60 11 87 -21 99 -20 8 -22 10 -7 10 11 -1 25 -1 30 0 12 1 13 51 1 69 -4 7 -3 19 4 28 20 23 22 72 4 82 -15 8 -15 10 0 15 11 5 15 3 10 -5 -5 -7 -3 -8 5 -4 9 6 9 12 -3 25 -18 20 -21 35 -5 25 7 -4 7 1 -1 16 -9 18 -9 24 0 30 8 5 9 13 4 21 -14 23 -14 42 0 30 9 -8 13 -7 13 4 0 18 -33 20 -40 3 -4 -10 -6 -10 -6 0 -1 8 9 22 21 31 l22 18 -30 14 c-18 9 -28 21 -26 32 2 9 -2 17 -8 17 -5 0 -10 -6 -10 -12 0 -10 -2 -10 -9 0 -4 8 -11 13 -15 13 -3 -1 -7 0 -8 0 -2 1 -15 2 -30 3 -21 1 -28 -3 -28 -16 0 -22 8 -23 32 -1 10 9 18 11 18 5 0 -6 -4 -14 -10 -17 -5 -3 -10 -12 -10 -18 1 -7 6 -5 13 4 12 16 14 15 34 0 20 -17 20 -18 -33 -19 -30 -1 -53 2 -50 6 2 4 -4 8 -14 9 -19 2 -19 1 0 -20 11 -11 20 -24 20 -27 0 -4 7 -7 15 -7 8 0 12 4 9 8 -2 4 0 10 6 14 6 3 15 -4 20 -17 9 -20 10 -20 7 -2 -3 12 1 21 8 21 16 0 7 -36 -17 -61 -16 -17 -16 -21 -3 -36 26 -29 17 -29 -39 0 l-54 28 -4 -49 c-3 -49 -3 -49 39 -69 52 -24 59 -25 42 -3 -8 9 -9 14 -3 10 16 -9 27 22 14 38 -9 11 -6 12 10 8 12 -3 19 -11 16 -18 -2 -7 1 -19 7 -26 10 -11 9 -11 -5 0 -16 12 -18 10 -19 -30 0 -24 -3 -38 -6 -31 -4 10 -8 10 -19 1 -16 -13 -19 -33 -4 -24 5 3 7 0 4 -8 -3 -9 6 -19 25 -27 34 -14 70 -49 39 -37 -14 5 -18 1 -18 -14 0 -12 -5 -19 -12 -17 -18 6 -22 39 -6 50 10 8 9 9 -4 4 -10 -3 -21 0 -25 7 -5 8 -10 3 -15 -13 -7 -24 -8 -24 -4 3 3 22 -1 27 -19 27 -14 0 -25 -7 -28 -20 -3 -11 -1 -20 4 -20 5 0 9 -8 8 -17 0 -11 -3 -13 -6 -5 -7 17 -23 15 -23 -2 0 -8 -5 -18 -12 -22 -7 -5 -8 -3 -3 6 6 9 2 10 -16 5 -23 -7 -23 -6 4 14 32 26 35 61 7 86 -11 10 -20 23 -20 29 0 6 4 4 10 -4 8 -13 10 -12 15 1 9 24 1 179 -9 179 -5 0 -9 -25 -8 -55 0 -30 -3 -57 -9 -60 -10 -7 -12 14 -9 80 1 31 8 45 31 63 37 30 37 42 0 42 -16 0 -36 7 -43 15 -29 32 -37 43 -32 47 2 3 -6 13 -18 24 -12 10 -18 14 -15 7z m295 -141 c2 -7 -1 -12 -8 -12 -6 0 -9 4 -6 9 4 5 1 12 -4 14 -6 3 -5 4 2 3 6 -1 14 -8 16 -14z m-13 -30 c-13 -9 -18 -55 -5 -47 13 8 13 -5 0 -25 -8 -13 -10 -12 -11 5 -1 11 -2 26 -2 33 1 7 -4 11 -11 10 -6 -2 -11 2 -11 7 0 6 3 9 8 8 4 -2 7 2 7 7 0 6 8 10 18 10 9 0 13 -4 7 -8z m-78 -79 c-3 -10 -5 -4 -5 12 0 17 2 24 5 18 2 -7 2 -21 0 -30z m-157 -8 c0 -33 -15 -33 -16 0 -1 14 2 25 7 25 5 0 9 -11 9 -25z m120 10 c0 -8 -2 -15 -4 -15 -2 0 -6 7 -10 15 -3 8 -1 15 4 15 6 0 10 -7 10 -15z m-102 -81 c11 -12 11 -14 -2 -14 -24 0 -21 -56 3 -63 15 -3 17 0 13 17 -3 11 -1 18 3 13 17 -15 14 -43 -6 -56 -17 -10 -20 -10 -14 1 6 9 5 10 -3 3 -6 -5 -13 -26 -15 -45 -2 -19 -4 7 -3 58 1 65 -2 92 -11 92 -6 0 -15 5 -19 11 -9 15 36 1 54 -17z m-82 -40 c-8 -21 -15 -34 -15 -28 -1 15 20 76 25 71 2 -2 -2 -21 -10 -43z m201 -116 c-3 -8 -6 -5 -6 6 -1 11 2 17 5 13 3 -3 4 -12 1 -19z m20 -10 c-3 -8 -6 -5 -6 6 -1 11 2 17 5 13 3 -3 4 -12 1 -19z m-50 6 c-3 -3 -12 -4 -19 -1 -8 3 -5 6 6 6 11 1 17 -2 13 -5z m90 -41 c-3 -10 -5 -4 -5 12 0 17 2 24 5 18 2 -7 2 -21 0 -30z m-90 5 c-3 -8 -6 -5 -6 6 -1 11 2 17 5 13 3 -3 4 -12 1 -19z m-92 2 c3 -5 4 -10 1 -10 -3 0 -8 5 -11 10 -3 6 -4 10 -1 10 3 0 8 -4 11 -10z m155 -41 c0 -16 -7 -32 -16 -37 -19 -10 -11 -32 12 -32 8 0 14 -5 14 -11 0 -7 -7 -8 -17 -4 -10 4 -24 8 -30 8 -7 0 -13 4 -13 9 0 4 -7 8 -15 8 -13 0 -14 4 -5 20 9 17 8 20 -12 20 -18 0 -20 2 -9 9 10 6 27 5 48 -4 28 -12 33 -12 33 1 0 7 -4 14 -10 14 -5 0 -10 12 -10 26 0 22 2 25 15 14 8 -7 15 -25 15 -41z m-87 23 c-4 -16 -33 -28 -33 -14 0 4 31 31 37 32 0 0 -1 -8 -4 -18z m-32 -68 c-5 -16 -10 -21 -10 -12 -1 18 10 51 15 45 2 -1 -1 -16 -5 -33z m23 -26 c-4 -13 -7 -34 -6 -48 l1 -25 -8 25 c-7 24 6 86 16 76 3 -2 1 -15 -3 -28z m-67 -5 c-4 -3 -7 0 -7 7 0 7 3 10 7 7 3 -4 3 -10 0 -14z m30 -40 c-4 -3 -7 0 -7 7 0 7 3 10 7 7 3 -4 3 -10 0 -14z m87 2 c3 -8 1 -15 -4 -15 -6 0 -10 7 -10 15 0 8 2 15 4 15 2 0 6 -7 10 -15z m-24 1 c0 -3 -4 -8 -10 -11 -5 -3 -10 -1 -10 4 0 6 5 11 10 11 6 0 10 -2 10 -4z m105 -36 c3 -5 4 -10 1 -10 -3 0 -8 5 -11 10 -3 6 -4 10 -1 10 3 0 8 -4 11 -10z m-198 -137 c-4 -3 -7 0 -7 7 0 7 3 10 7 7 3 -4 3 -10 0 -14z m-90 -65 c-3 -8 -6 -5 -6 6 -1 11 2 17 5 13 3 -3 4 -12 1 -19z m31 -113 c0 -11 -6 3 -14 30 -7 28 -13 55 -13 60 2 17 27 -69 27 -90z m9 -57 c-3 -8 -6 -5 -6 6 -1 11 2 17 5 13 3 -3 4 -12 1 -19z m10 -40 c-3 -8 -6 -5 -6 6 -1 11 2 17 5 13 3 -3 4 -12 1 -19z m143 -24 c0 -8 -4 -14 -10 -14 -5 0 -10 9 -10 21 0 11 5 17 10 14 6 -3 10 -13 10 -21z"/>
<path d="M1280 2010 c0 -7 3 -10 7 -7 3 4 3 10 0 14 -4 3 -7 0 -7 -7z"/>
<path d="M1310 1991 c0 -6 4 -13 10 -16 6 -3 7 1 4 9 -7 18 -14 21 -14 7z"/>
<path d="M891 1865 c-2 -82 -1 -86 24 -97 14 -6 25 -15 25 -20 0 -4 9 -8 20 -8 18 0 20 7 20 80 0 73 -3 83 -25 105 -13 14 -33 25 -43 25 -17 0 -19 -9 -21 -85z m59 -27 c0 -43 -3 -59 -12 -55 -9 2 -13 27 -14 71 -1 56 1 65 12 55 9 -7 14 -33 14 -71z"/>
<path d="M1380 1930 c0 -7 3 -10 7 -7 3 4 3 10 0 14 -4 3 -7 0 -7 -7z"/>
<path d="M1030 1900 c0 -7 3 -10 7 -7 3 4 3 10 0 14 -4 3 -7 0 -7 -7z"/>
<path d="M1110 1880 c0 -5 4 -10 9 -10 6 0 13 5 16 10 3 6 -1 10 -9 10 -9 0 -16 -4 -16 -10z"/>
<path d="M1393 1850 c4 -16 3 -31 -2 -34 -4 -3 -9 -40 -9 -81 -1 -42 -4 -81 -7 -85 -3 -5 -3 -21 1 -35 l6 -25 24 22 c28 27 30 45 9 68 -12 14 -13 23 -5 45 6 16 8 36 4 44 -4 9 -6 37 -5 64 1 30 -2 47 -10 47 -7 0 -9 -10 -6 -30z"/>
<path d="M890 1665 c0 -78 3 -95 15 -95 12 0 15 17 15 89 0 70 -3 90 -15 95 -13 4 -15 -9 -15 -89z"/>
<path d="M1126 1703 c6 -26 29 -53 45 -53 4 0 9 9 12 19 3 14 -3 23 -24 31 -16 7 -26 16 -23 21 3 5 0 9 -6 9 -6 0 -8 -11 -4 -27z"/>
<path d="M1383 1571 c-20 -24 -28 -41 -21 -43 8 -3 7 -16 -5 -47 -11 -26 -13 -40 -6 -35 8 4 9 3 5 -4 -4 -7 -11 -35 -16 -64 -11 -66 -16 -84 -50 -213 -20 -73 -69 -299 -70 -317 0 -10 52 -10 66 0 10 6 21 48 30 112 15 108 36 228 44 245 11 26 21 70 27 125 2 25 10 70 17 100 12 50 22 180 14 180 -2 0 -18 -18 -35 -39z"/>
<path d="M1430 1400 c0 -7 3 -10 7 -7 3 4 3 10 0 14 -4 3 -7 0 -7 -7z"/>
<path d="M1267 776 c-9 -9 -19 -11 -29 -5 -13 7 -16 -2 -22 -59 -5 -37 -8 -75 -8 -85 1 -11 -4 -15 -11 -10 -7 4 -5 -2 3 -12 9 -11 10 -16 3 -11 -8 4 -13 1 -13 -8 0 -19 20 -17 36 3 7 10 9 3 7 -25 -6 -62 -13 -85 -23 -79 -6 3 -10 2 -10 -4 0 -5 6 -12 13 -14 8 -4 9 -8 1 -14 -13 -9 -12 -52 2 -61 13 -10 17 -102 4 -102 -6 0 -4 -13 6 -31 15 -29 15 -31 0 -26 -14 6 -15 3 -6 -14 6 -11 17 -22 25 -25 7 -3 16 -13 20 -22 4 -12 -1 -10 -18 6 -45 43 -52 20 -7 -24 16 -16 30 -37 30 -46 0 -9 4 -19 8 -22 23 -14 55 46 46 86 -6 28 -15 252 -17 409 -1 65 -5 112 -9 105 -5 -6 -8 0 -8 14 0 14 -3 35 -6 47 -4 15 -1 22 13 25 17 3 17 4 1 10 -10 4 -23 1 -31 -6z"/>
<path d="M1200 520 c-8 -5 -11 -12 -7 -16 4 -4 13 -2 19 4 15 15 7 24 -12 12z"/>
<path d="M1200 160 c0 -7 3 -10 7 -7 3 4 3 10 0 14 -4 3 -7 0 -7 -7z"/>
<path d="M943 123 c4 -3 10 -3 14 0 3 4 0 7 -7 7 -7 0 -10 -3 -7 -7z"/>
</g>
<g id="layer112" fill="#c774a9" stroke="none">
<path d="M0 1125 l0 -1125 1125 0 1125 0 0 1125 0 1125 -1125 0 -1125 0 0 -1125z m1540 1090 c24 -21 25 -66 10 -280 -15 -201 -25 -263 -85 -520 -56 -239 -79 -366 -91 -498 -4 -43 -11 -80 -15 -83 -5 -3 -7 -15 -4 -27 2 -12 9 -121 15 -242 6 -121 17 -281 25 -355 17 -152 16 -154 -51 -171 -21 -6 -113 -12 -204 -14 -91 -2 -140 0 -110 4 38 5 47 8 30 11 l-25 5 3 370 c1 223 -1 362 -7 350 -5 -11 -9 -96 -10 -190 -1 -197 -10 -445 -17 -493 -4 -29 -8 -32 -42 -33 -33 -1 -34 -2 -12 -9 39 -12 -6 -12 -51 0 -60 17 -61 21 -45 176 8 76 17 197 21 269 12 256 16 318 21 327 3 5 1 14 -4 21 -5 7 -15 59 -21 117 -16 142 -34 238 -91 480 -53 226 -65 297 -80 475 -16 191 -13 289 8 308 24 21 97 25 489 22 296 -2 325 -3 343 -20z"/>
<path d="M1213 1993 c4 -3 10 -3 14 0 3 4 0 7 -7 7 -7 0 -10 -3 -7 -7z"/>
<path d="M1185 1970 c4 -6 11 -8 16 -5 14 9 11 15 -7 15 -8 0 -12 -5 -9 -10z"/>
<path d="M1261 1967 c2 -1 13 -9 24 -17 19 -14 19 -14 6 3 -7 9 -18 17 -24 17 -6 0 -8 -1 -6 -3z"/>
<path d="M898 1898 c-6 -99 0 -125 32 -138 16 -7 34 -9 39 -5 6 3 11 38 11 76 0 61 -3 73 -25 94 -39 40 -53 33 -57 -27z m52 -60 c0 -43 -3 -59 -12 -56 -8 3 -14 29 -16 73 -3 61 -1 67 13 55 10 -9 15 -30 15 -72z"/>
<path d="M1268 1911 c-10 -10 -18 -21 -18 -24 0 -4 8 -7 18 -7 13 0 14 2 3 9 -9 6 -5 9 14 9 15 0 34 7 43 16 15 15 14 16 -13 15 -17 0 -38 -8 -47 -18z"/>
<path d="M1043 1913 c4 -3 10 -3 14 0 3 4 0 7 -7 7 -7 0 -10 -3 -7 -7z"/>
<path d="M1225 1910 c3 -5 8 -10 11 -10 3 0 2 5 -1 10 -3 6 -8 10 -11 10 -3 0 -2 -4 1 -10z"/>
<path d="M990 1821 c0 -79 2 -92 19 -101 11 -5 29 -10 40 -10 18 0 20 7 20 84 0 65 -3 85 -14 90 -14 5 -20 -15 -16 -51 1 -7 -3 -13 -8 -13 -5 0 -11 19 -13 42 -2 23 -9 43 -15 46 -10 3 -13 -19 -13 -87z m50 -56 c0 -14 -4 -25 -10 -25 -5 0 -10 11 -10 25 0 14 5 25 10 25 6 0 10 -11 10 -25z"/>
<path d="M1283 1875 c-6 -7 -9 -15 -6 -19 11 -11 -6 -36 -22 -30 -8 3 -13 9 -10 13 2 4 -2 8 -10 8 -8 0 -11 -5 -7 -11 4 -6 7 -14 7 -18 0 -11 15 -22 15 -11 0 6 8 10 18 8 20 -3 18 -25 -4 -42 -11 -8 -13 -19 -9 -34 6 -17 9 -19 17 -8 7 10 8 8 2 -6 -4 -11 -8 -31 -8 -45 -1 -25 -2 -25 -28 -12 -28 13 -48 10 -48 -9 0 -6 4 -7 10 -4 5 3 7 0 4 -8 -3 -9 6 -19 25 -27 34 -14 70 -49 39 -37 -14 5 -18 1 -18 -14 0 -12 -5 -19 -12 -17 -18 6 -22 39 -6 50 10 8 9 9 -3 5 -9 -3 -22 0 -28 6 -14 14 -14 0 0 -99 11 -70 10 -78 -6 -90 -19 -14 -13 -34 11 -34 8 0 14 -5 14 -11 0 -7 -7 -8 -17 -4 -10 4 -24 8 -30 8 -7 0 -13 4 -13 9 0 4 -6 8 -14 8 -10 0 -12 7 -8 22 3 13 1 19 -5 15 -13 -8 -26 -63 -24 -97 1 -21 0 -23 -9 -8 -11 17 4 103 20 121 4 5 24 2 44 -7 30 -12 36 -13 36 -1 0 7 -5 15 -11 17 -6 2 -11 37 -12 86 -1 60 -5 82 -14 82 -10 0 -13 -20 -13 -75 0 -62 -2 -73 -15 -69 -9 4 -15 0 -15 -10 0 -9 -4 -16 -9 -16 -5 0 -13 -17 -19 -37 l-10 -38 2 47 c1 36 5 48 19 52 13 3 18 12 15 27 -3 26 -28 39 -28 15 0 -20 -16 -21 -24 -1 -3 9 6 26 24 42 35 31 38 62 10 88 -24 22 -26 37 -5 28 14 -5 15 7 13 86 -2 50 -7 91 -12 91 -6 0 -9 -36 -8 -80 2 -67 0 -80 -13 -80 -9 0 -13 -4 -10 -10 3 -5 -1 -10 -9 -10 -11 0 -16 -9 -16 -30 0 -20 5 -30 15 -30 8 0 15 8 15 17 0 20 13 9 16 -14 2 -9 -8 -25 -22 -35 -27 -22 -32 -63 -10 -87 25 -28 24 -55 -1 -57 -13 -1 -23 3 -23 9 0 6 -3 7 -6 4 -4 -4 -19 2 -34 13 -31 22 -60 26 -60 9 0 -6 7 -9 15 -6 25 10 25 -10 0 -21 -14 -7 -25 -20 -26 -29 -2 -51 -38 103 -44 186 -3 53 -10 121 -14 151 -7 45 -8 31 -9 -75 0 -139 4 -178 37 -350 43 -226 88 -411 98 -402 2 3 -7 53 -22 111 -15 59 -25 111 -23 117 4 12 53 -179 63 -246 5 -30 4 -36 -4 -25 -9 13 -11 13 -11 -2 0 -30 50 -64 52 -35 3 61 -43 278 -97 456 -14 47 -25 85 -25 86 0 1 11 0 25 -3 17 -3 27 1 31 12 9 23 24 20 21 -5 -3 -27 29 -34 42 -11 8 15 12 15 23 3 11 -12 11 -13 -1 -6 -10 5 -12 4 -7 -4 4 -6 12 -9 17 -6 16 11 9 -37 -8 -50 -9 -7 -17 -18 -19 -26 -1 -8 -5 -22 -9 -31 -4 -11 0 -20 14 -28 17 -9 19 -14 11 -31 -6 -11 -8 -24 -5 -29 3 -6 1 -10 -6 -10 -8 0 -8 -4 -2 -12 6 -7 13 -35 16 -63 9 -68 11 -78 21 -94 7 -10 6 -12 -4 -6 -10 6 -12 4 -6 -11 5 -10 9 -44 11 -74 1 -30 3 -58 4 -62 0 -5 21 -8 45 -8 l44 0 5 73 c8 128 18 191 34 232 8 22 19 50 24 63 5 13 7 27 4 32 -3 5 -1 11 5 15 6 4 8 11 5 16 -4 5 1 9 9 9 9 0 16 5 16 10 0 6 -5 10 -12 10 -6 0 -4 7 5 18 22 24 21 33 0 26 -12 -4 -14 -3 -6 3 19 14 31 56 30 105 -2 33 1 44 11 41 6 -3 12 2 12 11 0 8 -11 18 -24 22 l-24 6 31 28 c26 23 29 30 18 43 -10 13 -10 20 2 39 17 27 15 74 -3 70 -9 -2 -11 6 -6 30 4 18 7 42 8 53 1 11 6 23 11 26 16 11 -4 31 -25 26 -19 -5 -19 -5 -2 14 9 10 14 22 11 26 -4 3 -7 0 -7 -8 0 -10 -3 -10 -8 -3 -5 9 -10 8 -19 -1z m-46 -382 c-3 -10 -5 -4 -5 12 0 17 2 24 5 18 2 -7 2 -21 0 -30z m-263 -76 c-7 -20 -29 -22 -40 -5 -9 14 27 41 38 30 5 -5 6 -16 2 -25z m195 -80 c12 -15 12 -17 -3 -11 -9 3 -16 13 -16 22 0 8 1 13 3 11 1 -2 9 -12 16 -22z m-29 4 c0 -6 -4 -13 -10 -16 -5 -3 -10 1 -10 9 0 9 5 16 10 16 6 0 10 -4 10 -9z m105 -31 c3 -5 4 -10 1 -10 -3 0 -8 5 -11 10 -3 6 -4 10 -1 10 3 0 8 -4 11 -10z m-99 -25 c4 -8 10 -12 15 -9 5 3 9 3 9 0 0 -15 -20 -13 -35 4 -11 12 -13 20 -6 20 6 0 14 -7 17 -15z m16 -91 c-12 -9 -14 -15 -5 -25 18 -23 0 -250 -18 -232 -5 5 -12 31 -15 57 -6 40 -4 51 10 62 17 12 16 13 -3 24 -27 14 -26 32 5 98 18 39 28 51 34 42 6 -9 3 -18 -8 -26z m-12 -320 c0 -8 -4 -14 -10 -14 -5 0 -10 9 -10 21 0 11 5 17 10 14 6 -3 10 -13 10 -21z"/>
<path d="M1243 1863 c4 -3 10 -3 14 0 3 4 0 7 -7 7 -7 0 -10 -3 -7 -7z"/>
<path d="M1128 1799 c-3 -49 -3 -49 39 -69 52 -24 59 -25 42 -3 -8 9 -9 14 -3 10 17 -10 26 23 12 41 -10 12 -10 14 0 8 6 -4 12 -2 12 3 0 6 -22 22 -49 35 l-49 23 -4 -48z m69 -26 c-3 -10 -5 -4 -5 12 0 17 2 24 5 18 2 -7 2 -21 0 -30z m-37 2 c0 -8 -2 -15 -4 -15 -2 0 -6 7 -10 15 -3 8 -1 15 4 15 6 0 10 -7 10 -15z"/>
<path d="M1230 1714 c0 -40 12 -39 17 1 2 13 -1 26 -7 30 -6 4 -10 -8 -10 -31z"/>
<path d="M940 1641 c0 -69 3 -90 15 -95 11 -4 19 8 29 42 l15 47 0 -57 c1 -45 4 -58 16 -58 23 0 22 175 -1 184 -9 3 -17 6 -19 6 -1 0 -8 -20 -15 -45 -16 -58 -23 -53 -11 8 8 43 2 57 -25 57 -2 0 -4 -40 -4 -89z"/>
<path d="M1388 1564 c-10 -19 -18 -45 -18 -57 0 -22 -40 -196 -79 -342 -20 -75 -70 -301 -71 -317 0 -5 11 -8 25 -8 20 0 26 7 36 40 7 22 18 45 26 51 7 6 13 16 13 22 0 6 -7 2 -16 -9 -15 -19 -16 -19 -9 1 16 45 27 90 41 163 8 42 24 124 35 182 22 114 41 265 37 291 -2 12 -8 6 -20 -17z"/>
<path d="M995 1480 c3 -5 11 -10 16 -10 6 0 7 5 4 10 -3 6 -11 10 -16 10 -6 0 -7 -4 -4 -10z"/>
<path d="M1265 764 c-18 -21 -42 -24 -30 -4 3 5 1 11 -3 14 -8 5 -24 -98 -24 -147 1 -9 -2 -15 -6 -13 -4 3 -9 -6 -10 -19 -1 -18 2 -23 14 -18 8 3 13 12 10 19 -3 7 -1 16 4 19 9 5 14 -6 12 -26 -1 -3 -2 -29 -3 -58 -2 -36 -6 -50 -15 -47 -9 3 -9 -2 1 -21 11 -20 11 -30 2 -45 -8 -13 -9 -21 -1 -26 5 -4 11 -16 12 -27 2 -37 10 -77 17 -83 4 -4 5 2 3 13 -2 14 3 21 19 23 23 3 37 39 27 66 -3 9 -2 16 3 16 4 0 5 59 1 133 -5 85 -4 133 2 135 6 2 10 11 9 20 0 11 -2 12 -6 5 -8 -22 -21 -14 -15 10 5 20 4 21 -14 7 -17 -14 -18 -14 -6 1 7 9 12 21 11 25 -4 21 2 33 19 36 14 3 14 5 2 9 -9 4 -23 -3 -35 -17z"/>
<path d="M921 654 c0 -11 3 -14 6 -6 3 7 2 16 -1 19 -3 4 -6 -2 -5 -13z"/>
<path d="M954 608 c-4 -13 -14 -28 -23 -35 -9 -7 -11 -12 -6 -13 19 0 33 15 40 43 9 32 -1 37 -11 5z"/>
<path d="M1168 533 c6 -2 18 -2 25 0 6 3 1 5 -13 5 -14 0 -19 -2 -12 -5z"/>
<path d="M1202 514 c-7 -8 -8 -14 -3 -14 10 0 25 19 20 25 -2 1 -10 -3 -17 -11z"/>
<path d="M962 500 c0 -14 2 -19 5 -12 2 6 2 18 0 25 -3 6 -5 1 -5 -13z"/>
<path d="M910 496 c0 -9 30 -14 35 -6 4 6 -3 10 -14 10 -12 0 -21 -2 -21 -4z"/>
<path d="M912 471 c-9 -6 -11 -49 -7 -176 7 -200 24 -257 25 -85 2 173 7 232 20 240 9 6 7 11 -7 18 -10 6 -25 7 -31 3z"/>
<path d="M953 392 c-10 -7 -10 -12 0 -25 11 -16 12 -15 13 8 1 14 1 25 0 25 0 0 -7 -4 -13 -8z"/>
<path d="M1245 210 c3 -5 8 -10 11 -10 3 0 2 5 -1 10 -3 6 -8 10 -11 10 -3 0 -2 -4 1 -10z"/>
<path d="M1273 199 c-2 -16 1 -18 11 -10 7 6 16 8 19 4 4 -3 7 -2 7 4 0 9 -21 23 -34 23 -1 0 -2 -9 -3 -21z"/>
</g>
<g id="layer113" fill="#ad98a5" stroke="none">
<path d="M0 1125 l0 -1125 1125 0 1125 0 0 1125 0 1125 -1125 0 -1125 0 0 -1125z m1540 1090 c24 -21 25 -66 10 -280 -15 -200 -25 -262 -86 -523 -56 -240 -78 -362 -90 -495 -3 -42 -11 -80 -16 -83 -5 -3 -7 -13 -4 -22 3 -10 10 -118 16 -242 6 -124 18 -286 26 -360 14 -132 14 -135 -5 -151 -63 -51 -469 -51 -532 0 -20 16 -20 18 -5 166 8 83 18 206 21 275 11 236 15 302 21 311 3 6 1 15 -4 22 -5 7 -15 59 -21 117 -16 142 -34 238 -91 480 -53 226 -65 297 -80 475 -16 191 -13 289 8 308 24 21 97 25 489 22 296 -2 325 -3 343 -20z"/>
<path d="M744 2195 c-19 -14 -18 -14 4 -15 13 0 22 6 22 15 0 19 -1 19 -26 0z"/>
<path d="M1025 2201 c23 -6 9 -9 -55 -14 -47 -4 -122 -10 -167 -13 -51 -4 -87 -12 -94 -20 -8 -10 -8 -14 0 -14 7 0 11 -36 11 -112 0 -160 41 -442 60 -421 4 4 10 103 12 218 2 116 0 192 -3 170 l-6 -40 -2 41 c0 23 2 69 5 103 6 50 10 61 25 61 15 0 19 -8 19 -35 0 -32 2 -34 23 -26 12 4 79 4 148 -1 80 -6 171 -6 250 0 141 11 175 2 192 -53 5 -17 10 -121 11 -232 0 -112 2 -203 4 -203 2 0 12 19 22 43 23 51 37 150 46 324 4 87 10 130 17 126 6 -4 8 0 4 11 -4 10 -7 26 -7 37 0 16 -8 19 -47 20 l-48 2 40 7 40 6 -29 13 c-23 9 -31 9 -37 -1 -8 -13 -49 -15 -184 -9 -58 2 -73 5 -55 11 15 5 -24 8 -100 8 -69 0 -112 -3 -95 -7z"/>
<path d="M700 2120 c0 -7 3 -10 7 -7 3 4 3 10 0 14 -4 3 -7 0 -7 -7z"/>
</g>
<g id="layer114" fill="#ce8fb7" stroke="none">
<path d="M0 1125 l0 -1125 1125 0 1125 0 0 1125 0 1125 -1125 0 -1125 0 0 -1125z m1485 1106 c31 -4 61 -14 66 -22 12 -19 11 -134 -1 -299 -15 -190 -31 -278 -115 -625 -27 -111 -50 -251 -60 -365 -4 -41 -12 -80 -17 -87 -5 -7 -8 -16 -5 -20 3 -4 8 -62 11 -128 3 -66 9 -167 12 -225 3 -58 12 -168 20 -245 14 -137 14 -140 -5 -156 -63 -51 -469 -51 -532 0 -20 16 -20 18 -5 166 8 83 18 208 21 280 3 72 8 168 11 215 7 101 7 92 -5 155 -5 28 -15 92 -20 142 -13 106 -33 206 -90 448 -22 94 -47 219 -56 278 -19 131 -31 446 -17 466 6 8 27 17 48 21 51 10 666 11 739 1z"/>
<path d="M1054 2201 c9 -15 -21 -21 -99 -21 -102 0 -125 -10 -125 -55 0 -32 2 -35 19 -26 12 7 55 7 127 1 125 -11 373 -2 352 13 -10 6 -9 8 4 4 9 -3 32 -9 50 -12 19 -4 40 -15 46 -26 21 -33 35 -186 30 -334 l-4 -140 22 50 c25 54 39 151 50 337 3 65 10 115 15 112 11 -7 11 -3 -1 33 l-11 30 -132 7 c-158 8 -205 15 -185 27 8 5 -22 9 -75 9 -49 0 -86 -4 -83 -9z m49 -18 c-7 -2 -19 -2 -25 0 -7 3 -2 5 12 5 14 0 19 -2 13 -5z m-166 -70 c-4 -3 -10 -3 -14 0 -3 4 0 7 7 7 7 0 10 -3 7 -7z"/>
<path d="M788 2183 c7 -3 16 -2 19 1 4 3 -2 6 -13 5 -11 0 -14 -3 -6 -6z"/>
<path d="M790 2020 c0 -7 3 -10 7 -7 3 4 3 10 0 14 -4 3 -7 0 -7 -7z"/>
<path d="M900 1861 l0 -89 31 -12 c26 -11 32 -11 40 1 10 16 12 103 3 137 -6 19 -49 52 -69 52 -3 0 -5 -40 -5 -89z m48 -15 c2 -52 0 -67 -10 -64 -9 3 -14 28 -16 72 -2 52 0 67 10 64 9 -3 14 -28 16 -72z"/>
<path d="M990 1821 c0 -87 1 -92 24 -103 45 -20 54 -7 54 80 1 61 -3 82 -14 86 -10 4 -14 -3 -14 -29 0 -49 -18 -44 -22 7 -2 23 -9 43 -15 46 -10 3 -13 -19 -13 -87z m50 -57 c0 -13 -4 -24 -10 -24 -5 0 -10 14 -10 31 0 17 4 28 10 24 6 -3 10 -17 10 -31z"/>
<path d="M1132 1818 c2 -16 9 -23 24 -22 18 0 20 -2 11 -17 -10 -16 -12 -16 -24 -1 -12 15 -13 14 -11 -8 2 -17 14 -30 38 -42 45 -22 56 -22 39 -1 -8 9 -9 14 -3 10 16 -9 25 28 10 44 -8 9 -8 10 2 5 6 -4 12 -3 12 3 0 11 -39 33 -78 46 -21 6 -23 4 -20 -17z m68 -33 c0 -14 -4 -25 -9 -25 -4 0 -6 11 -3 25 2 14 6 25 8 25 2 0 4 -11 4 -25z"/>
<path d="M890 1660 c0 -73 3 -90 15 -90 12 0 15 17 15 90 0 73 -3 90 -15 90 -12 0 -15 -17 -15 -90z"/>
<path d="M1230 1713 c0 -22 2 -25 10 -13 13 20 13 40 0 40 -5 0 -10 -12 -10 -27z"/>
<path d="M940 1641 c0 -69 3 -90 15 -94 10 -4 18 7 29 41 l14 47 1 -58 c1 -42 5 -57 14 -55 8 3 13 32 15 86 3 72 1 82 -16 91 -18 9 -21 6 -33 -37 l-14 -47 -3 58 c-5 91 -22 66 -22 -32z"/>
<path d="M1130 1690 c0 -10 9 -24 19 -30 26 -13 28 -13 34 9 3 13 -3 22 -20 30 -32 15 -33 14 -33 -9z"/>
<path d="M1047 1673 c-10 -10 -8 -53 2 -53 5 0 12 7 15 16 3 8 10 12 16 9 18 -11 10 -42 -15 -59 -31 -20 -33 -58 -4 -87 26 -26 54 -21 54 10 0 14 -6 26 -12 29 -7 2 -13 -3 -13 -12 0 -20 -16 -21 -24 -1 -3 9 6 26 24 42 37 33 38 65 4 92 -28 22 -37 25 -47 14z"/>
<path d="M1204 1655 c-2 -28 64 -65 77 -43 10 16 -14 44 -49 56 -24 8 -27 7 -28 -13z"/>
<path d="M1150 1555 c0 -62 -2 -73 -15 -69 -33 13 -12 -17 25 -36 40 -21 53 -12 25 16 -11 11 -15 37 -15 90 0 43 -4 74 -10 74 -6 0 -10 -32 -10 -75z"/>
<path d="M1190 1613 c0 -5 5 -48 11 -94 11 -79 21 -109 39 -109 15 0 61 50 55 60 -11 17 -25 11 -25 -12 0 -12 -3 -19 -6 -16 -3 3 -2 22 1 42 6 31 9 34 22 21 19 -19 33 -19 33 0 0 8 -11 17 -25 21 -20 5 -24 11 -19 29 4 15 0 24 -10 28 -11 5 -16 0 -16 -14 0 -27 -24 -19 -28 9 -3 21 -32 53 -32 35z m47 -130 c-3 -10 -5 -2 -5 17 0 19 2 27 5 18 2 -10 2 -26 0 -35z"/>
<path d="M864 1515 c3 -38 17 -115 32 -170 15 -55 28 -115 28 -133 0 -18 2 -28 6 -22 8 14 58 -168 74 -269 6 -41 17 -76 24 -79 40 -13 -19 257 -155 698 l-13 45 4 -70z"/>
<path d="M1359 1410 c-15 -58 -36 -139 -48 -180 -13 -41 -24 -86 -26 -100 -2 -14 -8 -38 -14 -54 -10 -24 -9 -27 5 -22 8 3 22 6 30 6 8 0 14 10 14 24 0 13 7 41 16 62 9 22 18 64 20 94 6 92 12 131 24 160 6 15 10 47 8 71 -3 41 -5 36 -29 -61z m-52 -337 c-4 -3 -10 -3 -14 0 -3 4 0 7 7 7 7 0 10 -3 7 -7z"/>
<path d="M954 1477 c16 -12 16 -14 -9 -25 -19 -9 -25 -18 -23 -35 4 -27 45 -37 54 -13 9 23 27 20 19 -3 -3 -11 -1 -22 5 -26 5 -3 10 0 10 7 0 10 2 10 9 -1 7 -11 11 -9 21 8 11 22 12 22 25 4 8 -10 15 -29 16 -43 l1 -25 8 25 c4 14 8 36 8 50 1 23 0 23 -9 5 -6 -15 -8 -8 -4 25 2 25 2 38 -1 28 -6 -19 -34 -33 -34 -16 0 6 -3 8 -6 5 -4 -3 -26 5 -49 18 -44 26 -71 34 -41 12z m20 -61 c-4 -9 -14 -16 -23 -14 -23 5 -26 35 -4 40 24 6 35 -5 27 -26z"/>
<path d="M1120 1407 c0 -13 -4 -27 -8 -32 -5 -6 -6 -21 -1 -35 5 -18 7 -20 8 -6 1 12 6 16 16 12 8 -3 15 0 15 7 0 8 2 9 8 1 11 -17 64 -41 91 -40 31 1 39 22 12 31 -21 6 -29 25 -11 25 6 0 10 7 10 16 0 14 -2 14 -22 0 -26 -18 -58 -21 -58 -5 0 5 -4 7 -10 4 -5 -3 -10 -1 -10 4 0 6 -7 11 -16 11 -10 0 -14 6 -10 15 3 8 1 15 -4 15 -6 0 -10 -10 -10 -23z"/>
<path d="M1202 1260 c0 -14 2 -19 5 -12 2 6 2 18 0 25 -3 6 -5 1 -5 -13z"/>
<path d="M1211 1204 c0 -11 3 -14 6 -6 3 7 2 16 -1 19 -3 4 -6 -2 -5 -13z"/>
<path d="M1271 944 c0 -11 3 -14 6 -6 3 7 2 16 -1 19 -3 4 -6 -2 -5 -13z"/>
<path d="M1150 925 c0 -8 5 -15 10 -15 6 0 10 7 10 15 0 8 -4 15 -10 15 -5 0 -10 -7 -10 -15z"/>
<path d="M1150 850 c-13 -8 -12 -10 3 -10 9 0 17 5 17 10 0 12 -1 12 -20 0z"/>
<path d="M1026 688 c-3 -50 -6 -143 -6 -207 0 -64 -3 -187 -7 -273 l-6 -158 -36 -1 c-33 -1 -34 -2 -11 -9 14 -4 48 -8 75 -8 36 0 43 2 25 7 l-25 7 4 367 c2 202 2 367 -1 367 -3 0 -8 -41 -12 -92z"/>
</g>
<g id="layer115" fill="#cac3bf" stroke="none">
<path d="M0 1125 l0 -1125 1125 0 1125 0 0 1125 0 1125 -1125 0 -1125 0 0 -1125z m1485 1106 c31 -4 61 -14 66 -22 12 -19 11 -134 -1 -299 -14 -187 -27 -255 -106 -590 -36 -148 -51 -238 -65 -365 -6 -60 -15 -115 -21 -122 -5 -7 -7 -16 -4 -21 3 -5 10 -107 16 -228 5 -120 17 -284 26 -364 15 -143 15 -145 -5 -161 -62 -50 -468 -53 -535 -4 -17 13 -18 19 -1 182 9 92 19 247 22 343 2 96 8 189 13 206 4 17 4 38 -1 47 -5 8 -14 62 -20 119 -12 118 -41 269 -98 513 -22 94 -47 219 -56 278 -19 131 -31 446 -17 466 6 8 27 17 48 21 51 10 666 11 739 1z"/>
<path d="M1054 2201 c9 -15 -21 -21 -99 -21 -102 0 -125 -10 -125 -55 0 -32 2 -35 19 -26 12 7 55 7 127 1 125 -11 373 -2 352 13 -10 6 -9 8 4 4 9 -3 32 -9 52 -12 27 -6 39 -15 53 -43 15 -32 18 -65 18 -239 0 -112 1 -203 3 -203 2 0 12 19 22 43 21 47 35 151 46 329 3 65 10 115 15 112 11 -7 11 -3 -1 33 l-11 30 -132 7 c-158 8 -205 15 -185 27 8 5 -22 9 -75 9 -49 0 -86 -4 -83 -9z m49 -18 c-7 -2 -19 -2 -25 0 -7 3 -2 5 12 5 14 0 19 -2 13 -5z m-166 -70 c-4 -3 -10 -3 -14 0 -3 4 0 7 7 7 7 0 10 -3 7 -7z"/>
<path d="M712 2155 c-7 -8 -9 -15 -4 -15 5 0 12 -65 15 -144 9 -178 23 -290 45 -336 17 -35 17 -34 20 98 1 74 -2 157 -7 185 -12 69 7 215 29 221 8 2 -7 4 -35 4 -32 1 -55 -4 -63 -13z"/>
</g>
<g id="layer116" fill="#daadcf" stroke="none">
<path d="M0 1125 l0 -1125 1125 0 1125 0 0 1125 0 1125 -1125 0 -1125 0 0 -1125z m1543 1096 c22 -18 23 -166 2 -385 -17 -175 -17 -173 -80 -431 -54 -219 -71 -307 -86 -450 -6 -60 -15 -115 -21 -122 -5 -7 -7 -16 -4 -21 3 -5 10 -107 16 -228 5 -120 17 -284 26 -364 15 -143 15 -145 -5 -161 -62 -50 -468 -53 -535 -4 -17 13 -17 20 -2 182 49 535 37 736 -70 1168 -19 77 -41 171 -49 208 -38 176 -61 570 -36 600 19 23 50 25 457 23 298 -1 374 -4 387 -15z"/>
<path d="M735 2190 c-3 -5 1 -10 9 -10 8 0 18 5 21 10 3 6 -1 10 -9 10 -8 0 -18 -4 -21 -10z"/>
<path d="M783 2183 c4 -3 10 -3 14 0 3 4 0 7 -7 7 -7 0 -10 -3 -7 -7z"/>
<path d="M724 2157 c-3 -8 0 -101 5 -208 10 -190 26 -289 51 -312 9 -10 11 25 5 163 -11 302 -8 355 24 363 9 3 -6 5 -32 6 -32 1 -49 -4 -53 -12z"/>
<path d="M1457 2163 c-4 -3 -7 -22 -7 -42 0 -27 -3 -32 -12 -23 -25 25 -27 11 -5 -30 21 -40 22 -55 22 -245 0 -112 1 -203 3 -203 2 0 12 19 22 43 20 44 33 155 45 390 l6 117 -34 0 c-18 0 -37 -3 -40 -7z"/>
<path d="M900 1861 l0 -89 31 -12 c37 -16 49 -4 49 50 0 75 -12 110 -41 125 -15 8 -30 15 -34 15 -3 0 -5 -40 -5 -89z m48 -14 c2 -55 0 -67 -13 -67 -12 0 -15 14 -15 71 0 52 3 70 13 67 7 -3 13 -29 15 -71z"/>
<path d="M990 1823 c0 -85 1 -90 24 -103 44 -23 53 -10 54 79 1 65 -2 81 -14 81 -10 0 -14 -11 -14 -37 0 -48 -18 -31 -22 21 -2 22 -9 41 -15 44 -10 3 -13 -19 -13 -85z m50 -59 c0 -13 -4 -24 -10 -24 -5 0 -10 14 -10 31 0 17 4 28 10 24 6 -3 10 -17 10 -31z"/>
<path d="M1090 1770 c0 -53 4 -90 10 -90 6 0 10 37 10 90 0 53 -4 90 -10 90 -6 0 -10 -37 -10 -90z"/>
<path d="M1134 1822 c1 -17 44 -47 54 -37 3 3 0 5 -7 5 -9 0 -11 8 -8 21 3 12 3 18 0 15 -3 -3 -14 -1 -23 4 -14 7 -17 6 -16 -8z"/>
<path d="M1186 1812 c-3 -5 1 -9 9 -9 8 0 12 4 9 9 -3 4 -7 8 -9 8 -2 0 -6 -4 -9 -8z"/>
<path d="M1220 1789 c0 -5 -4 -8 -8 -5 -5 3 -9 -1 -9 -9 0 -23 23 -18 24 5 1 11 0 20 -3 20 -2 0 -4 -5 -4 -11z"/>
<path d="M1130 1771 c0 -11 5 -23 10 -26 6 -3 10 3 10 14 0 11 -4 23 -10 26 -5 3 -10 -3 -10 -14z"/>
<path d="M1166 1763 c-12 -12 -6 -31 12 -37 9 -3 24 -9 32 -13 13 -6 13 -4 0 12 -9 11 -10 16 -2 11 6 -4 12 -3 12 2 0 11 -46 33 -54 25z"/>
<path d="M892 1663 c2 -58 7 -88 16 -91 9 -3 12 19 12 87 0 75 -3 91 -15 91 -13 0 -15 -14 -13 -87z"/>
<path d="M1231 1713 c0 -25 1 -26 9 -8 12 27 12 35 0 35 -5 0 -10 -12 -9 -27z"/>
<path d="M940 1641 c0 -105 15 -124 42 -52 l16 46 1 -57 c1 -32 6 -58 11 -58 6 0 10 37 10 90 0 104 -16 121 -42 43 l-16 -48 -1 63 c-1 34 -5 62 -11 62 -6 0 -10 -36 -10 -89z"/>
<path d="M1137 1703 c-4 -3 -7 -13 -7 -22 1 -13 3 -13 11 2 11 19 8 33 -4 20z"/>
<path d="M1154 1685 c-9 -21 -2 -26 13 -10 8 9 9 16 3 20 -6 3 -13 -1 -16 -10z"/>
<path d="M1047 1673 c-11 -10 -8 -53 3 -53 6 0 10 7 10 16 0 22 24 11 28 -13 2 -13 -6 -26 -22 -37 -16 -10 -26 -26 -26 -41 0 -32 36 -68 61 -62 10 3 19 1 19 -4 0 -5 18 -18 40 -29 32 -16 40 -17 40 -6 0 8 -7 16 -15 20 -12 4 -15 24 -15 86 0 47 -4 80 -10 80 -6 0 -10 -32 -10 -76 0 -56 -3 -75 -12 -72 -7 3 -14 14 -16 25 -4 25 -32 40 -32 18 0 -20 -16 -19 -24 0 -3 9 6 26 24 42 36 32 38 56 5 88 -25 26 -37 30 -48 18z"/>
<path d="M1204 1656 c1 -32 36 -47 36 -15 0 6 -5 7 -12 3 -7 -5 -9 -2 -5 9 3 8 0 18 -7 20 -8 3 -12 -3 -12 -17z"/>
<path d="M1254 1635 c-1 -13 4 -26 12 -29 18 -7 19 27 2 42 -10 8 -13 4 -14 -13z"/>
<path d="M1193 1589 c3 -13 9 -52 13 -87 6 -57 28 -102 42 -88 2 3 10 41 17 83 9 58 9 80 1 85 -7 5 -12 0 -14 -12 -5 -29 -30 -24 -34 7 -2 14 -9 29 -17 31 -10 3 -12 -2 -8 -19z m44 -106 c-3 -10 -5 -2 -5 17 0 19 2 27 5 18 2 -10 2 -26 0 -35z"/>
<path d="M861 1538 c-2 -33 29 -168 78 -342 28 -99 58 -219 67 -268 9 -48 20 -88 25 -88 13 0 11 35 -6 136 -24 137 -162 611 -164 562z"/>
<path d="M1280 1519 c0 -4 9 -13 20 -19 16 -8 20 -8 20 3 0 8 -9 17 -20 20 -11 3 -20 1 -20 -4z"/>
<path d="M956 1476 c18 -14 18 -15 -8 -25 -30 -11 -36 -29 -16 -49 19 -19 35 -14 58 21 16 23 20 26 15 9 -8 -28 22 -63 35 -42 5 8 6 19 2 25 -3 5 2 4 11 -4 21 -17 23 -15 31 29 5 28 4 31 -4 13 -10 -25 -30 -31 -30 -10 0 7 -8 3 -16 -8 -10 -12 -14 -14 -12 -5 3 10 -10 23 -35 38 -44 25 -61 29 -31 8z m22 -51 c-13 -28 -41 -30 -46 -3 -3 15 12 24 45 27 10 1 10 -5 1 -24z"/>
<path d="M1123 1398 c2 -32 1 -35 -14 -27 -12 6 -15 16 -12 31 3 13 3 20 0 17 -4 -3 -9 -23 -12 -45 -3 -27 -2 -33 4 -19 9 21 9 21 24 -25 4 -11 6 -10 6 4 1 11 6 16 15 13 9 -4 17 1 19 11 4 13 5 14 6 2 2 -23 80 -54 107 -43 21 8 17 23 -6 23 -11 0 -20 4 -20 10 0 5 -17 14 -37 20 -42 12 -67 28 -76 50 -4 8 -6 -2 -4 -22z m82 -48 c3 -5 4 -10 1 -10 -3 0 -8 5 -11 10 -3 6 -4 10 -1 10 3 0 8 -4 11 -10z"/>
<path d="M1026 543 c-4 -126 -10 -290 -14 -365 l-7 -137 28 -7 c16 -3 31 -3 34 0 4 3 -4 6 -16 6 l-23 0 7 365 c5 201 5 365 3 365 -3 0 -9 -102 -12 -227z"/>
</g>
<g id="layer117" fill="#e5d5e0" stroke="none">
<path d="M0 1125 l0 -1125 1125 0 1125 0 0 1125 0 1125 -1125 0 -1125 0 0 -1125z m1543 1096 c22 -18 23 -166 2 -384 -16 -166 -17 -171 -89 -477 -25 -107 -53 -244 -61 -305 -9 -60 -20 -137 -26 -170 -5 -33 -9 -64 -9 -70 0 -86 23 -458 35 -578 19 -187 20 -185 -76 -206 -92 -21 -338 -19 -412 3 -32 9 -61 24 -64 32 -3 8 2 94 10 192 49 543 37 721 -78 1183 -14 57 -32 135 -40 172 -38 176 -61 570 -36 600 19 23 50 25 457 23 298 -1 374 -4 387 -15z"/>
<path d="M1055 2200 c3 -5 18 -10 32 -10 15 0 24 -3 21 -6 -3 -3 -36 -5 -72 -5 -36 0 -66 -4 -66 -10 0 -5 9 -9 19 -9 33 0 33 -17 0 -29 -21 -7 -37 -7 -49 -1 -13 7 -21 7 -25 0 -3 -5 2 -10 12 -11 16 0 16 -1 -2 -9 -14 -6 5 -9 60 -10 44 -1 89 -3 100 -6 39 -7 196 8 192 20 -4 11 -9 12 -52 15 -19 1 -18 3 5 21 14 10 21 22 17 27 -5 4 -12 1 -16 -6 -6 -9 -11 -10 -15 -2 -4 6 -19 11 -34 12 -26 1 -26 1 6 10 17 5 32 12 32 14 0 3 -39 5 -86 5 -54 0 -83 -4 -79 -10z m92 -17 c-4 -3 -10 -3 -14 0 -3 4 0 7 7 7 7 0 10 -3 7 -7z"/>
<path d="M735 2190 c-3 -5 -2 -10 4 -10 5 0 13 5 16 10 3 6 2 10 -4 10 -5 0 -13 -4 -16 -10z"/>
<path d="M1450 2190 c-11 -7 -5 -10 23 -10 20 0 37 5 37 10 0 13 -40 13 -60 0z"/>
<path d="M1370 2172 c0 -12 19 -26 26 -19 2 2 -2 10 -11 17 -9 8 -15 8 -15 2z"/>
<path d="M724 2157 c-3 -8 0 -101 5 -208 10 -190 26 -289 51 -312 9 -10 11 25 5 163 -3 96 -7 198 -7 225 -2 61 11 127 26 137 6 4 -8 8 -32 8 -27 0 -45 -5 -48 -13z"/>
<path d="M836 2162 c-2 -4 4 -8 14 -8 10 0 16 4 14 8 -3 4 -9 8 -14 8 -5 0 -11 -4 -14 -8z"/>
<path d="M1457 2163 c-4 -3 -7 -22 -7 -42 0 -27 -3 -32 -12 -23 -19 19 -33 14 -15 -6 27 -30 36 -101 38 -287 l1 -180 19 41 c19 42 32 152 44 387 l6 117 -34 0 c-18 0 -37 -3 -40 -7z"/>
<path d="M1303 2103 c9 -2 23 -2 30 0 6 3 -1 5 -18 5 -16 0 -22 -2 -12 -5z"/>
<path d="M900 1862 l0 -88 29 -11 c17 -6 32 -8 35 -5 3 3 6 40 6 82 0 73 -1 76 -29 93 -16 9 -32 17 -35 17 -3 0 -6 -40 -6 -88z m48 -15 c2 -55 0 -67 -13 -67 -12 0 -15 14 -15 71 0 52 3 70 13 67 7 -3 13 -29 15 -71z"/>
<path d="M990 1816 l0 -84 30 -12 c17 -7 33 -10 37 -7 9 10 12 157 2 163 -9 5 -11 -1 -13 -38 -1 -10 -4 -18 -8 -18 -5 0 -12 0 -18 0 -5 0 -10 18 -10 40 0 22 -4 40 -10 40 -6 0 -10 -35 -10 -84z m50 -37 c14 -26 6 -51 -15 -43 -16 7 -22 64 -5 64 5 0 14 -9 20 -21z"/>
<path d="M1130 1770 c0 -7 3 -10 7 -7 3 4 3 10 0 14 -4 3 -7 0 -7 -7z"/>
<path d="M899 1719 c-2 -74 -1 -141 4 -145 7 -8 17 86 13 129 -4 49 -16 60 -17 16z"/>
<path d="M940 1641 c0 -73 3 -91 14 -91 9 0 21 20 29 48 l15 47 1 -57 c1 -31 6 -60 11 -63 6 -4 10 27 10 85 0 105 -14 116 -42 34 l-16 -49 -1 62 c-1 34 -5 65 -11 68 -6 4 -10 -27 -10 -84z"/>
<path d="M1134 1689 c-4 -7 -3 -9 4 -5 5 3 13 0 15 -6 4 -9 6 -10 6 -1 1 17 -16 25 -25 12z"/>
<path d="M1040 1651 c0 -11 5 -23 10 -26 6 -3 10 1 10 9 0 22 26 20 35 -1 4 -13 -3 -26 -26 -45 -25 -21 -30 -31 -25 -52 3 -14 18 -33 31 -42 29 -19 30 -18 39 14 8 25 -11 32 -20 7 -5 -12 -10 -13 -20 -4 -21 17 -17 32 16 61 35 31 38 50 10 78 -26 26 -60 26 -60 1z"/>
<path d="M1150 1555 c0 -65 -2 -75 -17 -75 -11 -1 -2 -9 20 -21 22 -11 41 -18 44 -15 3 3 -2 8 -11 12 -13 5 -16 21 -16 90 0 49 -4 84 -10 84 -6 0 -10 -32 -10 -75z"/>
<path d="M1264 1618 c-4 -7 -3 -8 4 -4 12 7 16 16 8 16 -3 0 -8 -5 -12 -12z"/>
<path d="M1195 1588 c5 -26 25 -149 25 -160 0 -5 6 -8 14 -8 17 0 42 131 30 158 -6 15 -8 14 -11 -5 -6 -33 -29 -28 -36 7 -4 17 -11 30 -17 30 -6 0 -8 -10 -5 -22z m45 -100 c0 -49 -5 -47 -14 5 -4 23 -3 37 4 37 5 0 10 -19 10 -42z"/>
<path d="M1283 1517 c5 -15 37 -22 37 -9 0 5 -9 12 -21 15 -13 3 -19 1 -16 -6z"/>
<path d="M871 1498 c-2 -18 32 -159 73 -303 25 -88 53 -202 62 -252 10 -51 22 -93 26 -93 17 0 -18 182 -73 381 -37 132 -87 285 -88 267z"/>
<path d="M986 1455 c4 -8 10 -13 14 -10 5 3 14 0 22 -7 7 -7 22 -15 33 -16 26 -5 19 1 -32 27 -33 16 -41 18 -37 6z"/>
<path d="M1121 1412 c-2 -21 19 -53 30 -47 5 4 9 1 9 -6 0 -7 2 -10 5 -7 9 9 -6 38 -20 38 -8 0 -16 8 -18 18 -3 9 -5 11 -6 4z"/>
<path d="M1024 1388 c-4 -7 -3 -8 4 -4 12 7 16 16 8 16 -3 0 -8 -5 -12 -12z"/>
<path d="M1085 1391 c-3 -5 0 -13 6 -16 6 -4 14 -17 19 -29 l9 -21 0 21 c1 12 -6 25 -15 28 -8 3 -12 10 -9 16 3 5 4 10 1 10 -3 0 -7 -4 -11 -9z"/>
<path d="M1000 1380 c0 -7 3 -10 7 -7 3 4 3 10 0 14 -4 3 -7 0 -7 -7z"/>
<path d="M1190 1340 c0 -5 5 -10 11 -10 5 0 7 5 4 10 -3 6 -8 10 -11 10 -2 0 -4 -4 -4 -10z"/>
<path d="M1240 1330 c0 -13 18 -22 24 -11 3 5 -1 11 -9 15 -8 3 -15 1 -15 -4z"/>
<path d="M1031 744 c0 -11 3 -14 6 -6 3 7 2 16 -1 19 -3 4 -6 -2 -5 -13z"/>
<path d="M1034 585 c0 -60 1 -84 3 -52 2 32 2 81 0 110 -2 29 -3 3 -3 -58z"/>
<path d="M1020 410 c0 -7 3 -10 7 -7 3 4 3 10 0 14 -4 3 -7 0 -7 -7z"/>
<path d="M1024 250 c0 -74 1 -105 3 -67 2 37 2 97 0 135 -2 37 -3 6 -3 -68z"/>
<path d="M1010 78 c0 -19 2 -20 10 -8 13 19 13 30 0 30 -5 0 -10 -10 -10 -22z"/>
<path d="M1013 43 c4 -3 10 -3 14 0 3 4 0 7 -7 7 -7 0 -10 -3 -7 -7z"/>
</g>
<g id="layer118" fill="#fffeff" stroke="none">
<path d="M0 1125 l0 -1125 1125 0 1125 0 0 1125 0 1125 -1125 0 -1125 0 0 -1125z m1515 1106 c47 -10 51 -30 43 -214 -7 -184 -28 -350 -58 -472 -55 -225 -92 -402 -106 -510 -8 -66 -18 -140 -22 -165 -10 -59 3 -400 23 -601 20 -204 20 -206 -7 -220 -67 -36 -367 -47 -480 -19 -73 19 -74 20 -59 186 7 79 14 157 16 172 5 43 20 425 17 442 -1 8 -9 74 -17 145 -9 72 -41 238 -71 370 -30 132 -64 292 -75 355 -22 132 -40 476 -27 503 5 10 19 22 31 27 25 10 746 11 792 1z"/>
<path d="M1065 2199 c7 -11 115 -10 115 2 0 4 -27 8 -60 8 -34 0 -58 -5 -55 -10z"/>
<path d="M1040 2171 c0 -5 -8 -12 -17 -14 -17 -4 -17 -5 0 -6 11 -1 17 -8 15 -18 -3 -15 6 -18 57 -21 65 -4 163 8 131 16 -18 4 -18 5 5 22 13 10 20 22 16 27 -5 4 -12 1 -16 -6 -6 -9 -11 -10 -15 -2 -9 13 -176 15 -176 2z"/>
<path d="M1260 2170 c0 -5 7 -10 15 -10 8 0 15 5 15 10 0 6 -7 10 -15 10 -8 0 -15 -4 -15 -10z"/>
<path d="M1373 2163 c4 -3 10 -3 14 0 3 4 0 7 -7 7 -7 0 -10 -3 -7 -7z"/>
<path d="M1456 2162 c-8 -13 6 -492 15 -492 23 0 36 81 49 309 11 187 11 191 -37 191 -12 0 -24 -4 -27 -8z"/>
<path d="M725 2149 c-4 -6 -5 -12 -2 -15 2 -3 7 2 10 11 7 17 1 20 -8 4z"/>
<path d="M1253 2123 c4 -3 10 -3 14 0 3 4 0 7 -7 7 -7 0 -10 -3 -7 -7z"/>
<path d="M1371 2121 c-9 -6 -7 -10 8 -14 12 -3 21 -1 21 3 0 14 -15 19 -29 11z"/>
<path d="M868 2113 c7 -3 16 -2 19 1 4 3 -2 6 -13 5 -11 0 -14 -3 -6 -6z"/>
<path d="M725 2056 c3 -27 5 -59 5 -72 0 -17 6 -24 20 -24 17 0 20 7 20 46 0 42 -2 46 -21 41 -13 -4 -19 -1 -16 6 2 7 0 21 -5 32 -5 13 -7 4 -3 -29z"/>
<path d="M770 2080 c0 -7 3 -10 7 -7 3 4 3 10 0 14 -4 3 -7 0 -7 -7z"/>
<path d="M900 1865 c0 -73 3 -86 19 -95 45 -23 51 -15 51 68 l0 78 -35 17 -35 17 0 -85z m55 22 c10 -53 2 -112 -15 -112 -12 0 -16 17 -18 77 -2 66 -1 77 12 72 9 -3 18 -20 21 -37z"/>
<path d="M730 1920 c0 -7 3 -10 7 -7 3 4 3 10 0 14 -4 3 -7 0 -7 -7z"/>
<path d="M1000 1819 c0 -74 2 -86 20 -97 28 -17 40 -7 39 31 -1 30 -1 30 -8 7 -4 -14 -13 -25 -21 -25 -12 0 -15 18 -17 79 -3 106 -13 110 -13 5z"/>
<path d="M1050 1870 c-1 -8 -2 -21 -1 -28 1 -8 -3 -19 -9 -27 -8 -9 -8 -15 0 -20 14 -9 22 17 17 57 -2 18 -5 26 -7 18z"/>
<path d="M1090 1776 c0 -47 5 -88 10 -91 6 -4 10 27 10 84 0 54 -4 91 -10 91 -6 0 -10 -35 -10 -84z"/>
<path d="M904 1665 c0 -49 1 -71 3 -48 2 23 2 64 0 90 -2 26 -3 8 -3 -42z"/>
<path d="M942 1644 c3 -100 19 -119 38 -47 20 72 28 72 24 0 -3 -39 0 -68 6 -72 6 -4 10 23 10 79 0 47 -4 87 -9 90 -8 5 -22 -26 -45 -94 -2 -8 -5 15 -5 52 -1 37 -6 70 -12 73 -7 5 -10 -20 -7 -81z"/>
<path d="M1045 1660 c-3 -5 -3 -15 1 -21 5 -8 10 -6 16 5 8 14 13 15 24 5 22 -18 17 -35 -18 -68 -32 -30 -32 -32 -18 -58 21 -37 60 -44 60 -11 -1 21 -2 21 -11 5 -8 -14 -14 -16 -25 -6 -21 17 -17 39 11 61 29 23 32 58 7 81 -21 19 -38 22 -47 7z"/>
<path d="M1460 1650 c0 -7 3 -10 7 -7 3 4 3 10 0 14 -4 3 -7 0 -7 -7z"/>
<path d="M1152 1556 c2 -61 0 -76 -12 -79 -9 -2 -2 -10 20 -21 19 -10 29 -12 23 -5 -8 8 -13 42 -13 90 0 45 -5 81 -11 85 -7 4 -10 -17 -7 -70z"/>
<path d="M1207 1533 c14 -84 27 -114 17 -39 -6 41 -5 46 10 40 12 -5 16 -14 12 -28 -3 -11 -6 -34 -6 -49 0 -19 -4 -26 -12 -21 -7 4 -8 3 -4 -4 15 -24 23 -10 35 57 14 85 14 91 1 91 -5 0 -10 -9 -10 -20 0 -30 -28 -14 -35 21 -4 16 -10 29 -14 29 -4 0 -1 -34 6 -77z"/>
<path d="M1280 1526 c0 -2 7 -9 15 -16 9 -7 15 -8 15 -2 0 5 -7 12 -15 16 -8 3 -15 4 -15 2z"/>
<path d="M891 1414 c0 -11 3 -14 6 -6 3 7 2 16 -1 19 -3 4 -6 -2 -5 -13z"/>
<path d="M1012 955 c-1 -11 3 -38 7 -60 l9 -40 0 35 c0 19 -4 46 -8 60 -6 20 -8 21 -8 5z"/>
<path d="M1020 210 c0 -7 3 -10 7 -7 3 4 3 10 0 14 -4 3 -7 0 -7 -7z"/>
</g>


</svg>