<!DOCTYPE svg PUBLIC "-//W3C//DTD SVG 20010904//EN" "http://www.w3.org/TR/2001/REC-SVG-20010904/DTD/svg10.dtd">
<svg version="1.0" xmlns="http://www.w3.org/2000/svg" width="225px" height="225px" viewBox="0 0 2250 2250" preserveAspectRatio="xMidYMid meet">
<g id="layer101" fill="#0b0906" stroke="none">
<path d="M0 1125 l0 -1125 1125 0 1125 0 0 1125 0 1125 -1125 0 -1125 0 0 -1125z"/>
</g>
<g id="layer102" fill="#271d1a" stroke="none">
<path d="M0 1125 l0 -1125 1125 0 1125 0 0 1125 0 1125 -1125 0 -1125 0 0 -1125z m1170 -35 c102 -1 179 -4 173 -7 -10 -4 -10 -10 2 -26 13 -18 15 -86 13 -482 l-3 -460 -2 459 c-2 319 -7 463 -14 473 -31 37 -34 14 -30 -248 3 -237 1 -261 -13 -256 -10 4 -16 1 -16 -7 0 -8 -3 -21 -6 -30 -5 -12 1 -16 22 -16 l29 0 -33 -17 c-18 -9 -35 -26 -38 -39 -3 -13 -12 -24 -20 -24 -23 0 -16 -20 12 -30 34 -13 45 -5 34 26 -14 35 -13 36 10 24 17 -9 19 -23 22 -165 l3 -155 -100 1 c-55 0 -95 2 -90 5 10 4 10 79 2 241 -3 65 -1 73 15 73 17 0 18 11 18 135 0 122 -2 135 -17 135 -16 0 -18 15 -18 172 l0 172 -38 9 c-70 17 -67 33 -67 -324 0 -309 -1 -321 -18 -306 -10 10 -28 14 -42 11 -25 -5 -25 -5 -2 7 26 14 29 29 5 29 -15 0 -15 1 0 18 10 10 14 21 11 24 -3 3 -5 123 -4 267 l1 261 -36 0 -35 0 0 -307 c-1 -170 -1 -378 -2 -463 l-1 -155 -9 160 c-13 238 -6 768 10 788 11 13 10 17 -5 26 -14 8 -5 10 37 7 30 -3 138 -5 240 -6z m127 -577 c-4 -3 -7 0 -7 7 0 7 3 10 7 7 3 -4 3 -10 0 -14z m-307 -124 c0 7 5 9 10 6 7 -4 6 -13 -1 -27 -9 -17 -8 -24 5 -33 13 -10 16 -32 16 -119 l0 -106 -37 0 -38 1 25 14 c14 8 19 14 12 15 -11 0 -13 24 -11 118 2 64 0 124 -6 132 -8 13 -7 13 8 1 12 -9 17 -10 17 -2z"/>
<path d="M1205 365 c4 -42 16 -47 45 -19 12 12 12 14 -2 14 -8 0 -23 10 -31 23 -15 21 -16 21 -12 -18z"/>
<path d="M1143 372 c-14 -9 -4 -62 11 -61 5 0 13 -5 17 -13 7 -11 11 -10 19 2 12 19 13 30 1 30 -4 0 -6 11 -3 25 3 19 0 25 -14 25 -11 0 -24 -4 -31 -8z"/>
</g>
<g id="layer103" fill="#363130" stroke="none">
<path d="M0 1125 l0 -1125 1125 0 1125 0 0 1125 0 1125 -1125 0 -1125 0 0 -1125z m1155 -26 c143 -1 251 -3 240 -6 -71 -15 -67 -11 -50 -37 13 -20 15 -85 12 -482 l-2 -459 -3 461 c-2 396 -4 463 -17 474 -8 7 -15 9 -15 4 -7 -115 -3 -505 5 -508 6 -3 2 -5 -7 -5 -10 -1 -18 -9 -19 -18 -1 -12 -4 -10 -9 7 -8 24 -8 24 -9 3 -1 -13 -2 -26 -3 -30 -1 -5 11 -11 28 -14 19 -5 22 -7 8 -8 -24 -1 -64 -36 -64 -56 0 -8 -7 -15 -15 -15 -23 0 -18 -16 11 -29 32 -14 47 -6 34 19 -16 30 -13 42 9 30 26 -13 29 -13 33 7 2 9 3 -61 3 -155 l0 -172 -125 1 c-69 0 -120 3 -114 5 8 4 10 35 7 106 -5 79 -3 102 8 109 11 7 11 11 1 17 -9 6 -10 16 -3 34 7 19 6 29 -7 42 -16 16 -14 16 26 10 l42 -7 0 138 0 137 -32 -4 -33 -3 0 168 c0 179 -3 191 -50 185 -19 -3 -20 -12 -23 -322 -2 -318 -2 -319 -22 -301 -20 18 -21 18 -44 -5 -24 -22 -25 -22 -19 -1 3 11 14 23 24 26 30 10 23 28 -8 21 l-28 -7 23 19 c25 19 21 58 -5 48 -11 -5 -11 -2 -2 16 8 15 9 88 4 259 -7 226 -8 239 -26 239 -19 0 -19 -14 -17 -460 2 -253 0 -460 -3 -460 -16 0 -19 72 -19 480 0 379 2 438 16 458 17 25 16 26 -50 43 -28 8 -27 8 9 4 22 -3 157 -5 300 -6z m-58 -456 c-4 -3 -7 0 -7 7 0 7 3 10 7 7 3 -4 3 -10 0 -14z m0 -100 c-3 -10 -5 -4 -5 12 0 17 2 24 5 18 2 -7 2 -21 0 -30z m0 -40 c-4 -3 -10 -3 -14 0 -3 4 0 7 7 7 7 0 10 -3 7 -7z m-91 -119 c-3 -8 -9 -21 -12 -29 -4 -9 1 -17 10 -21 13 -5 16 -24 16 -115 l0 -109 -46 0 c-41 0 -44 1 -30 16 9 8 14 19 12 23 -3 4 -6 54 -7 112 -1 91 1 104 15 101 19 -3 21 9 4 28 -10 11 -9 11 6 0 18 -14 19 -13 13 2 -4 12 -2 15 9 11 8 -3 13 -12 10 -19z"/>
<path d="M1203 371 c1 -21 -3 -36 -12 -39 -8 -3 -11 0 -7 6 3 6 -2 13 -11 15 -17 4 -17 5 0 6 9 0 17 6 17 11 0 12 -30 13 -47 2 -18 -11 -4 -56 22 -68 20 -10 24 -8 29 8 2 11 9 17 14 14 6 -3 21 3 33 14 19 15 20 19 8 20 -9 0 -24 10 -32 23 -16 22 -16 22 -14 -12z"/>
</g>
<g id="layer104" fill="#464341" stroke="none">
<path d="M0 1125 l0 -1125 1125 0 1125 0 0 1125 0 1125 -1125 0 -1125 0 0 -1125z m1155 -26 c193 -1 249 -4 217 -11 -41 -9 -43 -11 -28 -27 14 -16 16 -72 16 -478 l0 -461 -22 -6 c-30 -8 -387 -8 -427 0 l-31 7 0 456 c0 398 2 459 16 479 17 24 19 22 -46 42 l-35 10 40 -5 c22 -3 157 -5 300 -6z"/>
<path d="M1325 1041 c4 -7 8 -122 9 -256 2 -230 1 -245 -16 -245 -10 0 -18 -8 -19 -17 -1 -12 -4 -10 -9 7 -8 24 -8 23 -9 -7 -1 -30 2 -33 30 -33 16 0 28 -4 25 -8 -2 -4 -1 -14 4 -22 5 -7 8 118 7 285 -2 245 -5 299 -16 303 -9 3 -11 0 -6 -7z"/>
<path d="M1022 721 c2 -177 0 -321 -3 -321 -3 0 -11 -12 -18 -27 -11 -23 -10 -29 3 -39 13 -9 16 -32 16 -113 l0 -101 26 0 25 0 -2 107 c-1 105 -1 108 20 105 11 -2 21 2 21 9 0 7 -10 9 -29 6 -23 -5 -30 -2 -34 14 -4 17 -3 18 9 8 15 -13 17 -8 14 36 -1 17 -7 34 -14 38 -7 6 -4 7 7 3 10 -3 36 -9 58 -12 l40 -7 -3 134 -3 134 -27 3 -28 3 0 -101 c0 -91 -2 -101 -17 -98 -17 3 -18 24 -18 268 l0 265 -23 3 -23 4 3 -321z m25 -238 c-4 -3 -7 0 -7 7 0 7 3 10 7 7 3 -4 3 -10 0 -14z m-20 -130 c-4 -3 -10 -3 -14 0 -3 4 0 7 7 7 7 0 10 -3 7 -7z"/>
<path d="M901 974 c0 -11 3 -14 6 -6 3 7 2 16 -1 19 -3 4 -6 -2 -5 -13z"/>
<path d="M903 840 c0 -25 2 -35 4 -22 2 12 2 32 0 45 -2 12 -4 2 -4 -23z"/>
<path d="M904 518 c-8 -12 16 -108 27 -108 5 0 9 5 9 11 0 6 10 19 23 30 l22 19 -29 -2 c-16 -2 -31 2 -33 9 -3 7 3 9 16 6 17 -4 21 -1 21 20 0 20 -5 25 -25 25 -14 0 -28 -5 -31 -10z"/>
<path d="M1272 460 c-12 -12 -22 -27 -22 -35 0 -8 -7 -15 -15 -15 -26 0 -16 -18 15 -28 32 -12 44 -4 29 18 -16 27 -11 41 15 34 16 -4 25 -1 30 11 14 38 -18 46 -52 15z"/>
<path d="M961 421 c-20 -15 -22 -21 -12 -39 7 -12 16 -22 20 -22 12 0 23 29 16 41 -4 5 1 6 9 3 19 -7 21 9 3 24 -9 8 -19 6 -36 -7z m14 -31 c3 -5 4 -10 1 -10 -3 0 -8 5 -11 10 -3 6 -4 10 -1 10 3 0 8 -4 11 -10z"/>
<path d="M1339 423 c-4 -46 1 -287 6 -291 3 -3 5 65 5 151 0 87 -2 157 -5 157 -3 0 -6 -8 -6 -17z"/>
<path d="M910 355 c0 -27 2 -46 4 -44 8 8 10 78 3 85 -4 4 -7 -14 -7 -41z"/>
<path d="M1206 365 c4 -22 8 -41 9 -43 1 -1 13 6 26 17 19 16 20 20 8 21 -9 0 -24 10 -33 23 -16 21 -16 21 -10 -18z"/>
<path d="M1147 373 c-11 -3 -16 -10 -13 -20 3 -8 6 -20 6 -26 0 -7 11 -17 24 -23 21 -10 25 -9 29 7 4 13 0 19 -11 19 -15 0 -15 2 -2 10 13 8 12 10 -4 10 -20 0 -20 0 0 15 20 15 9 18 -29 8z"/>
<path d="M913 210 c0 -30 2 -43 4 -27 2 15 2 39 0 55 -2 15 -4 2 -4 -28z"/>
<path d="M910 140 c0 -5 5 -10 11 -10 5 0 7 5 4 10 -3 6 -8 10 -11 10 -2 0 -4 -4 -4 -10z"/>
</g>
<g id="layer105" fill="#b0061c" stroke="none">
<path d="M0 1125 l0 -1125 1125 0 1125 0 0 1125 0 1125 -1125 0 -1125 0 0 -1125z m1155 -26 c193 -1 249 -4 217 -11 -41 -9 -43 -11 -28 -27 14 -16 16 -72 16 -479 l0 -462 -27 -7 c-37 -9 -368 -9 -415 0 l-38 8 0 461 c0 409 2 463 16 479 15 17 13 19 -32 34 l-49 15 40 -5 c22 -3 157 -5 300 -6z"/>
</g>
<g id="layer106" fill="#d00119" stroke="none">
<path d="M0 1125 l0 -1125 1125 0 1125 0 0 1125 0 1125 -1125 0 -1125 0 0 -1125z m1130 861 c0 -3 -5 -8 -12 -12 -7 -4 -8 -3 -4 4 7 12 16 16 16 8z m-293 -13 c-4 -3 -10 -3 -14 0 -3 4 0 7 7 7 7 0 10 -3 7 -7z m693 -418 l0 -406 -25 -24 c-13 -14 -35 -25 -49 -25 -14 0 -48 -5 -76 -11 -48 -10 -50 -12 -36 -28 14 -15 16 -74 16 -479 l0 -462 -27 -7 c-37 -9 -368 -9 -415 0 l-38 8 0 461 c0 405 2 464 16 479 14 16 13 18 -18 28 -18 6 -53 13 -78 17 -49 7 -90 28 -90 46 0 6 9 3 21 -8 19 -17 45 -19 344 -24 407 -6 419 -6 434 26 7 17 11 150 11 419 0 217 2 395 5 395 3 0 5 -182 5 -405z m-813 378 c-4 -3 -7 0 -7 7 0 7 3 10 7 7 3 -4 3 -10 0 -14z m0 -475 c-2 -13 -4 -3 -4 22 0 25 2 35 4 23 2 -13 2 -33 0 -45z"/>
</g>
<g id="layer107" fill="#d9042a" stroke="none">
<path d="M0 1125 l0 -1125 1125 0 1125 0 0 1125 0 1125 -1125 0 -1125 0 0 -1125z m1250 858 c-35 -2 -70 -9 -77 -15 -8 -6 -13 -6 -13 -1 0 5 -6 10 -13 10 -8 0 -14 -6 -14 -13 0 -7 5 -10 11 -7 6 4 5 -1 -3 -10 -10 -13 -17 -14 -33 -6 -11 6 -17 17 -14 24 3 8 0 16 -7 19 -7 2 42 4 108 3 66 0 91 -2 55 -4z m210 -12 c0 -4 -16 -8 -37 -9 -30 -2 -34 0 -25 11 12 14 62 12 62 -2z m-610 -1 c-20 -13 -43 -13 -35 0 3 6 16 10 28 10 18 0 19 -2 7 -10z m-60 -9 c0 -6 -5 -13 -12 -17 -6 -4 -8 -3 -4 4 3 5 0 13 -6 15 -8 3 -6 6 5 6 9 1 17 -3 17 -8z m740 -406 l0 -406 -25 -24 c-13 -14 -35 -25 -49 -25 -14 0 -48 -5 -76 -11 -48 -10 -50 -12 -36 -28 14 -15 16 -74 16 -479 l0 -462 -27 -7 c-37 -9 -368 -9 -415 0 l-38 8 0 461 c0 405 2 464 16 479 14 16 13 18 -18 28 -18 6 -53 13 -78 17 -25 3 -55 13 -67 20 l-23 14 2 408 3 407 2 -401 c3 -358 5 -403 20 -415 13 -11 91 -15 381 -17 l366 -4 18 24 c16 21 18 53 18 421 0 218 2 397 5 397 3 0 5 -182 5 -405z m-700 375 c0 -5 -8 -10 -17 -10 -15 0 -16 2 -3 10 19 12 20 12 20 0z m607 -7 c-4 -3 -10 -3 -14 0 -3 4 0 7 7 7 7 0 10 -3 7 -7z m-20 -40 c-4 -3 -7 0 -7 7 0 7 3 10 7 7 3 -4 3 -10 0 -14z m-292 -3 c3 -5 4 -10 1 -10 -3 0 -8 5 -11 10 -3 6 -4 10 -1 10 3 0 8 -4 11 -10z m-348 -47 c-4 -3 -7 0 -7 7 0 7 3 10 7 7 3 -4 3 -10 0 -14z m23 -163 c0 -3 -7 -15 -16 -26 -14 -18 -15 -18 -4 5 9 17 9 26 1 34 -6 6 -11 16 -11 22 1 10 30 -24 30 -35z m30 -20 c0 -5 -5 -10 -11 -10 -5 0 -7 5 -4 10 3 6 8 10 11 10 2 0 4 -4 4 -10z m557 -56 c-3 -3 -12 -4 -19 -1 -8 3 -5 6 6 6 11 1 17 -2 13 -5z m-240 -30 c-3 -3 -12 -4 -19 -1 -8 3 -5 6 6 6 11 1 17 -2 13 -5z m-357 -39 c0 -5 -5 -3 -10 5 -5 8 -10 20 -10 25 0 6 5 3 10 -5 5 -8 10 -19 10 -25z m35 25 c3 -5 4 -10 1 -10 -3 0 -8 5 -11 10 -3 6 -4 10 -1 10 3 0 8 -4 11 -10z m652 -82 c-2 -18 -4 -4 -4 32 0 36 2 50 4 33 2 -18 2 -48 0 -65z m-36 -41 c-6 -6 -7 5 -4 32 l6 41 -64 2 c-43 1 -51 3 -24 5 55 5 85 12 84 21 -1 4 0 12 2 17 1 6 4 -17 6 -49 2 -32 0 -63 -6 -69z m-164 76 c-3 -10 -5 -4 -5 12 0 17 2 24 5 18 2 -7 2 -21 0 -30z m-490 -10 c-4 -3 -7 0 -7 7 0 7 3 10 7 7 3 -4 3 -10 0 -14z m590 -20 c-4 -3 -10 -3 -14 0 -3 4 0 7 7 7 7 0 10 -3 7 -7z m38 -3 c3 -6 -1 -7 -9 -4 -18 7 -21 14 -7 14 6 0 13 -4 16 -10z m-608 -17 c-4 -3 -10 -3 -14 0 -3 4 0 7 7 7 7 0 10 -3 7 -7z m0 -29 c-3 -3 -12 -4 -19 -1 -8 3 -5 6 6 6 11 1 17 -2 13 -5z m40 -31 c-4 -3 -7 0 -7 7 0 7 3 10 7 7 3 -4 3 -10 0 -14z m-50 -35 c-3 -7 -5 -2 -5 12 0 14 2 19 5 13 2 -7 2 -19 0 -25z m30 0 c-3 -7 -5 -2 -5 12 0 14 2 19 5 13 2 -7 2 -19 0 -25z m336 -5 c-7 -2 -21 -2 -30 0 -10 3 -4 5 12 5 17 0 24 -2 18 -5z m34 0 c-4 -3 -10 -3 -14 0 -3 4 0 7 7 7 7 0 10 -3 7 -7z m-62 -29 c14 -6 14 -9 1 -23 -7 -9 -16 -25 -19 -36 -2 -11 -4 -1 -3 23 0 23 1 42 2 42 1 0 10 -3 19 -6z m42 -11 c-4 -3 -10 -3 -14 0 -3 4 0 7 7 7 7 0 10 -3 7 -7z m268 -24 c-7 -20 -8 -21 -17 -4 -8 12 -7 20 3 26 18 11 22 5 14 -22z m-218 -76 c-2 -16 -4 -5 -4 22 0 28 2 40 4 28 2 -13 2 -35 0 -50z m173 63 c0 -9 -30 -14 -35 -6 -4 6 3 10 14 10 12 0 21 -2 21 -4z m-583 -13 c-4 -3 -10 -3 -14 0 -3 4 0 7 7 7 7 0 10 -3 7 -7z m498 -3 c3 -5 4 -10 1 -10 -3 0 -8 5 -11 10 -3 6 -4 10 -1 10 3 0 8 -4 11 -10z m-28 -27 c0 -7 -6 -13 -12 -13 -6 0 -12 6 -12 13 0 8 6 14 12 14 6 0 12 -6 12 -14z m154 -6 c-13 -13 -26 -3 -16 12 3 6 11 8 17 5 6 -4 6 -10 -1 -17z m-41 3 c0 -6 -11 -10 -25 -10 -14 0 -25 4 -25 8 0 4 11 9 25 10 14 1 25 -3 25 -8z m-280 -15 c0 -8 -4 -15 -10 -15 -5 0 -7 7 -4 15 4 8 8 15 10 15 2 0 4 -7 4 -15z m197 -12 c-4 -3 -7 0 -7 7 0 7 3 10 7 7 3 -4 3 -10 0 -14z"/>
</g>
<g id="layer108" fill="#e5032c" stroke="none">
<path d="M0 1125 l0 -1125 1125 0 1125 0 0 1125 0 1125 -1125 0 -1125 0 0 -1125z m1468 856 c1 -1 2 -15 2 -32 l0 -31 -52 7 c-29 4 -56 13 -60 19 -5 7 -8 5 -8 -6 0 -19 -11 -23 -24 -10 -9 9 -166 10 -166 1 0 -6 -12 -6 -71 0 -4 1 -9 15 -11 32 l-5 32 196 -6 c108 -3 197 -6 199 -6z m-548 -22 c0 -11 -4 -17 -10 -14 -6 4 -17 2 -25 -5 -7 -6 -36 -14 -63 -19 -50 -8 -50 -7 -54 20 -5 31 4 34 105 37 41 2 47 0 47 -19z m610 -404 l0 -406 -25 -24 c-13 -14 -35 -25 -49 -25 -14 0 -48 -5 -76 -11 -48 -10 -50 -12 -36 -28 14 -15 16 -74 16 -479 l0 -462 -27 -7 c-37 -9 -368 -9 -415 0 l-38 8 0 461 c0 405 2 464 16 479 14 16 13 18 -18 28 -18 6 -53 13 -78 17 -25 3 -55 13 -67 20 l-23 14 2 408 3 407 2 -401 c3 -346 5 -403 19 -414 24 -21 36 2 37 69 0 60 1 61 29 61 26 0 28 -3 28 -41 0 -24 4 -38 10 -34 6 4 5 -5 -2 -19 -14 -31 -10 -35 39 -47 44 -10 381 -12 472 -3 66 7 73 17 41 51 l-19 21 49 4 c44 3 50 1 50 -17 0 -11 4 -26 9 -34 8 -12 12 -12 25 -2 14 12 16 61 16 412 0 220 2 399 5 399 3 0 5 -182 5 -405z m-683 308 c-1 -50 -17 -72 -49 -73 -25 0 -23 -30 1 -30 11 0 27 7 36 16 14 15 15 13 13 -15 -2 -26 -7 -32 -36 -37 -26 -5 -32 -10 -26 -23 14 -35 15 -48 2 -59 -11 -9 -14 8 -15 101 -1 62 0 106 3 100 3 -7 12 -13 20 -13 8 0 14 6 14 13 0 8 3 7 10 -3 5 -8 12 -11 17 -7 4 4 2 17 -5 28 -10 15 -10 22 0 34 7 8 14 14 15 15 1 0 1 -21 0 -47z m440 40 c-4 -3 -10 -3 -14 0 -3 4 0 7 7 7 7 0 10 -3 7 -7z m159 -23 l24 0 0 -150 c0 -97 -4 -150 -10 -150 -7 0 -10 -48 -10 -137 1 -76 -1 -146 -5 -155 -10 -24 -25 -23 -25 2 0 12 -12 28 -29 38 -32 19 -29 31 22 82 17 19 27 39 27 59 l0 31 -62 2 c-37 1 -48 3 -28 5 59 6 63 10 41 34 -12 13 -25 18 -33 14 -11 -7 -11 -5 0 6 11 12 17 11 44 -4 17 -10 33 -15 36 -12 11 10 -32 45 -55 45 l-24 0 19 24 c16 21 19 39 17 118 -1 51 -4 102 -7 113 -5 20 24 61 30 44 2 -5 15 -9 28 -9z m-291 0 c-3 -5 -2 -10 4 -10 5 0 8 -8 6 -17 -2 -10 -4 -22 -4 -27 -1 -4 -7 -6 -13 -3 -10 3 -13 -22 -14 -104 0 -70 4 -109 10 -110 6 0 2 -4 -9 -8 -12 -5 -26 -4 -34 3 -12 9 -13 8 -8 -6 3 -10 2 -18 -3 -18 -5 0 -9 11 -8 24 1 14 5 23 9 20 16 -10 18 15 4 42 -10 19 -15 52 -13 97 2 57 5 67 20 67 27 0 35 30 13 46 -17 13 -16 14 14 14 19 0 30 -4 26 -10z m111 -14 c2 -24 -9 -28 -34 -12 -11 6 -8 11 10 21 12 7 23 13 23 14 0 1 1 -10 1 -23z m-416 -211 c-4 -22 -8 -34 -9 -27 0 6 -8 12 -17 12 -13 0 -14 3 -5 14 9 11 9 20 2 35 -9 16 -8 20 7 23 24 6 31 -11 22 -57z m2 -59 c-13 -17 -7 -97 9 -107 11 -6 7 -14 -16 -39 -36 -37 -75 -41 -75 -6 0 22 3 23 35 16 27 -6 35 -5 35 6 0 25 -2 29 -12 26 -5 -1 -7 6 -3 17 3 11 1 22 -5 26 -15 10 -12 23 8 28 9 3 2 5 -15 6 -33 1 -46 -20 -23 -34 13 -8 13 -18 -4 -40 -12 -16 -13 -10 -13 51 l-1 69 45 -4 c31 -2 41 -6 35 -15z m385 -13 c-4 -3 -10 -3 -14 0 -3 4 0 7 7 7 7 0 10 -3 7 -7z m-92 -21 c-13 -9 -17 -30 -10 -51 4 -13 14 -17 38 -15 l32 3 -27 -11 c-31 -13 -40 -51 -10 -42 14 5 14 3 -2 -10 -11 -9 -24 -16 -29 -16 -4 0 -5 -4 -2 -10 3 -5 2 -10 -4 -10 -5 0 -12 6 -14 13 -3 6 -6 2 -6 -10 -1 -17 3 -20 21 -15 14 3 19 1 14 -6 -3 -6 2 -15 11 -21 16 -9 16 -10 -4 -11 -43 0 -70 17 -70 45 0 15 6 29 14 32 9 4 11 8 4 12 -5 4 -12 30 -14 60 -4 46 -2 54 17 61 26 11 55 12 41 2z m332 -149 c-2 -32 -3 -8 -3 52 0 61 1 87 3 58 2 -29 2 -78 0 -110z m-240 110 c-4 -3 -7 0 -7 7 0 7 3 10 7 7 3 -4 3 -10 0 -14z m40 -20 c-3 -10 -5 -4 -5 12 0 17 2 24 5 18 2 -7 2 -21 0 -30z m143 -35 c0 -7 -5 -20 -11 -28 -8 -11 -12 -12 -16 -2 -2 6 -13 12 -24 12 -10 0 -19 7 -19 15 0 10 11 15 35 15 21 0 35 -5 35 -12z m-213 -25 c-4 -3 -10 -3 -14 0 -3 4 0 7 7 7 7 0 10 -3 7 -7z m160 -20 c-4 -3 -10 -3 -14 0 -3 4 0 7 7 7 7 0 10 -3 7 -7z m-507 -18 c-7 -9 -15 -13 -19 -10 -3 3 1 10 9 15 21 14 24 12 10 -5z m447 -2 c-4 -3 -7 0 -7 7 0 7 3 10 7 7 3 -4 3 -10 0 -14z m-530 -25 c-3 -7 -5 -2 -5 12 0 14 2 19 5 13 2 -7 2 -19 0 -25z m470 25 c-4 -3 -10 -3 -14 0 -3 4 0 7 7 7 7 0 10 -3 7 -7z m-437 -53 c5 0 11 10 13 23 3 13 5 6 6 -18 2 -32 4 -36 11 -20 7 18 8 18 15 3 7 -17 -20 -56 -32 -45 -3 3 -16 2 -29 -3 -23 -9 -24 -7 -24 28 0 27 3 33 10 22 7 -11 10 -7 11 20 1 24 3 28 6 13 2 -13 8 -23 13 -23z m105 2 c-3 -3 -11 0 -18 7 -9 10 -8 11 6 5 10 -3 15 -9 12 -12z m385 14 c0 -3 -5 -8 -12 -12 -7 -4 -8 -3 -4 4 7 12 16 16 16 8z m-103 -13 c-4 -3 -10 -3 -14 0 -3 4 0 7 7 7 7 0 10 -3 7 -7z m48 -13 c-3 -5 -12 -10 -18 -10 -7 0 -6 4 3 10 19 12 23 12 15 0z m-107 -19 c11 -6 10 -10 -2 -20 -9 -8 -16 -22 -16 -32 0 -11 -6 -19 -12 -20 -10 0 -10 -2 0 -6 6 -2 12 -16 12 -30 0 -23 2 -24 17 -12 15 13 15 12 5 -7 -6 -12 -8 -24 -5 -28 3 -3 -8 -6 -25 -6 -25 0 -32 4 -32 19 0 10 7 22 15 25 12 4 14 10 5 25 -7 13 -7 22 0 26 14 9 13 42 -2 47 -6 2 -12 12 -14 21 -2 14 2 16 19 11 12 -3 28 -10 35 -13z m339 2 c-4 -3 -7 0 -7 7 0 7 3 10 7 7 3 -4 3 -10 0 -14z m-300 -10 c-4 -3 -10 -3 -14 0 -3 4 0 7 7 7 7 0 10 -3 7 -7z m44 -7 c5 3 9 -21 9 -55 0 -52 -3 -61 -17 -60 -11 0 -13 3 -5 6 18 7 16 92 -3 99 -8 4 -12 11 -8 17 5 8 8 7 11 -1 2 -7 8 -10 13 -6z m-304 -73 c-2 -16 -4 -5 -4 22 0 28 2 40 4 28 2 -13 2 -35 0 -50z m-54 38 c3 -13 1 -18 -9 -14 -7 2 -10 11 -7 19 7 19 10 18 16 -5z m24 2 c-4 -3 -7 0 -7 7 0 7 3 10 7 7 3 -4 3 -10 0 -14z m265 -15 c-7 -7 -12 -8 -12 -2 0 14 12 26 19 19 2 -3 -1 -11 -7 -17z m38 2 c0 -11 -2 -20 -4 -20 -2 0 -6 9 -9 20 -3 11 -1 20 4 20 5 0 9 -9 9 -20z m124 4 c5 -14 4 -15 -9 -4 -17 14 -19 20 -6 20 5 0 12 -7 15 -16z m86 2 c0 -9 -8 -12 -25 -8 -28 5 -24 22 6 22 10 0 19 -6 19 -14z m73 -6 c3 -11 1 -18 -4 -14 -5 3 -9 12 -9 20 0 20 7 17 13 -6z m-186 -27 c0 -7 -6 -13 -14 -13 -7 0 -13 6 -13 13 0 8 6 14 13 14 8 0 14 -6 14 -14z m163 -4 c0 -5 -7 -9 -15 -9 -15 0 -20 12 -9 23 8 8 24 -1 24 -14z m-590 7 c0 -3 -4 -8 -10 -11 -5 -3 -10 -1 -10 4 0 6 5 11 10 11 6 0 10 -2 10 -4z m540 -6 c0 -6 -11 -10 -25 -10 -14 0 -25 4 -25 8 0 4 11 9 25 10 14 1 25 -3 25 -8z m-83 -32 c-3 -8 -6 -5 -6 6 -1 11 2 17 5 13 3 -3 4 -12 1 -19z m-130 -5 c-4 -3 -7 0 -7 7 0 7 3 10 7 7 3 -4 3 -10 0 -14z m70 0 c-4 -3 -10 -3 -14 0 -3 4 0 7 7 7 7 0 10 -3 7 -7z"/>
<path d="M1140 1850 c0 -7 3 -10 7 -7 3 4 3 10 0 14 -4 3 -7 0 -7 -7z"/>
</g>
<g id="layer109" fill="#716d6c" stroke="none">
<path d="M0 1125 l0 -1125 1125 0 1125 0 0 1125 0 1125 -1125 0 -1125 0 0 -1125z m1444 855 c23 -4 30 -12 33 -34 l4 -28 -65 7 -66 7 0 -26 c0 -22 4 -26 30 -26 17 0 30 5 31 13 0 10 2 10 6 0 2 -7 15 -13 28 -13 32 0 34 -23 32 -330 -2 -183 -5 -244 -14 -243 -6 2 -15 -6 -18 -17 -8 -25 -25 -26 -25 -2 0 15 -8 18 -47 17 -45 0 -48 -2 -53 -30 -4 -20 -8 -26 -13 -17 -5 6 -17 12 -28 12 -12 0 -19 7 -19 20 0 11 -7 20 -15 20 -12 0 -15 -13 -15 -55 l0 -55 33 0 c18 0 38 5 45 12 9 9 12 9 12 0 0 -9 20 -12 73 -10 l72 3 0 37 c0 20 3 39 6 43 4 3 7 -20 7 -52 1 -32 1 -64 1 -71 1 -8 9 -12 19 -10 16 3 17 33 22 408 l5 405 3 -408 2 -408 -25 -24 c-13 -14 -35 -25 -49 -25 -14 0 -48 -5 -76 -11 -48 -10 -50 -12 -36 -28 14 -15 16 -74 16 -479 l0 -462 -27 -7 c-37 -9 -368 -9 -415 0 l-38 8 0 461 c0 405 2 464 16 479 14 16 13 18 -18 28 -18 6 -53 13 -78 17 -25 3 -55 13 -67 20 l-23 14 2 408 3 407 5 -405 c5 -397 5 -405 25 -405 20 0 20 7 22 348 1 192 4 351 7 355 3 3 6 0 6 -6 0 -7 7 -12 15 -12 8 0 15 5 15 11 0 8 5 8 15 -1 12 -10 15 -10 15 2 0 8 -6 20 -12 27 -10 11 -10 14 0 18 6 3 12 11 12 19 0 18 -59 19 -61 2 -1 -7 -4 3 -8 22 -5 31 -3 36 19 41 14 4 49 7 78 8 l52 1 1 -252 c1 -139 2 -331 2 -426 l0 -172 126 0 c165 1 231 13 111 20 -79 5 -85 7 -88 28 -2 15 2 22 12 22 9 0 16 7 16 15 0 12 -7 14 -27 9 -27 -6 -27 -5 5 15 36 24 41 44 13 63 -30 21 -12 40 28 28 55 -16 158 17 133 42 -7 7 -18 5 -33 -6 -28 -19 -98 -21 -123 -3 -15 11 -18 28 -18 97 0 96 10 110 73 110 62 0 89 -18 89 -57 0 -33 -1 -33 -45 -33 -33 0 -45 -4 -45 -15 0 -12 13 -15 60 -15 l60 0 0 55 c0 51 -2 56 -32 71 -35 18 -88 23 -133 11 l-30 -8 3 126 c3 113 5 125 22 125 19 0 34 25 24 41 -3 5 -14 9 -25 9 -12 0 -19 7 -18 18 0 10 3 12 6 5 7 -19 33 -16 34 5 1 15 2 15 6 1 5 -19 68 -33 92 -20 8 5 24 6 35 1 12 -4 35 -7 51 -6 23 1 30 6 30 21 0 19 -7 20 -115 22 -63 0 -122 2 -131 2 -11 1 -16 10 -15 32 l1 31 170 -3 c94 -2 183 -6 199 -9z m-157 -77 c-4 -3 -10 -3 -14 0 -3 4 0 7 7 7 7 0 10 -3 7 -7z m-490 -35 c-3 -8 -6 -5 -6 6 -1 11 2 17 5 13 3 -3 4 -12 1 -19z m603 -618 c0 -25 -4 -30 -25 -30 -14 0 -25 5 -25 10 0 6 9 10 20 10 11 0 20 5 20 10 0 6 -9 10 -20 10 -11 0 -20 5 -20 10 0 6 11 10 25 10 21 0 25 -5 25 -30z m-110 -15 c0 -8 -7 -15 -15 -15 -8 0 -15 7 -15 15 0 8 7 15 15 15 8 0 15 -7 15 -15z m158 -3 c2 -7 -3 -12 -12 -12 -9 0 -16 7 -16 16 0 17 22 14 28 -4z"/>
<path d="M1100 594 c0 -91 -1 -95 -21 -92 -15 2 -24 -4 -30 -20 -7 -19 -4 -24 17 -32 14 -6 40 -11 57 -13 l32 -2 3 128 3 127 -31 0 -30 0 0 -96z"/>
<path d="M1281 522 c-1 -31 1 -33 27 -30 19 2 28 9 30 26 2 12 -1 22 -7 22 -6 0 -11 -8 -12 -17 0 -15 -2 -15 -9 2 l-9 20 -1 -20 c-2 -17 -3 -16 -10 5 -8 23 -8 23 -9 -8z"/>
<path d="M903 514 c-7 -20 7 -39 18 -23 6 10 9 11 9 2 0 -7 7 -13 15 -13 9 0 15 9 15 24 0 19 -5 24 -26 24 -14 0 -28 -6 -31 -14z"/>
<path d="M1276 465 c-18 -14 -18 -15 8 -27 22 -10 29 -9 36 2 10 16 2 40 -14 40 -6 0 -19 -7 -30 -15z m31 -12 c-4 -3 -10 -3 -14 0 -3 4 0 7 7 7 7 0 10 -3 7 -7z"/>
<path d="M916 446 c9 -30 24 -44 24 -23 0 10 7 20 15 23 24 10 17 19 -15 20 -26 1 -30 -2 -24 -20z"/>
<path d="M1250 425 c0 -8 -5 -15 -11 -15 -22 0 -40 -29 -30 -48 6 -11 7 -22 4 -26 -10 -9 10 -7 27 4 13 8 12 11 -5 24 -26 19 -15 29 19 17 28 -11 31 -6 20 37 -7 25 -24 30 -24 7z"/>
<path d="M1005 374 c-14 -22 -15 -28 -4 -35 36 -22 55 -3 35 35 l-13 26 -18 -26z m22 -21 c-4 -3 -10 -3 -14 0 -3 4 0 7 7 7 7 0 10 -3 7 -7z"/>
<path d="M1153 373 c-20 -7 -15 -51 6 -63 26 -13 28 -13 35 6 5 13 2 15 -16 11 -22 -6 -22 -5 -4 8 19 15 19 15 -5 16 -17 1 -19 3 -6 6 9 2 17 9 17 14 0 10 -8 10 -27 2z"/>
<path d="M1080 340 c0 -5 7 -10 15 -10 8 0 15 5 15 10 0 6 -7 10 -15 10 -8 0 -15 -4 -15 -10z"/>
</g>
<g id="layer110" fill="#e42e4a" stroke="none">
<path d="M0 1125 l0 -1125 1125 0 1125 0 0 1125 0 1125 -1125 0 -1125 0 0 -1125z m1444 855 c23 -4 30 -12 33 -34 l4 -28 -65 7 -66 7 0 -26 c0 -22 4 -26 30 -26 17 0 30 5 31 13 0 10 2 10 6 0 2 -7 15 -13 28 -13 32 0 34 -23 32 -330 -2 -183 -5 -244 -14 -243 -6 2 -15 -6 -18 -17 -8 -25 -25 -26 -25 -2 0 15 -8 18 -47 17 -45 0 -48 -2 -53 -30 -4 -20 -8 -26 -13 -17 -5 6 -17 12 -28 12 -12 0 -19 7 -19 20 0 11 -7 20 -15 20 -12 0 -15 -13 -15 -55 l0 -55 33 0 c18 0 38 5 45 12 9 9 12 9 12 0 0 -9 20 -12 73 -10 l72 3 0 37 c0 20 3 39 6 43 4 3 7 -20 7 -52 1 -32 1 -64 1 -71 1 -8 9 -12 19 -10 16 3 17 33 22 408 l5 405 3 -406 c2 -476 10 -442 -107 -464 -82 -16 -90 -20 -73 -37 9 -9 12 -133 12 -479 l0 -467 -125 -7 c-115 -7 -296 -1 -337 11 -17 5 -18 36 -18 466 0 409 2 463 16 479 15 17 13 18 -24 28 -22 6 -61 15 -86 20 -81 15 -76 -16 -74 440 l3 406 5 -405 c5 -397 5 -405 25 -405 20 0 20 7 22 348 1 192 4 351 7 355 3 3 6 0 6 -6 0 -7 7 -12 15 -12 8 0 15 5 15 11 0 8 5 8 15 -1 12 -10 15 -10 15 2 0 8 -6 20 -12 27 -10 11 -10 14 0 18 6 3 12 11 12 19 0 18 -59 19 -61 2 -1 -7 -4 3 -8 22 -5 31 -3 36 19 41 14 4 49 7 78 8 l52 1 1 -252 c1 -139 2 -331 2 -426 l0 -172 126 0 c165 1 231 13 111 20 -79 5 -85 7 -88 28 -2 15 2 22 12 22 9 0 16 7 16 15 0 12 -7 14 -27 9 -27 -6 -27 -5 5 15 36 24 41 44 13 63 -30 21 -12 40 28 28 55 -16 158 17 133 42 -7 7 -18 5 -33 -6 -28 -19 -98 -21 -123 -3 -15 11 -18 28 -18 97 0 96 10 110 73 110 62 0 89 -18 89 -57 0 -33 -1 -33 -45 -33 -33 0 -45 -4 -45 -15 0 -12 13 -15 60 -15 l60 0 0 55 c0 51 -2 56 -32 71 -35 18 -88 23 -133 11 l-30 -8 3 126 c3 113 5 125 22 125 19 0 34 25 24 41 -3 5 -14 9 -25 9 -12 0 -19 7 -18 18 0 10 3 12 6 5 7 -19 33 -16 34 5 1 15 2 15 6 1 5 -19 68 -33 92 -20 8 5 24 6 35 1 12 -4 35 -7 51 -6 23 1 30 6 30 21 0 19 -7 20 -115 22 -63 0 -122 2 -131 2 -11 1 -16 10 -15 32 l1 31 170 -3 c94 -2 183 -6 199 -9z m-157 -77 c-4 -3 -10 -3 -14 0 -3 4 0 7 7 7 7 0 10 -3 7 -7z m-490 -35 c-3 -8 -6 -5 -6 6 -1 11 2 17 5 13 3 -3 4 -12 1 -19z m603 -618 c0 -25 -4 -30 -25 -30 -14 0 -25 5 -25 10 0 6 9 10 20 10 11 0 20 5 20 10 0 6 -9 10 -20 10 -11 0 -20 5 -20 10 0 6 11 10 25 10 21 0 25 -5 25 -30z m-110 -15 c0 -8 -7 -15 -15 -15 -8 0 -15 7 -15 15 0 8 7 15 15 15 8 0 15 -7 15 -15z m158 -3 c2 -7 -3 -12 -12 -12 -9 0 -16 7 -16 16 0 17 22 14 28 -4z"/>
<path d="M780 1774 c0 -12 6 -15 23 -10 12 3 25 6 30 6 4 0 7 5 7 10 0 6 -13 10 -30 10 -21 0 -30 -5 -30 -16z"/>
<path d="M780 1715 c0 -3 7 -16 15 -29 14 -21 14 -24 0 -36 -25 -21 -19 -42 12 -38 29 3 45 28 18 28 -12 0 -14 4 -6 18 6 11 6 24 1 33 -7 10 -4 16 8 21 12 4 7 7 -15 7 -18 1 -33 -1 -33 -4z"/>
<path d="M1323 1575 c-26 -18 -43 -71 -36 -109 7 -33 57 -76 88 -76 30 0 65 44 65 81 0 29 0 29 -65 29 -72 0 -78 8 -40 45 28 29 42 31 73 9 32 -22 43 -7 13 17 -28 23 -69 25 -98 4z m97 -106 c0 -49 -66 -68 -94 -27 -24 34 -20 38 39 38 32 0 55 -4 55 -11z"/>
<path d="M1450 1451 c0 -76 4 -132 10 -136 6 -4 10 42 10 129 0 84 -4 136 -10 136 -6 0 -10 -50 -10 -129z"/>
<path d="M780 1562 c0 -4 7 -17 15 -29 13 -18 13 -22 0 -33 -25 -21 -18 -40 15 -40 20 0 30 5 30 15 0 8 -7 15 -16 15 -14 0 -14 3 -4 15 10 12 10 19 2 27 -17 17 -15 26 6 31 9 3 2 5 -15 6 -18 0 -33 -2 -33 -7z"/>
<path d="M870 1514 c0 -3 7 -12 15 -20 13 -14 15 -13 15 5 0 12 -6 21 -15 21 -8 0 -15 -3 -15 -6z"/>
<path d="M867 1463 c-14 -13 -6 -33 13 -33 13 0 20 7 20 20 0 19 -20 27 -33 13z m23 -13 c0 -5 -5 -10 -11 -10 -5 0 -7 5 -4 10 3 6 8 10 11 10 2 0 4 -4 4 -10z"/>
<path d="M782 1373 c1 -43 2 -44 6 -13 5 33 5 34 12 10 8 -24 8 -24 9 -2 2 34 19 26 24 -10 3 -25 4 -22 5 15 2 46 1 47 -28 47 -29 0 -30 -1 -28 -47z"/>
<path d="M871 1411 c-10 -6 -10 -10 -1 -16 9 -6 9 -10 -1 -16 -10 -6 -8 -9 7 -9 16 0 22 6 22 25 0 27 -5 30 -27 16z"/>
<path d="M860 1342 c0 -10 5 -23 11 -29 8 -8 8 -13 0 -17 -18 -11 -12 -36 8 -36 16 0 19 8 19 50 0 42 -3 50 -19 50 -12 0 -19 -7 -19 -18z m27 -9 c-4 -3 -7 0 -7 7 0 7 3 10 7 7 3 -4 3 -10 0 -14z m0 -60 c-4 -3 -7 0 -7 7 0 7 3 10 7 7 3 -4 3 -10 0 -14z"/>
<path d="M1132 1298 c-14 -14 -16 -98 -3 -98 6 0 11 17 13 38 2 30 7 38 26 40 20 3 22 -1 22 -37 0 -30 4 -41 15 -41 23 0 20 72 -3 93 -22 20 -53 22 -70 5z"/>
<path d="M865 1241 c-3 -5 -1 -12 5 -16 6 -4 8 -11 5 -16 -4 -5 1 -9 9 -9 10 0 16 9 16 25 0 25 -23 35 -35 16z"/>
</g>
<g id="layer111" fill="#d44956" stroke="none">
<path d="M0 1125 l0 -1125 1125 0 1125 0 0 1125 0 1125 -1125 0 -1125 0 0 -1125z m1476 852 c6 -3 9 -18 6 -32 -4 -25 -7 -26 -66 -24 -55 3 -61 1 -64 -18 -3 -18 2 -22 27 -21 21 1 31 6 32 17 1 14 2 14 6 0 2 -10 14 -16 29 -16 14 0 27 -3 30 -5 2 -3 5 -166 6 -362 0 -196 4 -359 9 -361 4 -3 11 0 16 7 4 7 10 191 13 408 l5 395 3 -411 c2 -476 12 -437 -109 -460 -80 -15 -88 -19 -71 -36 9 -9 12 -133 12 -479 l0 -467 -125 -7 c-115 -7 -296 -1 -337 11 -17 5 -18 36 -18 466 0 409 2 463 16 479 15 17 13 18 -24 28 -22 6 -61 15 -86 20 -81 15 -76 -15 -76 439 0 223 2 403 5 400 3 -3 6 -177 5 -387 0 -370 4 -432 31 -416 5 4 9 143 9 348 0 315 6 398 24 352 5 -13 10 -15 19 -6 10 8 17 7 25 -1 9 -9 12 -8 12 3 0 8 -5 20 -12 27 -9 9 -9 15 0 24 19 19 14 28 -18 28 -16 0 -30 -5 -30 -11 0 -5 -4 -7 -10 -4 -5 3 -10 19 -10 34 0 33 24 41 116 41 l54 0 0 -420 0 -419 33 5 c71 12 77 14 77 34 0 13 8 20 28 22 15 2 26 8 24 13 -2 6 -12 9 -22 7 -31 -5 -24 12 10 25 37 14 39 40 3 56 -17 7 -29 21 -31 35 -3 23 -3 23 30 6 42 -22 121 -21 156 3 22 14 24 18 10 21 -9 2 -26 -2 -37 -7 -29 -16 -93 -13 -120 5 -86 61 -45 204 59 204 66 0 90 -14 90 -54 0 -34 -1 -35 -42 -38 -23 -2 -43 -9 -46 -16 -3 -10 10 -12 54 -10 l59 3 3 51 c3 50 2 52 -32 68 -42 20 -118 21 -155 1 -16 -8 -30 -13 -32 -10 -2 2 -3 66 -1 143 l3 140 31 -9 c36 -10 35 -10 40 16 3 18 -2 20 -34 17 -25 -2 -38 1 -38 8 0 7 7 9 16 6 14 -5 15 -4 5 8 -9 11 -9 16 0 22 6 4 16 0 21 -10 12 -21 28 -21 29 2 1 15 2 15 6 0 5 -21 43 -19 43 2 0 12 -10 16 -32 17 -96 1 -95 1 -94 34 l1 31 210 -4 c116 -2 215 -7 221 -11z m-679 -109 c-3 -8 -6 -5 -6 6 -1 11 2 17 5 13 3 -3 4 -12 1 -19z m269 -600 c-10 -6 -20 -7 -24 -3 -9 8 20 25 31 18 5 -3 2 -10 -7 -15z"/>
<path d="M1180 1909 c0 -18 5 -20 40 -16 22 2 43 1 45 -4 7 -10 53 -5 66 8 17 17 -9 27 -83 30 -63 2 -68 1 -68 -18z m27 4 c-4 -3 -10 -3 -14 0 -3 4 0 7 7 7 7 0 10 -3 7 -7z m78 -3 c3 -5 1 -10 -4 -10 -6 0 -11 5 -11 10 0 6 2 10 4 10 3 0 8 -4 11 -10z"/>
<path d="M780 1715 c0 -3 7 -16 15 -29 14 -21 14 -24 0 -36 -24 -20 -19 -43 8 -36 12 3 25 6 30 6 14 0 7 20 -8 20 -17 0 -20 16 -4 26 8 4 8 9 0 17 -16 16 -14 25 7 30 9 3 2 5 -15 6 -18 0 -33 -1 -33 -4z"/>
<path d="M1316 1564 c-38 -39 -37 -105 3 -145 16 -16 39 -29 51 -29 31 0 70 44 70 80 l0 30 -65 0 c-36 0 -65 4 -65 9 0 4 9 20 21 35 23 30 54 33 81 9 16 -15 18 -15 18 0 0 41 -76 49 -114 11z m104 -104 c0 -29 -43 -54 -69 -40 -18 9 -41 40 -41 54 0 3 25 6 55 6 48 0 55 -2 55 -20z"/>
<path d="M780 1565 c0 -3 7 -16 15 -29 14 -21 14 -24 0 -36 -25 -21 -19 -42 12 -38 29 3 45 28 18 28 -12 0 -14 4 -6 19 8 14 7 22 -6 32 -14 12 -13 14 8 20 21 6 20 7 -8 8 -18 1 -33 -1 -33 -4z"/>
<path d="M782 1373 l1 -48 5 40 c4 36 6 38 12 15 8 -24 8 -24 9 -2 2 36 19 25 24 -15 3 -35 4 -34 5 10 2 46 1 47 -28 47 -29 0 -30 -1 -28 -47z"/>
<path d="M864 1348 c-5 -8 -2 -9 9 -5 10 3 17 2 17 -2 0 -5 -6 -12 -12 -14 -8 -3 -6 -6 5 -6 11 -1 17 6 17 19 0 22 -24 27 -36 8z"/>
<path d="M1132 1298 c-14 -14 -16 -98 -2 -98 6 0 10 18 10 39 0 22 5 41 13 43 25 10 37 -4 37 -43 0 -28 4 -39 15 -39 23 0 20 72 -3 93 -22 20 -53 22 -70 5z"/>
<path d="M1236 1303 c-3 -3 -6 -28 -6 -55 0 -48 0 -48 33 -48 18 0 38 5 45 12 9 9 12 9 12 0 0 -8 22 -12 70 -12 75 0 92 11 72 47 -7 11 -7 24 -1 35 7 12 6 18 -1 18 -6 0 -13 -7 -16 -15 -8 -21 -24 -19 -24 3 0 14 -9 17 -47 17 -45 0 -48 -2 -53 -30 -4 -20 -8 -26 -13 -17 -5 6 -17 12 -28 12 -10 0 -19 6 -19 14 0 17 -14 28 -24 19z m164 -52 c0 -35 -2 -38 -25 -33 -30 5 -34 22 -5 22 11 0 20 5 20 10 0 6 -9 10 -20 10 -27 0 -25 18 3 23 12 2 23 5 25 6 1 0 2 -16 2 -38z m-110 -16 c0 -8 -7 -15 -15 -15 -8 0 -15 7 -15 15 0 8 7 15 15 15 8 0 15 -7 15 -15z m158 -3 c2 -7 -3 -12 -12 -12 -9 0 -16 7 -16 16 0 17 22 14 28 -4z"/>
<path d="M868 1233 c7 -3 16 -2 19 1 4 3 -2 6 -13 5 -11 0 -14 -3 -6 -6z"/>
</g>
<g id="layer112" fill="#847f83" stroke="none">
<path d="M0 1125 l0 -1125 1125 0 1125 0 0 1125 0 1125 -1125 0 -1125 0 0 -1125z m932 443 l3 -423 35 3 c55 5 70 12 70 33 0 13 7 19 24 19 14 0 28 5 31 10 4 6 -5 10 -19 10 -35 0 -33 13 5 27 41 16 35 44 -11 60 -19 7 -30 12 -23 12 6 1 9 10 6 22 -6 20 -5 21 25 5 46 -24 134 -21 163 5 l24 20 -30 -6 c-113 -25 -154 -13 -182 52 -41 100 54 184 161 143 22 -8 26 -16 26 -49 l0 -39 -42 2 c-26 1 -43 -4 -46 -12 -3 -10 10 -12 54 -10 l59 3 3 51 c3 50 2 52 -32 68 -53 25 -126 21 -170 -9 -21 -14 -34 -20 -29 -13 11 18 10 13 12 162 l1 135 32 -10 c36 -10 35 -10 40 16 3 18 -2 20 -34 17 -23 -2 -38 1 -38 7 0 6 5 11 11 11 5 0 8 4 4 9 -3 5 0 13 6 17 7 4 16 -1 22 -11 9 -18 10 -18 23 0 12 16 14 16 14 3 0 -11 8 -16 20 -15 11 1 20 8 20 17 0 13 -13 16 -65 15 -60 0 -66 2 -63 20 1 11 -1 26 -6 33 -7 12 28 13 210 10 121 -3 226 -8 235 -12 11 -5 14 -15 11 -32 -3 -19 -11 -24 -36 -25 -37 -2 -34 -2 -71 3 -25 2 -31 -1 -33 -19 -3 -18 1 -22 27 -21 17 1 28 5 25 9 -2 4 0 10 6 14 5 3 10 0 10 -8 0 -8 6 -15 13 -14 6 0 22 -1 35 -1 l23 -2 -1 -327 c0 -181 0 -343 0 -360 0 -18 5 -33 10 -33 7 0 10 140 10 400 0 260 4 400 10 400 7 0 10 -143 10 -408 0 -473 9 -435 -111 -458 -80 -15 -88 -19 -71 -36 9 -9 12 -133 12 -479 l0 -467 -125 -7 c-115 -7 -296 -1 -337 11 -17 5 -18 36 -18 466 0 409 2 463 16 479 15 17 13 18 -24 28 -22 6 -61 15 -87 20 -85 16 -80 -10 -80 443 0 312 3 402 13 405 9 4 12 -81 12 -402 0 -321 3 -406 13 -402 9 3 12 62 14 243 0 131 2 302 3 379 1 77 0 152 -2 167 -6 29 -3 30 112 41 19 2 41 5 47 5 10 2 13 -91 15 -420z m538 332 c0 -5 -4 -10 -10 -10 -5 0 -10 5 -10 10 0 6 5 10 10 10 6 0 10 -4 10 -10z m-404 -632 c-10 -6 -20 -7 -24 -3 -9 8 20 25 31 18 5 -3 2 -10 -7 -15z"/>
<path d="M1281 518 c-1 -23 3 -28 23 -28 24 0 43 34 25 46 -5 3 -9 -3 -10 -13 0 -16 -1 -16 -9 2 l-9 20 -1 -20 -1 -20 -9 20 c-8 18 -9 17 -9 -7z"/>
<path d="M910 522 c0 -7 0 -14 0 -17 0 -3 3 -5 6 -4 4 0 10 -5 14 -11 4 -7 13 -9 19 -6 14 9 15 46 1 46 -5 0 -7 -8 -3 -17 6 -16 4 -16 -15 1 -12 11 -22 14 -22 8z"/>
<path d="M1277 465 c-18 -13 -18 -14 2 -24 31 -17 41 -13 41 14 0 28 -16 32 -43 10z m30 -12 c-4 -3 -10 -3 -14 0 -3 4 0 7 7 7 7 0 10 -3 7 -7z"/>
<path d="M951 460 c-8 -4 -20 -6 -27 -3 -9 3 -11 -2 -7 -16 7 -26 23 -38 23 -17 0 8 8 19 17 25 10 5 15 12 13 15 -3 3 -12 1 -19 -4z"/>
<path d="M961 416 c-19 -20 -20 -25 -7 -35 21 -17 38 -4 30 22 -6 19 -5 20 10 8 9 -7 16 -9 16 -3 0 5 -6 15 -13 21 -11 8 -19 5 -36 -13z m14 -26 c3 -5 4 -10 1 -10 -3 0 -8 5 -11 10 -3 6 -4 10 -1 10 3 0 8 -4 11 -10z"/>
<path d="M1247 420 c-3 -12 -10 -19 -16 -15 -6 3 -11 2 -11 -3 0 -6 14 -15 30 -21 26 -9 30 -8 30 8 0 9 -6 25 -13 36 -13 17 -14 17 -20 -5z"/>
<path d="M1200 382 c0 -6 5 -14 11 -17 6 -4 8 -13 5 -21 -3 -8 -2 -14 2 -14 11 0 37 18 32 22 -3 2 -15 12 -27 22 -13 11 -23 14 -23 8z"/>
<path d="M1153 373 c-20 -7 -15 -51 6 -63 26 -14 31 -13 31 6 0 10 -6 14 -15 10 -8 -3 -15 -1 -15 4 0 6 6 10 13 11 6 0 3 4 -8 9 -17 7 -17 9 -2 9 9 1 17 6 17 11 0 11 -7 12 -27 3z"/>
<path d="M1085 340 c4 -6 11 -8 16 -5 14 9 11 15 -7 15 -8 0 -12 -5 -9 -10z"/>
</g>
<g id="layer113" fill="#e35a63" stroke="none">
<path d="M0 1125 l0 -1125 1125 0 1125 0 0 1125 0 1125 -1125 0 -1125 0 0 -1125z m917 938 c-3 -10 -5 -4 -5 12 0 17 2 24 5 18 2 -7 2 -21 0 -30z m503 27 c0 -5 -2 -10 -4 -10 -3 0 -8 5 -11 10 -3 6 -1 10 4 10 6 0 11 -4 11 -10z m25 -110 c40 0 52 -9 47 -36 -3 -19 -11 -24 -36 -25 -37 -2 -34 -2 -71 3 -25 2 -31 -1 -33 -19 -3 -18 1 -22 27 -21 17 1 28 5 25 9 -2 4 0 10 6 14 5 3 10 0 10 -8 0 -8 6 -15 13 -14 6 0 22 -1 35 -1 l23 -2 -1 -327 c0 -181 0 -343 0 -360 0 -18 5 -33 10 -33 7 0 10 140 10 400 0 260 4 400 10 400 7 0 10 -143 10 -408 0 -473 9 -435 -111 -458 -80 -15 -88 -19 -71 -36 9 -9 12 -133 12 -479 l0 -467 -97 -7 c-95 -8 -357 0 -374 11 -15 9 -11 928 3 942 19 19 0 29 -81 46 -41 8 -81 22 -90 31 -14 14 -16 63 -16 417 0 312 3 402 13 405 9 4 12 -81 12 -402 0 -321 3 -406 13 -402 9 3 12 62 14 243 0 131 2 302 3 379 1 77 0 152 -2 167 -6 30 -14 27 124 42 l48 6 2 -423 3 -422 35 3 c55 5 70 12 70 33 0 13 7 19 24 19 14 0 28 5 31 10 4 6 -5 10 -19 10 -35 0 -33 13 5 27 41 16 35 44 -11 60 -19 7 -30 12 -23 12 6 1 9 10 6 22 -6 20 -5 21 25 5 46 -24 134 -21 163 5 l24 20 -30 -6 c-113 -25 -154 -13 -182 52 -41 100 54 184 161 143 22 -8 26 -16 26 -49 l0 -39 -42 2 c-26 1 -43 -4 -46 -12 -3 -10 10 -12 54 -10 l59 3 3 51 c3 50 2 52 -32 68 -53 25 -126 21 -170 -9 -21 -14 -34 -20 -29 -13 11 18 10 13 12 162 l1 135 32 -10 c36 -10 35 -10 40 16 3 18 -2 20 -34 17 -23 -2 -38 1 -38 7 0 6 5 11 11 11 5 0 8 4 4 9 -3 5 0 13 6 17 7 4 16 -1 22 -11 9 -18 10 -18 23 0 12 16 14 16 14 3 0 -11 8 -16 20 -15 11 1 20 8 20 17 0 13 -13 16 -66 15 -63 0 -65 1 -61 23 2 12 -1 26 -7 30 -6 4 77 9 184 12 107 3 197 2 198 -2 2 -5 14 -8 27 -8z m25 -80 c0 -5 -4 -10 -10 -10 -5 0 -10 5 -10 10 0 6 5 10 10 10 6 0 10 -4 10 -10z m-404 -632 c-10 -6 -20 -7 -24 -3 -9 8 20 25 31 18 5 -3 2 -10 -7 -15z"/>
<path d="M1262 1907 c2 -17 10 -22 31 -22 32 -1 55 19 35 31 -6 4 -25 9 -41 11 -24 3 -28 0 -25 -20z m23 3 c3 -5 1 -10 -4 -10 -6 0 -11 5 -11 10 0 6 2 10 4 10 3 0 8 -4 11 -10z"/>
<path d="M780 1881 c0 -40 13 -61 25 -41 5 8 11 7 21 -1 20 -17 19 9 -2 33 -16 16 -16 18 0 24 26 10 18 24 -14 24 -28 0 -30 -2 -30 -39z m17 -13 c-3 -8 -6 -5 -6 6 -1 11 2 17 5 13 3 -3 4 -12 1 -19z"/>
<path d="M780 1713 c0 -5 7 -17 15 -27 13 -17 13 -22 -1 -37 -21 -23 -11 -38 21 -31 27 5 35 22 10 22 -17 0 -20 16 -4 25 7 5 5 13 -6 25 -16 17 -15 19 7 23 18 3 15 5 -9 6 -18 0 -33 -2 -33 -6z"/>
<path d="M1316 1564 c-38 -39 -37 -105 3 -145 16 -16 38 -29 49 -29 32 0 62 32 69 73 l6 37 -67 0 c-36 0 -66 4 -66 9 0 4 9 20 21 35 23 30 54 33 81 9 16 -15 18 -15 18 0 0 41 -76 49 -114 11z m104 -101 c0 -21 -29 -53 -47 -53 -16 0 -63 44 -63 60 0 6 23 10 55 10 45 0 55 -3 55 -17z"/>
<path d="M780 1563 c0 -5 7 -16 15 -27 12 -16 12 -21 0 -40 -21 -30 -19 -38 12 -34 29 3 45 28 18 28 -12 0 -14 4 -6 19 8 14 7 22 -6 32 -14 12 -13 14 8 20 21 6 20 7 -8 8 -18 1 -33 -2 -33 -6z"/>
<path d="M876 1513 c5 -5 12 -12 16 -18 4 -6 8 -2 8 8 0 9 -7 17 -17 17 -9 0 -12 -3 -7 -7z"/>
<path d="M865 1460 c-8 -14 3 -30 21 -30 8 0 14 9 14 20 0 21 -24 28 -35 10z m25 -10 c0 -5 -4 -10 -10 -10 -5 0 -10 5 -10 10 0 6 5 10 10 10 6 0 10 -4 10 -10z"/>
<path d="M1138 1299 c-13 -7 -18 -23 -18 -54 0 -25 5 -45 10 -45 6 0 10 18 10 39 0 22 5 41 13 43 25 10 37 -4 37 -43 0 -28 4 -39 15 -39 23 0 20 72 -3 93 -21 19 -39 21 -64 6z"/>
<path d="M1236 1303 c-3 -3 -6 -28 -6 -55 0 -48 0 -48 33 -48 18 0 38 5 45 12 9 9 12 9 12 0 0 -8 22 -12 69 -12 73 0 92 13 72 48 -6 10 -6 23 0 34 7 12 6 18 -1 18 -6 0 -13 -7 -16 -15 -4 -8 -10 -15 -15 -15 -5 0 -9 7 -9 15 0 10 -11 15 -35 17 -19 0 -41 1 -47 2 -7 1 -15 -12 -18 -29 -4 -20 -8 -26 -13 -17 -5 6 -17 12 -28 12 -10 0 -19 6 -19 14 0 17 -14 28 -24 19z m164 -52 c0 -35 -2 -38 -25 -33 -30 5 -34 22 -5 22 11 0 20 5 20 10 0 6 -9 10 -20 10 -27 0 -25 18 3 23 12 2 23 5 25 6 1 0 2 -16 2 -38z m-110 -16 c0 -8 -7 -15 -15 -15 -8 0 -15 7 -15 15 0 8 7 15 15 15 8 0 15 -7 15 -15z m160 0 c0 -8 -7 -15 -15 -15 -8 0 -15 7 -15 15 0 8 7 15 15 15 8 0 15 -7 15 -15z"/>
<path d="M875 1210 c-3 -5 1 -10 9 -10 9 0 16 5 16 10 0 6 -4 10 -9 10 -6 0 -13 -4 -16 -10z"/>
</g>
<g id="layer114" fill="#ef5867" stroke="none">
<path d="M0 1125 l0 -1125 1125 0 1125 0 0 1125 0 1125 -1125 0 -1125 0 0 -1125z m917 938 c-3 -10 -5 -4 -5 12 0 17 2 24 5 18 2 -7 2 -21 0 -30z m503 27 c0 -5 -2 -10 -4 -10 -3 0 -8 5 -11 10 -3 6 -1 10 4 10 6 0 11 -4 11 -10z m98 -126 c9 -3 12 -94 12 -413 0 -359 -2 -412 -16 -425 -16 -16 -20 -18 -116 -36 -55 -11 -70 -21 -48 -35 6 -4 10 -173 10 -475 l0 -468 -97 -7 c-95 -8 -357 0 -374 11 -15 9 -11 928 3 942 19 19 0 29 -82 46 -119 24 -111 -9 -108 454 2 305 6 396 16 400 9 3 12 -81 12 -397 0 -261 3 -401 10 -401 6 0 11 40 11 98 3 184 -2 576 -7 584 -3 5 0 7 8 6 14 -3 15 30 3 89 -8 35 -22 30 130 49 l45 5 0 -410 c0 -225 2 -416 6 -424 5 -13 20 -14 82 -1 14 3 22 12 22 24 0 15 7 20 24 20 14 0 28 5 31 10 4 6 -5 10 -19 10 -35 0 -33 13 5 27 41 16 35 44 -11 60 -19 7 -30 12 -23 12 6 1 9 10 6 22 -6 20 -5 21 25 5 39 -20 131 -21 158 -2 24 18 10 34 -16 18 -11 -7 -39 -12 -64 -12 -53 0 -90 26 -106 75 -32 98 61 175 164 135 22 -8 26 -16 26 -51 l0 -41 -42 3 c-27 2 -43 -1 -46 -9 -3 -10 10 -12 54 -10 l59 3 3 51 c3 50 2 52 -32 68 -39 18 -117 21 -149 5 -12 -6 -33 -21 -47 -33 -22 -19 -23 -19 -8 -1 20 24 18 6 18 169 l0 135 32 -10 c36 -10 35 -10 40 15 1 10 -3 21 -11 24 -8 3 -11 0 -7 -6 3 -6 2 -13 -4 -17 -5 -3 -10 -1 -10 4 0 6 -9 11 -20 11 -11 0 -20 5 -20 10 0 6 5 10 11 10 5 0 8 4 4 9 -3 5 0 13 6 17 7 4 16 -1 22 -11 9 -18 10 -18 23 0 12 16 14 16 14 3 0 -11 8 -16 20 -15 11 1 20 8 20 17 0 12 -14 15 -67 16 -64 0 -68 2 -83 30 l-17 29 206 5 c156 4 217 2 251 -8 25 -8 51 -16 58 -18z m-481 -151 c-4 -3 -7 0 -7 7 0 7 3 10 7 7 3 -4 3 -10 0 -14z m43 -532 c0 -11 -31 -24 -39 -16 -3 3 1 10 9 15 19 12 30 12 30 1z"/>
<path d="M1500 1930 c0 -22 -4 -28 -15 -24 -8 4 -15 1 -15 -5 0 -6 -5 -11 -11 -11 -6 0 -9 6 -6 13 3 7 -4 12 -17 13 -11 0 -34 2 -51 5 -24 3 -31 0 -33 -17 -2 -17 2 -21 27 -21 20 0 28 4 24 14 -3 7 0 13 6 13 6 0 11 -6 11 -13 0 -9 13 -13 39 -13 l39 1 -2 -353 c0 -193 2 -352 7 -352 4 0 7 176 7 390 0 215 -2 390 -5 390 -3 0 -5 -13 -5 -30z"/>
<path d="M1180 1910 c0 -17 6 -20 35 -18 26 2 35 7 35 20 0 15 -3 17 -19 8 -26 -13 -52 -14 -31 0 13 8 12 10 -2 10 -11 0 -18 -8 -18 -20z"/>
<path d="M1264 1915 c-8 -21 4 -34 29 -31 34 3 51 16 38 29 -16 16 -61 18 -67 2z m21 -5 c3 -5 1 -10 -4 -10 -6 0 -11 5 -11 10 0 6 2 10 4 10 3 0 8 -4 11 -10z m32 -12 c-3 -8 -6 -5 -6 6 -1 11 2 17 5 13 3 -3 4 -12 1 -19z"/>
<path d="M780 1899 c0 -11 5 -17 10 -14 6 3 10 -1 10 -10 0 -9 -4 -13 -10 -10 -5 3 -10 -1 -10 -9 0 -19 17 -30 25 -16 5 8 11 7 21 -1 20 -17 19 9 -2 33 -16 16 -16 18 0 24 26 10 18 24 -14 24 -24 0 -30 -4 -30 -21z"/>
<path d="M1335 1578 c-33 -19 -44 -41 -45 -86 0 -35 6 -49 29 -73 16 -16 38 -29 49 -29 32 0 62 32 69 73 l6 37 -67 0 c-36 0 -66 4 -66 9 0 4 9 20 21 35 23 30 54 33 81 9 16 -15 18 -15 18 0 0 32 -57 47 -95 25z m85 -115 c0 -21 -29 -53 -47 -53 -16 0 -63 44 -63 60 0 6 23 10 55 10 45 0 55 -3 55 -17z"/>
<path d="M780 1563 c0 -5 7 -16 15 -27 12 -16 12 -21 -1 -40 -17 -27 -12 -35 21 -28 27 5 35 22 10 22 -17 0 -20 16 -4 25 7 5 5 13 -6 25 -16 17 -15 19 7 23 18 3 15 5 -9 6 -18 0 -33 -2 -33 -6z"/>
<path d="M886 1505 c4 -8 8 -15 10 -15 2 0 4 7 4 15 0 8 -4 15 -10 15 -5 0 -7 -7 -4 -15z"/>
<path d="M865 1460 c-3 -5 -3 -14 0 -20 8 -13 35 -13 35 0 0 5 -7 7 -15 4 -8 -4 -15 -1 -15 4 0 6 8 13 18 15 15 4 15 5 0 6 -9 0 -20 -3 -23 -9z"/>
<path d="M870 1400 c0 -5 7 -7 15 -4 8 4 15 8 15 10 0 2 -7 4 -15 4 -8 0 -15 -4 -15 -10z"/>
<path d="M875 1380 c-3 -5 1 -10 9 -10 9 0 16 5 16 10 0 6 -4 10 -9 10 -6 0 -13 -4 -16 -10z"/>
<path d="M865 1350 c-3 -6 1 -7 9 -4 9 3 16 2 16 -4 0 -6 -6 -13 -12 -15 -8 -3 -6 -6 5 -6 11 -1 17 6 17 19 0 21 -24 28 -35 10z"/>
<path d="M1138 1299 c-13 -7 -18 -23 -18 -54 0 -25 5 -45 10 -45 6 0 10 18 10 39 0 40 16 56 40 41 9 -5 13 -23 12 -44 -2 -27 1 -36 13 -36 23 0 20 72 -3 93 -21 19 -39 21 -64 6z"/>
<path d="M1236 1303 c-3 -3 -6 -28 -6 -55 0 -48 0 -48 33 -48 18 0 38 5 45 12 9 9 12 9 12 0 0 -8 22 -12 69 -12 73 0 92 13 72 48 -6 10 -6 23 0 34 7 12 6 18 -1 18 -6 0 -13 -7 -16 -15 -4 -8 -10 -15 -15 -15 -5 0 -9 7 -9 15 0 11 -11 15 -40 15 -22 0 -43 1 -47 3 -4 1 -10 -11 -13 -28 -4 -20 -8 -26 -13 -17 -5 6 -17 12 -28 12 -10 0 -19 6 -19 14 0 17 -14 28 -24 19z m164 -52 c0 -35 -2 -38 -25 -33 -30 5 -34 22 -5 22 11 0 20 5 20 10 0 6 -9 10 -20 10 -27 0 -25 18 3 23 12 2 23 5 25 6 1 0 2 -16 2 -38z m-110 -16 c0 -8 -6 -15 -14 -15 -8 0 -16 7 -20 15 -4 10 1 15 14 15 11 0 20 -7 20 -15z m160 0 c0 -8 -7 -15 -15 -15 -8 0 -15 7 -15 15 0 8 7 15 15 15 8 0 15 -7 15 -15z"/>
<path d="M865 1290 c-8 -14 3 -30 21 -30 8 0 14 9 14 20 0 21 -24 28 -35 10z m25 -10 c0 -5 -4 -10 -10 -10 -5 0 -10 5 -10 10 0 6 5 10 10 10 6 0 10 -4 10 -10z"/>
<path d="M780 1280 c0 -5 11 -10 24 -10 21 0 25 -5 29 -37 3 -35 4 -34 5 10 2 46 1 47 -28 47 -16 0 -30 -4 -30 -10z"/>
<path d="M880 1210 c0 -5 5 -10 10 -10 6 0 10 5 10 10 0 6 -4 10 -10 10 -5 0 -10 -4 -10 -10z"/>
</g>
<g id="layer115" fill="#9b9596" stroke="none">
<path d="M0 1125 l0 -1125 1125 0 1125 0 0 1125 0 1125 -1125 0 -1125 0 0 -1125z m917 938 c-3 -10 -5 -4 -5 12 0 17 2 24 5 18 2 -7 2 -21 0 -30z m503 27 c0 -5 -2 -10 -4 -10 -3 0 -8 5 -11 10 -3 6 -1 10 4 10 6 0 11 -4 11 -10z m98 -126 c9 -3 12 -94 12 -413 0 -359 -2 -412 -16 -425 -16 -16 -20 -18 -116 -36 -55 -11 -70 -21 -48 -35 6 -4 10 -173 10 -475 l0 -468 -97 -7 c-95 -8 -357 0 -374 11 -15 9 -11 928 3 942 19 19 0 29 -82 46 -119 24 -111 -9 -108 454 2 305 6 396 16 400 9 3 12 -81 12 -397 0 -267 3 -401 10 -401 7 0 10 114 8 344 -2 220 1 344 7 343 14 -3 19 43 6 56 -6 6 -11 23 -11 38 0 25 4 28 45 33 25 3 65 9 90 12 l45 5 0 -415 0 -416 28 0 c38 0 52 17 52 61 0 28 6 41 25 53 29 19 48 21 43 4 -3 -7 -15 -15 -29 -18 -17 -4 -24 -13 -24 -30 0 -20 6 -26 29 -28 16 -2 33 1 39 7 8 8 3 11 -16 11 -36 0 -34 13 3 27 17 6 30 18 30 27 0 21 -37 39 -66 32 -23 -6 -24 -4 -24 46 1 39 3 49 10 36 19 -31 75 -58 123 -58 47 0 97 16 97 32 0 11 -28 10 -35 -2 -3 -5 -28 -10 -55 -10 -41 0 -56 5 -82 29 -29 26 -33 35 -33 81 0 46 4 55 33 81 26 23 42 29 78 29 66 0 84 -13 84 -60 l0 -40 -47 0 c-33 0 -44 -3 -36 -11 5 -5 32 -9 59 -7 l49 3 3 47 c3 44 1 49 -30 68 -21 13 -51 20 -81 20 -51 0 -78 -10 -113 -42 l-21 -19 -2 145 c-2 134 -1 146 18 165 12 12 21 17 21 11 0 -5 7 -10 15 -10 8 0 15 7 15 15 0 10 -10 15 -27 15 -27 1 -27 1 -9 15 11 8 16 15 11 15 -5 0 -4 5 3 12 9 9 15 8 25 -7 10 -13 16 -15 21 -6 10 16 6 20 -31 27 -25 5 -32 2 -35 -11 -2 -14 -6 -12 -17 11 -7 16 -17 37 -22 46 -8 16 6 18 199 20 151 2 219 -1 252 -10 25 -8 51 -16 58 -18z"/>
<path d="M1100 595 c0 -93 0 -95 -24 -95 -15 0 -26 -7 -29 -20 -6 -25 1 -29 63 -37 l50 -6 0 127 0 126 -30 0 -30 0 0 -95z"/>
<path d="M1281 518 c-1 -23 3 -28 23 -28 24 0 43 34 25 46 -5 3 -9 -3 -9 -13 0 -15 -2 -16 -10 -3 -9 13 -10 13 -11 0 0 -10 -3 -8 -9 5 -8 18 -9 17 -9 -7z"/>
<path d="M946 515 c6 -16 5 -18 -7 -7 -18 16 -29 15 -29 -4 0 -8 5 -12 10 -9 6 3 10 1 10 -4 0 -17 20 -13 27 5 3 8 0 21 -6 27 -9 9 -11 7 -5 -8z"/>
<path d="M1277 465 c-18 -13 -18 -14 2 -24 31 -17 41 -13 41 14 0 28 -16 32 -43 10z m33 -5 c0 -5 -5 -10 -11 -10 -5 0 -7 5 -4 10 3 6 8 10 11 10 2 0 4 -4 4 -10z"/>
<path d="M951 460 c-8 -4 -21 -6 -29 -3 -12 5 -12 2 -3 -15 l11 -22 21 21 c22 22 22 33 0 19z"/>
<path d="M961 416 c-20 -22 -21 -24 -4 -37 15 -12 16 -12 10 3 -4 12 -2 15 9 11 10 -4 12 0 7 13 -6 17 -5 17 10 5 9 -7 17 -9 17 -3 0 5 -6 15 -13 21 -11 8 -19 5 -36 -13z"/>
<path d="M1250 428 c0 -9 -7 -21 -15 -25 -12 -7 -8 -11 15 -20 26 -10 30 -9 30 6 0 9 -7 26 -15 37 -13 17 -14 17 -15 2z"/>
<path d="M1006 372 c-15 -29 -15 -31 5 -37 31 -10 42 7 25 39 l-14 28 -16 -30z m24 -22 c0 -5 -2 -10 -4 -10 -3 0 -8 5 -11 10 -3 6 -1 10 4 10 6 0 11 -4 11 -10z"/>
<path d="M1200 383 c0 -6 5 -15 11 -18 6 -4 8 -13 5 -21 -6 -16 -4 -17 18 -8 9 3 16 11 16 17 0 6 -3 8 -6 4 -4 -3 -15 4 -25 16 -10 12 -18 17 -19 10z"/>
<path d="M1153 373 c-18 -7 -16 -38 3 -57 20 -20 31 -20 31 -1 0 9 -6 14 -14 11 -7 -3 -13 -1 -13 4 0 6 6 10 13 11 6 0 3 4 -8 9 -17 7 -17 9 -2 9 9 1 17 6 17 11 0 11 -7 12 -27 3z"/>
<path d="M1088 343 c7 -3 16 -2 19 1 4 3 -2 6 -13 5 -11 0 -14 -3 -6 -6z"/>
</g>
<g id="layer116" fill="#ed7075" stroke="none">
<path d="M0 1125 l0 -1125 1125 0 1125 0 0 1125 0 1125 -1125 0 -1125 0 0 -1125z m1417 989 c19 -5 21 -12 20 -67 l-2 -61 45 -11 45 -11 3 -399 c1 -220 0 -410 -3 -421 -6 -25 -36 -39 -122 -55 -56 -10 -61 -13 -53 -30 6 -11 10 -202 10 -482 l0 -465 -77 -8 c-84 -7 -376 0 -393 11 -14 9 -14 941 0 950 20 12 0 22 -71 35 -51 9 -79 19 -96 36 l-23 23 2 397 c2 307 6 398 16 402 9 3 12 -81 12 -397 0 -267 3 -401 10 -401 7 0 10 114 8 344 -2 220 1 344 7 343 14 -3 19 43 6 56 -6 6 -11 23 -11 38 0 22 6 28 31 33 17 3 46 6 64 6 57 0 65 7 65 62 0 35 -4 48 -12 46 -7 -3 -15 -14 -18 -26 l-5 -22 -32 22 c-18 13 -31 27 -30 32 2 5 27 9 57 9 l55 -1 0 -53 c1 -30 2 -242 3 -471 l2 -418 28 0 c38 0 52 17 52 61 0 28 6 41 25 53 29 19 48 21 43 4 -3 -7 -15 -15 -29 -18 -17 -4 -24 -13 -24 -30 0 -20 6 -26 29 -28 16 -2 33 1 39 7 8 8 3 11 -16 11 -36 0 -34 13 3 27 17 6 30 18 30 27 0 21 -37 39 -66 32 -23 -6 -24 -4 -24 46 1 39 3 49 10 36 19 -31 75 -58 123 -58 47 0 97 16 97 32 0 11 -28 10 -35 -2 -3 -5 -28 -10 -55 -10 -41 0 -56 5 -82 29 -29 26 -33 35 -33 81 0 46 4 55 33 81 26 23 42 29 78 29 66 0 84 -13 84 -60 l0 -40 -47 0 c-33 0 -44 -3 -36 -11 5 -5 32 -9 59 -7 l49 3 3 47 c3 44 1 49 -30 68 -21 13 -51 20 -81 20 -51 0 -78 -10 -113 -42 l-21 -19 -2 145 c-2 134 -1 146 18 165 12 12 21 17 21 11 0 -5 7 -10 15 -10 8 0 15 7 15 15 0 10 -10 15 -27 15 -27 1 -27 1 -9 15 11 8 16 15 11 15 -5 0 -4 5 3 12 9 9 15 8 25 -7 10 -13 16 -15 21 -6 10 16 6 20 -31 27 -25 5 -32 2 -35 -11 -2 -14 -6 -12 -17 11 -7 16 -17 37 -22 47 -9 16 3 17 169 17 l179 0 -5 52 c-4 42 -1 54 13 65 21 15 22 15 52 7z"/>
<path d="M1500 1930 c0 -22 -4 -28 -15 -24 -8 4 -15 1 -15 -5 0 -6 -5 -11 -11 -11 -6 0 -9 6 -6 13 3 8 -11 13 -49 15 -41 2 -54 0 -54 -11 0 -21 12 -28 27 -16 9 9 13 8 13 0 0 -6 4 -11 10 -11 5 0 7 7 4 15 -4 8 -1 15 5 15 6 0 11 -6 11 -13 0 -9 13 -13 39 -13 l39 1 -2 -353 c0 -193 2 -352 7 -352 4 0 7 176 7 390 0 215 -2 390 -5 390 -3 0 -5 -13 -5 -30z"/>
<path d="M1130 1913 c0 -16 6 -21 20 -20 11 1 20 7 20 15 0 7 -5 10 -11 6 -6 -3 -15 0 -20 7 -6 11 -9 8 -9 -8z"/>
<path d="M1180 1910 c0 -12 7 -20 16 -20 13 0 14 3 5 14 -9 11 -9 15 1 19 8 4 7 6 -4 6 -12 1 -18 -6 -18 -19z"/>
<path d="M1233 1923 c-18 -7 -16 -30 2 -30 8 0 15 9 15 19 0 10 -1 18 -2 17 -2 0 -9 -3 -15 -6z"/>
<path d="M1267 1923 c-16 -15 -7 -35 13 -30 11 3 23 1 26 -4 8 -14 24 -1 23 19 0 14 -2 13 -9 -3 -8 -19 -9 -19 -9 -1 -1 11 -4 16 -8 13 -3 -4 -11 -2 -18 3 -7 5 -15 7 -18 3z m18 -13 c3 -5 1 -10 -4 -10 -6 0 -11 5 -11 10 0 6 2 10 4 10 3 0 8 -4 11 -10z"/>
<path d="M780 1901 c0 -19 10 -21 43 -6 27 11 20 25 -13 25 -23 0 -30 -5 -30 -19z"/>
<path d="M804 1865 c-5 -13 -9 -14 -15 -3 -7 10 -9 9 -9 -4 0 -21 16 -32 25 -18 5 8 11 7 21 -1 11 -9 14 -8 14 4 0 8 -7 20 -15 27 -12 10 -16 9 -21 -5z"/>
<path d="M780 1713 c0 -3 7 -14 16 -24 14 -16 14 -19 0 -41 -19 -29 -14 -37 19 -30 31 5 33 22 3 22 -20 0 -20 1 -4 19 15 17 15 19 0 32 -15 12 -15 14 7 20 21 6 20 7 -8 8 -18 1 -33 -2 -33 -6z"/>
<path d="M1321 1564 c-26 -22 -31 -33 -31 -71 0 -36 6 -50 29 -74 16 -16 38 -29 49 -29 32 0 62 32 69 73 l6 37 -67 0 c-73 0 -83 11 -43 48 28 26 54 28 79 5 16 -15 18 -15 18 0 0 19 -29 37 -59 37 -11 0 -33 -12 -50 -26z m99 -101 c0 -21 -29 -53 -47 -53 -16 0 -63 44 -63 60 0 6 23 10 55 10 45 0 55 -3 55 -17z"/>
<path d="M1450 1450 c0 -80 4 -130 10 -130 6 0 10 50 10 130 0 80 -4 130 -10 130 -6 0 -10 -50 -10 -130z"/>
<path d="M780 1563 c0 -3 7 -14 16 -24 14 -16 14 -19 0 -41 -19 -29 -14 -37 19 -30 31 5 33 22 3 22 -20 0 -20 1 -4 19 15 17 15 19 0 32 -15 12 -15 14 7 20 21 6 20 7 -8 8 -18 1 -33 -2 -33 -6z"/>
<path d="M880 1440 c-13 -8 -12 -10 3 -10 9 0 17 5 17 10 0 12 -1 12 -20 0z"/>
<path d="M782 1378 c1 -42 1 -42 6 -8 5 33 5 34 12 10 8 -24 8 -24 9 -2 2 36 19 25 24 -15 3 -35 4 -34 5 10 2 46 1 47 -28 47 -29 0 -30 -2 -28 -42z"/>
<path d="M878 1373 c7 -3 16 -2 19 1 4 3 -2 6 -13 5 -11 0 -14 -3 -6 -6z"/>
<path d="M883 1353 c4 -3 10 -3 14 0 3 4 0 7 -7 7 -7 0 -10 -3 -7 -7z"/>
<path d="M1138 1299 c-13 -7 -18 -23 -18 -54 0 -25 5 -45 10 -45 6 0 10 18 10 39 0 67 53 66 54 -1 1 -17 7 -33 14 -36 21 -7 15 65 -8 88 -22 22 -37 24 -62 9z"/>
<path d="M1236 1303 c-3 -3 -6 -28 -6 -55 0 -48 0 -48 33 -48 18 0 38 5 45 12 9 9 12 9 12 0 0 -8 22 -12 69 -12 73 0 92 13 72 48 -6 10 -6 23 0 34 7 12 6 18 -1 18 -6 0 -13 -7 -16 -15 -4 -8 -10 -15 -15 -15 -5 0 -9 7 -9 15 0 11 -12 15 -50 15 -48 0 -50 -1 -50 -27 0 -21 -3 -24 -12 -15 -7 7 -22 12 -35 12 -15 0 -21 5 -17 14 6 15 -9 30 -20 19z m164 -51 c0 -37 -1 -38 -30 -34 -36 5 -40 22 -5 22 14 0 25 5 25 10 0 6 -11 10 -25 10 -34 0 -32 18 3 23 15 2 28 5 30 6 1 0 2 -16 2 -37z m-105 -17 c0 -5 -10 -11 -22 -13 -16 -2 -23 2 -23 13 0 11 7 15 23 13 12 -2 22 -7 22 -13z m155 0 c0 -8 -7 -15 -15 -15 -8 0 -15 7 -15 15 0 8 7 15 15 15 8 0 15 -7 15 -15z"/>
<path d="M878 1263 c7 -3 16 -2 19 1 4 3 -2 6 -13 5 -11 0 -14 -3 -6 -6z"/>
<path d="M873 1233 c4 -3 10 -3 14 0 3 4 0 7 -7 7 -7 0 -10 -3 -7 -7z"/>
</g>
<g id="layer117" fill="#d8827e" stroke="none">
<path d="M0 1125 l0 -1125 1125 0 1125 0 0 1125 0 1125 -1125 0 -1125 0 0 -1125z m1417 989 c19 -5 21 -12 20 -67 l-2 -61 45 -11 45 -11 3 -399 c1 -220 0 -410 -3 -421 -6 -25 -36 -39 -122 -55 -56 -10 -61 -13 -53 -30 6 -11 10 -202 10 -482 l0 -465 -77 -8 c-84 -7 -376 0 -393 11 -14 9 -14 941 0 950 20 12 0 22 -71 35 -51 9 -79 19 -96 36 l-23 23 0 395 c0 217 3 397 8 400 7 4 95 21 165 31 l37 6 0 50 c0 36 -4 49 -12 47 -7 -3 -15 -14 -18 -26 l-5 -22 -32 22 c-18 13 -31 27 -30 32 2 5 27 9 57 9 l55 -1 0 -53 c1 -30 2 -240 3 -466 l2 -413 25 0 c47 0 49 17 46 425 -1 287 -4 381 -14 387 -6 4 74 8 179 8 l191 0 -5 52 c-4 42 -1 54 13 65 21 15 22 15 52 7z"/>
<path d="M731 1560 c0 -217 3 -390 7 -383 4 6 7 160 7 341 -1 219 3 330 9 329 17 -3 19 46 3 58 -8 6 -17 19 -20 30 -2 11 -5 -158 -6 -375z"/>
<path d="M780 1904 c0 -7 8 -11 18 -9 9 2 23 4 30 4 6 1 12 6 12 11 0 6 -13 9 -30 8 -16 -1 -30 -8 -30 -14z"/>
<path d="M1500 1912 c0 -6 -7 -9 -15 -6 -16 6 -21 -11 -6 -20 11 -7 36 22 27 31 -3 3 -6 1 -6 -5z"/>
<path d="M1103 1860 c-1 -11 2 -20 8 -20 5 0 9 9 9 20 0 11 -4 20 -8 20 -4 0 -8 -9 -9 -20z"/>
<path d="M1500 1870 c0 -7 3 -10 7 -7 3 4 3 10 0 14 -4 3 -7 0 -7 -7z"/>
<path d="M1062 1858 c6 -18 28 -21 28 -4 0 9 -7 16 -16 16 -9 0 -14 -5 -12 -12z"/>
<path d="M1074 1571 c-32 -20 -64 -74 -64 -111 0 -70 66 -130 143 -130 48 0 97 16 97 33 0 5 -8 6 -17 1 -10 -4 -42 -10 -71 -12 -49 -4 -54 -2 -87 31 -27 27 -35 43 -35 72 0 74 44 115 124 115 53 0 74 -16 78 -60 l3 -35 -50 -6 c-62 -6 -39 -22 26 -17 l44 3 3 47 c3 44 1 49 -30 68 -43 26 -122 27 -164 1z"/>
<path d="M1457 1573 c-11 -11 -8 -253 3 -253 6 0 10 50 10 130 0 72 -1 130 -3 130 -2 0 -7 -3 -10 -7z"/>
<path d="M1504 1465 c0 -66 1 -92 3 -57 2 34 2 88 0 120 -2 31 -3 3 -3 -63z"/>
<path d="M780 1561 c0 -5 7 -14 15 -21 9 -7 13 -20 10 -28 -5 -12 -3 -13 10 -2 14 12 14 15 -1 31 -14 16 -14 18 3 22 12 3 9 5 -9 6 -16 0 -28 -3 -28 -8z"/>
<path d="M1503 1300 c0 -25 2 -35 4 -22 2 12 2 32 0 45 -2 12 -4 2 -4 -23z"/>
<path d="M1238 1304 c-5 -4 -8 -29 -8 -56 0 -48 0 -48 34 -48 18 0 39 6 45 14 18 21 -3 56 -34 56 -16 0 -25 6 -27 21 -2 11 -6 17 -10 13z m57 -69 c0 -5 -10 -11 -22 -13 -16 -2 -23 2 -23 13 0 11 7 15 23 13 12 -2 22 -7 22 -13z"/>
<path d="M1325 1253 l3 -48 65 -3 c69 -3 88 10 68 46 -6 11 -6 24 0 35 6 10 6 17 1 17 -6 0 -12 -7 -16 -15 -3 -8 -10 -15 -16 -15 -5 0 -10 7 -10 15 0 11 -12 15 -49 15 l-49 0 3 -47z m75 -1 c0 -37 -1 -38 -30 -34 -36 5 -40 22 -5 22 14 0 25 5 25 10 0 6 -11 10 -25 10 -34 0 -32 18 3 23 15 2 28 5 30 6 1 0 2 -16 2 -37z m50 -17 c0 -8 -7 -15 -15 -15 -8 0 -15 7 -15 15 0 8 7 15 15 15 8 0 15 -7 15 -15z"/>
<path d="M1500 1230 c0 -7 3 -10 7 -7 3 4 3 10 0 14 -4 3 -7 0 -7 -7z"/>
</g>
<g id="layer118" fill="#ef7987" stroke="none">
<path d="M0 1125 l0 -1125 1125 0 1125 0 0 1125 0 1125 -1125 0 -1125 0 0 -1125z m1417 989 c21 -6 22 -10 16 -64 l-6 -58 49 -14 49 -14 3 -410 c2 -317 -1 -414 -10 -427 -8 -10 -45 -23 -95 -33 -74 -15 -81 -19 -73 -35 6 -10 10 -204 10 -482 l0 -465 -77 -8 c-84 -7 -376 0 -393 11 -15 9 -14 937 2 953 14 14 9 16 -76 33 -78 15 -103 27 -110 53 -3 11 -6 195 -6 409 l0 387 28 11 c15 6 62 16 105 22 l77 11 0 49 c0 51 -19 63 -30 19 l-5 -22 -32 22 c-18 13 -31 27 -30 32 2 5 27 9 57 9 l55 -1 0 -53 c1 -30 2 -240 3 -466 l2 -413 25 0 c47 0 49 17 46 425 -1 249 -5 381 -12 385 -17 11 182 20 279 14 l89 -7 -5 53 c-4 44 -2 56 13 67 21 15 22 15 52 7z"/>
<path d="M731 1934 c0 -11 3 -14 6 -6 3 7 2 16 -1 19 -3 4 -6 -2 -5 -13z"/>
<path d="M1050 1913 c0 -13 -3 -14 -12 -5 -7 7 -15 12 -19 12 -13 0 -5 -83 8 -88 18 -5 27 26 13 43 -10 12 -9 15 4 15 9 0 16 6 16 14 0 8 6 17 13 19 7 3 5 6 -5 6 -11 1 -18 -6 -18 -16z"/>
<path d="M1180 1910 c0 -12 7 -20 16 -20 13 0 14 3 5 13 -6 8 -8 17 -4 20 3 4 1 7 -5 7 -7 0 -12 -9 -12 -20z"/>
<path d="M780 1909 c0 -11 22 -16 43 -11 29 7 19 22 -13 20 -16 -1 -30 -5 -30 -9z"/>
<path d="M1092 1909 c2 -6 8 -10 13 -10 5 0 11 4 13 10 2 6 -4 11 -13 11 -9 0 -15 -5 -13 -11z"/>
<path d="M1220 1905 c0 -6 7 -12 15 -12 8 0 15 6 15 12 0 6 -7 12 -15 12 -8 0 -15 -6 -15 -12z"/>
<path d="M1260 1907 c0 -10 8 -17 18 -17 9 0 13 4 7 8 -5 4 -13 11 -17 16 -5 5 -8 2 -8 -7z"/>
<path d="M1321 1907 c-1 -11 -6 -15 -13 -11 -7 5 -8 3 -3 -5 10 -16 29 2 22 21 -4 8 -6 7 -6 -5z"/>
<path d="M1352 1904 c4 -21 22 -23 26 -1 2 10 -3 17 -13 17 -10 0 -15 -6 -13 -16z"/>
<path d="M1390 1899 c0 -10 4 -19 10 -19 5 0 7 7 4 15 -4 8 -2 15 4 15 6 0 12 -6 15 -12 3 -10 8 -9 20 2 15 13 13 15 -18 17 -29 1 -35 -2 -35 -18z"/>
<path d="M740 1901 c9 -7 10 -11 3 -11 -9 0 -12 -73 -12 -287 -1 -157 2 -283 6 -279 4 3 6 123 6 266 -1 189 2 259 11 257 6 -1 11 11 11 28 0 22 -5 31 -20 33 -16 3 -17 1 -5 -7z m15 -31 c3 -5 4 -10 1 -10 -3 0 -8 5 -11 10 -3 6 -4 10 -1 10 3 0 8 -4 11 -10z"/>
<path d="M1470 1900 c0 -16 17 -20 28 -7 8 10 6 13 -9 14 -10 1 -19 -2 -19 -7z"/>
<path d="M806 1863 c-6 -15 -8 -15 -16 -3 -8 13 -10 12 -10 -2 0 -21 16 -32 25 -18 5 8 11 7 21 -1 18 -15 18 0 0 24 -13 17 -14 17 -20 0z"/>
<path d="M780 1711 c0 -5 7 -14 15 -21 9 -7 13 -20 10 -28 -5 -12 -3 -13 10 -2 14 12 14 15 -1 31 -15 16 -14 18 8 22 18 3 15 5 -9 6 -18 0 -33 -3 -33 -8z"/>
<path d="M1085 1576 c-90 -39 -96 -173 -10 -226 50 -31 175 -22 175 13 0 5 -8 6 -17 1 -10 -4 -42 -10 -71 -12 -49 -4 -54 -2 -87 31 -27 27 -35 43 -35 72 0 74 44 115 124 115 53 0 74 -16 78 -60 l3 -35 -50 -6 c-62 -6 -39 -22 26 -17 l44 3 3 47 c3 44 1 49 -30 68 -38 23 -108 26 -153 6z"/>
<path d="M1319 1561 c-23 -23 -29 -38 -29 -71 0 -33 6 -48 29 -71 30 -29 46 -34 76 -23 19 8 45 55 45 84 0 18 -6 20 -65 20 -72 0 -83 12 -45 50 24 24 57 26 82 3 16 -15 18 -15 18 0 0 19 -29 37 -60 37 -12 0 -35 -13 -51 -29z m101 -98 c0 -20 -28 -53 -45 -53 -19 0 -65 40 -65 56 0 10 14 14 55 14 45 0 55 -3 55 -17z"/>
<path d="M1457 1573 c-9 -16 -5 -253 4 -253 5 0 9 59 9 130 0 121 -2 142 -13 123z"/>
<path d="M781 1393 c0 -19 3 -23 7 -13 4 8 15 16 24 18 13 2 18 -6 21 -35 3 -35 4 -34 5 10 2 46 1 47 -28 47 -26 0 -30 -3 -29 -27z"/>
<path d="M800 1370 c0 -7 3 -10 7 -7 3 4 3 10 0 14 -4 3 -7 0 -7 -7z"/>
<path d="M1033 1303 c-26 -10 -12 -24 17 -18 23 5 30 3 30 -9 0 -9 -11 -16 -27 -18 -22 -2 -28 -8 -28 -28 0 -20 6 -26 29 -28 16 -2 33 1 39 7 8 8 3 11 -16 11 -33 0 -35 16 -3 24 30 7 40 31 20 51 -15 15 -38 18 -61 8z"/>
<path d="M1138 1299 c-13 -7 -18 -23 -18 -54 0 -25 5 -45 10 -45 6 0 10 18 10 40 0 28 5 43 16 47 22 8 44 -22 44 -59 0 -15 5 -28 10 -28 19 0 11 69 -10 90 -22 22 -37 24 -62 9z"/>
<path d="M1238 1304 c-5 -4 -8 -29 -8 -56 0 -48 0 -48 34 -48 18 0 39 6 45 14 18 21 -3 56 -34 56 -16 0 -25 6 -27 21 -2 11 -6 17 -10 13z m60 -71 c2 -8 -6 -13 -22 -13 -17 0 -26 5 -26 16 0 19 41 16 48 -3z"/>
<path d="M730 1234 c0 -39 4 -63 8 -56 8 12 4 112 -4 121 -2 2 -4 -27 -4 -65z"/>
<path d="M1325 1253 l3 -48 65 -3 c69 -3 88 10 68 46 -6 11 -6 24 0 35 6 10 6 17 1 17 -6 0 -12 -7 -16 -15 -3 -8 -10 -15 -16 -15 -5 0 -10 7 -10 15 0 11 -12 15 -49 15 l-49 0 3 -47z m80 -23 c-4 -12 -13 -15 -35 -12 -36 5 -40 22 -5 22 14 0 25 5 25 10 0 6 -11 10 -25 10 -34 0 -32 18 3 22 29 3 47 -21 37 -52z m45 5 c0 -8 -7 -15 -15 -15 -8 0 -15 7 -15 15 0 8 7 15 15 15 8 0 15 -7 15 -15z"/>
</g>
<g id="layer119" fill="#b2afaf" stroke="none">
<path d="M0 1125 l0 -1125 1125 0 1125 0 0 1125 0 1125 -1125 0 -1125 0 0 -1125z m1417 989 c21 -6 22 -10 16 -64 l-6 -58 49 -14 49 -14 3 -410 c2 -317 -1 -414 -10 -427 -8 -10 -45 -23 -95 -33 -74 -15 -81 -19 -73 -35 6 -10 10 -204 10 -482 l0 -465 -77 -8 c-84 -7 -376 0 -393 11 -15 9 -14 937 2 953 14 14 12 14 -95 37 -53 11 -80 22 -87 35 -6 12 -10 170 -10 415 l0 395 28 11 c15 6 62 16 105 22 l77 11 0 49 c0 51 -19 63 -30 19 l-5 -22 -32 22 c-18 13 -31 27 -30 32 2 5 27 9 57 9 l55 -1 0 -57 0 -58 90 4 c50 2 147 3 216 1 l126 -2 -5 51 c-4 43 -2 55 13 66 21 15 22 15 52 7z"/>
<path d="M1100 591 l0 -98 -25 5 c-20 3 -25 0 -25 -17 0 -24 33 -41 80 -41 l28 0 1 125 0 125 -30 0 -29 0 0 -99z"/>
<path d="M1281 524 c-1 -20 16 -34 40 -34 5 0 9 10 9 23 0 18 -2 19 -10 7 -9 -13 -10 -13 -10 0 0 13 -2 13 -9 1 -7 -11 -10 -10 -14 5 -4 17 -5 17 -6 -2z"/>
<path d="M947 513 c5 -15 3 -16 -8 -5 -18 17 -29 15 -29 -5 0 -14 2 -15 9 -4 6 9 11 10 15 2 4 -6 11 -11 17 -11 12 0 12 27 -1 35 -6 4 -7 -1 -3 -12z"/>
<path d="M1290 470 c0 -5 -8 -10 -17 -10 -14 0 -15 -2 -4 -12 10 -11 14 -9 22 5 6 9 14 15 20 12 5 -4 9 -1 9 4 0 6 -7 11 -15 11 -8 0 -15 -4 -15 -10z"/>
<path d="M951 461 c-8 -5 -20 -7 -28 -4 -9 3 -11 0 -7 -10 5 -13 10 -14 30 -5 13 6 24 15 24 20 0 10 -1 10 -19 -1z"/>
<path d="M1305 440 c-3 -5 -1 -10 4 -10 6 0 11 5 11 10 0 6 -2 10 -4 10 -3 0 -8 -4 -11 -10z"/>
<path d="M967 422 c-19 -21 -22 -38 -7 -47 6 -3 7 1 4 10 -5 11 -2 14 10 9 13 -5 15 -2 9 12 -6 17 -5 18 13 4 18 -14 18 -14 4 5 -8 11 -15 21 -16 23 0 1 -8 -6 -17 -16z"/>
<path d="M1250 427 c0 -10 -8 -21 -17 -24 -15 -6 -15 -7 3 -14 36 -14 46 -10 39 14 -10 30 -25 45 -25 24z m17 -34 c-4 -3 -10 -3 -14 0 -3 4 0 7 7 7 7 0 10 -3 7 -7z"/>
<path d="M1010 377 c-10 -21 -11 -30 -2 -39 20 -20 36 5 24 39 l-9 28 -13 -28z m20 -27 c0 -5 -4 -10 -10 -10 -5 0 -10 5 -10 10 0 6 5 10 10 10 6 0 10 -4 10 -10z"/>
<path d="M1210 372 c6 -12 8 -27 5 -32 -10 -16 11 -11 25 6 8 9 9 14 2 12 -6 -2 -18 6 -27 17 -16 20 -16 19 -5 -3z"/>
<path d="M1158 373 c-30 -8 -21 -53 13 -65 10 -4 16 -1 16 8 0 8 -6 13 -14 10 -7 -3 -13 -1 -13 3 0 5 6 12 13 14 6 3 3 6 -7 6 -20 1 -20 1 0 16 20 15 20 15 -8 8z"/>
</g>
<g id="layer120" fill="#f58e90" stroke="none">
<path d="M0 1125 l0 -1125 1125 0 1125 0 0 1125 0 1125 -1125 0 -1125 0 0 -1125z m1441 991 c34 2 36 0 31 -25 -2 -14 -5 -41 -7 -59 -1 -18 -5 -35 -9 -39 -4 -4 10 -12 31 -18 l38 -11 3 -410 c2 -317 -1 -414 -10 -427 -8 -10 -46 -24 -95 -34 -70 -14 -80 -19 -70 -32 9 -11 11 -127 8 -480 -2 -256 -5 -468 -8 -471 -7 -8 -436 -6 -455 2 -17 7 -18 39 -18 476 0 334 3 471 11 479 12 12 1 16 -119 43 -31 7 -56 19 -62 30 -14 26 -13 807 0 815 6 3 38 12 73 20 34 7 50 14 35 14 -27 1 -28 3 -28 60 0 57 1 59 31 65 17 3 49 3 70 0 l39 -7 0 -61 0 -61 113 7 c61 4 156 5 210 1 l97 -6 0 65 c0 72 4 82 34 71 12 -4 37 -7 57 -7z"/>
<path d="M937 1974 c-4 -4 -7 -184 -7 -401 0 -378 1 -393 19 -393 34 0 41 23 41 146 1 65 1 126 1 134 2 130 -5 455 -10 481 -6 32 -28 48 -44 33z"/>
<path d="M730 1930 c0 -7 3 -10 7 -7 3 4 3 10 0 14 -4 3 -7 0 -7 -7z"/>
<path d="M1050 1914 c0 -13 -3 -14 -14 -5 -10 9 -15 8 -20 -4 -4 -11 1 -15 19 -15 15 0 25 6 25 14 0 8 6 17 13 19 7 3 5 6 -5 6 -10 1 -18 -6 -18 -15z"/>
<path d="M1180 1910 c0 -12 7 -20 18 -20 13 0 14 2 3 9 -7 5 -10 14 -7 20 4 6 2 11 -3 11 -6 0 -11 -9 -11 -20z"/>
<path d="M791 1911 c-11 -7 -11 -9 0 -13 19 -6 49 2 49 13 0 11 -31 11 -49 0z"/>
<path d="M1098 1913 c6 -2 9 -10 6 -15 -4 -7 -2 -8 4 -4 18 11 14 26 -5 25 -11 0 -13 -3 -5 -6z"/>
<path d="M1130 1905 c0 -6 9 -11 20 -11 11 0 20 5 20 11 0 6 -9 11 -20 11 -11 0 -20 -5 -20 -11z"/>
<path d="M1221 1904 c0 -11 3 -14 6 -6 3 7 2 16 -1 19 -3 4 -6 -2 -5 -13z"/>
<path d="M1260 1905 c0 -8 4 -15 10 -15 5 0 7 7 4 15 -4 8 -8 15 -10 15 -2 0 -4 -7 -4 -15z"/>
<path d="M1321 1904 c0 -11 3 -14 6 -6 3 7 2 16 -1 19 -3 4 -6 -2 -5 -13z"/>
<path d="M1350 1907 c0 -8 7 -14 15 -14 8 0 15 6 15 14 0 7 -7 13 -15 13 -8 0 -15 -6 -15 -13z"/>
<path d="M1390 1909 c0 -5 5 -7 10 -4 6 3 10 8 10 11 0 2 -4 4 -10 4 -5 0 -10 -5 -10 -11z"/>
<path d="M739 1901 c16 -10 24 -41 11 -41 -5 0 -11 8 -13 18 -3 9 -4 5 -4 -9 2 -38 32 -31 32 7 0 21 -5 30 -20 32 -16 2 -17 1 -6 -7z"/>
<path d="M1470 1900 c0 -5 5 -10 10 -10 6 0 10 5 10 10 0 6 -4 10 -10 10 -5 0 -10 -4 -10 -10z"/>
<path d="M1393 1883 c4 -3 10 -3 14 0 3 4 0 7 -7 7 -7 0 -10 -3 -7 -7z"/>
<path d="M806 1865 c-3 -9 -10 -13 -16 -10 -5 3 -10 2 -10 -4 0 -5 13 -9 30 -9 26 1 28 3 18 17 -7 9 -13 17 -14 19 -1 2 -4 -4 -8 -13z"/>
<path d="M1016 1871 c-9 -14 5 -42 18 -38 15 5 14 39 -1 44 -6 2 -14 0 -17 -6z"/>
<path d="M1103 1859 c-1 -10 2 -19 8 -19 11 0 12 27 1 34 -4 2 -9 -4 -9 -15z"/>
<path d="M1062 1859 c2 -6 8 -10 13 -10 5 0 11 4 13 10 2 6 -4 11 -13 11 -9 0 -15 -5 -13 -11z"/>
<path d="M731 1814 c0 -11 3 -14 6 -6 3 7 2 16 -1 19 -3 4 -6 -2 -5 -13z"/>
<path d="M780 1780 c0 -5 14 -10 30 -10 17 0 30 5 30 10 0 6 -13 10 -30 10 -16 0 -30 -4 -30 -10z"/>
<path d="M730 1710 c0 -7 3 -10 7 -7 3 4 3 10 0 14 -4 3 -7 0 -7 -7z"/>
<path d="M780 1711 c0 -5 7 -14 15 -21 9 -7 13 -20 10 -29 -5 -13 -4 -14 7 -3 10 10 10 17 1 32 -10 15 -9 19 5 23 10 3 6 5 -10 6 -16 0 -28 -3 -28 -8z"/>
<path d="M731 1624 c0 -11 3 -14 6 -6 3 7 2 16 -1 19 -3 4 -6 -2 -5 -13z"/>
<path d="M1085 1576 c-61 -27 -88 -106 -58 -166 25 -48 76 -80 129 -80 46 0 94 17 94 33 0 5 -8 6 -17 1 -10 -4 -43 -10 -74 -12 -53 -3 -57 -2 -87 33 -36 41 -42 87 -17 135 20 39 43 50 102 50 64 0 95 -21 91 -63 -3 -30 -6 -32 -53 -38 -62 -6 -39 -22 26 -17 l44 3 3 47 c3 41 0 49 -23 64 -35 23 -121 28 -160 10z"/>
<path d="M1319 1561 c-31 -31 -39 -83 -19 -122 14 -26 62 -49 89 -42 24 6 51 50 51 83 0 18 -6 20 -65 20 -72 0 -83 12 -45 50 24 24 57 26 82 3 13 -11 18 -12 18 -3 0 18 -31 39 -58 40 -13 0 -37 -13 -53 -29z m101 -98 c0 -21 -29 -53 -48 -53 -20 0 -62 39 -62 57 0 9 16 13 55 13 45 0 55 -3 55 -17z"/>
<path d="M1459 1573 c-6 -32 -2 -253 4 -253 4 0 7 59 7 130 0 72 -2 130 -5 130 -3 0 -6 -3 -6 -7z"/>
<path d="M780 1561 c0 -5 7 -14 15 -21 9 -7 13 -20 10 -29 -5 -13 -4 -14 7 -3 10 10 10 17 1 32 -10 15 -9 19 5 23 10 3 6 5 -10 6 -16 0 -28 -3 -28 -8z"/>
<path d="M731 1544 c0 -11 3 -14 6 -6 3 7 2 16 -1 19 -3 4 -6 -2 -5 -13z"/>
<path d="M785 1480 c-4 -6 7 -10 24 -10 17 0 31 5 31 10 0 6 -11 10 -24 10 -14 0 -28 -4 -31 -10z"/>
<path d="M733 1400 c0 -47 2 -66 4 -42 2 23 2 61 0 85 -2 23 -4 4 -4 -43z"/>
<path d="M780 1410 c0 -5 11 -10 24 -10 20 0 25 -6 29 -32 3 -29 4 -27 5 10 2 40 1 42 -28 42 -16 0 -30 -4 -30 -10z"/>
<path d="M1038 1303 c-29 -7 -20 -23 11 -21 34 3 47 -15 14 -20 -27 -4 -47 -27 -39 -47 6 -17 61 -21 71 -5 4 6 -5 10 -19 10 -33 0 -34 16 -2 24 30 7 40 31 20 51 -16 15 -25 16 -56 8z"/>
<path d="M1150 1303 c-8 -3 -18 -11 -22 -17 -11 -17 -9 -86 2 -86 6 0 10 18 10 40 0 27 5 43 15 46 24 10 45 -15 45 -52 0 -19 5 -34 10 -34 19 0 11 69 -10 90 -21 21 -25 22 -50 13z"/>
<path d="M732 1270 c0 -19 2 -27 5 -17 2 9 2 25 0 35 -3 9 -5 1 -5 -18z"/>
<path d="M1230 1250 l0 -50 35 0 c23 0 38 6 44 18 13 25 -5 52 -34 52 -16 0 -25 6 -25 15 0 8 -4 15 -10 15 -5 0 -10 -22 -10 -50z m68 -17 c2 -8 -6 -13 -22 -13 -17 0 -26 5 -26 16 0 19 41 16 48 -3z"/>
<path d="M1330 1250 c0 -49 1 -50 30 -50 17 0 30 5 30 10 0 6 -11 10 -25 10 -14 0 -25 5 -25 10 0 6 11 10 25 10 14 0 25 5 25 10 0 6 -12 10 -26 10 -16 0 -24 5 -21 13 2 6 13 12 25 12 11 0 24 4 28 8 4 4 -9 7 -29 7 l-37 0 0 -50z"/>
<path d="M1411 1253 c-1 -49 1 -53 23 -53 26 0 40 28 25 51 -5 8 -6 23 -3 34 4 18 4 18 -6 3 -6 -10 -15 -18 -20 -18 -5 0 -11 8 -13 18 -3 9 -5 -7 -6 -35z m39 -18 c0 -8 -7 -15 -15 -15 -8 0 -15 7 -15 15 0 8 7 15 15 15 8 0 15 -7 15 -15z"/>
<path d="M780 1280 c0 -5 11 -10 24 -10 20 0 25 -6 29 -32 3 -29 4 -27 5 10 2 40 1 42 -28 42 -16 0 -30 -4 -30 -10z"/>
</g>
<g id="layer121" fill="#e19ca1" stroke="none">
<path d="M0 1125 l0 -1125 1125 0 1125 0 0 1125 0 1125 -1125 0 -1125 0 0 -1125z m1441 991 c34 2 36 0 31 -25 -2 -14 -5 -41 -7 -59 -1 -18 -5 -35 -9 -39 -4 -4 10 -12 31 -18 l38 -11 3 -410 c2 -317 -1 -414 -10 -427 -8 -10 -46 -24 -95 -34 -70 -14 -80 -19 -70 -32 9 -11 11 -127 8 -480 -2 -256 -5 -468 -8 -471 -7 -8 -436 -6 -455 2 -17 7 -18 39 -18 476 0 334 3 471 11 479 12 12 1 16 -119 43 -31 7 -56 19 -62 30 -14 26 -13 807 0 815 6 3 38 12 73 20 34 7 50 14 35 14 -27 1 -28 3 -28 60 0 57 1 59 31 65 17 3 49 3 70 0 l39 -7 0 -57 0 -58 210 2 210 1 0 61 c0 68 5 77 34 67 12 -4 37 -7 57 -7z"/>
<path d="M790 1910 c-11 -7 -7 -10 18 -10 20 0 31 4 27 10 -8 13 -26 13 -45 0z"/>
<path d="M1098 1913 c7 -3 16 -2 19 1 4 3 -2 6 -13 5 -11 0 -14 -3 -6 -6z"/>
<path d="M1241 1904 c0 -11 3 -14 6 -6 3 7 2 16 -1 19 -3 4 -6 -2 -5 -13z"/>
<path d="M1420 1899 c0 -5 5 -7 10 -4 6 3 10 8 10 11 0 2 -4 4 -10 4 -5 0 -10 -5 -10 -11z"/>
<path d="M753 1860 c-1 -11 2 -18 8 -15 11 7 12 35 1 35 -4 0 -8 -9 -9 -20z"/>
<path d="M805 1860 c-4 -6 -11 -8 -16 -5 -5 4 -9 2 -9 -4 0 -5 13 -9 30 -9 24 1 28 4 19 15 -14 16 -16 16 -24 3z"/>
<path d="M1085 1575 c-48 -26 -65 -54 -65 -111 0 -57 22 -94 70 -119 35 -18 99 -19 135 -3 28 12 35 34 8 23 -66 -27 -91 -27 -141 -2 -66 32 -67 162 -2 197 30 16 91 16 129 1 29 -12 32 -17 29 -50 -3 -35 -4 -36 -53 -42 -53 -6 -47 -9 22 -12 l41 -2 4 49 c3 42 0 51 -20 64 -35 23 -121 26 -157 7z"/>
<path d="M1319 1561 c-62 -63 -14 -176 69 -163 24 4 52 48 52 82 0 18 -6 20 -65 20 -70 0 -78 7 -49 48 16 23 67 31 79 12 3 -5 11 -10 17 -10 6 0 3 9 -7 20 -26 28 -62 25 -96 -9z m101 -100 c0 -25 -26 -51 -50 -51 -21 0 -60 37 -60 57 0 9 16 13 55 13 48 0 55 -3 55 -19z"/>
<path d="M1458 1573 c-2 -5 -1 -64 2 -133 l6 -125 2 133 c2 119 0 147 -10 125z"/>
<path d="M786 1561 c-3 -5 1 -14 10 -21 8 -7 12 -20 9 -29 -5 -13 -4 -14 7 -3 10 10 10 17 1 32 -10 15 -9 19 5 23 13 4 11 5 -5 6 -12 0 -24 -3 -27 -8z"/>
<path d="M785 1480 c-4 -6 7 -10 25 -10 18 0 29 4 25 10 -3 6 -15 10 -25 10 -10 0 -22 -4 -25 -10z"/>
<path d="M1034 1295 c-18 -14 -17 -15 13 -12 36 2 50 -16 16 -21 -12 -2 -27 -10 -33 -18 -17 -19 4 -44 36 -44 36 0 38 18 2 23 l-33 4 32 13 c18 8 34 19 37 25 11 31 -40 53 -70 30z"/>
<path d="M1234 1258 c3 -24 5 -47 5 -51 1 -5 16 -7 34 -5 28 3 32 6 32 33 0 25 -4 30 -27 33 -16 2 -28 9 -28 18 0 8 -5 14 -10 14 -7 0 -9 -16 -6 -42z m64 -25 c2 -8 -6 -13 -22 -13 -17 0 -26 5 -26 16 0 19 41 16 48 -3z"/>
<path d="M1330 1250 c0 -49 1 -50 30 -50 17 0 30 5 30 11 0 5 -10 9 -22 7 -11 -2 -23 3 -25 10 -3 7 5 12 21 12 14 0 26 5 26 10 0 6 -12 10 -26 10 -32 0 -27 22 7 31 21 6 21 7 -8 8 -33 1 -33 1 -33 -49z"/>
<path d="M1411 1252 c-1 -50 0 -53 22 -50 19 3 22 9 23 51 0 33 -2 44 -8 33 -12 -21 -25 -20 -31 2 -3 9 -5 -7 -6 -36z m37 -19 c-4 -22 -22 -20 -26 1 -2 10 3 16 13 16 10 0 15 -7 13 -17z"/>
<path d="M780 1281 c0 -5 14 -11 30 -13 20 -3 30 0 30 9 0 8 -12 13 -30 13 -16 0 -30 -4 -30 -9z"/>
</g>
<g id="layer122" fill="#f2b0b2" stroke="none">
<path d="M0 1125 l0 -1125 1125 0 1125 0 0 1125 0 1125 -1125 0 -1125 0 0 -1125z m1441 991 c34 2 36 0 31 -25 -2 -14 -6 -45 -7 -67 -3 -39 -2 -42 28 -51 l32 -9 3 -417 2 -416 -22 -15 c-13 -8 -56 -20 -95 -27 -63 -10 -71 -14 -60 -27 9 -12 11 -120 8 -481 -2 -256 -5 -468 -8 -471 -7 -8 -436 -6 -455 2 -17 7 -18 39 -18 476 0 334 3 471 11 479 12 12 -23 25 -110 38 -85 14 -81 -9 -81 449 l0 405 63 13 c34 6 54 14 45 16 -15 3 -18 14 -18 61 0 57 1 59 31 65 17 3 49 3 70 0 l39 -7 0 -57 0 -57 210 1 210 1 0 61 c0 68 5 77 34 67 12 -4 37 -7 57 -7z"/>
<path d="M1055 1920 c-3 -6 1 -7 9 -4 18 7 21 14 7 14 -6 0 -13 -4 -16 -10z"/>
<path d="M800 1910 c-24 -8 -23 -8 8 -9 20 -1 31 3 27 9 -3 6 -7 10 -8 9 -1 -1 -13 -5 -27 -9z"/>
<path d="M1020 1905 c0 -8 4 -15 10 -15 5 0 7 7 4 15 -4 8 -8 15 -10 15 -2 0 -4 -7 -4 -15z"/>
<path d="M1130 1904 c0 -8 5 -12 10 -9 6 4 8 11 5 16 -9 14 -15 11 -15 -7z"/>
<path d="M1161 1904 c0 -11 3 -14 6 -6 3 7 2 16 -1 19 -3 4 -6 -2 -5 -13z"/>
<path d="M1181 1904 c0 -11 3 -14 6 -6 3 7 2 16 -1 19 -3 4 -6 -2 -5 -13z"/>
<path d="M1220 1900 c0 -7 3 -10 7 -7 3 4 3 10 0 14 -4 3 -7 0 -7 -7z"/>
<path d="M1424 1898 c-4 -7 -3 -8 4 -4 12 7 16 16 8 16 -3 0 -8 -5 -12 -12z"/>
<path d="M753 1893 c4 -3 10 -3 14 0 3 4 0 7 -7 7 -7 0 -10 -3 -7 -7z"/>
<path d="M1020 1855 c0 -8 7 -15 15 -15 8 0 15 7 15 15 0 8 -7 15 -15 15 -8 0 -15 -7 -15 -15z"/>
<path d="M1060 1861 c0 -17 18 -21 24 -6 3 9 0 15 -9 15 -8 0 -15 -4 -15 -9z"/>
<path d="M750 1849 c0 -5 5 -7 10 -4 6 3 10 8 10 11 0 2 -4 4 -10 4 -5 0 -10 -5 -10 -11z"/>
<path d="M785 1780 c-4 -6 7 -10 24 -10 17 0 31 5 31 10 0 6 -11 10 -24 10 -14 0 -28 -4 -31 -10z"/>
<path d="M790 1701 c12 -23 30 -36 30 -22 0 5 -5 13 -12 17 -8 5 -6 10 8 15 16 6 14 8 -9 8 -24 1 -26 -1 -17 -18z"/>
<path d="M785 1630 c-4 -6 7 -10 24 -10 17 0 31 5 31 10 0 6 -11 10 -24 10 -14 0 -28 -4 -31 -10z"/>
<path d="M1094 1580 c-11 -4 -33 -22 -47 -40 -52 -61 -31 -157 43 -195 35 -18 99 -19 135 -3 28 12 35 34 8 23 -81 -33 -142 -23 -173 28 -59 97 21 207 130 177 54 -15 62 -24 58 -61 -3 -33 -5 -34 -53 -39 l-50 -6 58 -4 57 -5 0 53 c0 51 -1 54 -35 68 -38 15 -98 18 -131 4z"/>
<path d="M1319 1561 c-33 -33 -38 -75 -14 -120 34 -67 123 -49 128 25 2 29 2 29 -60 32 -67 3 -75 11 -47 50 16 24 52 29 87 11 21 -10 21 -9 -2 10 -32 29 -57 26 -92 -8z m100 -109 c-18 -47 -55 -56 -89 -20 -37 40 -27 53 39 50 l60 -4 -10 -26z"/>
<path d="M790 1558 c0 -7 7 -22 15 -32 13 -17 15 -17 15 -4 0 9 -5 20 -12 24 -8 5 -6 10 8 15 17 7 17 8 -3 8 -13 1 -23 -5 -23 -11z"/>
<path d="M1464 1445 c0 -71 1 -99 3 -62 2 37 2 96 0 130 -2 34 -3 4 -3 -68z"/>
<path d="M784 1478 c-3 -4 9 -8 27 -8 18 0 29 3 25 7 -10 10 -46 11 -52 1z"/>
<path d="M1042 1299 c-31 -12 -27 -20 7 -17 33 3 43 -15 12 -20 -11 -2 -25 -10 -31 -18 -17 -19 4 -44 36 -44 36 0 38 18 2 22 l-33 3 37 22 c54 32 29 74 -30 52z"/>
<path d="M1132 1288 c-14 -14 -16 -88 -2 -88 6 0 10 18 10 40 0 71 56 64 62 -8 4 -37 4 -37 12 -9 13 42 -7 77 -42 77 -15 0 -33 -5 -40 -12z"/>
<path d="M1235 1263 c1 -21 3 -44 4 -51 1 -9 12 -12 34 -10 28 3 32 6 32 33 0 25 -4 30 -27 33 -16 2 -28 9 -28 18 0 8 -4 14 -9 14 -6 0 -8 -17 -6 -37z m65 -28 c0 -9 -9 -15 -25 -15 -16 0 -25 6 -25 15 0 9 9 15 25 15 16 0 25 -6 25 -15z"/>
<path d="M1330 1250 c0 -49 1 -50 30 -50 17 0 30 4 30 10 0 5 -10 9 -21 7 -12 -1 -24 4 -26 11 -3 7 5 12 21 12 14 0 26 5 26 10 0 6 -11 10 -25 10 -34 0 -32 28 3 33 25 4 25 4 -5 6 l-33 1 0 -50z"/>
<path d="M1411 1252 c-1 -50 0 -53 22 -50 19 3 22 9 23 50 1 46 0 47 -15 26 l-15 -22 -7 24 c-5 18 -7 10 -8 -28z m37 -19 c-5 -25 -28 -28 -28 -4 0 12 6 21 16 21 9 0 14 -7 12 -17z"/>
<path d="M785 1280 c-4 -6 7 -10 24 -10 17 0 31 5 31 10 0 6 -11 10 -24 10 -14 0 -28 -4 -31 -10z"/>
</g>
<g id="layer123" fill="#e5bec2" stroke="none">
<path d="M0 1125 l0 -1125 1125 0 1125 0 0 1125 0 1125 -1125 0 -1125 0 0 -1125z m1441 991 c34 2 36 0 31 -25 -2 -14 -5 -44 -6 -65 -1 -35 2 -40 29 -49 17 -6 33 -14 36 -19 3 -5 5 -191 5 -414 -1 -472 9 -432 -120 -454 -66 -11 -74 -15 -64 -28 10 -12 12 -118 9 -481 -2 -256 -5 -468 -8 -471 -7 -8 -436 -6 -455 2 -17 7 -18 39 -18 476 0 334 3 471 11 479 12 12 -23 25 -110 38 -85 14 -81 -9 -81 449 l0 405 63 14 c34 9 54 16 45 16 -15 1 -18 11 -18 60 0 57 1 59 31 65 17 3 49 3 70 0 l39 -7 0 -56 0 -57 210 1 210 0 0 61 c0 68 5 77 34 67 12 -4 37 -7 57 -7z"/>
<path d="M800 1910 l-25 -8 28 -1 c15 -1 27 4 27 9 0 6 -1 10 -2 9 -2 -1 -14 -5 -28 -9z"/>
<path d="M1021 1904 c0 -11 3 -14 6 -6 3 7 2 16 -1 19 -3 4 -6 -2 -5 -13z"/>
<path d="M801 1856 c-9 -11 -6 -13 14 -13 20 0 23 2 14 13 -6 8 -13 14 -14 14 -1 0 -8 -6 -14 -14z"/>
<path d="M1041 1854 c0 -11 3 -14 6 -6 3 7 2 16 -1 19 -3 4 -6 -2 -5 -13z"/>
<path d="M1107 1863 c-4 -3 -7 -11 -7 -17 0 -6 5 -5 12 2 6 6 9 14 7 17 -3 3 -9 2 -12 -2z"/>
<path d="M785 1780 c-4 -6 7 -10 25 -10 18 0 29 4 25 10 -3 6 -15 10 -25 10 -10 0 -22 -4 -25 -10z"/>
<path d="M790 1708 c0 -9 7 -22 17 -29 15 -13 15 -12 3 11 -17 34 -20 36 -20 18z"/>
<path d="M1085 1571 c-91 -55 -84 -187 12 -228 42 -17 114 -13 138 7 24 20 12 22 -30 4 -50 -20 -99 -11 -137 26 -23 24 -28 37 -28 80 0 43 5 56 28 80 36 35 84 45 137 28 37 -12 40 -16 43 -55 l3 -42 -48 -4 -48 -3 53 -2 52 -2 0 49 c0 46 -2 50 -34 65 -45 21 -104 20 -141 -3z"/>
<path d="M1338 1574 c-54 -29 -64 -93 -22 -143 41 -49 96 -38 117 22 4 9 2 17 -3 17 -6 0 -10 -9 -10 -20 0 -20 -27 -40 -54 -40 -22 0 -56 36 -56 60 0 18 5 19 67 13 49 -5 64 -3 59 5 -4 7 -32 12 -67 12 -51 0 -59 3 -59 18 0 42 56 64 103 41 21 -10 21 -9 -2 10 -27 25 -37 25 -73 5z"/>
<path d="M790 1551 c0 -5 7 -15 17 -22 15 -13 15 -12 4 9 -12 23 -21 28 -21 13z"/>
<path d="M1463 1475 c0 -22 2 -30 4 -17 2 12 2 30 0 40 -3 9 -5 -1 -4 -23z"/>
<path d="M1460 1350 c0 -7 3 -10 7 -7 3 4 3 10 0 14 -4 3 -7 0 -7 -7z"/>
<path d="M1026 1292 c-3 -6 6 -9 22 -8 31 1 43 -17 13 -22 -30 -5 -46 -29 -31 -47 14 -17 56 -20 65 -4 4 6 -3 9 -21 7 -38 -4 -40 15 -3 29 41 16 37 47 -8 51 -17 2 -34 -1 -37 -6z"/>
<path d="M1330 1250 c0 -50 0 -50 33 -49 29 1 29 2 8 8 -31 8 -40 31 -12 31 12 0 21 5 21 10 0 6 -9 10 -20 10 -30 0 -24 28 8 33 25 4 25 4 -5 6 l-33 1 0 -50z"/>
<path d="M1411 1252 c-1 -50 0 -53 22 -50 19 3 22 9 22 52 1 39 -1 44 -9 27 -12 -27 -23 -27 -29 2 -2 12 -5 -2 -6 -31z m39 -22 c0 -11 -7 -20 -15 -20 -8 0 -15 9 -15 20 0 11 7 20 15 20 8 0 15 -9 15 -20z"/>
<path d="M790 1280 c0 -5 11 -10 25 -10 14 0 25 5 25 10 0 6 -11 10 -25 10 -14 0 -25 -4 -25 -10z"/>
</g>
<g id="layer124" fill="#f3d5d5" stroke="none">
<path d="M0 1125 l0 -1125 1125 0 1125 0 0 1125 0 1125 -1125 0 -1125 0 0 -1125z m1441 991 c33 2 36 0 33 -25 -11 -100 -10 -104 21 -114 17 -6 33 -15 37 -21 4 -6 8 -190 8 -409 l0 -398 -24 -24 c-17 -17 -44 -26 -100 -35 -66 -11 -75 -15 -64 -28 10 -12 12 -117 9 -481 -2 -256 -5 -468 -8 -471 -7 -8 -436 -6 -455 2 -17 7 -18 39 -18 476 0 332 3 471 11 479 8 8 1 14 -27 22 -22 6 -48 11 -60 11 -35 0 -84 21 -94 40 -6 11 -10 177 -10 419 l0 401 45 11 45 11 0 63 c0 62 0 63 31 69 17 3 49 3 70 0 l39 -7 0 -56 0 -56 210 0 210 0 0 61 c0 68 5 77 34 67 12 -4 37 -7 57 -7z"/>
<path d="M1020 1900 c0 -7 3 -10 7 -7 3 4 3 10 0 14 -4 3 -7 0 -7 -7z"/>
<path d="M753 1873 c4 -3 10 -3 14 0 3 4 0 7 -7 7 -7 0 -10 -3 -7 -7z"/>
<path d="M810 1866 c0 -2 8 -10 18 -17 15 -13 16 -12 3 4 -13 16 -21 21 -21 13z"/>
<path d="M1040 1860 c0 -7 3 -10 7 -7 3 4 3 10 0 14 -4 3 -7 0 -7 -7z"/>
<path d="M793 1843 c4 -3 10 -3 14 0 3 4 0 7 -7 7 -7 0 -10 -3 -7 -7z"/>
<path d="M795 1780 c-3 -5 3 -10 14 -10 12 0 21 5 21 10 0 6 -6 10 -14 10 -8 0 -18 -4 -21 -10z"/>
<path d="M790 1710 c0 -7 3 -10 7 -7 3 4 3 10 0 14 -4 3 -7 0 -7 -7z"/>
<path d="M790 1628 c0 -4 9 -8 20 -8 11 0 20 4 20 8 0 4 -9 8 -20 8 -11 0 -20 -4 -20 -8z"/>
<path d="M1083 1570 c-89 -54 -80 -187 14 -227 42 -17 114 -13 138 7 24 20 12 22 -30 4 -50 -20 -99 -11 -137 26 -23 24 -28 37 -28 80 0 43 5 56 28 80 36 35 84 45 137 28 37 -12 40 -16 43 -55 l3 -42 -48 -4 -48 -3 53 -2 52 -2 0 48 c0 45 -2 49 -35 65 -47 22 -103 21 -142 -3z"/>
<path d="M1343 1575 c-78 -33 -56 -175 27 -175 28 0 60 27 60 51 0 8 -6 3 -13 -11 -25 -49 -107 -26 -107 31 0 19 4 20 66 14 44 -4 63 -2 59 5 -3 5 -33 10 -66 10 -51 0 -59 3 -59 18 0 43 76 70 110 40 12 -11 12 -10 2 3 -18 24 -45 28 -79 14z"/>
<path d="M800 1540 c6 -11 13 -20 16 -20 2 0 0 9 -6 20 -6 11 -13 20 -16 20 -2 0 0 -9 6 -20z"/>
<path d="M790 1479 c0 -5 11 -9 25 -9 14 0 25 2 25 4 0 2 -11 6 -25 8 -14 3 -25 1 -25 -3z"/>
<path d="M785 1410 c-4 -6 7 -10 25 -10 18 0 29 4 25 10 -3 6 -15 10 -25 10 -10 0 -22 -4 -25 -10z"/>
<path d="M1025 1291 c-4 -7 4 -9 23 -5 42 8 51 -14 12 -27 -24 -9 -30 -17 -28 -33 3 -24 43 -35 62 -16 8 8 4 11 -18 8 -40 -4 -44 17 -6 31 42 14 38 45 -7 49 -17 2 -34 -2 -38 -7z"/>
<path d="M1132 1288 c-14 -14 -17 -88 -3 -88 6 0 11 19 13 43 3 37 6 42 28 42 22 0 26 -5 31 -45 l7 -45 -2 50 c-1 48 -2 50 -31 53 -17 2 -36 -3 -43 -10z"/>
<path d="M1241 1253 c-1 -46 2 -53 18 -53 35 0 51 12 51 36 0 19 -7 26 -29 30 -17 4 -32 14 -34 23 -3 9 -5 -8 -6 -36z m43 1 c21 -8 20 -30 -1 -38 -21 -8 -38 8 -30 28 7 18 9 18 31 10z"/>
<path d="M1330 1250 l0 -50 33 1 c31 2 31 2 4 6 -20 3 -27 9 -25 21 2 10 11 16 21 14 9 -2 17 2 17 8 0 5 -9 10 -20 10 -30 0 -24 28 8 33 25 4 25 4 -5 6 l-33 1 0 -50z"/>
<path d="M1411 1253 c-1 -46 1 -53 18 -53 11 0 22 4 25 9 4 5 -3 7 -14 4 -16 -4 -20 0 -20 17 0 16 5 21 18 18 13 -4 17 2 18 26 1 29 1 29 -9 9 -5 -13 -14 -23 -18 -23 -4 0 -10 10 -12 23 -2 12 -5 -2 -6 -30z"/>
<path d="M790 1280 c0 -5 9 -10 20 -10 11 0 20 5 20 10 0 6 -9 10 -20 10 -11 0 -20 -4 -20 -10z"/>
<path d="M1100 589 c0 -96 -1 -100 -20 -94 -14 4 -22 1 -26 -10 -9 -23 4 -33 54 -41 l42 -7 0 127 0 126 -25 0 -25 0 0 -101z"/>
<path d="M1282 520 c0 -14 2 -19 5 -12 2 6 2 18 0 25 -3 6 -5 1 -5 -13z"/>
<path d="M926 505 c25 -19 34 -19 34 3 0 13 -2 14 -9 3 -6 -9 -11 -10 -15 -2 -4 6 -12 11 -19 11 -6 0 -2 -7 9 -15z"/>
<path d="M920 439 c0 -5 5 -7 10 -4 6 3 10 8 10 11 0 2 -4 4 -10 4 -5 0 -10 -5 -10 -11z"/>
<path d="M960 415 c-7 -9 -10 -18 -6 -22 3 -3 6 -1 6 7 0 10 4 10 18 -1 15 -13 16 -12 3 4 -15 20 -2 23 19 5 12 -11 12 -10 1 5 -16 21 -25 21 -41 2z"/>
<path d="M1233 393 c4 -3 10 -3 14 0 3 4 0 7 -7 7 -7 0 -10 -3 -7 -7z"/>
<path d="M1265 390 c-3 -5 -1 -10 4 -10 6 0 11 5 11 10 0 6 -2 10 -4 10 -3 0 -8 -4 -11 -10z"/>
<path d="M1010 375 c-13 -16 -7 -45 10 -45 16 0 26 33 12 38 -7 2 -10 8 -6 13 9 14 -2 10 -16 -6z m20 -25 c0 -5 -4 -10 -10 -10 -5 0 -10 5 -10 10 0 6 5 10 10 10 6 0 10 -4 10 -10z"/>
<path d="M1210 372 c6 -12 8 -27 4 -33 -4 -8 0 -7 15 0 21 12 29 23 12 19 -5 -2 -17 6 -26 17 -16 20 -16 19 -5 -3z"/>
<path d="M1144 348 c3 -13 6 -26 6 -30 0 -5 5 -8 11 -8 5 0 7 5 3 11 -3 6 0 16 7 21 11 7 9 8 -5 4 -13 -5 -17 -2 -12 9 3 8 0 15 -5 15 -7 0 -9 -9 -5 -22z"/>
<path d="M1083 343 c4 -3 10 -3 14 0 3 4 0 7 -7 7 -7 0 -10 -3 -7 -7z"/>
</g>
<g id="layer125" fill="#ffffff" stroke="none">
<path d="M0 1125 l0 -1125 1125 0 1125 0 0 1125 0 1125 -1125 0 -1125 0 0 -1125z m1502 988 c9 -10 9 -13 0 -13 -15 0 -17 -106 -2 -115 6 -4 10 9 10 32 0 21 4 44 9 51 14 23 21 -156 21 -548 l0 -377 -23 -21 c-15 -14 -47 -25 -95 -33 -67 -11 -72 -13 -65 -33 5 -12 7 -228 5 -481 l-3 -460 -22 -8 c-27 -10 -442 -5 -453 6 -4 4 -8 215 -8 468 -1 365 2 466 12 480 7 11 11 19 9 19 -31 0 -166 36 -179 48 -17 14 -18 47 -18 427 l0 413 43 6 42 6 -4 53 c-2 28 -8 55 -13 58 -18 11 2 29 25 24 13 -4 34 -1 47 4 38 16 645 10 662 -6z m-752 -12 c0 -5 -7 -11 -15 -15 -15 -5 -20 5 -8 17 9 10 23 9 23 -2z m-43 -98 c-2 -16 -4 -3 -4 27 0 30 2 43 4 28 2 -16 2 -40 0 -55z"/>
<path d="M936 2079 c-10 -51 -7 -76 9 -76 8 0 17 9 21 19 10 32 45 47 97 41 27 -3 51 -12 54 -19 3 -8 9 -14 15 -14 5 0 16 -7 24 -15 12 -11 39 -15 105 -15 l89 0 0 55 0 55 -204 0 -203 0 -7 -31z"/>
<path d="M798 1903 c6 -2 18 -2 25 0 6 3 1 5 -13 5 -14 0 -19 -2 -12 -5z"/>
<path d="M805 1680 c3 -5 8 -10 11 -10 3 0 2 5 -1 10 -3 6 -8 10 -11 10 -3 0 -2 -4 1 -10z"/>
<path d="M798 1623 c6 -2 18 -2 25 0 6 3 1 5 -13 5 -14 0 -19 -2 -12 -5z"/>
<path d="M1133 1583 c9 -2 25 -2 35 0 9 3 1 5 -18 5 -19 0 -27 -2 -17 -5z"/>
<path d="M1068 1557 c-28 -23 -48 -63 -48 -99 0 -63 72 -130 137 -127 24 1 23 2 -9 8 -113 23 -153 139 -72 211 40 35 33 41 -8 7z"/>
<path d="M1223 1564 c22 -12 27 -21 27 -54 l0 -39 -47 -4 -48 -3 53 -2 52 -2 0 48 c0 43 -3 50 -25 60 -37 17 -45 14 -12 -4z"/>
<path d="M1322 1560 c-12 -12 -22 -26 -22 -33 0 -7 5 -4 11 5 5 10 19 24 32 33 12 8 17 15 11 15 -6 0 -20 -9 -32 -20z"/>
<path d="M1390 1573 c8 -3 22 -11 30 -17 13 -10 13 -9 1 7 -7 9 -21 17 -30 16 -13 0 -14 -1 -1 -6z"/>
<path d="M805 1530 c3 -5 8 -10 11 -10 3 0 2 5 -1 10 -3 6 -8 10 -11 10 -3 0 -2 -4 1 -10z"/>
<path d="M1290 1496 c0 -9 5 -16 10 -16 6 0 10 4 10 9 0 6 -4 13 -10 16 -5 3 -10 -1 -10 -9z"/>
<path d="M1343 1493 c9 -2 25 -2 35 0 9 3 1 5 -18 5 -19 0 -27 -2 -17 -5z"/>
<path d="M798 1473 c6 -2 18 -2 25 0 6 3 1 5 -13 5 -14 0 -19 -2 -12 -5z"/>
<path d="M1301 1459 c-1 -9 9 -24 22 -35 22 -19 22 -19 6 1 -9 11 -19 27 -22 35 -5 13 -6 13 -6 -1z"/>
<path d="M1405 1421 c-6 -5 -21 -11 -35 -14 l-25 -4 26 -2 c15 0 32 6 39 14 14 16 10 21 -5 6z"/>
<path d="M798 1403 c7 -3 16 -2 19 1 4 3 -2 6 -13 5 -11 0 -14 -3 -6 -6z"/>
<path d="M1215 1355 c-16 -8 -23 -14 -14 -15 8 0 24 7 35 15 23 18 18 18 -21 0z"/>
<path d="M1036 1292 c-3 -4 8 -6 25 -4 39 6 38 -16 -1 -29 -19 -7 -30 -18 -30 -29 0 -21 37 -37 51 -23 6 6 1 9 -12 9 -34 -1 -33 21 1 33 22 7 31 16 28 28 -3 19 -52 31 -62 15z"/>
<path d="M1130 1281 c-14 -27 -13 -84 1 -75 6 3 9 17 6 30 -6 31 14 57 39 52 14 -2 20 -14 25 -48 l6 -45 1 41 c1 22 -3 45 -10 52 -18 18 -56 14 -68 -7z"/>
<path d="M1241 1252 c-1 -52 0 -53 25 -50 32 4 54 32 38 48 -8 8 -10 4 -10 -12 1 -17 -5 -24 -21 -26 -19 -3 -23 1 -23 22 0 15 7 26 18 29 15 4 15 5 0 6 -9 0 -19 9 -21 19 -3 9 -5 -7 -6 -36z"/>
<path d="M1330 1250 l0 -50 33 1 c30 2 30 2 5 6 -25 4 -28 8 -28 43 0 35 3 39 28 43 25 4 25 4 -5 6 l-33 1 0 -50z"/>
<path d="M795 1280 c-3 -6 1 -7 9 -4 18 7 21 14 7 14 -6 0 -13 -4 -16 -10z"/>
<path d="M1412 1270 c0 -14 2 -19 5 -12 2 6 2 18 0 25 -3 6 -5 1 -5 -13z"/>
<path d="M1435 1260 c-3 -5 -1 -10 4 -10 6 0 11 5 11 10 0 6 -2 10 -4 10 -3 0 -8 -4 -11 -10z"/>
<path d="M1411 1223 c-1 -17 5 -23 18 -23 11 0 22 4 25 9 4 5 -3 7 -13 4 -13 -3 -21 1 -24 14 -4 15 -5 14 -6 -4z"/>
<path d="M1105 593 c0 -98 0 -98 -25 -98 -15 0 -26 -7 -28 -17 -4 -20 2 -24 56 -33 l42 -7 0 126 c0 124 0 126 -22 126 -22 0 -23 -3 -23 -97z"/>
<path d="M910 516 c0 -2 7 -7 16 -10 8 -3 12 -2 9 4 -6 10 -25 14 -25 6z"/>
<path d="M1205 380 c3 -5 8 -10 11 -10 3 0 2 5 -1 10 -3 6 -8 10 -11 10 -3 0 -2 -4 1 -10z"/>
<path d="M1263 383 c4 -3 10 -3 14 0 3 4 0 7 -7 7 -7 0 -10 -3 -7 -7z"/>
<path d="M1140 359 c0 -5 5 -7 10 -4 6 3 10 8 10 11 0 2 -4 4 -10 4 -5 0 -10 -5 -10 -11z"/>
<path d="M1000 353 c0 -19 21 -27 33 -13 9 10 9 11 -2 5 -8 -4 -17 -2 -22 6 -6 9 -9 10 -9 2z"/>
<path d="M1224 344 c-18 -14 -18 -15 4 -4 12 6 22 13 22 15 0 8 -5 6 -26 -11z"/>
</g>


</svg>