<!DOCTYPE svg PUBLIC "-//W3C//DTD SVG 20010904//EN" "http://www.w3.org/TR/2001/REC-SVG-20010904/DTD/svg10.dtd">
<svg version="1.0" xmlns="http://www.w3.org/2000/svg" width="225px" height="225px" viewBox="0 0 2250 2250" preserveAspectRatio="xMidYMid meet">
<g id="layer101" fill="#0b0907" stroke="none">
<path d="M0 1125 l0 -1125 1125 0 1125 0 0 1125 0 1125 -1125 0 -1125 0 0 -1125z"/>
</g>
<g id="layer102" fill="#202121" stroke="none">
<path d="M0 1125 l0 -1125 1125 0 1125 0 0 1125 0 1125 -1125 0 -1125 0 0 -1125z m1310 54 c0 -8 13 -10 38 -6 25 4 32 3 22 -3 -13 -8 -12 -12 8 -25 l22 -16 0 -505 0 -504 -67 -2 c-166 -4 -271 -2 -266 4 2 5 15 8 29 8 20 0 24 4 20 18 -4 10 -7 60 -9 110 l-2 92 -33 0 -33 0 3 -115 3 -115 -45 0 c-37 1 -42 3 -30 13 11 9 16 33 16 87 0 41 4 93 9 114 5 24 4 37 -2 33 -5 -3 -18 8 -28 26 l-18 32 24 -21 c35 -31 64 -44 99 -44 33 0 90 25 90 39 0 15 -31 21 -52 10 -11 -6 -22 -9 -24 -6 -3 2 11 12 31 21 36 17 49 30 18 19 -16 -6 -16 -5 -4 10 13 16 12 17 -13 8 -31 -12 -35 2 -9 32 24 25 23 89 -1 113 -30 30 -59 41 -99 38 -20 -2 -39 1 -42 6 -5 9 15 15 38 11 12 -2 8 16 -8 29 -8 7 -23 9 -32 6 -12 -5 -14 -4 -8 2 6 6 27 12 49 15 21 3 43 10 49 16 18 18 -12 32 -50 25 -35 -7 -47 12 -15 23 9 3 27 17 40 32 l22 26 -2 -30 c-2 -37 9 -58 25 -48 7 4 4 -5 -5 -19 -11 -17 -14 -29 -8 -33 6 -3 10 -1 10 4 0 6 10 10 23 8 13 -1 23 4 23 13 3 31 6 34 12 12 9 -29 27 -25 24 6 -5 31 5 28 23 -9 19 -36 29 -33 19 5 -8 34 -40 52 -60 35 -10 -8 -18 -8 -27 -1 -7 6 -22 10 -33 8 -10 -2 -13 -1 -6 1 6 3 12 13 12 24 0 10 7 19 15 19 8 0 15 -9 15 -20 0 -11 7 -20 15 -20 18 0 18 3 4 55 -6 22 -17 43 -24 48 -10 5 -11 15 -4 40 5 17 9 69 8 115 l-2 82 -33 0 -34 0 -2 -122 c-1 -68 -1 -133 0 -146 l1 -23 -20 25 c-14 18 -30 26 -52 26 l-32 1 40 19 c22 11 30 18 19 16 -20 -3 -21 0 -17 35 3 21 2 63 -2 94 -6 53 -8 56 -32 53 -25 -3 -25 -3 -27 -111 0 -59 3 -107 7 -107 5 0 5 -6 0 -12 -4 -7 -6 -178 -4 -381 2 -262 0 -367 -8 -367 -8 0 -11 68 -12 223 -3 353 1 760 7 780 3 9 12 17 20 17 8 0 14 6 14 13 0 9 41 12 171 12 94 0 173 3 176 8 7 11 23 8 23 -4z m-383 -6 c-4 -3 -10 -3 -14 0 -3 4 0 7 7 7 7 0 10 -3 7 -7z m167 -310 c3 -8 -2 -13 -14 -13 -11 0 -20 6 -20 13 0 8 7 14 15 14 8 0 16 -6 19 -14z m-109 -22 c3 -6 -5 -15 -17 -22 -20 -11 -21 -10 -11 3 7 8 10 18 6 21 -3 4 -1 7 5 7 6 0 13 -4 17 -9z m83 -247 c12 -8 22 -25 22 -37 0 -17 -2 -19 -9 -7 -6 8 -8 17 -5 22 2 4 -5 12 -17 18 -20 11 -21 10 -18 -39 4 -47 2 -51 -18 -51 -26 0 -63 33 -63 56 0 8 5 24 10 35 13 24 66 26 98 3z m9 -81 c-4 -3 -7 0 -7 7 0 7 3 10 7 7 3 -4 3 -10 0 -14z m-61 -43 c17 0 23 -7 26 -35 5 -44 -11 -46 -46 -4 -26 31 -38 75 -14 51 7 -7 22 -12 34 -12z m61 -7 c-4 -3 -10 -3 -14 0 -3 4 0 7 7 7 7 0 10 -3 7 -7z m-92 -123 c3 -5 1 -10 -4 -10 -6 0 -11 5 -11 10 0 6 2 10 4 10 3 0 8 -4 11 -10z"/>
<path d="M1163 1163 c9 -2 23 -2 30 0 6 3 -1 5 -18 5 -16 0 -22 -2 -12 -5z"/>
<path d="M1346 1131 c-3 -4 6 -13 19 -19 27 -12 33 -4 13 16 -14 14 -25 15 -32 3z"/>
<path d="M1350 1005 c-1 -49 -2 -96 -1 -102 1 -8 -10 -13 -29 -13 -33 0 -35 -6 -19 -64 10 -35 13 -38 40 -34 22 4 26 2 18 -8 -6 -7 -16 -10 -24 -8 -7 3 -15 -3 -18 -13 -4 -16 -5 -16 -6 0 -1 19 -47 25 -53 6 -3 -9 -9 -9 -25 0 -36 18 -43 14 -32 -19 12 -34 54 -43 62 -12 4 16 5 16 6 0 1 -21 51 -26 51 -6 0 7 7 2 16 -10 11 -15 15 -38 12 -68 -2 -24 -1 -44 2 -44 3 0 6 -10 7 -22 2 -22 1 -22 -14 3 -37 60 -122 71 -175 22 -23 -22 -26 -32 -25 -82 3 -70 32 -121 88 -150 48 -25 77 -26 109 -4 23 16 23 16 16 -3 -9 -24 -9 -12 -7 -121 1 -90 2 -93 24 -92 12 0 16 3 10 6 -10 3 -13 45 -13 159 0 101 3 153 10 149 13 -8 13 8 -1 22 -8 8 -8 17 0 31 6 11 10 45 9 74 l-1 53 -4 -45 c-7 -77 -18 -63 -15 18 2 42 7 81 12 85 10 11 1 47 -12 47 -5 0 -6 5 -3 10 4 6 10 8 14 6 4 -3 8 8 9 23 1 28 -1 29 -29 21 -16 -5 -29 -5 -29 0 0 5 14 11 30 15 27 6 30 10 30 46 0 21 -4 39 -10 39 -6 0 -10 28 -10 65 0 37 4 65 10 65 6 0 10 5 10 10 0 6 -6 10 -14 10 -8 0 -17 6 -19 13 -3 6 -6 -28 -7 -78z m13 -152 c-7 -2 -21 -2 -30 0 -10 3 -4 5 12 5 17 0 24 -2 18 -5z m-123 -113 c0 -5 -2 -10 -4 -10 -3 0 -8 5 -11 10 -3 6 -1 10 4 10 6 0 11 -4 11 -10z m67 -7 c-4 -3 -10 -3 -14 0 -3 4 0 7 7 7 7 0 10 -3 7 -7z m-16 -133 c29 -16 51 -68 52 -123 1 -40 -3 -53 -22 -68 -13 -11 -29 -19 -36 -19 -20 0 -74 48 -90 81 -20 37 -19 98 2 121 18 20 64 24 94 8z"/>
<path d="M1130 887 c0 -24 35 -97 47 -97 11 0 14 7 9 25 -13 51 -26 75 -41 75 -8 0 -15 -1 -15 -3z"/>
<path d="M1180 888 c0 -2 6 -23 14 -48 15 -51 37 -62 54 -28 l11 23 7 -22 c3 -13 13 -23 20 -23 17 0 17 -3 -2 53 -18 54 -28 58 -47 21 l-14 -27 -7 27 c-3 14 -13 26 -21 26 -8 0 -15 -1 -15 -2z"/>
<path d="M1090 810 c0 -7 3 -10 7 -7 3 4 3 10 0 14 -4 3 -7 0 -7 -7z"/>
<path d="M1079 705 c-1 -5 -1 -14 0 -19 1 -5 -4 -5 -11 0 -18 14 -71 17 -63 4 4 -6 10 -8 15 -5 5 3 14 -4 20 -15 7 -12 16 -18 23 -13 7 4 22 6 35 4 17 -2 22 3 22 18 0 12 -4 21 -10 21 -5 0 -7 -8 -4 -17 3 -10 -2 -7 -10 7 -8 14 -16 21 -17 15z"/>
<path d="M1130 681 c0 -21 29 -32 60 -24 23 6 23 34 1 41 -8 3 -11 0 -7 -7 4 -6 2 -11 -3 -11 -6 0 -11 5 -11 10 0 6 -9 10 -20 10 -13 0 -20 -7 -20 -19z m25 -1 c3 -5 1 -10 -4 -10 -6 0 -11 5 -11 10 0 6 2 10 4 10 3 0 8 -4 11 -10z"/>
<path d="M1090 640 c0 -5 5 -10 10 -10 6 0 10 5 10 10 0 6 -4 10 -10 10 -5 0 -10 -4 -10 -10z"/>
</g>
<g id="layer103" fill="#2e2b29" stroke="none">
<path d="M0 1125 l0 -1125 1125 0 1125 0 0 1125 0 1125 -1125 0 -1125 0 0 -1125z m1310 54 c0 -8 13 -10 38 -6 25 4 32 3 22 -3 -13 -8 -12 -12 8 -25 l22 -16 0 -503 0 -504 -122 -6 c-68 -3 -143 -6 -168 -5 -44 1 -45 1 -44 32 1 18 2 47 3 65 1 21 6 32 16 32 10 0 15 11 15 35 0 19 -5 35 -10 35 -6 0 -15 10 -20 23 -8 20 -9 21 -10 2 l-1 -20 -9 20 c-6 13 -9 -21 -8 -97 0 -65 -2 -118 -6 -118 -85 0 -100 2 -76 11 25 9 26 13 26 87 0 42 4 95 9 116 5 24 4 37 -2 33 -5 -3 -18 8 -28 26 l-19 32 33 -28 c18 -15 44 -30 58 -33 48 -12 149 34 109 49 -9 4 -18 2 -21 -4 -4 -5 -10 -7 -15 -4 -5 3 -11 1 -15 -5 -11 -18 -25 -10 -25 15 0 14 5 25 10 25 18 0 11 20 -7 21 -15 0 -15 2 3 10 50 25 66 99 29 135 -8 8 -12 22 -9 32 5 14 4 15 -5 2 -8 -11 -15 -12 -28 -4 -17 10 -60 11 -93 2 -8 -3 -12 -3 -7 -1 4 3 5 9 1 14 -4 8 17 14 39 10 12 -2 8 16 -8 29 -8 7 -23 9 -32 6 -12 -5 -14 -4 -8 2 6 6 27 12 49 15 21 3 43 10 49 16 18 18 -12 32 -50 25 -38 -7 -45 9 -10 27 12 6 30 21 39 33 l18 21 0 -22 c0 -14 6 -23 16 -23 11 0 15 6 11 20 -4 15 0 20 14 20 12 0 19 -7 19 -20 0 -12 7 -20 16 -20 12 0 14 7 9 33 -11 48 -22 65 -47 69 -28 4 -36 28 -9 28 25 0 28 20 4 21 -15 0 -15 2 2 9 17 7 17 9 3 9 -13 1 -18 9 -18 31 0 33 25 43 33 13 4 -14 5 -12 6 5 1 13 -5 22 -14 22 -18 0 -20 20 -2 20 6 0 4 5 -5 11 -11 6 -18 23 -19 42 0 32 0 32 -11 7 -18 -44 -22 -128 -7 -147 8 -9 9 -14 4 -11 -7 4 -9 -6 -7 -28 3 -22 0 -34 -8 -34 -8 0 -10 -9 -5 -27 l7 -28 -22 28 c-15 19 -31 27 -53 27 l-32 1 40 19 c22 11 30 18 19 16 -20 -3 -21 0 -17 35 3 21 2 63 -2 94 -6 53 -8 56 -32 53 -25 -3 -25 -3 -27 -111 0 -59 3 -107 7 -107 5 0 5 -6 0 -12 -4 -7 -6 -178 -4 -381 2 -262 0 -367 -8 -367 -8 0 -11 68 -12 223 -3 353 1 760 7 780 3 9 12 17 20 17 20 0 18 18 -3 22 -9 2 68 3 171 3 104 0 190 3 193 8 7 11 23 8 23 -4z m-216 -314 c4 -10 -1 -15 -14 -15 -11 0 -20 7 -20 15 0 8 6 15 14 15 8 0 16 -7 20 -15z m-109 -24 c3 -6 -5 -15 -17 -22 -20 -11 -21 -10 -11 3 7 8 10 18 6 21 -3 4 -1 7 5 7 6 0 13 -4 17 -9z m83 -247 c26 -18 29 -56 6 -78 -22 -22 -70 -20 -94 4 -22 22 -25 42 -10 71 13 24 66 26 98 3z m-44 -124 c16 0 26 -3 23 -6 -3 -4 -2 -16 4 -27 8 -14 8 -18 0 -13 -6 4 -11 3 -11 -3 0 -5 6 -12 13 -14 6 -3 2 -6 -10 -6 -24 -1 -73 51 -73 77 0 12 3 13 12 4 7 -7 25 -12 42 -12z m-39 -130 c3 -5 1 -10 -4 -10 -6 0 -11 5 -11 10 0 6 2 10 4 10 3 0 8 -4 11 -10z m72 -207 c-4 -3 -7 0 -7 7 0 7 3 10 7 7 3 -4 3 -10 0 -14z"/>
<path d="M1040 1120 c0 -7 3 -10 7 -7 3 4 3 10 0 14 -4 3 -7 0 -7 -7z"/>
<path d="M1350 1125 c0 -2 9 -9 20 -15 16 -9 18 -8 14 5 -5 13 -34 22 -34 10z"/>
<path d="M1359 1058 c-1 -7 0 -48 1 -90 l2 -78 -36 0 c-40 0 -41 -4 -24 -62 10 -36 15 -39 40 -36 21 4 25 2 17 -8 -6 -7 -16 -10 -24 -8 -7 3 -15 -3 -18 -13 -4 -16 -5 -16 -6 0 -1 11 -9 17 -27 17 -20 0 -25 -4 -20 -16 3 -9 6 -22 6 -30 0 -8 10 -14 25 -14 14 0 25 5 25 11 0 6 8 3 17 -7 13 -13 18 -36 20 -88 2 -69 1 -70 -14 -45 -36 60 -129 71 -175 22 -35 -38 -32 -125 6 -178 48 -67 118 -92 166 -58 20 14 23 14 18 1 -4 -8 -2 -21 3 -29 7 -10 9 -6 8 16 -3 69 1 116 11 110 14 -9 12 9 -2 23 -10 10 -10 17 0 32 6 11 11 43 10 72 l-1 53 -4 -45 c-7 -77 -18 -63 -15 18 2 42 7 81 12 85 10 11 1 47 -12 47 -5 0 -6 5 -3 10 4 6 10 8 14 6 4 -3 8 9 9 26 0 18 -2 28 -6 23 -10 -13 -52 -17 -52 -5 0 6 7 10 15 10 23 0 18 18 -7 23 -20 4 -19 4 5 6 15 0 27 -3 27 -9 0 -5 5 -10 10 -10 6 0 10 18 10 40 0 22 -4 40 -10 40 -6 0 -10 28 -10 65 0 37 4 65 10 65 6 0 10 5 10 10 0 15 -30 12 -31 -2z m-52 -325 c-4 -3 -10 -3 -14 0 -3 4 0 7 7 7 7 0 10 -3 7 -7z m-17 -133 c23 -13 40 -42 51 -89 18 -79 -23 -135 -80 -111 -67 27 -107 145 -64 192 18 20 64 24 93 8z"/>
<path d="M1140 878 c0 -35 22 -88 37 -88 16 0 14 19 -7 75 -10 26 -30 35 -30 13z"/>
<path d="M1180 888 c0 -2 6 -23 14 -48 16 -53 40 -63 54 -23 l10 28 7 -27 c4 -16 13 -28 21 -28 17 0 17 -3 -2 53 -18 54 -28 58 -47 21 l-14 -27 -7 27 c-3 14 -13 26 -21 26 -8 0 -15 -1 -15 -2z"/>
<path d="M1073 783 c-7 -2 -13 -9 -13 -15 0 -6 7 -7 16 -4 12 4 11 -1 -5 -23 -11 -15 -18 -31 -14 -35 7 -7 -11 -9 -41 -6 -11 1 -16 -3 -11 -9 3 -6 10 -9 15 -6 5 3 14 -4 20 -15 7 -12 16 -18 23 -13 7 4 22 6 35 4 17 -2 22 3 22 18 0 12 -4 21 -10 21 -5 0 -7 -8 -4 -17 5 -17 5 -17 -6 0 -12 19 -35 24 -24 5 4 -7 3 -9 -1 -5 -16 14 -14 38 3 36 34 -3 44 1 39 16 -4 8 -2 17 3 20 6 4 10 -3 10 -14 0 -12 6 -21 14 -21 9 0 12 9 9 28 -4 26 -4 26 11 8 9 -11 16 -23 16 -28 0 -4 5 -8 11 -8 14 0 1 42 -18 57 -12 9 -21 9 -35 2 -14 -8 -23 -8 -31 0 -12 12 -15 12 -34 4z"/>
<path d="M1201 750 c8 -22 17 -30 35 -30 33 0 31 32 -3 48 -39 18 -43 15 -32 -18z m39 -10 c0 -5 -2 -10 -4 -10 -3 0 -8 5 -11 10 -3 6 -1 10 4 10 6 0 11 -4 11 -10z"/>
<path d="M1130 681 c0 -20 29 -32 59 -24 21 5 22 34 1 41 -7 3 -10 0 -6 -7 4 -6 2 -11 -3 -11 -6 0 -11 5 -11 10 0 6 -9 10 -20 10 -13 0 -20 -7 -20 -19z m25 -1 c3 -5 1 -10 -4 -10 -6 0 -11 5 -11 10 0 6 2 10 4 10 3 0 8 -4 11 -10z"/>
<path d="M1354 245 c0 -79 2 -85 21 -84 11 0 14 3 8 6 -9 3 -13 30 -13 84 0 43 -4 79 -8 79 -5 0 -9 -38 -8 -85z"/>
<path d="M1100 190 c0 -7 3 -10 7 -7 3 4 3 10 0 14 -4 3 -7 0 -7 -7z"/>
<path d="M1380 140 c0 -7 3 -10 7 -7 3 4 3 10 0 14 -4 3 -7 0 -7 -7z"/>
<path d="M1040 560 c0 -43 12 -57 29 -36 14 17 5 63 -15 70 -11 4 -14 -4 -14 -34z"/>
</g>
<g id="layer104" fill="#1c3b52" stroke="none">
<path d="M0 1125 l0 -1125 1125 0 1125 0 0 1125 0 1125 -1125 0 -1125 0 0 -1125z m1310 54 c0 -8 13 -10 38 -6 25 4 32 3 22 -3 -13 -8 -12 -12 8 -25 l22 -16 0 -503 0 -504 -130 -7 c-144 -8 -348 2 -367 17 -17 13 -19 968 -3 999 6 10 17 19 25 19 20 0 19 18 -2 22 -9 2 68 3 171 3 104 0 190 3 193 8 7 11 23 8 23 -4z"/>
</g>
<g id="layer105" fill="#115071" stroke="none">
<path d="M0 1125 l0 -1125 1125 0 1125 0 0 1125 0 1125 -1125 0 -1125 0 0 -1125z m782 333 c2 -135 0 -244 -4 -241 -5 2 -7 172 -6 376 1 205 4 314 5 242 2 -71 4 -241 5 -377z m735 -56 c-1 -103 -2 -18 -2 188 0 206 1 291 2 187 2 -103 2 -271 0 -375z m-7 -196 c0 -3 -5 -8 -12 -12 -7 -4 -8 -3 -4 4 7 12 16 16 16 8z m-677 -13 c-7 -2 -19 -2 -25 0 -7 3 -2 5 12 5 14 0 19 -2 13 -5z m610 -15 c-21 -5 -49 -10 -62 -14 l-24 -5 22 -15 c21 -15 21 -15 21 -518 l0 -504 -130 -7 c-144 -8 -348 2 -367 17 -10 8 -13 120 -13 499 0 482 0 489 21 510 25 25 24 26 -24 36 -21 5 104 8 278 8 174 0 299 -3 278 -7z"/>
</g>
<g id="layer106" fill="#045c8d" stroke="none">
<path d="M0 1125 l0 -1125 1125 0 1125 0 0 1125 0 1125 -1125 0 -1125 0 0 -1125z m1198 858 c-15 -2 -42 -2 -60 0 -18 2 -6 4 27 4 33 0 48 -2 33 -4z m140 0 c-21 -2 -55 -2 -75 0 -21 2 -4 4 37 4 41 0 58 -2 38 -4z m129 -9 c-3 -3 -12 -4 -19 -1 -8 3 -5 6 6 6 11 1 17 -2 13 -5z m-620 -10 c-3 -3 -12 -4 -19 -1 -8 3 -5 6 6 6 11 1 17 -2 13 -5z m-52 -753 c13 -12 159 -31 163 -21 2 4 115 5 252 2 221 -4 252 -3 274 12 l26 16 3 373 2 372 3 -372 c2 -425 6 -404 -83 -417 -72 -11 -80 -16 -55 -33 20 -14 20 -22 20 -517 l0 -504 -130 -7 c-144 -8 -348 2 -367 17 -10 8 -13 120 -13 499 0 482 0 489 21 510 11 11 19 23 16 25 -2 3 -32 9 -66 15 -34 6 -68 18 -76 26 -13 12 -15 72 -13 386 l3 372 5 -372 c3 -228 9 -376 15 -382z m637 662 c-3 -16 -7 -22 -10 -15 -4 13 4 42 11 42 2 0 2 -12 -1 -27z m-565 -15 c-3 -8 -6 -5 -6 6 -1 11 2 17 5 13 3 -3 4 -12 1 -19z m580 0 c-3 -8 -6 -5 -6 6 -1 11 2 17 5 13 3 -3 4 -12 1 -19z m-30 -35 c-4 -3 -7 0 -7 7 0 7 3 10 7 7 3 -4 3 -10 0 -14z m46 -20 c-7 -2 -21 -2 -30 0 -10 3 -4 5 12 5 17 0 24 -2 18 -5z m-576 -280 c-4 -3 -10 -3 -14 0 -3 4 0 7 7 7 7 0 10 -3 7 -7z m0 -30 c-4 -3 -10 -3 -14 0 -3 4 0 7 7 7 7 0 10 -3 7 -7z m80 -25 c-3 -8 -6 -5 -6 6 -1 11 2 17 5 13 3 -3 4 -12 1 -19z m-80 -45 c-4 -3 -7 0 -7 7 0 7 3 10 7 7 3 -4 3 -10 0 -14z m30 -30 c-4 -3 -7 0 -7 7 0 7 3 10 7 7 3 -4 3 -10 0 -14z m13 -77 c0 -3 -5 -8 -12 -12 -7 -4 -8 -3 -4 4 7 12 16 16 16 8z"/>
</g>
<g id="layer107" fill="#036699" stroke="none">
<path d="M0 1125 l0 -1125 1125 0 1125 0 0 1125 0 1125 -1125 0 -1125 0 0 -1125z m968 823 c-1 -37 -2 -39 -5 -10 -4 32 -33 47 -33 17 0 -9 -12 -20 -26 -25 -14 -6 -22 -14 -19 -20 5 -9 -8 -11 -52 -10 -5 0 -11 12 -15 25 -4 17 -3 23 5 18 6 -4 8 0 4 10 -7 19 3 23 73 26 30 2 57 5 59 7 9 9 11 2 9 -38z m506 32 c2 -3 1 -23 -3 -45 -6 -38 -8 -40 -41 -37 -45 3 -61 -4 -54 -23 8 -21 44 -19 45 3 0 14 2 14 9 -3 6 -13 9 -15 9 -5 1 13 2 13 11 0 8 -12 2 -16 -28 -21 -20 -4 -41 -5 -47 -3 -13 6 -17 42 -5 49 5 3 2 21 -7 40 -19 40 -60 53 -106 36 -16 -6 -39 -11 -53 -11 -14 0 -36 -7 -50 -16 -19 -13 -22 -20 -13 -30 9 -11 8 -14 -6 -14 -10 0 -15 3 -12 7 4 3 2 12 -5 20 -6 7 -8 16 -5 20 4 3 1 15 -4 26 -11 19 -8 19 175 15 102 -2 187 -6 190 -8z m-692 -372 c-1 -194 0 -363 3 -375 3 -14 13 -23 25 -23 19 0 20 7 17 310 -2 171 -1 312 1 315 3 3 11 0 19 -6 10 -9 17 -8 30 2 14 12 16 12 11 -1 -3 -8 2 -20 11 -27 13 -10 10 -12 -21 -13 -28 0 -38 -4 -38 -16 0 -13 7 -15 34 -10 19 4 37 2 40 -3 3 -5 16 -7 29 -4 l22 6 -21 -19 c-17 -15 -21 -27 -17 -61 3 -25 10 -43 17 -43 9 0 13 -15 12 -42 -1 -33 -5 -42 -16 -39 -8 2 -24 4 -35 6 -33 4 -32 7 10 20 l40 13 -42 1 c-23 1 -49 -2 -58 -5 -15 -6 -15 -8 0 -24 15 -17 15 -20 0 -44 l-17 -26 36 0 c20 0 36 5 36 10 0 6 -10 10 -21 10 -18 0 -19 2 -9 15 16 19 37 19 57 -1 13 -13 17 -13 24 -2 5 7 9 -28 9 -84 0 -54 -4 -98 -8 -98 -5 0 -8 22 -7 49 2 38 -1 50 -14 54 -13 3 -16 -5 -17 -40 0 -23 3 -43 8 -43 5 0 5 -8 0 -17 -5 -10 -9 -34 -11 -52 -3 -53 -11 -51 -11 2 0 47 0 47 -35 47 -24 0 -35 -5 -35 -15 0 -9 9 -15 25 -15 21 0 25 -5 25 -29 0 -18 -10 -41 -25 -57 -14 -15 -23 -29 -21 -31 2 -2 27 -4 55 -5 28 0 48 -4 45 -9 -3 -5 0 -9 5 -9 6 0 11 4 11 8 0 5 106 7 237 5 206 -3 238 -1 254 13 10 9 22 13 27 10 28 -17 32 30 35 385 l2 364 3 -377 2 -378 -22 -14 c-13 -7 -41 -17 -63 -20 -22 -4 -48 -10 -58 -12 -18 -6 -17 -7 2 -21 21 -14 21 -18 21 -517 l0 -504 -130 -7 c-144 -8 -348 2 -367 17 -10 8 -13 120 -13 499 0 476 1 490 20 509 11 11 20 22 20 24 0 2 -29 9 -66 16 -36 7 -72 19 -80 27 -12 12 -14 75 -14 384 0 203 3 369 8 369 4 0 6 -159 4 -352z m188 267 c0 -11 -6 -10 -30 1 -16 9 -30 17 -30 18 0 1 14 1 30 -2 17 -2 30 -10 30 -17z m-103 -17 c-3 -8 -6 -5 -6 6 -1 11 2 17 5 13 3 -3 4 -12 1 -19z m37 6 c5 -14 4 -15 -9 -4 -17 14 -19 20 -6 20 5 0 12 -7 15 -16z m431 -12 c-3 -3 -11 0 -18 7 -9 10 -8 11 6 5 10 -3 15 -9 12 -12z m82 -26 c-4 -11 2 -14 24 -14 16 1 32 -2 36 -5 3 -4 -10 -7 -31 -7 -30 0 -37 -3 -34 -17 2 -11 14 -19 31 -21 l27 -3 0 -259 0 -258 -25 -16 c-31 -21 -75 -12 -75 15 0 10 3 19 8 19 9 0 13 60 5 80 -4 10 -8 5 -13 -15 l-8 -30 -1 33 c-1 26 3 32 19 32 16 0 20 7 20 30 0 17 -4 30 -9 30 -5 0 -8 67 -7 150 2 129 0 152 -13 160 -14 8 -13 11 7 16 26 8 29 38 5 54 -16 10 -16 11 -1 6 11 -3 19 2 23 15 4 10 9 19 12 19 3 0 3 -6 0 -14z m-460 -22 c-3 -3 -12 -4 -19 -1 -8 3 -5 6 6 6 11 1 17 -2 13 -5z m175 -76 c-7 -7 -12 -8 -12 -2 0 14 12 26 19 19 2 -3 -1 -11 -7 -17z m238 -135 l-5 -88 -3 74 c-3 65 1 101 10 101 2 0 1 -39 -2 -87z m-241 -119 c-1 -63 -5 -114 -9 -114 -4 0 -7 54 -7 120 0 66 4 117 9 114 5 -3 8 -57 7 -120z m-160 -186 c-1 -38 -3 -46 -8 -28 -7 24 -3 80 5 80 2 0 4 -24 3 -52z m171 -3 c0 -8 -4 -17 -10 -20 -6 -4 -10 5 -10 20 0 15 4 24 10 20 6 -3 10 -12 10 -20z"/>
<path d="M890 1750 c0 -7 3 -10 7 -7 3 4 3 10 0 14 -4 3 -7 0 -7 -7z"/>
<path d="M840 1723 c0 -3 7 -15 17 -25 15 -17 15 -19 -2 -38 -10 -11 -16 -22 -14 -24 2 -2 27 -6 54 -9 37 -5 45 -4 33 4 -10 5 -18 16 -18 24 0 9 -6 12 -15 9 -11 -5 -13 -2 -9 10 3 9 0 24 -7 33 -12 15 -12 16 3 10 10 -3 20 -2 23 3 4 6 -9 10 -29 10 -20 0 -36 -3 -36 -7z"/>
<path d="M918 1491 c-9 -11 -14 -22 -11 -25 4 -3 -10 -6 -30 -6 -36 0 -37 -1 -37 -40 0 -44 20 -56 21 -12 0 24 1 24 8 7 8 -19 9 -18 13 5 5 21 5 20 7 -7 2 -48 19 -40 23 10 3 38 5 42 26 39 19 -3 23 0 20 19 -4 30 -20 34 -40 10z"/>
</g>
<g id="layer108" fill="#016ea5" stroke="none">
<path d="M0 1125 l0 -1125 1125 0 1125 0 0 1125 0 1125 -1125 0 -1125 0 0 -1125z m1125 73 c85 -1 163 -2 172 -2 26 -1 27 21 1 28 -48 14 -106 17 -139 8 -19 -5 -38 -7 -44 -5 -6 2 -9 132 -7 370 3 340 2 369 -14 380 -15 11 9 13 138 13 85 0 175 -3 200 -6 43 -6 44 -7 44 -43 -1 -44 -7 -49 -57 -44 -34 4 -39 2 -39 -16 0 -27 40 -30 41 -3 0 14 2 14 9 -3 6 -13 9 -15 9 -5 1 13 2 13 11 0 8 -12 2 -16 -28 -21 -48 -9 -62 -2 -62 28 0 21 -4 25 -23 21 -13 -2 -29 2 -36 9 -13 14 -91 14 -91 1 0 -5 -8 -8 -17 -8 -22 0 -5 -17 21 -22 11 -1 18 -7 15 -13 -2 -5 -7 -9 -11 -8 -11 4 -10 -15 2 -22 12 -7 2 -35 -20 -55 -13 -12 -16 -29 -13 -75 2 -33 4 -141 6 -239 l2 -179 30 -5 c42 -6 84 -6 91 1 4 3 8 120 9 259 2 182 0 255 -9 260 -10 7 32 13 63 8 8 -1 21 6 29 17 13 16 14 16 9 1 -4 -12 -1 -18 8 -18 8 0 15 6 15 13 0 8 3 8 9 -2 5 -8 16 -11 26 -8 9 4 14 3 10 -3 -3 -6 -22 -10 -41 -10 -28 0 -35 -4 -32 -17 2 -12 14 -19 34 -21 l31 -3 0 -267 c-1 -225 2 -267 14 -267 12 0 15 58 19 370 l5 370 3 -377 2 -378 -22 -14 c-13 -7 -41 -17 -63 -20 -22 -4 -48 -10 -58 -12 -18 -6 -17 -7 2 -21 21 -14 21 -18 21 -517 l0 -504 -130 -7 c-144 -8 -348 2 -367 17 -10 8 -13 120 -13 499 0 476 1 490 20 509 11 11 20 22 20 24 0 2 -29 9 -66 16 -36 7 -72 19 -80 27 -12 12 -14 75 -14 384 0 203 3 369 8 369 4 0 6 -159 4 -352 -2 -194 0 -363 3 -376 5 -20 7 -21 20 -8 13 12 15 63 15 310 0 295 3 322 35 296 10 -8 15 -8 20 1 6 8 10 8 16 -2 4 -7 11 -11 14 -7 4 3 -1 18 -10 32 -16 24 -16 26 -1 26 9 0 16 5 16 11 0 8 -15 10 -45 7 -41 -5 -45 -3 -46 16 0 11 -2 29 -4 38 -3 19 21 26 105 30 l45 3 3 -392 2 -393 155 -2z m174 695 c-3 -19 2 -34 9 -29 4 2 14 1 22 -5 12 -7 11 -8 -5 -8 -31 2 -82 16 -62 18 10 0 16 5 13 10 -5 8 2 14 22 20 1 1 1 -2 1 -6z m-432 -35 c-3 -8 -6 -5 -6 6 -1 11 2 17 5 13 3 -3 4 -12 1 -19z m423 -33 c0 -8 -4 -15 -10 -15 -5 0 -10 7 -10 15 0 8 5 15 10 15 6 0 10 -7 10 -15z"/>
<path d="M847 1723 c-4 -3 0 -15 10 -25 15 -17 15 -19 0 -36 -24 -27 -21 -32 18 -32 35 0 48 16 21 26 -8 3 -12 12 -9 20 3 8 0 21 -6 28 -10 11 -8 15 6 19 12 3 10 5 -8 6 -14 0 -29 -2 -32 -6z"/>
<path d="M857 1593 c-18 -4 -18 -6 -1 -24 15 -17 16 -20 0 -44 l-16 -25 35 0 c19 0 35 5 35 10 0 6 -10 10 -21 10 -18 0 -19 3 -9 15 7 8 10 22 6 30 -3 9 0 15 10 15 8 0 12 5 9 10 -6 10 -17 11 -48 3z"/>
<path d="M930 1500 c-11 -7 -11 -11 -1 -24 18 -22 31 -20 31 3 0 24 -12 32 -30 21z"/>
<path d="M840 1420 c0 -48 19 -54 21 -7 2 28 2 29 7 7 l5 -25 8 25 c7 23 7 23 8 -7 1 -48 21 -41 21 7 0 39 -1 40 -35 40 -34 0 -35 -1 -35 -40z"/>
<path d="M932 1425 c3 -14 1 -25 -3 -25 -5 0 -6 -7 -3 -15 13 -32 32 -16 31 25 -1 26 -7 40 -16 40 -9 0 -12 -8 -9 -25z"/>
<path d="M932 1347 c-6 -7 -7 -18 -2 -26 4 -8 6 -25 4 -38 -3 -14 0 -23 9 -23 8 0 13 15 14 45 2 47 -8 63 -25 42z"/>
</g>
<g id="layer109" fill="#3074a0" stroke="none">
<path d="M0 1125 l0 -1125 1125 0 1125 0 0 1125 0 1125 -1125 0 -1125 0 0 -1125z m1045 75 c41 0 75 2 75 4 0 3 -7 11 -15 19 -11 12 -12 22 -4 48 5 20 9 171 8 367 -2 293 -4 334 -18 342 -18 11 268 14 342 4 l46 -7 -2 -41 -2 -41 -47 3 c-43 3 -48 1 -48 -17 0 -27 40 -30 41 -3 0 14 2 14 9 -3 6 -13 9 -15 9 -5 1 13 2 13 11 0 8 -12 2 -16 -28 -21 -48 -9 -62 -2 -62 28 0 22 -4 25 -25 21 -13 -3 -26 0 -29 6 -2 6 -5 -2 -5 -17 -1 -16 3 -26 7 -23 4 2 14 0 22 -5 10 -6 -5 -7 -42 -3 -55 6 -58 5 -58 -15 0 -14 6 -21 20 -21 11 0 20 5 20 10 0 6 5 10 10 10 6 0 10 -7 10 -15 0 -22 106 -19 121 4 9 14 10 14 5 -1 -3 -12 0 -18 9 -18 8 0 15 6 15 13 0 8 3 8 9 -2 5 -8 16 -11 26 -8 9 4 14 3 10 -3 -3 -6 -22 -10 -41 -10 -28 0 -35 -4 -32 -17 2 -12 14 -19 36 -21 l32 -3 1 -257 c1 -141 1 -263 0 -271 -2 -7 4 -11 11 -9 10 4 14 81 18 374 l5 369 3 -377 2 -378 -22 -14 c-13 -7 -41 -17 -63 -20 -22 -4 -48 -10 -58 -12 -18 -6 -17 -7 2 -21 21 -14 21 -18 21 -517 l0 -504 -130 -7 c-144 -8 -348 2 -367 17 -10 8 -13 120 -13 499 0 476 1 490 20 509 11 11 20 22 20 24 0 2 -29 9 -66 16 -36 7 -72 19 -80 27 -12 12 -14 75 -14 384 0 203 3 369 8 369 4 0 6 -159 4 -352 -2 -194 0 -363 3 -376 5 -20 7 -21 20 -8 13 12 15 63 15 310 0 295 3 322 35 296 10 -8 15 -8 20 1 6 8 10 8 16 -2 4 -7 11 -11 14 -7 4 3 -1 18 -10 32 -16 24 -16 26 -1 26 9 0 16 5 16 11 0 8 -15 10 -45 7 -41 -5 -45 -3 -46 16 0 11 -2 29 -4 38 -3 19 21 26 105 30 l45 3 3 -392 2 -393 75 0z m-178 658 c-3 -8 -6 -5 -6 6 -1 11 2 17 5 13 3 -3 4 -12 1 -19z"/>
<path d="M843 1778 c2 -7 9 -13 15 -12 7 1 21 2 32 3 35 2 21 21 -16 21 -24 0 -34 -4 -31 -12z"/>
<path d="M847 1723 c-4 -3 0 -15 10 -25 15 -17 15 -19 0 -36 -24 -26 -21 -32 12 -32 33 0 51 17 27 26 -8 3 -12 12 -9 20 3 8 0 21 -6 28 -10 11 -8 15 6 19 12 3 10 5 -8 6 -14 0 -29 -2 -32 -6z"/>
<path d="M857 1593 c-18 -4 -18 -6 -1 -24 15 -17 16 -20 0 -44 l-16 -25 35 0 c19 0 35 5 35 10 0 6 -9 10 -20 10 -18 0 -19 2 -8 20 11 17 10 22 -2 30 -12 8 -10 10 8 10 13 0 20 4 17 10 -6 10 -17 11 -48 3z"/>
<path d="M930 1541 c0 -5 7 -11 15 -15 9 -3 15 0 15 9 0 8 -7 15 -15 15 -8 0 -15 -4 -15 -9z"/>
<path d="M932 1498 c-8 -8 -9 -15 -1 -25 16 -19 29 -16 29 6 0 25 -13 34 -28 19z"/>
<path d="M840 1425 c0 -41 19 -48 21 -7 2 27 2 27 7 2 l5 -25 8 25 7 25 1 -27 c2 -45 21 -43 21 1 0 40 -1 41 -35 41 -33 0 -35 -2 -35 -35z"/>
<path d="M930 1430 c0 -12 5 -17 13 -14 8 3 14 11 14 19 0 8 -6 15 -14 15 -7 0 -13 -9 -13 -20z"/>
<path d="M926 1385 c4 -8 12 -15 20 -15 8 0 14 7 14 15 0 8 -9 15 -20 15 -13 0 -18 -5 -14 -15z"/>
<path d="M932 1348 c-13 -13 -4 -38 14 -38 15 0 19 35 6 44 -5 3 -14 0 -20 -6z"/>
<path d="M847 1343 c-14 -13 -6 -23 18 -23 20 0 25 -5 25 -25 0 -14 5 -25 10 -25 6 0 10 18 10 40 0 37 -2 40 -28 40 -16 0 -32 -3 -35 -7z"/>
<path d="M933 1280 c-1 -11 4 -20 12 -20 8 0 13 9 12 20 -1 11 -6 20 -12 20 -6 0 -11 -9 -12 -20z"/>
<path d="M1256 1229 c3 -5 -15 -9 -40 -9 -25 0 -47 -4 -50 -9 -7 -11 136 -21 149 -9 5 5 2 8 -8 8 -9 0 -17 4 -17 9 0 5 -9 11 -20 14 -11 3 -18 1 -14 -4z"/>
</g>
<g id="layer110" fill="#4b7aa0" stroke="none">
<path d="M0 1125 l0 -1125 1125 0 1125 0 0 1125 0 1125 -1125 0 -1125 0 0 -1125z m970 481 c0 -370 1 -385 19 -391 30 -9 67 4 78 28 24 51 33 156 33 385 0 134 -4 251 -9 260 -4 10 -11 37 -14 61 l-5 43 196 -4 c108 -2 202 -6 207 -10 6 -4 9 -25 7 -47 l-4 -40 -49 4 c-44 4 -49 2 -49 -15 0 -26 39 -28 41 -2 1 15 2 14 6 -2 3 -11 8 -14 12 -9 4 7 11 6 19 -3 11 -12 7 -14 -25 -16 -53 -2 -50 -2 -130 6 -69 7 -73 6 -73 -13 0 -23 35 -30 43 -8 4 9 7 9 14 0 5 -7 32 -14 61 -17 41 -4 54 -1 63 12 10 16 10 16 5 0 -3 -12 0 -18 9 -18 8 0 16 8 16 18 1 15 2 15 6 -1 3 -13 11 -17 24 -14 10 3 17 1 13 -4 -3 -5 -21 -9 -40 -9 -22 0 -34 -5 -34 -13 0 -22 12 -28 28 -14 13 9 14 9 8 0 -5 -9 0 -13 13 -13 21 0 21 -5 22 -257 1 -142 1 -261 0 -265 0 -5 6 -8 14 -8 13 0 15 50 18 368 l2 367 3 -377 2 -378 -22 -14 c-13 -8 -41 -17 -63 -21 -76 -13 -80 -15 -56 -32 21 -14 21 -18 21 -517 l0 -504 -130 -7 c-144 -8 -348 2 -367 17 -10 8 -13 120 -13 499 0 476 1 490 20 509 11 11 20 22 20 24 0 2 -29 9 -66 16 -36 7 -72 19 -80 27 -12 12 -14 75 -14 384 0 203 3 369 8 369 4 0 6 -156 4 -347 -2 -192 0 -358 3 -370 3 -13 11 -20 19 -17 11 4 13 62 14 300 1 162 4 299 7 303 6 10 56 8 73 -3 17 -11 15 5 -5 26 -15 17 -15 19 3 33 18 14 17 14 -11 15 -17 0 -36 -5 -43 -12 -13 -13 -18 -3 -26 49 -5 35 1 38 99 46 22 2 43 4 48 5 4 1 7 -171 7 -382z m-103 252 c-3 -8 -6 -5 -6 6 -1 11 2 17 5 13 3 -3 4 -12 1 -19z"/>
<path d="M1300 1880 c0 -10 11 -17 30 -18 24 -2 30 2 30 17 0 14 -7 18 -30 17 -20 0 -30 -6 -30 -16z"/>
<path d="M857 1593 c-18 -4 -18 -6 -1 -24 15 -17 16 -20 0 -44 l-16 -25 35 0 c19 0 35 5 35 10 0 6 -10 10 -21 10 -18 0 -19 2 -9 15 10 12 10 18 0 30 -10 13 -9 15 9 15 12 0 19 5 16 10 -6 10 -17 11 -48 3z"/>
<path d="M931 1347 c-9 -11 -8 -17 4 -27 12 -10 16 -9 21 5 9 23 -10 40 -25 22z m16 -14 c-4 -3 -7 0 -7 7 0 7 3 10 7 7 3 -4 3 -10 0 -14z"/>
</g>
<g id="layer111" fill="#3e8db5" stroke="none">
<path d="M0 1125 l0 -1125 1125 0 1125 0 0 1125 0 1125 -1125 0 -1125 0 0 -1125z m970 480 c0 -212 3 -385 8 -386 4 0 17 -2 30 -5 13 -2 30 4 41 15 23 23 29 116 27 474 -1 226 -3 269 -16 277 -22 14 355 13 404 -1 25 -7 35 -14 27 -19 -7 -4 -12 -16 -11 -26 5 -41 1 -44 -50 -39 -45 4 -50 2 -50 -15 0 -26 40 -28 41 -2 0 14 2 14 9 -3 6 -13 9 -15 9 -5 1 10 4 11 9 4 4 -6 14 -13 22 -16 13 -5 15 -49 15 -317 -1 -212 2 -310 10 -308 6 2 12 130 15 373 l5 369 3 -379 c2 -341 0 -381 -15 -398 -9 -10 -22 -18 -29 -18 -7 0 -36 -5 -64 -11 -49 -10 -51 -12 -31 -26 21 -14 21 -19 21 -517 l0 -504 -130 -7 c-144 -8 -348 2 -367 17 -10 8 -13 120 -13 499 0 476 1 490 20 509 11 11 20 22 20 24 0 3 -21 8 -47 12 -27 3 -63 12 -80 20 l-33 13 0 375 c0 244 4 376 10 376 6 0 10 -130 10 -370 0 -291 3 -368 13 -365 9 4 12 73 11 303 -1 186 2 299 8 303 13 8 61 5 76 -5 17 -11 15 5 -5 26 -15 17 -15 19 3 33 18 14 17 14 -13 15 -17 0 -35 -5 -38 -10 -12 -20 -35 11 -35 46 0 35 1 36 95 47 72 9 65 49 65 -378z m-100 262 c0 -8 -7 -14 -15 -14 -25 0 -17 17 13 26 1 1 2 -5 2 -12z"/>
<path d="M1230 1841 c0 -26 28 -28 46 -3 13 16 13 16 14 0 0 -12 8 -18 23 -19 12 -1 37 -2 54 -4 21 -2 30 1 26 8 -3 5 -1 7 5 3 5 -3 12 -3 15 1 2 5 2 2 1 -4 -5 -18 15 -16 22 1 3 8 12 12 20 9 8 -3 11 -9 8 -14 -3 -5 0 -9 5 -9 15 0 14 30 -1 31 -7 1 -33 2 -58 4 -25 1 -75 5 -112 9 -65 7 -68 7 -68 -13z"/>
<path d="M847 1784 c-4 -4 -5 -10 -2 -14 6 -9 65 0 65 11 0 10 -53 12 -63 3z"/>
<path d="M847 1723 c-4 -3 1 -15 10 -25 13 -14 14 -21 5 -30 -22 -22 -14 -40 16 -36 15 2 26 8 24 13 -2 6 -11 8 -20 7 -14 -3 -14 -2 -2 13 11 13 11 21 2 35 -9 15 -8 19 6 23 11 3 8 5 -9 6 -14 0 -29 -2 -32 -6z"/>
<path d="M936 1541 c-3 -5 1 -11 9 -15 9 -3 15 0 15 9 0 16 -16 20 -24 6z"/>
<path d="M934 1496 c-4 -10 -2 -22 4 -28 8 -8 13 -7 18 6 4 10 2 22 -4 28 -8 8 -13 7 -18 -6z"/>
<path d="M847 1453 c-11 -10 -8 -63 3 -63 6 0 10 12 11 28 l1 27 7 -25 8 -25 5 25 5 25 2 -27 c2 -45 21 -43 21 1 0 38 -2 41 -28 41 -16 0 -32 -3 -35 -7z"/>
<path d="M933 1431 c-1 -12 3 -18 11 -15 16 6 17 34 1 34 -6 0 -11 -9 -12 -19z"/>
<path d="M930 1385 c0 -8 7 -15 15 -15 8 0 15 7 15 15 0 8 -7 15 -15 15 -8 0 -15 -7 -15 -15z"/>
<path d="M931 1346 c-12 -14 -5 -26 16 -26 15 0 18 26 4 34 -5 3 -14 0 -20 -8z m16 -13 c-4 -3 -7 0 -7 7 0 7 3 10 7 7 3 -4 3 -10 0 -14z"/>
<path d="M847 1344 c-10 -11 2 -24 24 -24 14 0 19 -7 19 -25 0 -14 5 -25 11 -25 6 0 9 16 7 38 -3 31 -7 37 -28 40 -14 2 -29 0 -33 -4z"/>
<path d="M933 1285 c0 -8 6 -15 12 -15 6 0 12 7 12 15 0 8 -6 15 -12 15 -6 0 -12 -7 -12 -15z"/>
</g>
<g id="layer112" fill="#83807e" stroke="none">
<path d="M0 1125 l0 -1125 1125 0 1125 0 0 1125 0 1125 -1125 0 -1125 0 0 -1125z m970 480 l0 -385 40 0 c31 0 42 5 51 23 9 16 13 120 13 375 1 303 -1 354 -14 362 -21 13 354 13 403 -1 21 -5 37 -16 37 -24 0 -8 -5 -15 -10 -15 -6 0 -10 -6 -9 -12 4 -34 -1 -37 -51 -33 -45 4 -50 2 -50 -15 0 -26 40 -28 41 -2 0 14 2 14 9 -3 6 -13 9 -15 9 -5 1 10 4 11 9 4 4 -6 13 -13 21 -16 12 -4 15 -53 15 -310 1 -278 6 -347 21 -307 3 8 6 176 8 374 l2 360 3 -379 c2 -341 0 -381 -15 -398 -9 -10 -22 -18 -29 -18 -7 0 -36 -5 -64 -11 -49 -10 -51 -12 -31 -26 21 -14 21 -19 21 -517 l0 -504 -130 -7 c-144 -8 -348 2 -367 17 -10 8 -13 120 -13 499 0 476 1 490 20 509 11 11 20 22 20 24 0 3 -21 8 -47 12 -27 3 -63 12 -80 20 l-33 13 0 375 c0 244 4 376 10 376 6 0 10 -131 10 -372 1 -241 4 -367 10 -357 5 9 10 145 11 307 1 201 5 292 13 295 6 2 28 3 50 1 l39 -3 -19 21 c-14 15 -16 22 -6 25 6 3 12 9 12 14 0 13 -47 11 -55 -1 -12 -20 -35 11 -35 46 0 35 1 36 95 47 72 9 65 49 65 -378z m-100 262 c0 -8 -7 -14 -15 -14 -25 0 -17 17 13 26 1 1 2 -5 2 -12z"/>
<path d="M926 875 c-8 -9 -13 -22 -10 -30 7 -17 20 -19 29 -5 9 14 45 12 45 -2 0 -7 -14 -21 -30 -30 -36 -20 -40 -56 -10 -83 17 -15 27 -17 58 -9 51 13 51 40 0 36 -45 -4 -50 11 -9 32 16 9 32 23 36 33 6 16 8 16 16 -4 11 -29 33 -31 24 -3 -5 16 -2 20 14 20 12 0 21 -6 21 -14 0 -16 18 -31 26 -23 11 10 -19 87 -34 87 -8 0 -12 -6 -8 -15 3 -10 -1 -15 -13 -15 -11 0 -21 9 -24 21 -3 12 -10 18 -15 15 -6 -3 -8 -15 -5 -27 5 -19 4 -19 -20 5 -29 29 -68 34 -91 11z"/>
<path d="M1140 870 c0 -22 29 -80 40 -80 11 0 9 15 -11 68 -9 22 -29 31 -29 12z"/>
<path d="M1190 873 c0 -23 22 -83 30 -83 5 0 16 12 24 28 l14 27 7 -27 c11 -43 28 -34 20 9 -11 62 -26 70 -48 27 l-14 -27 -7 27 c-6 23 -26 38 -26 19z"/>
<path d="M1296 858 c17 -56 25 -68 43 -68 11 0 23 5 26 10 3 6 -3 10 -14 10 -12 0 -21 5 -21 10 0 6 7 10 15 10 24 0 17 20 -7 21 l-23 0 23 9 c32 13 27 20 -14 20 -32 0 -35 -2 -28 -22z"/>
<path d="M1060 769 c0 -6 9 -8 23 -4 21 7 21 6 3 -7 -10 -8 -16 -20 -12 -26 9 -14 46 -16 46 -2 0 5 -8 7 -17 4 -16 -5 -16 -4 1 10 10 8 15 19 11 25 -8 14 -55 14 -55 0z"/>
<path d="M1130 750 c0 -16 5 -30 10 -30 6 0 10 12 10 28 1 26 1 26 15 8 8 -10 16 -24 18 -30 2 -6 7 -8 11 -5 4 3 2 18 -3 33 -8 19 -18 26 -36 26 -21 0 -25 -5 -25 -30z"/>
<path d="M1204 757 c3 -12 6 -25 6 -29 0 -5 11 -8 25 -8 35 0 32 25 -6 44 -31 15 -31 15 -25 -7z m36 -17 c0 -5 -2 -10 -4 -10 -3 0 -8 5 -11 10 -3 6 -1 10 4 10 6 0 11 -4 11 -10z"/>
<path d="M1260 776 c0 -26 23 -56 42 -55 22 0 22 1 3 9 -11 5 -14 9 -7 9 19 1 14 21 -5 22 -15 0 -15 2 2 9 18 8 17 9 -7 9 -16 1 -28 -1 -28 -3z"/>
<path d="M1323 760 c4 -14 7 -28 7 -32 0 -5 9 -8 20 -8 11 0 20 6 19 13 -1 19 -18 54 -18 38 -1 -11 -4 -11 -18 0 -15 13 -16 11 -10 -11z m37 -20 c0 -5 -4 -10 -10 -10 -5 0 -10 5 -10 10 0 6 5 10 10 10 6 0 10 -4 10 -10z"/>
<path d="M930 680 c0 -11 5 -20 10 -20 6 0 10 9 10 20 0 11 -4 20 -10 20 -5 0 -10 -9 -10 -20z"/>
<path d="M960 680 c0 -11 7 -20 15 -20 8 0 15 5 15 10 0 6 -6 10 -12 10 -9 0 -8 4 2 10 13 8 12 10 -2 10 -11 0 -18 -8 -18 -20z"/>
<path d="M1036 692 c-10 -16 10 -28 47 -29 30 -1 37 3 37 18 0 10 -4 19 -10 19 -5 0 -7 -8 -4 -17 5 -15 3 -15 -10 1 -11 14 -16 15 -16 6 0 -11 -3 -11 -12 -2 -14 14 -25 15 -32 4z m21 -19 c-4 -3 -7 0 -7 7 0 7 3 10 7 7 3 -4 3 -10 0 -14z"/>
<path d="M1130 681 c0 -20 35 -32 61 -22 19 8 18 33 -1 38 -12 4 -12 3 -2 -5 11 -7 11 -10 -2 -15 -10 -4 -16 -1 -16 8 0 8 -9 15 -20 15 -13 0 -20 -7 -20 -19z m25 -1 c3 -5 1 -10 -4 -10 -6 0 -11 5 -11 10 0 6 2 10 4 10 3 0 8 -4 11 -10z"/>
<path d="M1219 643 c-37 -6 -70 -44 -76 -91 -11 -80 60 -176 140 -189 29 -4 40 -1 61 20 22 23 26 35 26 89 0 115 -61 184 -151 171z m86 -57 c22 -22 45 -81 45 -118 0 -31 -22 -66 -46 -72 -56 -14 -124 59 -124 133 0 27 6 51 17 63 24 26 78 24 108 -6z"/>
<path d="M951 614 c-13 -17 -21 -41 -21 -67 0 -130 88 -213 184 -173 34 14 43 26 30 38 -3 3 -18 -1 -35 -9 -51 -25 -105 0 -138 64 -16 32 -14 36 11 19 53 -37 131 -5 140 56 4 27 0 38 -27 65 -28 28 -40 33 -78 33 -37 0 -49 -5 -66 -26z m113 -15 c52 -41 28 -99 -42 -99 -61 0 -85 81 -32 107 34 17 43 16 74 -8z"/>
</g>
<g id="layer113" fill="#568bb3" stroke="none">
<path d="M0 1125 l0 -1125 1125 0 1125 0 0 1125 0 1125 -1125 0 -1125 0 0 -1125z m1427 930 c1 -33 0 -35 -5 -12 -4 16 -18 35 -32 43 l-25 14 30 -2 c28 -3 30 -6 32 -43z m-504 28 c-7 -2 -19 -2 -25 0 -7 3 -2 5 12 5 14 0 19 -2 13 -5z m46 -20 c0 -25 -1 -26 -9 -8 -12 27 -12 35 0 35 6 0 10 -12 9 -27z m492 -83 c23 -6 39 -17 39 -25 0 -8 -5 -15 -10 -15 -6 0 -10 -6 -9 -12 4 -34 -1 -37 -51 -33 -45 4 -50 2 -50 -15 0 -26 40 -28 41 -2 0 14 2 14 9 -3 6 -13 9 -15 9 -5 1 10 4 11 9 4 4 -6 13 -13 21 -16 12 -4 15 -53 15 -310 1 -278 6 -347 21 -307 3 8 6 176 8 374 l2 360 3 -381 c2 -431 7 -405 -78 -419 -63 -10 -75 -18 -56 -34 14 -12 16 -72 16 -516 l0 -503 -126 -7 c-117 -7 -326 0 -366 11 -17 5 -18 37 -18 500 0 481 1 495 20 514 11 11 20 22 20 24 0 3 -21 8 -47 12 -27 3 -63 12 -80 20 l-33 13 0 375 c0 244 4 376 10 376 6 0 10 -131 10 -372 1 -241 4 -367 10 -357 5 9 10 145 11 307 1 201 5 292 13 295 6 2 28 3 50 1 l39 -3 -19 21 c-14 15 -16 22 -6 25 6 3 12 9 12 14 0 13 -47 11 -55 -1 -12 -20 -35 11 -35 46 0 36 -4 34 113 49 l47 6 0 -385 0 -386 40 0 c31 0 42 5 51 23 9 16 13 120 13 375 1 303 -1 354 -14 362 -10 6 46 10 162 10 127 0 179 3 184 12 6 9 9 9 12 0 2 -6 21 -16 43 -22z m-591 -113 c0 -8 -7 -14 -15 -14 -25 0 -17 17 13 26 1 1 2 -5 2 -12z"/>
<path d="M1300 1877 c0 -15 3 -16 21 -6 15 8 19 8 15 0 -4 -6 -1 -11 6 -11 8 0 14 8 15 19 1 14 -5 18 -28 17 -21 0 -29 -6 -29 -19z"/>
<path d="M1291 1838 c-1 -14 7 -18 38 -18 22 0 47 -3 57 -7 13 -5 15 -3 9 7 -5 8 -4 11 3 6 5 -3 12 -3 15 1 2 5 2 2 1 -4 -5 -18 15 -16 22 1 3 8 12 12 20 9 8 -3 11 -9 8 -14 -3 -5 0 -9 5 -9 15 0 14 30 -1 31 -84 7 -144 7 -154 -2 -8 -7 -14 -6 -17 3 -4 8 -6 7 -6 -4z"/>
<path d="M1410 1786 c0 -22 16 -28 30 -11 14 17 30 20 30 4 0 -5 -4 -8 -9 -4 -5 3 -12 1 -16 -5 -3 -5 3 -10 14 -10 14 0 21 6 21 20 0 16 -7 20 -35 20 -24 0 -35 -5 -35 -14z"/>
<path d="M861 1591 c-21 -6 -22 -8 -7 -20 20 -17 20 -30 -1 -53 -15 -17 -14 -18 20 -18 21 0 37 5 37 10 0 6 -10 10 -21 10 -18 0 -19 2 -9 15 10 12 10 18 0 30 -10 12 -10 15 4 15 9 0 16 5 16 10 0 11 -4 11 -39 1z"/>
<path d="M849 1458 c-7 -34 -7 -68 1 -68 6 0 10 12 11 28 l1 27 7 -25 8 -25 5 25 c4 24 5 23 16 -10 l11 -35 -2 40 c-2 36 -5 40 -29 43 -16 2 -28 2 -29 0z"/>
<path d="M930 1446 c0 -2 6 -9 13 -15 10 -8 14 -7 14 4 0 8 -6 15 -14 15 -7 0 -13 -2 -13 -4z"/>
<path d="M939 1391 c11 -7 11 -9 0 -14 -10 -4 -9 -6 4 -6 9 -1 17 6 17 14 0 8 -8 15 -17 15 -14 0 -15 -2 -4 -9z"/>
<path d="M847 1344 c-11 -12 3 -24 28 -24 18 0 25 -6 28 -27 3 -17 4 -12 3 12 -1 35 -4 40 -26 43 -14 2 -29 0 -33 -4z"/>
<path d="M936 1285 c4 -8 9 -15 13 -15 4 0 8 7 8 15 0 8 -6 15 -13 15 -8 0 -11 -6 -8 -15z"/>
</g>
<g id="layer114" fill="#7199b9" stroke="none">
<path d="M0 1125 l0 -1125 1125 0 1125 0 0 1125 0 1125 -1125 0 -1125 0 0 -1125z m1427 930 c1 -33 0 -35 -5 -12 -4 16 -18 35 -32 43 l-25 14 30 -2 c28 -3 30 -6 32 -43z m-504 28 c-7 -2 -19 -2 -25 0 -7 3 -2 5 12 5 14 0 19 -2 13 -5z m46 -20 c0 -25 -1 -26 -9 -8 -12 27 -12 35 0 35 6 0 10 -12 9 -27z m511 -88 l40 -7 0 -377 c0 -427 5 -402 -80 -416 -63 -10 -75 -18 -56 -34 14 -12 16 -72 16 -516 l0 -503 -126 -7 c-117 -7 -326 0 -366 11 -17 5 -18 37 -18 500 0 481 1 495 20 514 11 11 20 22 20 24 0 3 -21 8 -47 12 -27 3 -63 12 -80 20 l-33 13 0 375 c0 244 4 376 10 376 6 0 10 -130 11 -367 0 -238 4 -360 10 -345 5 13 8 148 6 306 -2 243 0 283 13 282 20 -1 26 35 8 48 -8 6 -17 28 -21 48 -6 42 -11 39 111 53 l52 6 0 -381 0 -380 29 0 c16 0 34 6 40 14 8 10 12 118 13 370 2 304 0 359 -12 366 -10 6 53 10 172 10 115 0 189 4 193 10 4 6 12 5 20 -4 8 -8 33 -17 55 -21z"/>
<path d="M1490 1918 c0 -16 5 -28 10 -28 13 0 13 20 0 40 -8 12 -10 9 -10 -12z"/>
<path d="M850 1890 c0 -5 5 -10 10 -10 6 0 10 -7 10 -15 0 -8 -4 -15 -10 -15 -5 0 -10 -4 -10 -9 0 -5 14 -9 30 -9 30 1 30 2 13 21 -13 15 -15 21 -5 24 21 8 13 23 -13 23 -14 0 -25 -4 -25 -10z"/>
<path d="M1340 1880 c0 -11 4 -20 8 -20 4 0 8 9 9 20 1 11 -2 20 -8 20 -5 0 -9 -9 -9 -20z"/>
<path d="M1380 1880 c0 -11 5 -20 10 -20 6 0 10 6 10 13 0 8 4 7 10 -3 8 -12 10 -12 11 5 l0 20 9 -20 c6 -13 9 -15 9 -5 1 13 2 13 11 0 7 -12 12 -12 21 -3 17 17 11 21 -44 27 -42 5 -47 4 -47 -14z"/>
<path d="M1492 1825 c0 -30 4 -53 8 -50 11 7 11 105 1 105 -5 0 -8 -25 -9 -55z"/>
<path d="M1230 1839 c0 -23 35 -26 44 -3 3 9 6 16 6 17 0 1 -11 3 -25 3 -18 2 -25 -3 -25 -17z"/>
<path d="M1291 1838 c-1 -12 10 -17 49 -20 35 -2 50 1 50 9 0 18 -50 28 -71 15 -13 -8 -19 -8 -22 1 -3 7 -6 5 -6 -5z"/>
<path d="M1404 1838 c-6 -10 4 -28 16 -28 5 0 14 8 19 18 8 14 6 18 -11 18 -10 0 -22 -4 -24 -8z m13 -15 c-4 -3 -7 0 -7 7 0 7 3 10 7 7 3 -4 3 -10 0 -14z"/>
<path d="M1416 1792 c-2 -4 -1 -14 3 -20 6 -10 11 -9 21 3 14 17 30 20 30 4 0 -5 -4 -8 -9 -4 -5 3 -12 1 -16 -5 -3 -5 3 -10 14 -10 14 0 21 6 21 20 0 15 -7 20 -29 20 -17 0 -32 -4 -35 -8z"/>
<path d="M845 1780 c-4 -6 7 -10 24 -10 17 0 31 5 31 10 0 6 -11 10 -24 10 -14 0 -28 -4 -31 -10z"/>
<path d="M850 1717 c0 -7 6 -19 12 -25 10 -10 10 -17 0 -32 -6 -11 -12 -22 -12 -25 0 -9 49 -5 55 5 3 6 -4 10 -16 10 -18 0 -20 2 -8 16 10 12 10 20 1 34 -9 15 -8 19 6 23 10 3 6 5 -10 6 -17 1 -28 -4 -28 -12z"/>
<path d="M1503 1640 c0 -30 2 -43 4 -27 2 15 2 39 0 55 -2 15 -4 2 -4 -28z"/>
<path d="M850 1582 c0 -4 6 -14 12 -20 10 -10 10 -17 0 -32 -17 -27 -16 -30 13 -30 14 0 25 5 25 10 0 6 -7 10 -16 10 -14 0 -14 3 -4 15 10 12 10 18 1 29 -10 11 -8 15 6 19 12 3 8 5 -9 6 -16 0 -28 -3 -28 -7z"/>
<path d="M950 1530 c0 -7 3 -10 7 -7 3 4 3 10 0 14 -4 3 -7 0 -7 -7z"/>
<path d="M1503 1480 c0 -30 2 -43 4 -27 2 15 2 39 0 55 -2 15 -4 2 -4 -28z"/>
<path d="M936 1468 c3 -5 10 -6 15 -3 13 9 11 12 -6 12 -8 0 -12 -4 -9 -9z"/>
<path d="M850 1445 c0 -9 4 -14 9 -10 5 3 12 -3 14 -12 4 -17 5 -17 6 0 2 30 20 19 24 -15 4 -27 4 -25 3 7 -1 36 -4 40 -28 43 -21 2 -28 -1 -28 -13z"/>
<path d="M930 1446 c0 -2 8 -10 18 -17 15 -13 16 -12 3 4 -13 16 -21 21 -21 13z"/>
<path d="M1503 1325 c0 -27 2 -38 4 -22 2 15 2 37 0 50 -2 12 -4 0 -4 -28z"/>
<path d="M845 1341 c-6 -11 -3 -13 30 -15 13 -1 22 -11 27 -31 6 -26 6 -25 5 10 -2 35 -5 40 -29 43 -14 2 -29 -2 -33 -7z"/>
<path d="M936 1285 c4 -8 10 -15 15 -15 4 0 6 7 3 15 -4 8 -10 15 -15 15 -4 0 -6 -7 -3 -15z"/>
<path d="M1495 1260 c3 -5 8 -10 11 -10 2 0 4 5 4 10 0 6 -5 10 -11 10 -5 0 -7 -4 -4 -10z"/>
</g>
<g id="layer115" fill="#6fa1c9" stroke="none">
<path d="M0 1125 l0 -1125 1125 0 1125 0 0 1125 0 1125 -1125 0 -1125 0 0 -1125z m1427 930 c1 -33 0 -35 -5 -12 -4 16 -18 35 -32 43 l-25 14 30 -2 c28 -3 30 -6 32 -43z m-504 28 c-7 -2 -19 -2 -25 0 -7 3 -2 5 12 5 14 0 19 -2 13 -5z m46 -20 c0 -25 -1 -26 -9 -8 -12 27 -12 35 0 35 6 0 10 -12 9 -27z m510 -87 l41 -6 0 -379 c0 -424 4 -403 -75 -416 -75 -13 -79 -14 -61 -34 14 -16 16 -77 16 -518 l0 -501 -126 -7 c-117 -7 -326 0 -366 11 -17 5 -18 37 -18 500 0 487 0 494 21 515 11 11 19 22 17 23 -2 2 -34 9 -73 17 -57 11 -72 19 -82 39 -15 29 -17 218 -6 538 l6 202 36 10 c20 5 65 12 101 16 l65 6 -2 -375 c-2 -207 1 -378 5 -381 5 -3 18 1 29 9 19 14 20 27 25 337 5 321 1 383 -24 399 -14 9 119 13 288 9 66 -1 104 2 108 9 5 8 11 7 21 -3 7 -7 32 -16 54 -20z"/>
<path d="M792 1920 c0 -19 2 -27 5 -17 2 9 2 25 0 35 -3 9 -5 1 -5 -18z"/>
<path d="M850 1890 c0 -5 5 -10 10 -10 6 0 10 -7 10 -15 0 -8 -4 -15 -10 -15 -5 0 -10 -4 -10 -9 0 -5 11 -8 25 -7 28 1 31 6 13 25 -10 11 -10 14 0 18 21 8 13 23 -13 23 -14 0 -25 -4 -25 -10z"/>
<path d="M1300 1885 c0 -6 7 -12 15 -12 8 0 15 6 15 12 0 6 -7 12 -15 12 -8 0 -15 -6 -15 -12z"/>
<path d="M1340 1880 c0 -11 4 -20 8 -20 4 0 8 9 8 20 0 11 -4 20 -8 20 -4 0 -8 -9 -8 -20z"/>
<path d="M1380 1879 c0 -10 5 -19 11 -19 6 0 8 7 5 16 -5 14 -4 15 9 4 12 -10 15 -10 16 1 0 8 4 5 8 -5 7 -18 8 -18 14 -3 3 9 3 17 -1 18 -4 0 -19 2 -34 4 -22 3 -28 0 -28 -16z"/>
<path d="M1457 1883 c-10 -9 -9 -23 2 -23 5 0 11 7 15 15 5 15 -5 20 -17 8z"/>
<path d="M790 1870 c0 -7 3 -10 7 -7 3 4 3 10 0 14 -4 3 -7 0 -7 -7z"/>
<path d="M1230 1840 c0 -13 7 -20 20 -20 12 0 20 7 20 16 0 10 -5 14 -16 10 -8 -3 -12 -2 -9 4 3 6 1 10 -4 10 -6 0 -11 -9 -11 -20z"/>
<path d="M794 1545 c0 -170 2 -242 3 -158 2 83 2 223 0 310 -1 87 -3 19 -3 -152z"/>
<path d="M1291 1834 c0 -11 3 -14 6 -6 3 7 2 16 -1 19 -3 4 -6 -2 -5 -13z"/>
<path d="M1340 1834 c0 -16 2 -17 10 -4 5 8 10 10 10 4 0 -7 6 -14 13 -17 8 -3 14 1 14 9 0 8 -4 14 -8 14 -4 0 -14 3 -23 6 -11 4 -16 0 -16 -12z"/>
<path d="M1405 1840 c-4 -6 -3 -16 3 -22 6 -6 12 -6 17 2 4 6 3 16 -3 22 -6 6 -12 6 -17 -2z m12 -17 c-4 -3 -7 0 -7 7 0 7 3 10 7 7 3 -4 3 -10 0 -14z"/>
<path d="M1463 1825 c0 -8 4 -15 9 -15 4 0 8 7 8 15 0 8 -4 15 -8 15 -5 0 -9 -7 -9 -15z"/>
<path d="M1416 1792 c-8 -14 8 -27 37 -29 20 -2 27 3 27 15 0 10 -3 13 -8 7 -9 -13 -32 -17 -32 -6 0 5 6 12 13 14 6 3 2 6 -10 6 -12 1 -24 -3 -27 -7z"/>
<path d="M850 1723 c1 -5 7 -19 14 -32 9 -16 16 -20 20 -12 4 7 3 18 -4 26 -9 10 -7 14 7 18 12 3 8 5 -9 6 -16 0 -28 -2 -28 -6z"/>
<path d="M855 1652 c-3 -3 -5 -9 -5 -14 0 -11 47 -10 54 1 6 9 -40 22 -49 13z"/>
<path d="M850 1582 c0 -4 6 -14 12 -20 10 -10 10 -17 0 -32 -17 -27 -16 -30 13 -30 14 0 25 5 25 10 0 6 -7 10 -16 10 -14 0 -14 3 -4 15 10 11 10 18 1 29 -9 11 -9 15 1 19 7 3 3 6 -9 6 -13 1 -23 -3 -23 -7z"/>
<path d="M850 1450 c0 -5 4 -10 9 -10 5 0 12 -8 14 -17 4 -17 5 -17 6 0 2 31 21 18 22 -15 1 -19 3 -25 6 -15 9 36 -6 67 -32 67 -14 0 -25 -4 -25 -10z"/>
<path d="M865 1340 c-19 -8 -19 -9 3 -9 14 -1 26 -10 32 -23 10 -26 13 -14 4 20 -7 24 -9 25 -39 12z"/>
<path d="M930 1296 c0 -2 8 -10 18 -17 15 -13 16 -12 3 4 -13 16 -21 21 -21 13z"/>
</g>
<g id="layer116" fill="#a1a3a5" stroke="none">
<path d="M0 1125 l0 -1125 1125 0 1125 0 0 1125 0 1125 -1125 0 -1125 0 0 -1125z m1427 930 c1 -33 0 -35 -5 -12 -4 16 -18 35 -32 43 l-25 14 30 -2 c28 -3 30 -6 32 -43z m-504 28 c-7 -2 -19 -2 -25 0 -7 3 -2 5 12 5 14 0 19 -2 13 -5z m46 -20 c0 -25 -1 -26 -9 -8 -12 27 -12 35 0 35 6 0 10 -12 9 -27z m510 -87 l41 -6 0 -379 c0 -424 4 -403 -75 -416 -75 -13 -79 -14 -61 -34 14 -16 16 -77 16 -518 l0 -501 -126 -7 c-117 -7 -326 0 -366 11 -17 5 -18 37 -18 500 0 487 0 494 21 515 11 11 19 22 17 23 -2 2 -34 9 -73 17 -56 11 -72 19 -83 39 -11 20 -12 95 -8 380 3 195 6 356 6 357 1 5 73 22 117 27 28 4 155 7 282 7 131 0 233 5 237 10 3 5 11 3 19 -5 7 -7 32 -16 54 -20z"/>
<path d="M863 1722 c-8 -5 -8 -13 1 -31 9 -16 16 -20 20 -12 4 7 3 18 -4 26 -9 10 -7 14 7 18 12 3 13 5 3 6 -8 0 -20 -3 -27 -7z"/>
<path d="M939 876 c-31 -16 -20 -32 19 -28 23 3 32 0 32 -12 0 -8 -9 -18 -20 -21 -49 -15 -47 -88 3 -100 26 -7 77 9 77 24 0 17 -19 22 -41 10 -17 -9 -24 -8 -36 4 -13 12 -10 17 21 35 26 15 36 28 36 45 0 40 -50 64 -91 43z"/>
<path d="M1045 838 c7 -24 16 -41 21 -38 5 2 8 10 6 17 -5 22 35 14 41 -8 3 -12 10 -18 15 -15 13 8 -9 86 -25 86 -7 0 -10 -7 -7 -15 4 -10 0 -15 -14 -15 -11 0 -22 7 -26 15 -3 8 -10 15 -15 15 -5 0 -3 -19 4 -42z"/>
<path d="M1145 859 c16 -51 28 -74 32 -62 7 18 -12 76 -26 81 -10 3 -11 -2 -6 -19z"/>
<path d="M1190 871 c0 -4 5 -22 11 -40 14 -38 36 -40 46 -3 l6 27 15 -35 c18 -43 28 -23 12 25 -14 42 -25 44 -44 8 l-14 -28 -7 28 c-7 25 -25 39 -25 18z"/>
<path d="M1294 864 c3 -9 9 -27 12 -40 5 -19 12 -24 38 -23 23 1 25 3 9 6 -26 5 -31 23 -8 23 8 0 15 5 15 10 0 6 -9 10 -20 10 -25 0 -26 17 -2 23 9 3 2 5 -17 6 -26 1 -32 -2 -27 -15z"/>
<path d="M1080 771 c23 -7 24 -8 6 -18 -23 -13 -13 -33 17 -32 20 0 21 1 3 8 -14 5 -16 10 -8 15 23 14 13 36 -15 35 l-28 -1 25 -7z"/>
<path d="M1130 756 c0 -14 5 -28 11 -32 7 -4 9 2 7 16 -4 32 20 37 28 6 3 -14 10 -26 15 -26 4 0 3 14 -2 30 -8 22 -17 30 -35 30 -19 0 -24 -5 -24 -24z"/>
<path d="M1204 757 c3 -12 6 -26 6 -30 0 -13 43 -4 47 10 2 6 -10 18 -28 27 -31 15 -31 15 -25 -7z m36 -17 c0 -5 -4 -10 -10 -10 -5 0 -10 5 -10 10 0 6 5 10 10 10 6 0 10 -4 10 -10z"/>
<path d="M1269 753 c5 -20 15 -29 32 -30 22 -2 22 -2 4 6 -14 7 -15 10 -5 11 12 0 11 3 -3 14 -18 14 -18 14 0 19 12 3 10 5 -9 6 -24 1 -26 -1 -19 -26z"/>
<path d="M1324 767 c3 -10 6 -25 6 -33 0 -8 10 -14 21 -14 17 0 20 4 15 23 -3 12 -6 27 -6 32 0 6 -5 3 -10 -5 -9 -13 -11 -13 -21 0 -9 13 -10 12 -5 -3z m36 -27 c0 -5 -4 -10 -10 -10 -5 0 -10 5 -10 10 0 6 5 10 10 10 6 0 10 -4 10 -10z"/>
<path d="M1038 694 c-11 -10 3 -34 19 -34 8 0 13 7 11 17 -3 18 -20 27 -30 17z m19 -21 c-4 -3 -7 0 -7 7 0 7 3 10 7 7 3 -4 3 -10 0 -14z"/>
<path d="M1134 689 c-11 -19 15 -33 58 -30 17 1 19 24 3 38 -4 4 -6 4 -3 -2 3 -5 0 -16 -8 -23 -12 -11 -14 -9 -14 8 0 21 -24 28 -36 9z m26 -9 c0 -5 -4 -10 -10 -10 -5 0 -10 5 -10 10 0 6 5 10 10 10 6 0 10 -4 10 -10z"/>
<path d="M941 674 c0 -11 3 -14 6 -6 3 7 2 16 -1 19 -3 4 -6 -2 -5 -13z"/>
<path d="M960 680 c0 -7 3 -10 7 -7 3 4 3 10 0 14 -4 3 -7 0 -7 -7z"/>
<path d="M980 670 c0 -7 3 -10 7 -7 3 4 3 10 0 14 -4 3 -7 0 -7 -7z"/>
<path d="M1000 670 c0 -7 3 -10 7 -7 3 4 3 10 0 14 -4 3 -7 0 -7 -7z"/>
<path d="M962 627 c-38 -46 -37 -141 2 -199 11 -18 39 -41 60 -52 32 -16 44 -17 77 -7 40 12 54 25 44 40 -3 6 -17 4 -33 -5 -15 -7 -35 -14 -45 -14 -33 0 -74 29 -91 64 -21 45 -20 50 6 32 53 -37 131 -5 140 56 4 27 0 38 -27 65 -27 27 -41 33 -78 33 -24 0 -49 -6 -55 -13z m102 -28 c32 -25 36 -73 7 -89 -50 -26 -111 0 -111 48 0 57 56 79 104 41z"/>
<path d="M1175 617 c-75 -64 -12 -225 98 -252 78 -20 120 72 85 187 -24 82 -123 117 -183 65z m106 -13 c60 -30 90 -153 49 -194 -24 -24 -41 -25 -80 -5 -41 21 -70 74 -70 127 0 50 19 74 68 87 2 1 17 -6 33 -15z"/>
</g>
<g id="layer117" fill="#8faace" stroke="none">
<path d="M0 1125 l0 -1125 1125 0 1125 0 0 1125 0 1125 -1125 0 -1125 0 0 -1125z m1290 1024 c0 -6 9 -8 20 -4 21 7 28 -10 8 -18 -7 -3 16 -6 52 -7 59 -2 143 -16 112 -19 -7 0 -10 -6 -7 -12 4 -6 -1 -16 -10 -23 -10 -7 -19 -27 -20 -44 -2 -29 1 -33 36 -44 l39 -11 0 -377 c0 -430 7 -399 -93 -420 -51 -10 -55 -13 -42 -26 8 -9 15 -34 15 -57 2 -305 -2 -962 -6 -966 -8 -9 -446 -7 -476 2 l-28 7 0 500 0 499 22 15 c25 18 23 19 -67 38 -46 10 -63 19 -73 38 -11 20 -12 96 -8 380 3 195 6 356 6 357 1 5 68 23 89 24 25 0 25 1 5 11 -16 8 -21 18 -20 51 1 23 6 47 11 53 13 13 193 34 305 35 l85 1 -45 13 -45 13 68 1 c41 1 67 -3 67 -10z"/>
<path d="M1128 2103 l-158 -4 0 -54 0 -55 195 1 195 1 0 59 0 59 -37 -2 c-21 -1 -109 -4 -195 -5z"/>
<path d="M978 1728 c-4 -378 0 -488 17 -488 26 0 30 50 30 370 0 320 -4 370 -30 370 -12 0 -15 -40 -17 -252z"/>
<path d="M820 1880 c13 -9 13 -10 0 -10 -13 0 -13 -1 0 -10 10 -6 11 -10 3 -10 -7 0 -13 -5 -13 -12 0 -8 6 -6 16 4 18 18 13 48 -8 48 -9 0 -8 -3 2 -10z"/>
<path d="M1380 1875 c0 -8 4 -15 10 -15 5 0 7 7 4 15 -4 8 -8 15 -10 15 -2 0 -4 -7 -4 -15z"/>
<path d="M863 1854 c-18 -19 -16 -22 12 -20 28 1 31 8 13 24 -9 7 -17 6 -25 -4z"/>
<path d="M1463 1813 c4 -3 10 -3 14 0 3 4 0 7 -7 7 -7 0 -10 -3 -7 -7z"/>
<path d="M1420 1784 c0 -16 28 -26 36 -12 4 7 3 8 -4 4 -7 -4 -12 -3 -12 3 0 5 6 11 13 14 6 3 2 4 -10 4 -13 -1 -23 -7 -23 -13z"/>
<path d="M850 1583 c0 -3 7 -14 15 -23 14 -15 14 -18 0 -30 -22 -18 -18 -30 10 -30 14 0 25 5 25 10 0 6 -7 10 -16 10 -14 0 -14 3 -4 15 9 11 10 18 1 28 -6 8 -8 17 -4 20 3 4 -1 7 -10 7 -9 0 -17 -3 -17 -7z"/>
</g>
<g id="layer118" fill="#a6bcd0" stroke="none">
<path d="M0 1125 l0 -1125 1125 0 1125 0 0 1125 0 1125 -1125 0 -1125 0 0 -1125z m1290 1024 c0 -6 9 -8 20 -4 21 7 28 -10 8 -18 -7 -3 16 -6 52 -7 59 -2 143 -16 112 -19 -7 0 -10 -6 -7 -12 4 -6 -1 -16 -10 -23 -10 -7 -19 -27 -20 -44 -2 -29 1 -33 36 -44 l39 -11 0 -383 c0 -435 10 -393 -93 -414 -51 -10 -55 -13 -42 -26 8 -9 15 -34 15 -57 2 -305 -2 -962 -6 -966 -8 -9 -446 -7 -476 2 l-28 7 0 500 0 499 22 15 c25 18 23 19 -67 38 -46 10 -62 19 -72 38 -10 19 -13 109 -12 381 l1 357 38 11 c20 6 48 11 61 12 23 0 24 1 3 11 -16 8 -21 18 -20 51 1 23 6 47 11 53 13 13 193 34 305 35 l85 1 -45 13 -45 13 68 1 c41 1 67 -3 67 -10z"/>
<path d="M1128 2103 l-158 -4 0 -54 0 -54 195 1 195 1 0 58 0 59 -37 -2 c-21 -1 -109 -4 -195 -5z"/>
<path d="M850 1890 c0 -5 11 -10 25 -10 14 0 25 5 25 10 0 6 -11 10 -25 10 -14 0 -25 -4 -25 -10z"/>
<path d="M1300 1886 c0 -7 7 -13 15 -13 8 0 15 4 15 8 0 4 -7 9 -15 13 -9 3 -15 0 -15 -8z"/>
<path d="M1340 1885 c0 -8 2 -15 4 -15 2 0 6 7 10 15 3 8 1 15 -4 15 -6 0 -10 -7 -10 -15z"/>
<path d="M819 1881 c11 -7 11 -9 0 -14 -11 -4 -11 -6 -1 -6 8 -1 10 -6 6 -13 -5 -10 -4 -10 6 -1 15 14 7 43 -12 43 -10 0 -10 -2 1 -9z"/>
<path d="M1380 1881 c0 -6 4 -13 10 -16 6 -3 7 1 4 9 -7 18 -14 21 -14 7z"/>
<path d="M870 1856 c0 -10 -4 -14 -10 -11 -5 3 -10 2 -10 -3 0 -6 11 -9 25 -8 29 1 31 8 10 26 -12 10 -15 9 -15 -4z"/>
<path d="M1255 1841 c-3 -5 -1 -12 5 -16 5 -3 10 1 10 9 0 18 -6 21 -15 7z"/>
<path d="M1317 1843 c-4 -3 -7 -11 -7 -17 0 -6 5 -5 12 2 6 6 9 14 7 17 -3 3 -9 2 -12 -2z"/>
<path d="M1341 1834 c0 -11 3 -14 6 -6 3 7 2 16 -1 19 -3 4 -6 -2 -5 -13z"/>
<path d="M1360 1830 c0 -7 3 -10 7 -7 3 4 3 10 0 14 -4 3 -7 0 -7 -7z"/>
<path d="M1420 1831 c0 -7 -5 -9 -12 -5 -7 5 -8 3 -3 -5 5 -9 10 -10 18 -2 6 6 8 14 4 18 -4 3 -7 1 -7 -6z"/>
<path d="M1420 1783 c0 -17 8 -16 26 1 12 13 12 15 -6 13 -11 -1 -20 -7 -20 -14z"/>
<path d="M850 1780 c0 -5 11 -10 25 -10 14 0 25 5 25 10 0 6 -11 10 -25 10 -14 0 -25 -4 -25 -10z"/>
<path d="M863 1722 c-10 -7 -10 -12 1 -28 8 -10 18 -16 22 -12 4 4 1 14 -5 22 -10 11 -8 15 6 19 12 3 13 5 3 6 -8 0 -21 -3 -27 -7z"/>
<path d="M854 1648 c-9 -14 -2 -16 26 -8 25 6 25 6 3 12 -13 3 -26 2 -29 -4z"/>
<path d="M850 1581 c0 -5 7 -14 15 -21 8 -7 12 -17 8 -24 -4 -8 -3 -8 6 0 10 9 10 16 -1 33 -13 21 -28 28 -28 12z"/>
</g>
<g id="layer119" fill="#b5c8d0" stroke="none">
<path d="M0 1125 l0 -1125 1125 0 1125 0 0 1125 0 1125 -1125 0 -1125 0 0 -1125z m1290 1024 c0 -6 9 -8 20 -4 21 7 28 -10 8 -18 -7 -3 16 -6 52 -7 59 -2 143 -16 112 -19 -7 0 -10 -6 -7 -12 4 -6 -1 -16 -10 -23 -10 -7 -19 -27 -20 -44 -2 -29 1 -33 36 -43 l39 -12 2 -361 c2 -199 0 -372 -3 -386 -6 -26 -41 -43 -112 -55 -33 -5 -36 -8 -22 -21 8 -9 15 -33 15 -57 2 -305 -2 -962 -6 -966 -8 -9 -446 -7 -476 2 l-28 7 0 500 0 499 22 15 c24 17 24 17 -64 36 -92 18 -88 -1 -88 416 l0 362 31 11 c18 6 46 11 63 12 28 0 29 1 10 11 -16 8 -21 18 -20 51 1 23 6 47 11 53 13 13 193 34 305 35 l85 1 -45 13 -45 13 68 1 c41 1 67 -3 67 -10z"/>
<path d="M1128 2103 l-158 -4 0 -53 0 -53 195 1 195 1 0 58 0 57 -37 -2 c-21 -1 -109 -4 -195 -5z"/>
<path d="M1340 1889 c0 -5 5 -7 10 -4 6 3 10 8 10 11 0 2 -4 4 -10 4 -5 0 -10 -5 -10 -11z"/>
<path d="M824 1882 c3 -5 0 -13 -6 -15 -10 -4 -10 -6 0 -6 7 -1 10 -6 6 -13 -4 -7 -3 -8 4 -4 15 9 15 33 0 42 -6 4 -8 3 -4 -4z"/>
<path d="M1300 1880 c0 -7 3 -10 7 -7 3 4 3 10 0 14 -4 3 -7 0 -7 -7z"/>
<path d="M880 1845 c7 -9 15 -13 17 -11 7 7 -7 26 -19 26 -6 0 -6 -6 2 -15z"/>
<path d="M1231 1834 c0 -11 3 -14 6 -6 3 7 2 16 -1 19 -3 4 -6 -2 -5 -13z"/>
<path d="M1290 1840 c0 -7 3 -10 7 -7 3 4 3 10 0 14 -4 3 -7 0 -7 -7z"/>
<path d="M1416 1823 c-6 -14 -5 -15 5 -6 7 7 10 15 7 18 -3 3 -9 -2 -12 -12z"/>
<path d="M883 1723 c4 -3 10 -3 14 0 3 4 0 7 -7 7 -7 0 -10 -3 -7 -7z"/>
<path d="M862 1700 c13 -20 28 -27 28 -12 0 10 -22 32 -32 32 -5 0 -3 -9 4 -20z"/>
<path d="M850 1582 c0 -5 9 -17 20 -27 22 -20 26 -9 6 18 -14 18 -26 22 -26 9z"/>
<path d="M850 1450 c0 -5 11 -10 25 -10 14 0 25 5 25 10 0 6 -11 10 -25 10 -14 0 -25 -4 -25 -10z"/>
<path d="M1083 771 c17 -6 17 -8 3 -20 -20 -17 -12 -31 17 -30 18 1 19 2 4 6 -14 4 -16 8 -7 18 14 17 5 35 -18 34 -15 0 -15 -1 1 -8z"/>
<path d="M1160 690 c0 -7 3 -10 7 -7 3 4 3 10 0 14 -4 3 -7 0 -7 -7z"/>
</g>
<g id="layer120" fill="#e0e1e1" stroke="none">
<path d="M0 1125 l0 -1125 1125 0 1125 0 0 1125 0 1125 -1125 0 -1125 0 0 -1125z m1290 1024 c0 -6 9 -8 20 -4 21 7 28 -10 8 -18 -7 -3 16 -6 52 -7 59 -2 143 -16 112 -19 -7 0 -10 -6 -7 -12 4 -6 -1 -16 -10 -23 -10 -7 -19 -26 -20 -43 -2 -27 1 -32 35 -42 21 -6 41 -18 44 -27 3 -8 5 -179 3 -380 -2 -418 6 -385 -98 -405 -51 -10 -56 -13 -44 -26 8 -8 15 -33 15 -56 2 -305 -2 -962 -6 -966 -8 -9 -446 -7 -476 2 l-28 7 0 499 c0 429 2 500 15 511 22 18 11 27 -41 35 -63 9 -91 23 -98 49 -3 11 -6 182 -6 379 l0 357 43 12 44 11 -1 51 c-1 28 4 56 10 62 13 15 73 22 249 31 134 6 138 7 95 19 l-45 12 68 1 c41 1 67 -3 67 -10z"/>
<path d="M1128 2103 l-158 -4 0 -52 0 -53 195 0 195 1 0 58 0 57 -37 -2 c-21 -1 -109 -4 -195 -5z"/>
<path d="M850 1890 c0 -13 20 -13 40 0 12 8 9 10 -12 10 -16 0 -28 -4 -28 -10z"/>
<path d="M880 1851 c0 -5 5 -13 10 -16 6 -3 10 -2 10 4 0 5 -4 13 -10 16 -5 3 -10 2 -10 -4z"/>
<path d="M853 1833 c4 -3 10 -3 14 0 3 4 0 7 -7 7 -7 0 -10 -3 -7 -7z"/>
<path d="M865 1780 c-18 -8 -17 -9 8 -9 15 -1 27 4 27 9 0 12 -8 12 -35 0z"/>
<path d="M865 1570 c10 -11 20 -20 22 -20 2 0 -2 9 -9 20 -7 11 -17 20 -22 20 -5 0 -1 -9 9 -20z"/>
<path d="M850 1510 c0 -5 11 -10 25 -10 14 0 25 5 25 10 0 6 -11 10 -25 10 -14 0 -25 -4 -25 -10z"/>
<path d="M863 1443 c9 -2 23 -2 30 0 6 3 -1 5 -18 5 -16 0 -22 -2 -12 -5z"/>
<path d="M863 1333 c9 -2 23 -2 30 0 6 3 -1 5 -18 5 -16 0 -22 -2 -12 -5z"/>
<path d="M923 865 c-8 -23 2 -28 26 -13 17 11 23 10 37 -3 14 -15 13 -18 -15 -38 -64 -46 -26 -116 49 -90 24 9 28 14 19 25 -8 10 -16 11 -31 3 -21 -11 -48 -6 -48 10 0 5 16 18 35 30 38 22 45 50 19 75 -20 21 -83 21 -91 1z"/>
<path d="M1044 850 c7 -38 26 -65 26 -37 0 22 29 22 46 0 12 -17 13 -17 14 -1 0 9 -5 29 -11 45 -11 28 -11 28 -20 6 -4 -13 -11 -23 -13 -23 -3 0 -15 10 -27 23 l-22 22 7 -35z"/>
<path d="M1153 840 c6 -22 15 -40 19 -40 11 0 10 11 -3 49 -16 45 -28 38 -16 -9z"/>
<path d="M1194 863 c2 -10 7 -28 11 -40 8 -30 23 -29 37 2 12 27 28 24 28 -6 0 -10 5 -19 11 -19 6 0 8 8 5 18 -15 54 -18 62 -25 62 -4 0 -14 -12 -21 -27 l-13 -28 -11 28 c-11 29 -30 38 -22 10z"/>
<path d="M1298 875 c-3 -3 0 -21 6 -40 9 -30 15 -35 41 -34 l30 2 -30 4 -29 5 23 17 23 18 -22 -1 c-31 -1 -37 21 -8 27 22 4 22 4 -3 6 -14 0 -28 -1 -31 -4z"/>
<path d="M1083 771 c17 -6 17 -8 3 -20 -20 -17 -12 -31 17 -30 17 1 18 2 5 6 -20 5 -24 19 -6 25 17 6 0 28 -20 27 -15 0 -15 -1 1 -8z"/>
<path d="M1134 766 c-3 -8 -1 -23 5 -33 9 -15 10 -13 5 10 -5 20 -2 27 9 27 8 0 20 -12 25 -27 9 -23 11 -24 11 -7 2 37 -43 61 -55 30z"/>
<path d="M1205 760 c10 -34 21 -44 40 -36 21 8 14 30 -11 35 -10 2 -23 8 -27 15 -5 6 -5 0 -2 -14z m45 -20 c0 -5 -7 -10 -15 -10 -8 0 -15 5 -15 10 0 6 7 10 15 10 8 0 15 -4 15 -10z"/>
<path d="M1270 760 c0 -12 7 -20 18 -20 14 0 15 2 2 10 -13 9 -13 11 0 20 13 8 12 10 -2 10 -11 0 -18 -8 -18 -20z"/>
<path d="M1341 761 c-15 -9 -8 -41 8 -41 15 0 23 18 14 34 -5 10 -13 12 -22 7z m19 -21 c0 -5 -4 -10 -10 -10 -5 0 -10 5 -10 10 0 6 5 10 10 10 6 0 10 -4 10 -10z"/>
<path d="M1288 723 c6 -2 18 -2 25 0 6 3 1 5 -13 5 -14 0 -19 -2 -12 -5z"/>
<path d="M1083 680 c6 -22 37 -25 37 -3 0 15 -2 16 -10 3 -9 -13 -11 -13 -21 0 -9 13 -10 13 -6 0z"/>
<path d="M1130 680 c0 -7 3 -10 7 -7 3 4 3 10 0 14 -4 3 -7 0 -7 -7z"/>
<path d="M959 619 c-18 -18 -21 -30 -17 -95 4 -85 23 -118 82 -148 32 -16 44 -17 77 -7 41 12 54 25 44 41 -4 7 -14 5 -28 -5 -47 -33 -113 -12 -142 45 -23 44 -19 53 15 35 60 -31 123 -4 132 57 11 75 -109 131 -163 77z m105 -20 c35 -27 35 -71 0 -94 -35 -23 -80 -12 -99 25 -35 69 36 119 99 69z"/>
<path d="M1187 624 c-71 -39 -56 -165 27 -229 100 -76 178 -2 146 140 -20 90 -98 130 -173 89z m100 -21 c54 -30 83 -154 46 -195 -50 -56 -153 27 -153 124 0 45 14 68 50 81 23 9 27 8 57 -10z"/>
</g>
<g id="layer121" fill="#ffffff" stroke="none">
<path d="M0 1125 l0 -1125 1125 0 1125 0 0 1125 0 1125 -1125 0 -1125 0 0 -1125z m1179 1039 c58 -2 107 -7 110 -11 3 -5 22 -9 41 -10 19 -1 36 -6 38 -12 5 -14 32 -2 32 15 0 8 7 14 15 14 16 0 38 -34 28 -44 -3 -3 -2 -6 3 -6 6 0 15 5 20 10 7 7 18 -1 35 -22 l24 -33 3 -426 4 -426 -26 -20 c-14 -11 -48 -23 -76 -27 l-50 -7 13 -27 c11 -22 13 -122 12 -515 -2 -268 -6 -491 -9 -495 -10 -9 -445 -9 -478 1 l-28 7 0 499 c0 438 2 500 15 511 21 17 6 27 -58 35 -93 13 -88 -15 -85 476 l3 430 24 18 c17 13 20 20 11 23 -8 2 -10 9 -6 16 9 15 56 16 56 1 0 -5 -4 -7 -10 -4 -5 3 -10 1 -10 -5 0 -12 40 -4 50 10 8 11 126 31 144 24 9 -4 16 -1 16 6 0 8 7 9 18 5 9 -4 64 -9 121 -11z"/>
<path d="M1482 2055 c0 -40 17 -59 20 -21 0 14 1 31 2 38 1 6 -4 13 -10 15 -8 3 -12 -9 -12 -32z"/>
<path d="M775 2058 c-3 -13 -4 -38 -3 -56 3 -30 5 -32 28 -26 14 4 31 7 38 7 7 0 10 7 7 14 -3 8 -5 30 -5 49 0 31 -3 34 -30 34 -22 0 -31 -5 -35 -22z"/>
<path d="M1186 2054 c-3 -9 -6 -19 -6 -23 0 -11 48 -12 55 -1 3 6 15 10 26 10 11 0 19 7 19 18 0 14 -2 15 -10 2 -6 -10 -10 -11 -10 -2 0 18 -67 16 -74 -4z"/>
<path d="M1330 2010 l-25 -8 28 -1 c15 -1 27 4 27 9 0 6 -1 10 -2 9 -2 -1 -14 -5 -28 -9z"/>
<path d="M1173 2003 c9 -2 25 -2 35 0 9 3 1 5 -18 5 -19 0 -27 -2 -17 -5z"/>
<path d="M1278 2003 c7 -3 16 -2 19 1 4 3 -2 6 -13 5 -11 0 -14 -3 -6 -6z"/>
<path d="M983 1993 c4 -3 10 -3 14 0 3 4 0 7 -7 7 -7 0 -10 -3 -7 -7z"/>
<path d="M1490 1990 c0 -7 3 -10 7 -7 3 4 3 10 0 14 -4 3 -7 0 -7 -7z"/>
<path d="M883 1893 c4 -3 10 -3 14 0 3 4 0 7 -7 7 -7 0 -10 -3 -7 -7z"/>
<path d="M863 1773 c9 -2 23 -2 30 0 6 3 -1 5 -18 5 -16 0 -22 -2 -12 -5z"/>
<path d="M865 1700 c10 -11 20 -20 23 -20 3 0 -3 9 -13 20 -10 11 -20 20 -23 20 -3 0 3 -9 13 -20z"/>
<path d="M863 1643 c9 -2 23 -2 30 0 6 3 -1 5 -18 5 -16 0 -22 -2 -12 -5z"/>
<path d="M858 1443 c7 -3 16 -2 19 1 4 3 -2 6 -13 5 -11 0 -14 -3 -6 -6z"/>
<path d="M868 1333 c6 -2 18 -2 25 0 6 3 1 5 -13 5 -14 0 -19 -2 -12 -5z"/>
<path d="M976 872 c6 -4 16 -17 23 -29 10 -19 9 -23 -3 -23 -10 0 -13 -6 -10 -15 5 -11 11 -12 25 -4 20 10 26 39 8 39 -5 0 -8 4 -4 9 3 6 -3 15 -14 20 -22 12 -42 15 -25 3z"/>
<path d="M1046 855 c4 -16 11 -37 15 -45 6 -10 7 -4 3 15 -4 17 -11 37 -15 45 -6 10 -7 4 -3 -15z"/>
<path d="M1106 863 c4 -19 1 -23 -18 -24 -20 -1 -21 -2 -3 -6 11 -3 26 -12 33 -21 17 -23 16 4 -3 43 -10 19 -13 22 -9 8z"/>
<path d="M1156 850 c3 -19 10 -39 15 -44 13 -14 10 2 -7 44 l-14 35 6 -35z"/>
<path d="M1193 866 c4 -10 10 -29 13 -42 8 -31 21 -31 36 1 13 30 28 33 28 6 0 -11 4 -22 9 -25 5 -3 4 12 -1 34 -6 22 -13 40 -17 40 -3 0 -12 -14 -19 -30 -14 -32 -32 -32 -32 0 0 10 -5 22 -12 26 -8 5 -9 2 -5 -10z"/>
<path d="M1295 870 c-3 -5 -2 -10 4 -10 5 0 13 5 16 10 3 6 2 10 -4 10 -5 0 -13 -4 -16 -10z"/>
<path d="M1310 830 c0 -5 5 -10 11 -10 5 0 7 5 4 10 -3 6 -8 10 -11 10 -2 0 -4 -4 -4 -10z"/>
<path d="M1096 767 c3 -10 9 -15 12 -12 3 3 0 11 -7 18 -10 9 -11 8 -5 -6z"/>
<path d="M1135 769 c-11 -16 -1 -19 13 -3 7 8 8 14 3 14 -5 0 -13 -5 -16 -11z"/>
<path d="M1201 778 c-2 -17 20 -58 31 -58 9 0 8 3 -2 10 -13 9 -13 11 0 20 13 8 13 10 -2 10 -9 0 -19 6 -21 13 -3 6 -6 9 -6 5z"/>
<path d="M1270 760 c0 -7 3 -10 7 -7 3 4 3 10 0 14 -4 3 -7 0 -7 -7z"/>
<path d="M1016 739 c4 -7 0 -9 -14 -5 -11 4 -23 2 -27 -4 -7 -11 18 -13 52 -4 24 7 22 24 -3 24 -9 0 -12 -5 -8 -11z"/>
<path d="M1180 740 c0 -7 3 -10 7 -7 3 4 3 10 0 14 -4 3 -7 0 -7 -7z"/>
<path d="M1250 740 c0 -7 3 -10 7 -7 3 4 3 10 0 14 -4 3 -7 0 -7 -7z"/>
<path d="M1036 675 c4 -8 8 -15 10 -15 2 0 4 7 4 15 0 8 -4 15 -10 15 -5 0 -7 -7 -4 -15z"/>
<path d="M1180 670 c0 -6 7 -10 15 -10 8 0 15 2 15 4 0 2 -7 6 -15 10 -8 3 -15 1 -15 -4z"/>
<path d="M982 631 c-9 -5 2 -10 32 -13 54 -6 84 -36 78 -77 -5 -37 -53 -59 -96 -43 -26 10 -28 10 -16 -3 8 -8 32 -16 53 -18 48 -5 83 20 89 65 10 63 -86 124 -140 89z"/>
<path d="M1195 624 c-42 -21 -44 -25 -51 -71 -9 -68 46 -158 112 -183 56 -22 61 -3 7 28 -57 32 -76 60 -81 119 -3 40 0 57 14 75 21 26 84 38 84 16 0 -10 3 -9 9 2 6 8 7 18 5 22 -9 13 -67 9 -99 -8z"/>
<path d="M1361 474 c0 -11 3 -14 6 -6 3 7 2 16 -1 19 -3 4 -6 -2 -5 -13z"/>
<path d="M1120 405 c-14 -17 -75 -20 -114 -5 -40 15 -31 3 16 -21 36 -18 46 -20 79 -10 42 13 56 28 42 42 -6 6 -15 4 -23 -6z"/>
</g>


</svg>